<svg xmlns="http://www.w3.org/2000/svg" width="28.174" height="28.174" viewBox="0 0 28.174 28.174">
  <path id="icons8-cancel" d="M18.087,4A14.087,14.087,0,1,0,32.174,18.087,14.1,14.1,0,0,0,18.087,4Zm0,2.113A11.974,11.974,0,1,1,6.113,18.087,11.958,11.958,0,0,1,18.087,6.113Zm4.569,6.324a1.057,1.057,0,0,0-.737.325l-3.831,3.831-3.831-3.831a1.057,1.057,0,1,0-1.494,1.494l3.831,3.831-3.831,3.831a1.057,1.057,0,1,0,1.494,1.494l3.831-3.831,3.831,3.831a1.057,1.057,0,1,0,1.494-1.494l-3.831-3.831,3.831-3.831a1.057,1.057,0,0,0-.757-1.819Z" transform="translate(-4 -4)" fill="#ff3c3c"/>
</svg>
