<svg xmlns="http://www.w3.org/2000/svg" width="27.377" height="25.313" viewBox="0 0 27.377 25.313">
  <path id="icons8-high_risk" d="M17.709,5.053A3.052,3.052,0,0,0,15,6.612L4.4,25.772A3.127,3.127,0,0,0,7.1,30.366H28.316a3.127,3.127,0,0,0,2.706-4.594L20.415,6.612A3.052,3.052,0,0,0,17.709,5.053Zm0,1.984a1.039,1.039,0,0,1,.907.57L29.223,26.768a1.01,1.01,0,0,1-.907,1.543H7.1A1.01,1.01,0,0,1,6.2,26.768L16.8,7.607A1.039,1.039,0,0,1,17.709,7.037Zm-.016,5.5a1.028,1.028,0,0,0-1.012,1.042v6.851a1.028,1.028,0,1,0,2.055,0V13.581a1.028,1.028,0,0,0-1.044-1.042Zm.016,10.977a1.37,1.37,0,1,0,1.37,1.37A1.37,1.37,0,0,0,17.709,23.515Z" transform="translate(-4.021 -5.053)" fill="#ff3c3c"/>
</svg>
