<svg width="16" height="16" viewBox="0 0 16 16" fill="none" xmlns="http://www.w3.org/2000/svg">
<g id="Document 3" clip-path="url(#clip0_3410_1154)">
<g id="surface2599">
<path id="Vector" d="M3.51961 0C2.46461 0 1.59961 0.901042 1.59961 2V14C1.59961 15.099 2.46461 16 3.51961 16H12.4796C13.5346 16 14.3996 15.099 14.3996 14V4.39062L10.1846 0H3.51961ZM3.51961 1.33333H9.27961V5.33333H13.1196V14C13.1196 14.375 12.8396 14.6667 12.4796 14.6667H3.51961C3.15961 14.6667 2.87961 14.375 2.87961 14V2C2.87961 1.625 3.15961 1.33333 3.51961 1.33333ZM10.5596 2.27604L12.2146 4H10.5596V2.27604ZM5.43961 8V9.33333H10.5596V8H5.43961ZM5.43961 10.6667V12H9.27961V10.6667H5.43961Z" fill="#A7A7BA"/>
</g>
</g>
<defs>
<clipPath id="clip0_3410_1154">
<rect width="16" height="16" fill="white"/>
</clipPath>
</defs>
</svg>
