<svg width="22" height="22" viewBox="0 0 22 22" fill="none" xmlns="http://www.w3.org/2000/svg">
<g id="image">
<g id="surface3046">
<path id="Exclude" fill-rule="evenodd" clip-rule="evenodd" d="M3.43848 3.9375C2.9555 3.9375 2.56348 4.32953 2.56348 4.8125V14.0543L7.61328 8.37183L11.7454 12.7332L14.431 9.71818L19.4385 15.002V4.8125C19.4385 4.32953 19.0464 3.9375 18.5635 3.9375H3.43848ZM1.56348 17.1875V15.1973L1.55469 15.1895L1.56348 15.1796V4.8125C1.56348 3.77724 2.40322 2.9375 3.43848 2.9375H18.5635C19.5987 2.9375 20.4385 3.77724 20.4385 4.8125V17.1875C20.4385 18.2228 19.5987 19.0625 18.5635 19.0625H3.43848C2.40322 19.0625 1.56348 18.2228 1.56348 17.1875ZM2.58594 16.099L2.56348 16.0792V17.1875C2.56348 17.6705 2.9555 18.0625 3.43848 18.0625H14.9015L7.64193 10.4057L2.58594 16.099ZM18.5635 18.0625H16.7927L12.6979 13.7358L14.4596 11.7449L19.4385 17.0019V17.1875C19.4385 17.6705 19.0464 18.0625 18.5635 18.0625ZM15.126 8.25C15.8851 8.25 16.501 7.63411 16.501 6.875C16.501 6.11589 15.8851 5.5 15.126 5.5C14.3669 5.5 13.751 6.11589 13.751 6.875C13.751 7.63411 14.3669 8.25 15.126 8.25Z" fill="#A7A7BA"/>
</g>
</g>
</svg>
