<svg width="22" height="22" viewBox="0 0 22 22" fill="none" xmlns="http://www.w3.org/2000/svg">
<g id="Microphone 1">
<g id="surface57351">
<path id="Vector" d="M11.0001 0.916992C8.72989 0.916992 6.87508 2.77181 6.87508 5.04199V11.917C6.87508 14.1872 8.72989 16.042 11.0001 16.042C13.2703 16.042 15.1251 14.1872 15.1251 11.917V5.04199C15.1251 2.77181 13.2703 0.916992 11.0001 0.916992ZM11.0001 2.29199C12.5271 2.29199 13.7501 3.51501 13.7501 5.04199V11.917C13.7501 13.444 12.5271 14.667 11.0001 14.667C9.47309 14.667 8.25008 13.444 8.25008 11.917V5.04199C8.25008 3.51501 9.47309 2.29199 11.0001 2.29199ZM4.80144 9.61578C4.42267 9.62135 4.11951 9.93327 4.12508 10.3128V11.917C4.12508 15.4738 6.84484 18.4108 10.3126 18.757V20.8545C10.3094 21.1028 10.4391 21.3327 10.6531 21.4576C10.868 21.5834 11.1322 21.5834 11.347 21.4576C11.5611 21.3327 11.6908 21.1028 11.6876 20.8545V18.757C15.1553 18.4108 17.8751 15.4738 17.8751 11.917V10.3128C17.8783 10.0646 17.7486 9.8346 17.5345 9.70967C17.3197 9.58395 17.0555 9.58395 16.8406 9.70967C16.6266 9.8346 16.4969 10.0646 16.5001 10.3128V11.917C16.5001 14.9351 14.0891 17.3685 11.0812 17.4122C11.051 17.409 11.02 17.4066 10.9889 17.4074C10.9643 17.4074 10.9388 17.409 10.9141 17.4122C7.90871 17.3661 5.50008 14.9336 5.50008 11.917V10.3128C5.50246 10.1266 5.43005 9.94759 5.29876 9.8163C5.16667 9.685 4.98763 9.61259 4.80144 9.61578Z" fill="#A7A7BA"/>
</g>
</g>
</svg>
