<svg width="22" height="22" viewBox="0 0 22 22" fill="none" xmlns="http://www.w3.org/2000/svg">
<g id="icons8-play 2">
<path id="Vector" d="M5.22306 1.88439C4.17243 1.92595 3.20801 2.78311 3.20801 3.93794V18.0621C3.20801 19.6019 4.92344 20.6122 6.27043 19.8659L19.016 12.8038C20.4018 12.036 20.4018 9.96408 19.016 9.19624L6.27043 2.13414C5.93368 1.94759 5.57327 1.87053 5.22306 1.88439ZM5.23918 3.2388C5.3577 3.23829 5.48193 3.26902 5.60352 3.33637L18.35 10.3985C18.8535 10.6775 18.8535 11.3226 18.35 11.6016L5.60352 18.6637C5.11717 18.9331 4.58301 18.6179 4.58301 18.0621V3.93794C4.58301 3.66007 4.71625 3.44285 4.91064 3.32832C5.00784 3.27105 5.12065 3.23931 5.23918 3.2388Z" fill="#F0F0F0" stroke="#F0F0F0" stroke-width="0.5"/>
</g>
</svg>
