<svg height="31.884" width="31.652" xmlns="http://www.w3.org/2000/svg"><path d="M19.452 25.786a6.11 6.11 0 0 1 6.107-6.1 6.1 6.1 0 0 1 6.094 6.1 6.1 6.1 0 0 1-6.094 6.1 6.109 6.109 0 0 1-6.107-6.1zm3.174-.264v.533a.267.267 0 0 0 .268.266h2.128v2.129a.267.267 0 0 0 .268.266h.53a.267.267 0 0 0 .268-.266v-2.129h2.128a.267.267 0 0 0 .267-.266v-.532a.268.268 0 0 0-.267-.267h-2.128v-2.128a.269.269 0 0 0-.268-.267h-.53a.269.269 0 0 0-.268.267v2.128h-2.127a.269.269 0 0 0-.269.267zm-5.333 2.394H9.821a3.431 3.431 0 0 1-2.4-.973 3.439 3.439 0 0 1-1.051-2.376v-4.2H3.188a3.221 3.221 0 0 1-2.276-.986 3.218 3.218 0 0 1-.912-2.3V.004l4.6 4.831h15.676a3.24 3.24 0 0 1 3.185 3.281v5.386h.9l5.04-4.833v9.879a8.489 8.489 0 0 0-2-.7v-4.49l-2.236 2.144H9.824a1.45 1.45 0 0 0-1.453 1.4v7.624a1.451 1.451 0 0 0 1.453 1.4h7.293v.241a8.583 8.583 0 0 0 .182 1.759z" fill="#fff"/></svg>