<?xml version="1.0" encoding="utf-8"?>
<!-- Generator: Adobe Illustrator 27.1.0, SVG Export Plug-In . SVG Version: 6.00 Build 0)  -->
<svg version="1.1" baseProfile="tiny" id="Layer_1" xmlns="http://www.w3.org/2000/svg" xmlns:xlink="http://www.w3.org/1999/xlink"
	 x="0px" y="0px" viewBox="0 0 39 39" overflow="visible" xml:space="preserve">
<path fill="#85858F" d="M19.5,39c-2.6,0-5.2-0.5-7.6-1.5c-2.3-1-4.4-2.4-6.2-4.2c-1.8-1.8-3.2-3.9-4.2-6.2c-1-2.4-1.5-5-1.5-7.6
	c0-2.6,0.5-5.2,1.5-7.6c1-2.3,2.4-4.4,4.2-6.2c1.8-1.8,3.9-3.2,6.2-4.2c2.4-1,5-1.5,7.6-1.5c2.6,0,5.2,0.5,7.6,1.5
	c2.3,1,4.4,2.4,6.2,4.2c1.8,1.8,3.2,3.9,4.2,6.2c1,2.4,1.5,5,1.5,7.6c0,2.6-0.5,5.2-1.5,7.6c-1,2.3-2.4,4.4-4.2,6.2
	c-1.8,1.8-3.9,3.2-6.2,4.2C24.7,38.5,22.1,39,19.5,39z M10.1,12.9L10.1,12.9l0,6.9l0,0.5v8.8c0,1.2,1,2.2,2.2,2.2h9.3
	c1.2,0,2.2-1,2.2-2.2v-3h3c1.2,0,2.2-1,2.2-2.2v-8.8l0-0.5l0-6.9l-3.4,4.9h-8.1c-1.2,0-2.2,1-2.2,2.2v9.1c0,1.2,1,2.2,2.2,2.2h3.3
	v1.1c0,0.6-0.5,1.2-1.2,1.2h-5.4c-0.6,0-1.2-0.5-1.2-1.2v-5.3c0-0.6,0.5-1.2,1.2-1.2h1.1v-2.9h-1.9L10.1,12.9L10.1,12.9z M24.8,23.2
	h-1.1V20c0-1.2-1-2.2-2.2-2.2h-3.3v-1.1c0-0.6,0.5-1.2,1.2-1.2h5.4c0.6,0,1.2,0.5,1.2,1.2V22c0,0.4-0.2,0.8-0.6,1
	C25.2,23.1,25,23.2,24.8,23.2L24.8,23.2z M20.7,23.2h-1.3c0,0-0.1,0-0.1,0h0.1c-0.6,0-1.1-0.5-1.1-1.2v-1.2h1.3
	c0.6,0,1.2,0.5,1.2,1.2L20.7,23.2L20.7,23.2z"/>
</svg>
