<svg xmlns="http://www.w3.org/2000/svg" width="25.539" height="25.539" viewBox="0 0 25.539 25.539">
  <path id="beldex_send" d="M-7771.23-15288.461a12.668,12.668,0,0,1-4.972-1,12.716,12.716,0,0,1-4.057-2.739,12.579,12.579,0,0,1-2.737-4.061,12.647,12.647,0,0,1-1-4.97,12.65,12.65,0,0,1,1-4.964,12.692,12.692,0,0,1,2.737-4.063,12.761,12.761,0,0,1,4.057-2.738,12.755,12.755,0,0,1,4.972-1,12.756,12.756,0,0,1,4.97,1,12.785,12.785,0,0,1,4.059,2.738,12.708,12.708,0,0,1,2.737,4.063,12.632,12.632,0,0,1,1,4.964,12.629,12.629,0,0,1-1,4.97,12.674,12.674,0,0,1-2.737,4.061,12.74,12.74,0,0,1-4.059,2.739A12.669,12.669,0,0,1-7771.23-15288.461Zm-6.183-17.08h0l.016,4.506-.006.324v5.756a1.437,1.437,0,0,0,1.436,1.431h6.062a1.434,1.434,0,0,0,1.432-1.431v-1.961h1.97a1.439,1.439,0,0,0,1.437-1.433v-5.764l-.006-.32.022-4.506-2.195,3.218h-5.307a1.439,1.439,0,0,0-1.433,1.438v5.935a1.439,1.439,0,0,0,1.433,1.433h2.139v.722a.763.763,0,0,1-.764.764h-3.532a.764.764,0,0,1-.765-.764v-3.462a.762.762,0,0,1,.765-.754h.719v-1.906h-1.229l-2.194-3.225Zm9.65,6.718h-.711v-2.062a1.437,1.437,0,0,0-1.434-1.431h-2.149v-.734a.765.765,0,0,1,.765-.762h3.53a.763.763,0,0,1,.761.762v3.464a.76.76,0,0,1-.416.679A.7.7,0,0,1-7767.763-15298.823Zm-2.651,0h-.879a.274.274,0,0,1-.079-.008h.054a.758.758,0,0,1-.74-.763v-.816h.879a.761.761,0,0,1,.764.754v.833Z" transform="translate(7784 15314)" fill="#fff"/>
</svg>
