<svg xmlns="http://www.w3.org/2000/svg" xmlns:xlink="http://www.w3.org/1999/xlink" width="178.988" height="142.991" viewBox="0 0 178.988 142.991">
  <defs>
    <clipPath id="clip-path">
      <rect id="Rectangle_440" data-name="Rectangle 440" width="19.028" height="24.975" fill="#c7c8cd"/>
    </clipPath>
    <clipPath id="clip-path-2">
      <rect id="Rectangle_441" data-name="Rectangle 441" width="20.572" height="25.329" fill="#c7c8cd"/>
    </clipPath>
  </defs>
  <g id="Password_image" transform="translate(-1097.458 -376.324)" opacity="0.5">
    <g id="Group_1116" data-name="Group 1116" transform="translate(1065.394 409.027)">
      <g id="Group_1195" data-name="Group 1195">
        <path id="Path_4715" data-name="Path 4715" d="M136.054,198.474c38.821-25.593,45.765-46.278,50.755-63.4S194.7,75.093,150.38,71.763s-67.372,35.057-80.307,31.887C45.13,97.536,23.551,132.17,43.949,155.99S97.232,224.066,136.054,198.474Z" transform="translate(-2.77 -96.881)" fill="none" stroke="#7d7e89" stroke-width="2" stroke-dasharray="7 8"/>
      </g>
    </g>
    <g id="Group_1144" data-name="Group 1144" transform="translate(1118.881 386.053)">
      <g id="Group_1194" data-name="Group 1194">
        <path id="Path_4775" data-name="Path 4775" d="M969.135,713.286H852.515a7.809,7.809,0,0,1-7.809-7.809V633.319a7.809,7.809,0,0,1,7.809-7.809h116.62a7.809,7.809,0,0,1,7.809,7.809v72.158a7.809,7.809,0,0,1-7.809,7.809" transform="translate(-844.706 -599.202)" fill="#a9aab2"/>
        <path id="Path_4776" data-name="Path 4776" d="M919.994,569.431a21.891,21.891,0,1,0,24.437,19.008,21.891,21.891,0,0,0-24.437-19.008" transform="translate(-881.387 -570.382)" fill="#abacb9"/>
        <path id="Path_4779" data-name="Path 4779" d="M985.884,603.091a21.891,21.891,0,1,0,24.437,19.008,21.892,21.892,0,0,0-24.437-19.008" transform="translate(-913.982 -588.374)" fill="#abacb9"/>
        <g id="Group_1163" data-name="Group 1163" transform="translate(19.341 -1.208)">
          <g id="Group_1162" data-name="Group 1162">
            <g id="Group_1218" data-name="Group 1218">
              <path id="Path_4796" data-name="Path 4796" d="M1796.791,456.838a18.793,18.793,0,1,0,20.976,16.316,18.815,18.815,0,0,0-20.976-16.316m10.787,14.545v7.685a1.917,1.917,0,0,1-1.917,1.913h-2.624V483.6a1.913,1.913,0,0,1-1.91,1.913h-8.085a1.917,1.917,0,0,1-1.916-1.913V475.92l.01-.43-.02-6.005,0,0,2.928,4.293h1.635v2.544h-.961a1.016,1.016,0,0,0-1.02,1.01v4.616a1.02,1.02,0,0,0,1.02,1.017h4.709a1.02,1.02,0,0,0,1.02-1.017v-.967H1797.6a1.914,1.914,0,0,1-1.91-1.913v-7.911a1.914,1.914,0,0,1,1.91-1.913h7.078l2.928-4.293-.031,6.005Z" transform="translate(-1777.151 -453.292)" fill="#c7c8cd"/>
              <path id="Path_4797" data-name="Path 4797" d="M1881.406,566.075h-1.171v1.091a1.011,1.011,0,0,0,.984,1.019h-.071a.525.525,0,0,0,.1.007h1.174v-1.107a1.016,1.016,0,0,0-1.02-1.01" transform="translate(-1859.128 -543.043)" fill="#c7c8cd"/>
              <path id="Path_4798" data-name="Path 4798" d="M1885.964,540.786h-4.709a1.02,1.02,0,0,0-1.018,1.02v.974h2.863a1.921,1.921,0,0,1,1.916,1.91v2.752h.947l0,0a1.006,1.006,0,0,0,.458-.113,1.02,1.02,0,0,0,.557-.9v-4.623a1.021,1.021,0,0,0-1.018-1.02" transform="translate(-1859.13 -522.293)" fill="#c7c8cd"/>
              <path id="Path_4799" data-name="Path 4799" d="M1806.346,456.967a21.934,21.934,0,1,0-19.045,24.485,21.934,21.934,0,0,0,19.045-24.485m-19.254,22.806a19.984,19.984,0,1,1,17.35-22.309,20.009,20.009,0,0,1-17.35,22.309" transform="translate(-1762.644 -437.75)" fill="#c7c8cd"/>
            </g>
          </g>
        </g>
        <path id="Path_4780" data-name="Path 4780" d="M981.5,603.639a21.891,21.891,0,1,0,24.436,19.008A21.891,21.891,0,0,0,981.5,603.639" transform="translate(-911.493 -588.685)" fill="#c7c8cd"/>
        <path id="Path_4781" data-name="Path 4781" d="M989.32,648.3a19.944,19.944,0,1,1,17.316-22.265A19.97,19.97,0,0,1,989.32,648.3m-4.8-38.4a18.756,18.756,0,1,0,20.935,16.284A18.778,18.778,0,0,0,984.521,609.9" transform="translate(-914.093 -591.582)" fill="#abacb9"/>
        <path id="Path_4782" data-name="Path 4782" d="M960.492,729.167H852.515a7.808,7.808,0,0,1-7.808-7.809V649.2a7.809,7.809,0,0,1,7.808-7.809H960.492A7.809,7.809,0,0,1,968.3,649.2v72.158a7.809,7.809,0,0,1-7.809,7.809" transform="translate(-844.706 -610.22)" fill="#c7c8cd"/>
        <path id="Path_4783" data-name="Path 4783" d="M1073.051,739.183H1034.7a11.992,11.992,0,1,1,0-23.984h38.354Z" transform="translate(-945.782 -652.131)" fill="#a9aab2"/>
        <path id="Path_4784" data-name="Path 4784" d="M1047.5,730.6a9.4,9.4,0,1,1-9.4-9.4,9.4,9.4,0,0,1,9.4,9.4" transform="translate(-949.189 -655.538)" fill="#c7c8cd"/>
      </g>
    </g>
    <g id="Group_1157" data-name="Group 1157" transform="translate(1104.172 376.324)">
      <g id="Group_1156" data-name="Group 1156">
        <g id="Group_1155" data-name="Group 1155" clip-path="url(#clip-path)">
          <path id="Path_4794" data-name="Path 4794" d="M233.677,844.5a7.12,7.12,0,0,0-7.136,7.1v1.22a2.386,2.386,0,0,0-2.378,2.378V867.1a2.386,2.386,0,0,0,2.378,2.378h14.271a2.386,2.386,0,0,0,2.378-2.378V855.207a2.386,2.386,0,0,0-2.378-2.378v-1.19a7.12,7.12,0,0,0-7.1-7.135h-.031m0,2.378a4.658,4.658,0,0,1,4.757,4.557q0,.1,0,.2v1.19H228.92v-1.19a4.658,4.658,0,0,1,4.557-4.757q.1,0,.2,0m0,11.893a2.378,2.378,0,1,1-2.378,2.379,2.378,2.378,0,0,1,2.378-2.379" transform="translate(-224.163 -844.504)" fill="#c7c8cd"/>
        </g>
      </g>
    </g>
    <g id="Group_1159" data-name="Group 1159" transform="translate(1255.874 462.705)">
      <g id="Group_1158" data-name="Group 1158" clip-path="url(#clip-path-2)">
        <path id="Path_4795" data-name="Path 4795" d="M1404.067,660.105a1.524,1.524,0,0,0-.511.089l-9.283,3.469a.719.719,0,0,0-.479.67v3.612a20.049,20.049,0,0,0,9.928,17.392.675.675,0,0,0,.359.1.622.622,0,0,0,.359-.1,20.049,20.049,0,0,0,9.928-17.392v-3.612a.7.7,0,0,0-.479-.67l-9.33-3.469a1.376,1.376,0,0,0-.493-.089m.006,1.555a1.525,1.525,0,0,1,.511.09l8.349,3.086v3.11a18.628,18.628,0,0,1-8.852,15.933,18.628,18.628,0,0,1-8.852-15.933v-3.11l8.349-3.086a1.377,1.377,0,0,1,.493-.09m.787,2.538a.7.7,0,0,0-.778.71v14.881a.71.71,0,0,0,1.2.5,16.412,16.412,0,0,0,5.5-12.344v-1.1a.7.7,0,0,0-.479-.67l-5.263-1.938a.762.762,0,0,0-.178-.04" transform="translate(-1393.796 -660.105)" fill="#c7c8cd"/>
      </g>
    </g>
  </g>
</svg>
