<svg xmlns="http://www.w3.org/2000/svg" width="117.576" height="113.902" viewBox="0 0 117.576 113.902">
  <path id="icons8-add_user_group_man_man" d="M47.765,2c-4.047,0-9.832,1.263-13.427,3.689C27.5,5.94,22.821,10.741,22.053,18.355A42.64,42.64,0,0,0,22.3,28.646a13.138,13.138,0,0,1,.172,1.909c-.057.344-.115.689-.165,1.033a3.712,3.712,0,0,0-.8.122c-3.028.811-4.3,5.239-2.942,10.3.983,3.667,3.043,6.423,5.3,7.27a42.57,42.57,0,0,0,4.995,10.284l-16.936,9.81A23.936,23.936,0,0,0,0,90.031v13.011a5.522,5.522,0,0,0,5.511,5.511H76.5a23.862,23.862,0,1,0,24.952-39.1L85.484,59.123a31.4,31.4,0,0,0,5.6-10.075c1.744-.761,3.28-2.842,4.026-5.662a10.624,10.624,0,0,0,.251-4.794,4.139,4.139,0,0,0-2.777-3.459,1.86,1.86,0,0,0-.3-.065,21.232,21.232,0,0,0-1-3.825,9,9,0,0,1,1,.323,1.815,1.815,0,0,0,1.88-.287,1.834,1.834,0,0,0,.624-1.8c-2.261-10.341-9.939-16.513-20.531-16.513H72.882c-.28,0-.588.022-.883.043C67.148,5.976,59.319,2,49.6,2Zm0,3.674H49.6c11.152,0,19.2,5.7,22.5,15.766a4.206,4.206,0,0,0-3.48.883c-.7.667-1.363,1.952-.531,4.22a22.3,22.3,0,0,1,1.658,7.485,1.831,1.831,0,0,0,2.835,1.45,1.1,1.1,0,0,1,.5-.215c.445.151,1.249,2.39.337,5.8-.9,3.38-2.641,4.808-3.179,4.808a1.807,1.807,0,0,0-1.758,1.313c-3.1,10.413-11.2,20.955-20.718,20.955S30.148,57.595,27.047,47.182a1.832,1.832,0,0,0-1.758-1.313c-.538,0-2.275-1.428-3.179-4.808-.919-3.437-.093-5.684.33-5.8a1.039,1.039,0,0,1,.5.215,1.863,1.863,0,0,0,1.844.1,1.843,1.843,0,0,0,1-1.55,21.542,21.542,0,0,1,.309-2.835,10.606,10.606,0,0,0-.144-3.014,38.721,38.721,0,0,1-.23-9.458c.581-5.863,4.019-9.372,9.222-9.372a1.857,1.857,0,0,0,1.105-.366C38.558,7.1,43.6,5.674,47.765,5.674ZM74.124,16.64h.129c7.851,0,13.585,3.89,16.111,10.793a3.216,3.216,0,0,0-2.246.811c-.632.6-1.227,1.722-.51,3.646a16.261,16.261,0,0,1,1.206,5.447,1.828,1.828,0,0,0,1,1.55,1.851,1.851,0,0,0,1.8-.079,6.047,6.047,0,0,1-.05,3.631c-.567,2.1-1.622,3.158-1.916,3.244h-.007A1.83,1.83,0,0,0,87.881,47a25.7,25.7,0,0,1-8.167,12.68,1.833,1.833,0,0,0-.33,2.576,1.814,1.814,0,0,0,1.45.718,1.84,1.84,0,0,0,1.127-.38c.309-.244.61-.517.911-.775l9.853,6.373a23.706,23.706,0,0,0-8.21,1.787c-.309-.194-.581-.423-.9-.6l-16.936-9.81a42.837,42.837,0,0,0,4.995-10.284c2.246-.847,4.313-3.6,5.289-7.27,1.356-5.059.093-9.487-2.935-10.3a4.125,4.125,0,0,0-.8-.122,27.416,27.416,0,0,0-1.686-6.315q-.032-.108-.065-.194a9.747,9.747,0,0,1,2.533.66,1.833,1.833,0,0,0,2.5-2.088A31.728,31.728,0,0,0,74.124,16.64Zm-36.412.287a3.66,3.66,0,0,0-3.387,1.636l-2.949,4.471a1.84,1.84,0,0,0,.524,2.548,1.8,1.8,0,0,0,1,.3,1.841,1.841,0,0,0,1.543-.825l2.942-4.471,2.871,1.4a38.838,38.838,0,0,0,16.9,3.9h4.693a1.837,1.837,0,1,0,0-3.674H57.159a35.022,35.022,0,0,1-15.285-3.531L39,17.278A3.653,3.653,0,0,0,37.711,16.927ZM31.059,62.518c4.471,5.454,10.284,9.293,16.706,9.293S60,67.979,64.472,62.525l16.3,9.437A23.789,23.789,0,0,0,73.6,104.879H5.511a1.841,1.841,0,0,1-1.837-1.837V90.031A20.268,20.268,0,0,1,13.757,72.543Zm62.635,9.293A20.208,20.208,0,1,1,73.485,92.019,20.229,20.229,0,0,1,93.694,71.811Zm-60.51,0a1.84,1.84,0,0,0-.94,3.48l14.7,7.349a1.88,1.88,0,0,0,.825.194,1.858,1.858,0,0,0,.825-.194l14.7-7.349A1.839,1.839,0,1,0,61.637,72L47.765,78.944,33.894,72A1.984,1.984,0,0,0,33.183,71.811Zm60.51,7.349A1.841,1.841,0,0,0,91.856,81v9.186H82.671a1.837,1.837,0,0,0,0,3.674h9.186v9.186a1.837,1.837,0,1,0,3.674,0V93.856h9.186a1.837,1.837,0,0,0,0-3.674H95.531V81A1.841,1.841,0,0,0,93.694,79.159Zm-82.671,14.7a1.841,1.841,0,0,0-1.837,1.837v3.674a1.837,1.837,0,0,0,3.674,0V95.694A1.841,1.841,0,0,0,11.023,93.856Zm9.186,0a1.841,1.841,0,0,0-1.837,1.837v3.674a1.837,1.837,0,1,0,3.674,0V95.694A1.841,1.841,0,0,0,20.208,93.856Zm9.186,0a1.841,1.841,0,0,0-1.837,1.837v3.674a1.837,1.837,0,0,0,3.674,0V95.694A1.841,1.841,0,0,0,29.394,93.856Zm9.186,0a1.841,1.841,0,0,0-1.837,1.837v3.674a1.837,1.837,0,1,0,3.674,0V95.694A1.841,1.841,0,0,0,38.58,93.856Zm9.186,0a1.841,1.841,0,0,0-1.837,1.837v3.674a1.837,1.837,0,1,0,3.674,0V95.694A1.841,1.841,0,0,0,47.765,93.856Zm9.186,0a1.841,1.841,0,0,0-1.837,1.837v3.674a1.837,1.837,0,1,0,3.674,0V95.694A1.841,1.841,0,0,0,56.951,93.856Zm9.186,0A1.841,1.841,0,0,0,64.3,95.694v3.674a1.837,1.837,0,1,0,3.674,0V95.694A1.841,1.841,0,0,0,66.137,93.856Z" transform="translate(0 -2)" fill="#4e4e5f"/>
</svg>
