<svg xmlns="http://www.w3.org/2000/svg" width="18.07" height="18.07" viewBox="0 0 18.07 18.07">
  <path id="appearance" d="M9.228,2A2.708,2.708,0,0,0,6.683,3.807H2.9a.9.9,0,1,0,0,1.807h3.78A2.706,2.706,0,1,0,9.228,2Zm5.421,1.807a.9.9,0,1,0,0,1.807h4.518a.9.9,0,1,0,0-1.807Zm-.9,4.518A2.708,2.708,0,0,0,11.2,10.132H2.9a.9.9,0,1,0,0,1.807h8.3a2.706,2.706,0,1,0,2.545-3.614Zm5.421,1.807a.9.9,0,1,0,.9.9.9.9,0,0,0-.9-.9ZM6.518,14.649a2.708,2.708,0,0,0-2.545,1.807H2.9a.9.9,0,1,0,0,1.807H3.973a2.706,2.706,0,1,0,2.545-3.614Zm5.421,1.807a.9.9,0,1,0,0,1.807h7.228a.9.9,0,1,0,0-1.807Z" transform="translate(-2 -2)" fill="#d1d1d3"/>
</svg>
