<?xml version="1.0" encoding="UTF-8"?><svg xmlns="http://www.w3.org/2000/svg" viewBox="0 0 643.93 101.14"><defs><style>.d{fill:#00dc00;}.e{fill:#0094ff;}</style></defs><g id="a"/><g id="b"><g id="c"><g><path class="d" d="M28.62,80.44v20.7H0V4.17C0,1.39,1.34,0,4.03,0H87.11c9.45,0,16.25,2.11,20.42,6.32,4.17,4.22,6.25,10.17,6.25,17.85v8.89c0,4.08-.83,7.36-2.5,9.86-1.67,2.5-3.57,4.49-5.7,5.97,2.96,1.48,5.42,3.66,7.36,6.53,1.94,2.87,2.92,6.44,2.92,10.7v8.89c0,8.52-2.01,15-6.04,19.45-4.03,4.45-10.95,6.67-20.77,6.67H37.51l-7.92-20.7h-.97Zm2.36-57.93c-1.58,0-2.36,.79-2.36,2.36v17.09h48.07c3.15,0,5.37-.6,6.67-1.81,1.3-1.2,1.94-3.29,1.94-6.25v-3.06c0-3.06-.65-5.21-1.94-6.46-1.3-1.25-3.52-1.88-6.67-1.88H30.98Zm-2.36,35.84v19.03h49.74c2.5,0,4.33-.6,5.49-1.81,1.16-1.2,1.74-3.29,1.74-6.25v-2.92c0-2.96-.53-5.05-1.6-6.25-1.07-1.2-2.94-1.81-5.63-1.81H28.62Z"/><path class="e" d="M219.23,40.29h-1.11v-13.62c0-.92-.42-1.39-1.25-1.39h-48.35c-5.56,0-9.47,1.16-11.74,3.47-2.27,2.32-3.4,6.58-3.4,12.78v16.95c0,6.02,1.11,10.26,3.33,12.71,2.22,2.46,6.16,3.68,11.81,3.68h75.72v26.26h-78.22c-7.5,0-13.89-.95-19.17-2.85-5.28-1.9-9.54-4.58-12.78-8.06-3.24-3.47-5.6-7.69-7.09-12.64-1.48-4.95-2.22-10.49-2.22-16.6v-20.84c0-6.11,.74-11.65,2.22-16.6,1.48-4.95,3.84-9.17,7.09-12.64,3.24-3.47,7.5-6.16,12.78-8.06,5.28-1.9,11.67-2.85,19.17-2.85h75.72c2.69,0,4.03,1.39,4.03,4.17V30.43l-26.54,9.86Z"/><path class="e" d="M286.61,40.29h-.97v60.85h-28.62V0h28.62V37.51h67.52V0h28.76V101.14h-28.76V62.24h-58.07l-8.47-21.95Z"/><path class="e" d="M423.31,101.14h-33.07v-1.11L440.96,3.33c.65-1.3,1.3-2.17,1.94-2.64,.65-.46,1.76-.69,3.33-.69h34.87c1.57,0,2.71,.23,3.4,.69,.69,.46,1.41,1.34,2.15,2.64l50.29,96.69v1.11h-86.55l-8.34-21.95v-2.78h36.05c2.17,0,4.1,.02,5.77,.07,1.67,.05,3.15,.12,4.45,.21,1.3,.09,2.55,.19,3.75,.28l.42-.97c-.56-1.02-1.14-2.01-1.74-2.99-.6-.97-1.27-2.15-2.01-3.54-.74-1.39-1.62-3.06-2.64-5-1.02-1.94-2.27-4.4-3.75-7.36l-15.98-31.95c-.37-.65-1.02-.97-1.95-.97h-1.67c-.83,0-1.44,.33-1.81,.97l-37.65,75.99Z"/><path class="e" d="M585.72,25.28V101.14h-28.62V25.28h-41.96l-9.31-24.17V0h134.07c2.68,0,4.03,1.39,4.03,4.17V30.43l-26.53,9.86h-1.11v-13.48c0-1.02-.51-1.53-1.53-1.53h-29.04Z"/></g></g></g></svg>