<svg id="Group_980" data-name="Group 980" xmlns="http://www.w3.org/2000/svg" xmlns:xlink="http://www.w3.org/1999/xlink" width="571.6" height="522.798" viewBox="0 0 571.6 522.798">
  <defs>
    <clipPath id="clip-path">
      <rect id="Rectangle_384" data-name="Rectangle 384" width="571.6" height="522.798" fill="none"/>
    </clipPath>
    <clipPath id="clip-path-2">
      <rect id="Rectangle_326" data-name="Rectangle 326" width="571.602" height="522.798" fill="none"/>
    </clipPath>
    <clipPath id="clip-path-3">
      <rect id="Rectangle_324" data-name="Rectangle 324" width="294.512" height="280.904" fill="none"/>
    </clipPath>
    <clipPath id="clip-path-4">
      <path id="Path_4624" data-name="Path 4624" d="M409.119,213.442l-1.853.918S358.6,254.281,293.641,254.281h-4.124v4.124c0,95.694,29.24,153.546,58.77,187.264,29.514,33.735,59.559,43.5,59.559,43.5l1.273.4,1.273-.4s30.045-9.763,59.559-43.5c29.53-33.718,58.77-91.57,58.77-187.264v-4.124H524.6c-64.956,0-113.625-39.921-113.625-39.921Z" transform="translate(-289.517 -213.442)" fill="none"/>
    </clipPath>
    <clipPath id="clip-path-5">
      <rect id="Rectangle_325" data-name="Rectangle 325" width="361.746" height="12.364" fill="none"/>
    </clipPath>
    <linearGradient id="linear-gradient" x1="-0.2" y1="3.17" x2="-0.198" y2="3.17" gradientUnits="objectBoundingBox">
      <stop offset="0" stop-color="#afc1d5"/>
      <stop offset="0.954" stop-color="#e9fbfc"/>
      <stop offset="0.999" stop-color="#ebfdff"/>
      <stop offset="1" stop-color="#ebfdff"/>
    </linearGradient>
    <clipPath id="clip-path-6">
      <path id="Path_4687" data-name="Path 4687" d="M94.836,505.174l-.18-.559,238.184-77.5L429.3,383.377l68.1-74.493-8.333-131.944-290.734-90.1-55.1,98.639L165.021,293.54,50.463,176.291,198.151,86.174l.039.013,135.3-41.721.095.036L465.675,95.64l-.152-.523L573.457,203.09l-83.722-25.945,8.34,131.967-.163.121L429.6,383.885l-.029.012L333.05,427.661ZM51.4,176.406,164.054,291.712,142.617,185.385l.053-.095,54.72-97.964Zm438.144.065,81.826,25.357L466.715,97.138ZM199.183,86.494l289.688,89.77L465.876,96.348,333.468,45.087Z" transform="translate(-50.463 -44.466)" fill="none"/>
    </clipPath>
    <clipPath id="clip-path-7">
      <path id="Path_4642" data-name="Path 4642" d="M517.64,23.713a23.02,23.02,0,1,1,23.021,23.02,23.047,23.047,0,0,1-23.021-23.02M540.661,0a23.714,23.714,0,1,0,23.712,23.713A23.74,23.74,0,0,0,540.661,0Z" transform="translate(-516.946)" fill="none"/>
    </clipPath>
    <linearGradient id="linear-gradient-2" x1="-6.041" y1="11.023" x2="-6.03" y2="11.023" xlink:href="#linear-gradient"/>
    <clipPath id="clip-path-9">
      <rect id="Rectangle_338" data-name="Rectangle 338" width="16.967" height="21.538" fill="none"/>
    </clipPath>
    <clipPath id="clip-path-10">
      <path id="Path_4643" data-name="Path 4643" d="M993.349,299.241a3.956,3.956,0,1,1,3.957-3.955,3.96,3.96,0,0,1-3.957,3.955" transform="translate(-989.394 -291.33)" fill="none"/>
    </clipPath>
    <linearGradient id="linear-gradient-3" x1="-48.868" y1="32.441" x2="-48.818" y2="32.441" xlink:href="#linear-gradient"/>
    <clipPath id="clip-path-11">
      <path id="Path_4644" data-name="Path 4644" d="M998.072,320.3H981.851a.373.373,0,0,1-.373-.374v-3.442a8.483,8.483,0,1,1,16.967,0v3.442a.373.373,0,0,1-.373.374" transform="translate(-981.478 -307.998)" fill="none"/>
    </clipPath>
    <linearGradient id="linear-gradient-4" x1="-26.197" y1="17.218" x2="-26.17" y2="17.218" xlink:href="#linear-gradient"/>
    <clipPath id="clip-path-12">
      <path id="Path_4645" data-name="Path 4645" d="M962.282,296.649a18.712,18.712,0,1,1,18.712,18.713,18.734,18.734,0,0,1-18.712-18.713m-.562,0a19.276,19.276,0,1,0,19.275-19.275,19.3,19.3,0,0,0-19.275,19.275" transform="translate(-961.72 -277.374)" fill="none"/>
    </clipPath>
    <linearGradient id="linear-gradient-5" x1="-13.827" y1="9.573" x2="-13.813" y2="9.573" xlink:href="#linear-gradient"/>
    <clipPath id="clip-path-14">
      <rect id="Rectangle_343" data-name="Rectangle 343" width="16.966" height="21.536" fill="none"/>
    </clipPath>
    <clipPath id="clip-path-15">
      <path id="Path_4646" data-name="Path 4646" d="M942.848,737.749a3.955,3.955,0,1,1,3.955-3.956,3.962,3.962,0,0,1-3.955,3.956" transform="translate(-938.892 -729.84)" fill="none"/>
    </clipPath>
    <linearGradient id="linear-gradient-6" x1="-46.373" y1="10.719" x2="-46.323" y2="10.719" xlink:href="#linear-gradient"/>
    <clipPath id="clip-path-16">
      <path id="Path_4647" data-name="Path 4647" d="M947.573,758.8H931.352a.371.371,0,0,1-.372-.373v-3.444a8.483,8.483,0,0,1,16.966,0v3.444a.373.373,0,0,1-.373.373" transform="translate(-930.98 -746.505)" fill="none"/>
    </clipPath>
    <linearGradient id="linear-gradient-7" x1="-24.846" y1="5.474" x2="-24.819" y2="5.474" xlink:href="#linear-gradient"/>
    <clipPath id="clip-path-17">
      <path id="Path_4648" data-name="Path 4648" d="M911.783,735.152a18.712,18.712,0,1,1,18.712,18.712,18.735,18.735,0,0,1-18.712-18.712m-.564,0a19.275,19.275,0,1,0,19.276-19.277,19.3,19.3,0,0,0-19.276,19.277" transform="translate(-911.219 -715.875)" fill="none"/>
    </clipPath>
    <linearGradient id="linear-gradient-8" x1="-13.101" y1="3.268" x2="-13.087" y2="3.268" xlink:href="#linear-gradient"/>
    <clipPath id="clip-path-19">
      <rect id="Rectangle_348" data-name="Rectangle 348" width="16.967" height="21.537" fill="none"/>
    </clipPath>
    <clipPath id="clip-path-20">
      <path id="Path_4649" data-name="Path 4649" d="M127.255,854.251a3.955,3.955,0,1,1,3.956-3.955,3.958,3.958,0,0,1-3.956,3.955" transform="translate(-123.3 -846.342)" fill="none"/>
    </clipPath>
    <linearGradient id="linear-gradient-9" x1="-5.963" y1="4.947" x2="-5.913" y2="4.947" xlink:href="#linear-gradient"/>
    <clipPath id="clip-path-21">
      <path id="Path_4650" data-name="Path 4650" d="M131.978,875.307H115.757a.373.373,0,0,1-.373-.373V871.49a8.483,8.483,0,1,1,16.967,0v3.444a.373.373,0,0,1-.373.373" transform="translate(-115.384 -863.006)" fill="none"/>
    </clipPath>
    <linearGradient id="linear-gradient-10" x1="-3" y1="2.353" x2="-2.973" y2="2.353" xlink:href="#linear-gradient"/>
    <clipPath id="clip-path-22">
      <path id="Path_4651" data-name="Path 4651" d="M96.188,851.661a18.712,18.712,0,1,1,18.712,18.71,18.733,18.733,0,0,1-18.712-18.71m-.564,0A19.276,19.276,0,1,0,114.9,832.384a19.3,19.3,0,0,0-19.276,19.277" transform="translate(-95.624 -832.384)" fill="none"/>
    </clipPath>
    <linearGradient id="linear-gradient-11" x1="-1.375" y1="1.594" x2="-1.36" y2="1.594" xlink:href="#linear-gradient"/>
    <clipPath id="clip-path-24">
      <rect id="Rectangle_353" data-name="Rectangle 353" width="13.475" height="17.108" fill="none"/>
    </clipPath>
    <clipPath id="clip-path-25">
      <path id="Path_4652" data-name="Path 4652" d="M831.469,281.318a3.141,3.141,0,1,1,3.143-3.141,3.142,3.142,0,0,1-3.143,3.141" transform="translate(-828.328 -275.035)" fill="none"/>
    </clipPath>
    <linearGradient id="linear-gradient-12" x1="-51.525" y1="41.828" x2="-51.463" y2="41.828" xlink:href="#linear-gradient"/>
    <clipPath id="clip-path-26">
      <path id="Path_4653" data-name="Path 4653" d="M835.22,298.045H822.335a.294.294,0,0,1-.294-.3v-2.735a6.738,6.738,0,1,1,13.475,0v2.735a.3.3,0,0,1-.3.3" transform="translate(-822.041 -288.275)" fill="none"/>
    </clipPath>
    <linearGradient id="linear-gradient-13" x1="-27.63" y1="22.291" x2="-27.597" y2="22.291" xlink:href="#linear-gradient"/>
    <clipPath id="clip-path-27">
      <path id="Path_4654" data-name="Path 4654" d="M806.792,279.261a14.862,14.862,0,1,1,14.863,14.864,14.879,14.879,0,0,1-14.863-14.864m-.449,0a15.312,15.312,0,1,0,15.312-15.31,15.328,15.328,0,0,0-15.312,15.31" transform="translate(-806.343 -263.951)" fill="none"/>
    </clipPath>
    <linearGradient id="linear-gradient-14" x1="-14.594" y1="12.296" x2="-14.576" y2="12.296" xlink:href="#linear-gradient"/>
    <clipPath id="clip-path-28">
      <path id="Path_4655" data-name="Path 4655" d="M738.135,876.36a24.882,24.882,0,1,1,24.882,24.882,24.908,24.908,0,0,1-24.882-24.882m-.752,0a25.632,25.632,0,1,0,25.634-25.634,25.665,25.665,0,0,0-25.634,25.634" transform="translate(-737.383 -850.726)" fill="none"/>
    </clipPath>
    <linearGradient id="linear-gradient-15" x1="-7.973" y1="1" x2="-7.962" y2="1" xlink:href="#linear-gradient"/>
    <clipPath id="clip-path-30">
      <rect id="Rectangle_359" data-name="Rectangle 359" width="11.916" height="15.126" fill="none"/>
    </clipPath>
    <clipPath id="clip-path-31">
      <path id="Path_4656" data-name="Path 4656" d="M215.319,286.753a2.778,2.778,0,1,1,2.778-2.778,2.781,2.781,0,0,1-2.778,2.778" transform="translate(-212.54 -281.197)" fill="none"/>
    </clipPath>
    <linearGradient id="linear-gradient-16" x1="-14.846" y1="46.844" x2="-14.775" y2="46.844" xlink:href="#linear-gradient"/>
    <clipPath id="clip-path-32">
      <path id="Path_4657" data-name="Path 4657" d="M218.636,301.54H207.244a.262.262,0,0,1-.263-.262V298.86a5.958,5.958,0,1,1,11.916,0v2.418a.261.261,0,0,1-.262.262" transform="translate(-206.981 -292.901)" fill="none"/>
    </clipPath>
    <linearGradient id="linear-gradient-17" x1="-7.803" y1="25.005" x2="-7.765" y2="25.005" xlink:href="#linear-gradient"/>
    <clipPath id="clip-path-33">
      <path id="Path_4658" data-name="Path 4658" d="M193.5,284.933a13.141,13.141,0,1,1,13.141,13.141A13.156,13.156,0,0,1,193.5,284.933m-.4,0a13.537,13.537,0,1,0,13.537-13.538,13.552,13.552,0,0,0-13.537,13.538" transform="translate(-193.106 -271.395)" fill="none"/>
    </clipPath>
    <linearGradient id="linear-gradient-18" x1="-3.953" y1="13.753" x2="-3.933" y2="13.753" xlink:href="#linear-gradient"/>
    <clipPath id="clip-path-36">
      <path id="Path_4659" data-name="Path 4659" d="M350.844,704.391a3.955,3.955,0,1,1,3.956-3.957,3.961,3.961,0,0,1-3.956,3.957" transform="translate(-346.889 -696.482)" fill="none"/>
    </clipPath>
    <linearGradient id="linear-gradient-19" x1="-17.041" y1="12.372" x2="-16.991" y2="12.372" xlink:href="#linear-gradient"/>
    <clipPath id="clip-path-37">
      <path id="Path_4660" data-name="Path 4660" d="M355.567,725.447H339.346a.375.375,0,0,1-.373-.375v-3.443a8.484,8.484,0,0,1,16.967,0v3.443a.375.375,0,0,1-.374.375" transform="translate(-338.973 -713.146)" fill="none"/>
    </clipPath>
    <linearGradient id="linear-gradient-20" x1="-8.988" y1="6.366" x2="-8.961" y2="6.366" xlink:href="#linear-gradient"/>
    <clipPath id="clip-path-38">
      <path id="Path_4661" data-name="Path 4661" d="M319.78,701.8a18.712,18.712,0,1,1,18.712,18.712A18.733,18.733,0,0,1,319.78,701.8m-.564,0a19.275,19.275,0,1,0,19.275-19.275A19.3,19.3,0,0,0,319.216,701.8" transform="translate(-319.216 -682.521)" fill="none"/>
    </clipPath>
    <linearGradient id="linear-gradient-21" x1="-4.59" y1="3.748" x2="-4.575" y2="3.748" xlink:href="#linear-gradient"/>
    <clipPath id="clip-path-40">
      <rect id="Rectangle_369" data-name="Rectangle 369" width="16.436" height="20.863" fill="none"/>
    </clipPath>
    <clipPath id="clip-path-41">
      <path id="Path_4662" data-name="Path 4662" d="M316.981,99.913a3.831,3.831,0,1,1,3.832-3.831,3.835,3.835,0,0,1-3.832,3.831" transform="translate(-313.15 -92.25)" fill="none"/>
    </clipPath>
    <linearGradient id="linear-gradient-22" x1="-15.87" y1="43.671" x2="-15.819" y2="43.671" xlink:href="#linear-gradient"/>
    <clipPath id="clip-path-42">
      <path id="Path_4663" data-name="Path 4663" d="M321.555,120.309H305.843a.362.362,0,0,1-.362-.362v-3.336a8.218,8.218,0,1,1,16.436,0v3.336a.362.362,0,0,1-.361.362" transform="translate(-305.481 -108.393)" fill="none"/>
    </clipPath>
    <linearGradient id="linear-gradient-23" x1="-8.356" y1="23.286" x2="-8.328" y2="23.286" xlink:href="#linear-gradient"/>
    <clipPath id="clip-path-43">
      <path id="Path_4664" data-name="Path 4664" d="M286.889,97.4a18.125,18.125,0,1,1,18.125,18.125A18.147,18.147,0,0,1,286.889,97.4m-.546,0a18.671,18.671,0,1,0,18.671-18.672A18.693,18.693,0,0,0,286.343,97.4" transform="translate(-286.343 -78.731)" fill="none"/>
    </clipPath>
    <linearGradient id="linear-gradient-24" x1="-4.25" y1="12.831" x2="-4.235" y2="12.831" xlink:href="#linear-gradient"/>
    <clipPath id="clip-path-44">
      <path id="Path_4665" data-name="Path 4665" d="M694.3,629.425a23.02,23.02,0,1,1,23.019,23.019A23.046,23.046,0,0,1,694.3,629.425m-.7,0a23.714,23.714,0,1,0,23.714-23.716A23.74,23.74,0,0,0,693.6,629.425" transform="translate(-693.604 -605.709)" fill="none"/>
    </clipPath>
    <linearGradient id="linear-gradient-25" x1="-8.106" y1="3.944" x2="-8.094" y2="3.944" xlink:href="#linear-gradient"/>
    <clipPath id="clip-path-45">
      <path id="Path_4666" data-name="Path 4666" d="M750.32,101.468c0-15.527,12.282-28.157,27.378-28.157s27.38,12.631,27.38,28.157-12.283,28.156-27.38,28.156-27.378-12.632-27.378-28.156m-.826,0c0,15.992,12.653,29,28.2,29s28.2-13.013,28.2-29-12.652-29.005-28.2-29.005-28.2,13.011-28.2,29.005" transform="translate(-749.494 -72.463)" fill="none"/>
    </clipPath>
    <linearGradient id="linear-gradient-26" x1="-7.365" y1="8.32" x2="-7.355" y2="8.32" xlink:href="#linear-gradient"/>
    <clipPath id="clip-path-46">
      <path id="Path_4667" data-name="Path 4667" d="M.824,245.352c0-15.525,12.283-28.158,27.38-28.158s27.379,12.633,27.379,28.158S43.3,273.507,28.2,273.507.824,260.876.824,245.352m-.824,0c0,15.993,12.652,29,28.2,29s28.2-13.011,28.2-29-12.652-29-28.2-29S0,229.358,0,245.352" transform="translate(0 -216.348)" fill="none"/>
    </clipPath>
    <linearGradient id="linear-gradient-27" x1="0" y1="6.945" x2="0.01" y2="6.945" xlink:href="#linear-gradient"/>
    <clipPath id="clip-path-47">
      <path id="Path_4668" data-name="Path 4668" d="M856.762,500.161c0-15.528,12.283-28.159,27.38-28.159s27.379,12.631,27.379,28.159-12.282,28.157-27.379,28.157-27.38-12.631-27.38-28.157m-.824,0c0,15.992,12.651,29,28.2,29s28.2-13.012,28.2-29-12.653-29.008-28.2-29.008-28.2,13.014-28.2,29.008" transform="translate(-855.938 -471.153)" fill="none"/>
    </clipPath>
    <linearGradient id="linear-gradient-28" x1="-8.41" y1="4.51" x2="-8.401" y2="4.51" xlink:href="#linear-gradient"/>
    <clipPath id="clip-path-48">
      <path id="Path_4669" data-name="Path 4669" d="M31.611,582.183A23.02,23.02,0,1,1,54.631,605.2a23.044,23.044,0,0,1-23.02-23.019m-.693,0a23.713,23.713,0,1,0,23.713-23.715,23.739,23.739,0,0,0-23.713,23.715" transform="translate(-30.918 -558.468)" fill="none"/>
    </clipPath>
    <linearGradient id="linear-gradient-29" x1="-0.361" y1="4.497" x2="-0.35" y2="4.497" xlink:href="#linear-gradient"/>
    <clipPath id="clip-path-51">
      <path id="Path_4675" data-name="Path 4675" d="M732.951,636.975a3.955,3.955,0,1,1,3.955-3.956,3.962,3.962,0,0,1-3.955,3.956" transform="translate(-728.994 -629.066)" fill="none"/>
    </clipPath>
    <linearGradient id="linear-gradient-30" x1="-35.972" y1="15.711" x2="-35.922" y2="15.711" xlink:href="#linear-gradient"/>
    <clipPath id="clip-path-52">
      <path id="Path_4676" data-name="Path 4676" d="M737.676,658.03H721.455a.371.371,0,0,1-.372-.373v-3.444a8.483,8.483,0,0,1,16.966,0v3.444a.373.373,0,0,1-.373.373" transform="translate(-721.083 -645.731)" fill="none"/>
    </clipPath>
    <linearGradient id="linear-gradient-31" x1="-19.224" y1="8.173" x2="-19.197" y2="8.173" xlink:href="#linear-gradient"/>
    <clipPath id="clip-path-53">
      <rect id="Rectangle_382" data-name="Rectangle 382" width="20.874" height="26.496" fill="none"/>
    </clipPath>
    <clipPath id="clip-path-54">
      <path id="Path_4679" data-name="Path 4679" d="M796.157,110.622a4.865,4.865,0,1,1,4.865-4.865,4.869,4.869,0,0,1-4.865,4.865" transform="translate(-791.291 -100.892)" fill="none"/>
    </clipPath>
    <linearGradient id="linear-gradient-32" x1="-31.724" y1="34.072" x2="-31.683" y2="34.072" xlink:href="#linear-gradient"/>
    <clipPath id="clip-path-55">
      <path id="Path_4680" data-name="Path 4680" d="M801.965,136.526H782.01a.458.458,0,0,1-.459-.458v-4.236a10.437,10.437,0,1,1,20.874,0v4.236a.457.457,0,0,1-.459.458" transform="translate(-781.551 -121.393)" fill="none"/>
    </clipPath>
    <linearGradient id="linear-gradient-33" x1="-16.924" y1="18.095" x2="-16.902" y2="18.095" xlink:href="#linear-gradient"/>
    <clipPath id="clip-path-56">
      <rect id="Rectangle_327" data-name="Rectangle 327" width="302.23" height="269.39" fill="none"/>
    </clipPath>
  </defs>
  <path id="Path_4694" data-name="Path 4694" d="M71.267,484.292l362.4,12.269" fill="none" stroke="#7f7fa5" stroke-width="0.5"/>
  <g id="Group_979" data-name="Group 979" clip-path="url(#clip-path)">
    <g id="Group_851" data-name="Group 851">
      <g id="Group_850" data-name="Group 850" clip-path="url(#clip-path-2)">
        <g id="Group_846" data-name="Group 846" transform="translate(122.217 113.527)" opacity="0.1">
          <g id="Group_845" data-name="Group 845">
            <g id="Group_844" data-name="Group 844" clip-path="url(#clip-path-3)">
              <g id="Group_843" data-name="Group 843" transform="translate(38.253 4.777)">
                <g id="Group_842" data-name="Group 842" clip-path="url(#clip-path-4)">
                  <path id="Path_4604" data-name="Path 4604" d="M333.258,485.862c.272-1.669,2.4-2.8,2.49-4.491.041-1.7-2.123-2.733-2.329-4.439-.185-1.634,1.432-2.8,1.247-4.461-.233-2.038-2.284-3.261-2.284-5.529,1.267.113,1.772,1.991,3.2.447.622-.665.2-1.821.622-2.4.621-.829,1.4-.423,2.325-.54,2.675-.289,7.192-3.285,5.654-6.614-.354-.728-3.047-2.871-1.2-3.205.275-.057,1.707.82,2.167.9a4.671,4.671,0,0,0,2.672-.126c1.82-.658,3.2-2.63,3.895-4.391a5.132,5.132,0,0,1,1.985-2.9c2.741-2.269,3.249-5.522,3.036-8.869-.21-3.116-.691-6.085,3.459-6.5a6.9,6.9,0,0,0,2.171-.314,8.755,8.755,0,0,1,2.167-.921c2.116-.4,2.346-.877,3.338-2.78.735-1.415,1.59-2.822,2.212-4.344.855-2.05.666-3.717.948-5.9.206-1.682.711-3.261.852-4.957s-.278-3.305.828-4.652c1.106-1.362,2.353-1.765,3.157-3.4,1.312-2.616,2.511-4.391,2.511-7.385,0-1.192.419-3.193,0-4.291-.594-1.682-1.707-.861-3.085-1.246-2.858-.828-2.675-4.93-5.808-5.357-1.3-.186-2.628.151-3.919-.035a24.572,24.572,0,0,0-4.86-.019c.274-1.926-2.171-2.984-3.531-3.667-.808-.406-.416-.52-1.477-.369a7.769,7.769,0,0,0-1.357.541,13.112,13.112,0,0,0-2.579,1.5c-.234-1.171.848-1.9.573-3.043-3.658-1.545-5.165,1.221-7.648,3.194-.7-1.682.251-2.3,1.4-3.34a3.856,3.856,0,0,0,1.553-2.677c.371-2.338-.923-4.934-1.553-7.169-.573-2.038-1.38-1.888-3.27-1.888a15.831,15.831,0,0,1-3.984-.264c-4.866-1.221-6.591-6.5-11.09-8.088a34.977,34.977,0,0,0-6.611-1.35,23.168,23.168,0,0,1-3.109-.8c-1.477-.485-1.9-1.405-2.933-2.291-1.051-.9-1.979-.647-3.27-.233-.855.289-3.568,1.567-1.82,2.419a3.885,3.885,0,0,1-.027,2.411c-.55,1-1.8.745-2.284,1.586a3.253,3.253,0,0,1-.938-3.869c.436-1.294,2.1-2.225,1.982-3.666-1.426-.276-2.4,1.269-3.531,1.786a16,16,0,0,0-3.318,1.613,6.224,6.224,0,0,0-1.267,1.163c-.364.519-.409,1.293-.9,1.763a3.208,3.208,0,0,1-1.569.6c-1.171.244-.553.367-1.566-.334-1.5-1.014-1.656-.88-3.342-.461a36.909,36.909,0,0,0-3.823,1.105c-.9.322-.1.979-1.384.277a5.893,5.893,0,0,1-1.385-1.579,5.04,5.04,0,0,1-1.264-3.932c.134-1.431.553-2.765.759-4.194.179-1.1.876-3.157.344-4.186-1.473-2.958-5.76.072-7.907-.783-1.817-.734-.529-1.681.481-2.846,1.271-1.461,1.157-1.97,1.552-3.731.251-1.2,2.023-2.409,2.119-3.572.11-1.556-2.768-2.78-3.946-3.135-1.562-.473-3.572-.137-4.311,1.472-.8,1.755.4,2.572-1.586,3.9a13.236,13.236,0,0,1-3.644,1.777c-2.12.542-3.569.771-4.626-1.163a11.921,11.921,0,0,1-1.57-7.318,33.618,33.618,0,0,1,1.594-6.514c.223-.829.223-1.565.412-2.386.3-1.347-.23-.947,1.171-1.415a6.894,6.894,0,0,0,3.572-2.121c1.295-1.236,2.768-1.3,4.475-1.382,1.494-.073,2.648.657,3.987.607,1.8-.059,2.236-1.633,3.572-2.151,1.518-.591,3.18.3,4.468.769,1.34.494,3.277-.551,4.307.137,1.2.808.649,2.708.948,3.9a19.63,19.63,0,0,1,.739,1.968c.141.727-.227,1.5-.162,2.168.186,1.715,1.638,2.041,2.975,1.222,1.381-.842,1.889-2.662,1.954-4.16.147-2.156-1.1-3.7-1.374-5.544-.419-3.054,3.335-2.8,4.925-3.948,1.734-1.235,2.126-3.715,4.008-4.786,1.57-.9,3.531-1.1,4.479-2.926.845-1.683-1.432-6.755,1.4-7.435.914-.229,1.268.751,2.116.637.831-.1,1.937-1.709,2.466-2.333a5.038,5.038,0,0,1,4.1-1.99c1.872-.186,3.6-.668,4.492-2.467.323-.667.144-1.532.532-2.167.759-1.257.941-.561,2.126-.909,1.931-.557,3.5-2.168,5.547-2.826.924-.3,3.785-1.382,4.314-.485.9,1.511-2.7,1.013-3.208,2.26-1.264,3.065,4.218-.565,4.73-.773,1.566-.622,5.416-.217,4.767-3.086a9.573,9.573,0,0,0-2.644.242c-1.433.3-1.069.519-1.913-.417-1.11-1.23-1.2-2.383-.21-3.51,1.309-1.5,2.067-2.051-.763-2.307a6.086,6.086,0,0,0-2.58.16c-.391.127-1.686,1.29-2.026,1.2-1.982-.481,1.078-2.512,1.7-2.835a18.125,18.125,0,0,1,4.836-1.176c3-.532,6.914,1.786,9.706.182.735-.4,1.058-1.091,1.8-1.518a13.256,13.256,0,0,1,2.421-.854c1.429-.532,3.246-1.189,3.524-2.892.553-3.135-3.734-1.947-5.512-2.189.165-.508,1.112-1.051,1.2-1.533.189-1.071-.546-1.064-1.01-1.859-.968-1.565-.278-3.031.141-4.537.389-1.477.048-3.517-1.4-4.057-2.078-.75-2.655,1.416-3.891,2.29-.793.554-2.7,1.05-3.393.025-.577-.843-.323-3.091-.735-4.117-.907-2.152-1.707-2.279-3.974-2.509a21.661,21.661,0,0,0-4.328-.149c-1.545.162-2.761.825-3.06,2.463-.12.683.344,1.329-.024,1.973-.44.734-1.615.713-2.3,1.058-2.034,1.05-.584,1.694-.326,3.424.272,1.833-.972,3.031-2.469,3.827a13.192,13.192,0,0,0-3.229,2.175c-.622.591-1.174.7-1.546,1.545-.343.75-.2,1.537-.759,2.316-.828,1.188-2.026,3.033-3.706,2.62a2.7,2.7,0,0,1-1.848-3.082c.165-1.382,1.432-2.6,1.089-4.147-.419-1.853-2.315-1.417-3.836-1.853a18.759,18.759,0,0,1-4.9-2.465c-1.449-.908-3.249-.591-3.737-2.467-.965-3.633,2.978-4.54,5.392-5.66,1.594-.726,3.734-1.163,4.956-2.466,1.247-1.3.553-1.943,2.421-2.039,2.4-.1,6.131-.484,7.883-2.305-.739-.61-2.394-.59-2.006-1.98a34.938,34.938,0,0,0,3.524-.14,20.436,20.436,0,0,1,4.128-.655c1.5.043,4.19.467,5.255-.912.577-.749.67-2.729.6-3.687-1.133-.106-2.239-.869-3.366-.289-.989.494-1.2,1.9-2.1,2.453-1.82,1.13-3.129-.076-2.857-1.856-1.36-.054-2.954.256-3.524-1.255-.481-1.346.917-2.984-.945-3.236-1.5-.2-3.6,1.153-3.785,2.628-.2,1.787.577,2.882-2.023,3.535a20.053,20.053,0,0,0-4.406,1.708c-1.841.875-2.026-.415-3.641-.784a11,11,0,0,0-3.2.114c-.57.06-2,.644-2.463.487-.718-.231-.484-1.072-1.549-1.063a8.879,8.879,0,0,0-2.167.97c-.989.553-2.737,2.536-3.936,1.853-1.089-.622-.67-2.384-2.233-2.893-1.391-.434-3.026.638-4.365.093-1.013-.413-.525-.932-1.123-1.473-.88-.821-2.26-.494-3.438-.841a33.883,33.883,0,0,0-3.964-1.1,57.587,57.587,0,0,0-9.514-.608c-1.614.012-2.171.872-3.555,1.429a6.827,6.827,0,0,1-1.209.344,147.766,147.766,0,0,0-25.5,35.305,4.972,4.972,0,0,1,.508,1.11c.416,1.406.258,5.2-1.892,5.358-.622.053-.979-.614-1.312-.957A146.313,146.313,0,0,0,227.7,310.23a4.978,4.978,0,0,1,3.2,2.086c.831,1.426.3,3.373.968,4.919a19.676,19.676,0,0,1,1.615,4.469c.141.775-.2,1.683,0,2.432.323,1.175.852.854,1.518,1.579,1.841,2.03.093,7.031,4.149,7.689.165-.9-.254-1.243-.429-1.98-.21-.822-.168-1.674-.326-2.516a20.21,20.21,0,0,0-1.013-4.266c-.625-1.277-4.564-7.549-1.432-7.549,2.6-.012,3.225,5.774,4.149,7.549a8.6,8.6,0,0,1,1.058,1.992c.141.651-.158,1.407.028,2.042.391,1.335,1.844,1.74,2.809,2.709,2.357,2.328.9,5.291,2.305,7.847a16.914,16.914,0,0,0,5.973,6.07c2.1,1.352,5.207,3.7,7.7,3.829,2.878.127,4.891-1.739,7.419.3.807.646,1.174,1.339,1.865,1.972.968.887,3.438,2.767,4.73,2.96,1.1.174,2.486-.33,3.548-.009,1.635.487,1.429,1.749,1.868,3.045.484,1.288,1.5,2.024,1.985,3.121.525,1.2.477,2,1.672,2.893,1.017.751,2.359,1.229,3.393,2.025.945.718,2.535,2.7,4.008,2.017,1.226-.563.9-2.393.944-3.522,1.36-.071,2.7-.244,3.806.552,1.151.854,1.013,2.235,1.707,3.465,1.545,2.8.6,5.685-1.25,8.13a42.54,42.54,0,0,0-4.626,6.6,4.625,4.625,0,0,0-.762,2.176c-.093,1.327.484.9.851,1.835.461,1.2-.46,2.441-.944,3.548-.6,1.3-1.521,4.047.711,4.334,0,0,1.638,2.121,1.731,2.281a9.781,9.781,0,0,1,.948,3.505,13.521,13.521,0,0,0,2.123,4.979c.876,1.464,1.1,3.05,1.886,4.458.691,1.243,1.8,2.4,2.559,3.663,1.034,1.765,1.058,2.09,3.091,2.194,2.281.1,2.854.885,4.579,2.277,3.551,2.828,6.251,4.7,5.1,9.266a23.613,23.613,0,0,0,.533,12.784,29.1,29.1,0,0,1,.779,6.119c.1.943,0,1.9.12,2.856.086.992.667,1.86.8,2.765.231,1.638-.137,3.643-.048,5.344a9.936,9.936,0,0,0,.323,2.169c.165.67.855,1.589.927,2.131.231,1.648-.972,2.248-.165,3.988.3.646.735,1.232,1.082,1.915.371.774.33,1.392.646,2.123.577,1.387,1.844,1.564,2.122,3.082a16.305,16.305,0,0,1,.3,3.851c-.231.758-2.281,1.715-1.707,2.927.274.552,1.453.358,1.978.851a4,4,0,0,1,.855,1.916c.1.384.182.784.264,1.193q5.652,2.005,11.513,3.56a3.981,3.981,0,0,1,.024-.907" transform="translate(-261.964 -224.008)" fill="#fff"/>
                  <path id="Path_4605" data-name="Path 4605" d="M349.97,415.582A32.208,32.208,0,0,1,346.415,414a18.463,18.463,0,0,0-3.362-1.978c-1.707-.552-3.387-.54-5.114-1-.993-.266-1.11.036-2.054.243a12.067,12.067,0,0,0-1.679.227h.065c-.344.186-2.071,1.213-1.635,1.789.577.762,2.168-.276,2.7-.632,1.889-1.214,3.5-.257,5.348.4a7.884,7.884,0,0,1,2.418.98c.416.323,1.449,1.072,1.566,1.544.254.875-1.151.8-.759,1.763.367.953,2.373.739,3.135.69a8.3,8.3,0,0,1,1.817,0c.783.154,1.315.508,2.1.316.186-.5.735-1.085.65-1.616-.117-.588-1.133-.916-1.635-1.14" transform="translate(-308.705 -301.46)" fill="#fff"/>
                  <path id="Path_4606" data-name="Path 4606" d="M373.137,423.608c-1.017,0-2.439.054-3.2-.61v-.245c-.883-.162-.347,1.039-.234,1.381.213.579.488.972-.457,1.163-.649.141-1.566-.241-2.171.072-.714.387-.55,1.094.12,1.324,1.082.36,2.555-.508,3.637-.382.375.05.44.313.666.361a5.727,5.727,0,0,0,1.182.008,7.063,7.063,0,0,0,2.328.07c.412-.139,1.264-1.2.484-1.3,1.174.266.639-.711.155-1.188-.786-.75-1.429-.653-2.511-.653" transform="translate(-323.88 -306.732)" fill="#fff"/>
                  <path id="Path_4607" data-name="Path 4607" d="M355.108,428.909c-.529-.4-1.11-.053-1.182-.8a2.862,2.862,0,0,0-2.322.553c.278.091.6.058.859.172.384.161.384.394.618.591a2.03,2.03,0,0,0,1.779.4c.69-.068.965-.358.247-.921" transform="translate(-317.191 -309.106)" fill="#fff"/>
                  <path id="Path_4608" data-name="Path 4608" d="M355.767,427.77a1.27,1.27,0,0,0,.014.211c.055.008.11.007.172.019Z" transform="translate(-319.047 -308.975)" fill="#fff"/>
                  <path id="Path_4609" data-name="Path 4609" d="M390.787,428.363l.3-.151c-.989-.393-1.473-.024-2.05.769.257.588.625.245,1.061.382.529.162.735.449,1.312.449.968,0,1.827-.253,1.658-1.442-1.054-.08-1.288.646-2.277-.008" transform="translate(-333.874 -309.101)" fill="#fff"/>
                  <path id="Path_4610" data-name="Path 4610" d="M453.478,308.462a1.806,1.806,0,0,0-.516.113c-.021.039-.038.072-.062.112Z" transform="translate(-362.342 -255.795)" fill="#fff"/>
                  <path id="Path_4611" data-name="Path 4611" d="M451.305,310.669a1.8,1.8,0,0,1-.691-1.254c-.137-.809.2-.626.344-1.27.114-.469.642-.816-.436-.9-.666-.047-.835.278-1.12.783a1.8,1.8,0,0,1,.516-.113l-.578.225c.024-.042.042-.074.062-.113-1.59.512-2.078,3.022-3.081,4.055-.481.475-2.253,1.061-.921,1.524,1.082.367,2.4-.728,3.62-.509.989.183,1.521.861,2.628.7.807-.112,2.328-.966,2.188-1.959-.158-1.395-1.71-.652-2.531-1.176" transform="translate(-358.783 -255.253)" fill="#fff"/>
                  <path id="Path_4612" data-name="Path 4612" d="M436.691,241.038a3.2,3.2,0,0,1-.917-2.026c.021-.577.691-.886.691-1.258.045-.862-1.683-1.589-2.445-1.739-1.178-.23-1.868.126-2.6-1.039-.786-1.222-.691-1.76-2.422-1.5a5.319,5.319,0,0,1-3.414-.121c-1.127-.544-1.566-1.509-2.971-1.727-1.381-.222-1.889.113-3.019.9-.574.4-2.373,1.474-3.108.956-1.157-.8,1.381-1.73,1.4-2.085.048-1.106-2.421.024-2.882.229-1.219.541-2.3,1.414-3.548,1.959-1.408.622-2.03,1.185-.484,1.939a8.149,8.149,0,0,0,3.435.493,33.7,33.7,0,0,1,3.507.586c1.126.177,1.6.863,2.6,1.118,1.332.345,2.047-1.034,3.1-1.242,1.158-.219,2.566.805,3.253,1.613.67.736.855,1.727,1.638,2.283.512.376,1.219.491,1.728.928.851.69,1.4,1.648.786,2.595-.6.946-1.385.532-2.171.079a4.167,4.167,0,0,0-2.277-.8,3.67,3.67,0,0,0-1.36.242,5.636,5.636,0,0,0-1.13,1.049,4.951,4.951,0,0,1-2.167,1.712c-1.13.27-3.157-.713-4.17-.124a.731.731,0,0,0-.113,1.289c.508.309,1.724-.289,2.212-.356a5.575,5.575,0,0,1,3.407.462c.924.612,1.154,2.037,1.982,2.868a5.237,5.237,0,0,0,3.919,1.524c.553-.013,1.659.117,1.429-.807-.159-.568-1.405-.392-1.7-.83a2.591,2.591,0,0,1,.048-1.623c.687-.636,1.522.423,1.975.63.814.371,2.7.474,3-.728.165-.677-.3-.862-.553-1.378a3.1,3.1,0,0,1-.464-1.845c-.021-3.332,3.3-.76,4.96-.325,1.288.36,3.063-.921,1.982-2.231-.667-.775-2.35-.73-3.136-1.662" transform="translate(-343.251 -221.231)" fill="#fff"/>
                  <path id="Path_4613" data-name="Path 4613" d="M336.15,230.715a11.7,11.7,0,0,1,3.085-.206c.4-.011,1.779-.08,1.751-.624-.024-.855-2.325-.691-2.81-.8a14.742,14.742,0,0,1-1.611-.458,4.165,4.165,0,0,0-1.594-.191,5.134,5.134,0,0,0-1.1.025c-.326.081-.6.29-.928.369a3.76,3.76,0,0,0-.917.426c-.275.159-.625.254-.924.416a15.922,15.922,0,0,1-1.381,1.026c-.584.289-1.216.382-1.8.646-.9.405-1.521,1.268-2.466,1.485.257.335.481.737.921.879a3.622,3.622,0,0,0,.783.033c.21.034.416.15.6.159.251.026.323.036.5-.231.178-.229.237-.518.46-.723a1.907,1.907,0,0,1,1.36-.311,3.684,3.684,0,0,0,1.893-.4,7.983,7.983,0,0,1,2.047-.758c.721-.206,1.4-.507,2.122-.763" transform="translate(-305.536 -220.116)" fill="#fff"/>
                  <path id="Path_4614" data-name="Path 4614" d="M357.356,236.29c-.6-.626,0-1.534.457-2.031.234-.264.556-.461.783-.738.165-.2.463-.9.305-1.151-.21-.31-1.013-.208-1.367-.2a1.391,1.391,0,0,0-1.2.6c-.412.564-.344,1.965-1.426,1.715a1.333,1.333,0,0,1-.855-1.275c0-.13.069-.394,0-.5-.113-.252-.625-.323-.876-.22-.275.119-.508.415-.8.554a2.461,2.461,0,0,1-.763.275,6.376,6.376,0,0,1-2.054-.527c-.347-.129-.625-.372-.969-.466a5.285,5.285,0,0,0-1.634.06,2.6,2.6,0,0,0-.948.357,4,4,0,0,1-1.951.2,2.708,2.708,0,0,0-1.731.311,2.91,2.91,0,0,1-.783.248,2.705,2.705,0,0,0-.786.394c-.533.381-.117.462.3.588.388.118,1.061.216,1.315.622.361.645-.488.759-.972.8-.3.019-1.405-.257-1.474.229-.024.427,1.841.1,2.233.159.3.05.831.46.574.854-.11.2-1.058.1-1.243.1a8.94,8.94,0,0,0-1.563-.033.911.911,0,0,0-.876.976c.045,1.709,2.373.912,3.428,1.28.763.278,1.182,1.119,1.962,1.27,1.037.221,2.809.038,3.321-1.039.185-.391.093-.863.484-1.126.461-.289,1.312-.131,1.817-.131.79,0,1.477-.135,2.26-.113a.81.81,0,0,1,.673.265,5.329,5.329,0,0,0,1.563.808,4.091,4.091,0,0,0,2.878-.288c.488-.217.948-.568,1.408-.83.281-.162.786-.379.814-.741.038-.87-1.827-.769-2.308-1.262" transform="translate(-311.598 -221.78)" fill="#fff"/>
                  <path id="Path_4615" data-name="Path 4615" d="M525.318,227.85c1.36-.08,2.511-.783.711-1.591-1.381-.618-2.7-.435-2.7-2.427.028-1.662,1.274-1.44,2.494-.828.759.389,2.737,2.234,3.757,1.585,1.587-.989-.58-1.958-1.243-2.28-.972-.46-2.589-.947-2.195-2.315.44-1.59,3.644-1.6,4.981-2.1a7.692,7.692,0,0,0,3.826-2.859c.824-1.419.3-2.975.759-4.392.876-2.687,5.069-1.321,6.8-2.892.711-.644.8-.61-.145-.92-1.332-.452-3.177.263-4.537.348-2.054.131-1.89-.789-3.452-1.734-1.711-1.048-4.681-.46-6.643-.46a28.387,28.387,0,0,0-6.3.419c-3.063.686-5.784,2.361-9.074,2.347-2.679-.011-5.324-.69-8.044-.441a80.965,80.965,0,0,1-10.49-.019c-1.844-.07-4.355-.22-6.038.573l.231-.113c-2.58.578-4.888,2.131-7.56,2.629a56.434,56.434,0,0,0-5.8.921c-1.069.313-2.7,1.477-1.707,2.774,1.1,1.465,5.715.327,7.532.6,1.845.264,4.1,1.924,5.351,3.26,1.13,1.219,1.405,3.689,1.512,5.327.172,2.805-2.339,4.665-3.706,6.683-2.14,3.189,1.5,7.431,1.961,10.589.251,1.736,2.35,2.295,4.084,1.834a12.159,12.159,0,0,0,3.871-2.573c1.748-1.534,1.748-3.77,3.753-5.136,2.054-1.441,3.967-1.648,6.316-2.1,5.186-.987,9.4-4.963,14.748-4.94,2.26,0,4.588.37,6.941.228" transform="translate(-371.143 -209.601)" fill="#fff"/>
                  <path id="Path_4616" data-name="Path 4616" d="M590.021,289.844a5.146,5.146,0,0,0-1.615.6,5.636,5.636,0,0,1-3.2-.033,1.784,1.784,0,0,0-1.594.183,2.742,2.742,0,0,1-1.354.678,2.015,2.015,0,0,0-1.408.639c-.231.229-1.2.728-.869,1.137.182.266.436,0,.618-.044.368-.089.368-.221.8-.058a7.7,7.7,0,0,1,1.453.98c.966.678,2.257.242,3.184-.277.57-.335.9-.2,1.587-.3a6.879,6.879,0,0,0,1.617-.636c.529-.217,1.309-.161,1.676-.595.209-.223.209-.511.419-.742.137-.147.622-.2.691-.322.024-.021.113-.1.141-.133-.21-.188-.6-.57-.9-.578l.189.053c-.56-.1-.766-.606-1.436-.549" transform="translate(-418.955 -247.495)" fill="#fff"/>
                  <path id="Path_4617" data-name="Path 4617" d="M598.088,295.1c-.3.316-1.154.406-1.154.89.017.7.9.391.3,1.28-.327.48-.831.882-.945,1.484-.1.58-.1,1.337.642,1.283.828-.06.924-1,1.614-1.1,1.123-.16,2.556.783,3.5-.173a2.251,2.251,0,0,0,.6-2.258c-.319-.678-1.24-.934-1.91-1.314-.46-.276-.735-1.093-1.315-1.047h.117c-.625-.313-1.11.585-1.449.953" transform="translate(-426.236 -249.384)" fill="#fff"/>
                  <path id="Path_4618" data-name="Path 4618" d="M604.848,294.029c.46.316,1.494.6,1.309-.407-.67.019-.323-.652.209-.592.065-.921-1.728.068-1.82-.519l.072.114c-.344,0-.807-.114-1.02.183a10.278,10.278,0,0,0,1.25,1.221" transform="translate(-429.513 -248.686)" fill="#fff"/>
                  <path id="Path_4619" data-name="Path 4619" d="M611.379,297.732a24.164,24.164,0,0,0,3.245-1.351,5.277,5.277,0,0,1,2.58-.043,5.5,5.5,0,0,0,3.253-.944c.254-.209.6-.488.532-.855-.072-.3-.395-.31-.556-.518-.461-.7.6-.84.371-1.541-.186-.615-.855-.256-1.34-.3-.783-.069-1.078-.921-1.336-1.6-.323-.875-.3-2.084-.825-2.833a3.817,3.817,0,0,0-1.875-1c-.346-.114-1.12-.21-1.309-.508-.481-.676.6-1.013.848-1.44.443-.78-.508-.852-1.054-.908-.326-.024-.646.011-.856-.265-.161-.253-.141-.9-.394-1.027-.183-.094-.684.09-.873.164a2.6,2.6,0,0,0-1.521.932c-.323.541.068,1.415.44,1.853.155.21.295.119.391.462.093.38-.209.637-.209.98,0,.878.783.795,1.4.932s.7.367,1.133.807c.526.54.526.784.5,1.612-.017.565-.041,1.242-.686,1.485-.6.234-1.013-.066-1.519.545-.258.283-.206.559-.346.905-.161.533-.515.693-.859,1.052.673.252,3,.183,2.445,1.395-.3.622-1.037.7-1.586.795-.413.07-1.567.416-1.739.862-.223.65,1.364.44,1.739.359" transform="translate(-432.196 -244.252)" fill="#fff"/>
                  <path id="Path_4620" data-name="Path 4620" d="M653.065,339.878a20.221,20.221,0,0,0-2.964,1.361c-.251.145-.488.908-.948,1.125-.484.242-1.315-.173-1.848.023-2.531.948-3.108,1.927-5.962,2.074.161,1.144,1.332.742,1.748,1.637.347.682,0,2.1,0,2.85-.024,2.5.23,2.52,2.813,2.635,3.067.162,3.915-.023,6.478,1.8,2.991,2.151,2.968-.281,5.3-1.826,2.744,1.071.024,3.678-.646,5.131-.642,1.395-.11,3.179-.711,4.38-1.175,2.444-6.086,1.151-8.343,1.151-1.521,0-3.386.275-4.771-.278-1.615-.656-2.769-1.979-4.682-2.5-2.438-.645-7.58-1.6-8.782,1.626.46.15.831.735,1.178.907-.989,1.6-4.221.6-5.509-.277-1.91-1.31-2.264-1.855-4.63-2.533-2.305-.682-4.613-1.734-5.788-3.884-1.037-1.928-.391-3.931-2.586-4.89a2.448,2.448,0,0,0-2.538.027c-1.419.539-1.144,1.221-2.988,1.4-2.054.21-4.19-.117-6.251,0a12.425,12.425,0,0,0-5.478,1.185c-.968.563-1.268,1.557-2.837,1.82a13.53,13.53,0,0,1-3.229-.008c-2.3-.221-6.131-2.133-8,.529-.921,1.3-.186,2.039-1.521,3.206-1.11.965-2.813,1.3-3.6,2.671-1.679,2.858.9,4.655-2.346,6.706-3.022,1.9-4.516,2.621-6.272,5.8-1.5,2.7-4.194,4.622-5.509,7.408-.917,1.91-.247,4-.23,6.016,0,4.4-3.988,6.568-1.1,11.087,1.086,1.714,2.737,3.073,3.71,4.861.989,1.866,1.126,4.115,1.937,6.048,1.542,3.584,7.742,8.552,11.386,10.063,2.905,1.222,4.4.335,6.611-.842,2.215-1.15,4.352-.842,6.776-.724,3.806.174,5.973-4.369,10.393-2.272,2.123,1,1.872,2.548,4.386,3.019,2.28.417,4.283-.061,5.554,2.443,1.607,3.18-.488,6.581-.584,9.809-.065,3.249,2.93,3.259,4.039,6.163.828,2.178.828,4.589,1.8,6.708,1.934,4.266,2.72,6.564.742,11.316-1.477,3.6-2.236,7.942-.168,11.547,2.373,4.114,2.93,8.09,3.6,12.77.305,2.157.186,4.284,1.016,6.165.952,2.134,2.968,4.106,3.71,6.29A146.773,146.773,0,0,0,666.1,390.326a21.145,21.145,0,0,0-1.717-2.66c-1.79-2.339-1.116-3.445-1.374-6.279-.21-2.536-1.8-2.918-3.685-4.378a7.2,7.2,0,0,1-2.538-3.714c-.718-1.763-2.494-4.148-2.789-5.947-.323-1.973,1.336-2.427,2.765-1.194.44.353-.044,1.495,1,1.781.67.182,1.127-.77,1.748-1.073.642,2.259.966,4.714,1.962,6.847.8,1.763,2.188,3.457,2.947,5.383a10.171,10.171,0,0,0,1.463,2.749,146.541,146.541,0,0,0-8.562-42.069,5.741,5.741,0,0,0-4.245.1" transform="translate(-409.841 -269.594)" fill="#fff"/>
                  <path id="Path_4621" data-name="Path 4621" d="M649.261,277.252c-.632.794.639.827.913,1.254a3.3,3.3,0,0,1,.12,1.5c-.024,1.093-.584,2.13-1.848,1.717-.666-.218-1.525-1.393-2.418-.646-.58.45-.646,2.2-.58,2.871.1.862.649,2.328-.457,3.006a5.467,5.467,0,0,1-2.909-.024c-.921-.244-1.587-.855-2.648-.679-.848.14-2.005.9-2.882,1.152-2.167.623-5.162.335-7.487.222-.443-.979-1.247-2.182-.945-3.346.227-.829,1.449-1.867.55-2.766-.6-.587-2.253-.265-2.837.383-.985,1.108-.182,1.81.189,2.87a3.463,3.463,0,0,1-.274,2.983c-.807.988-2.24.4-3.39.672a2.9,2.9,0,0,0-1.755.827c-.344.522-.041,1.276-.783,1.717-.945.541-2.164.3-3.084,1.085a57.754,57.754,0,0,1-5,4.226,12.691,12.691,0,0,1-4.121,1.176,24.182,24.182,0,0,1-3.97.7,3.37,3.37,0,0,0,.556,2.557,28.134,28.134,0,0,1,2.1,2.48c1.319,2.013,1.36,4.273-1.381,5-2.424.656-5.118-.474-7.631-.347-.78.036-2.511-.1-2.968.794-.581,1.084.944,2.261,1.586,2.894a20.653,20.653,0,0,1,1.663,1.38c.872,1.255-.182,3.7-.831,4.865-.3.578-1.546,1.473-1.634,2.062-.443,2.375,2.6,3.795,4.327,4.173,1.5.308,4.311,1.151,5.835.693,1.683-.507,3.291-3.037,3.919-4.669.972-2.477.594-3.721,3.063-5.22.876-.532,2.051-.563,2.833-1.417.759-.854.67-2.372,1.5-3.077,1.243-1.035,4.266-.31,5.832-1.053,2.563-1.184,2.858-1.921,5.533-.111,2.346,1.59,4.472,3.457,6.66,5.094,1.687,1.244,1.11,1.116,1.587,3.039a7.893,7.893,0,0,0,2.1,3.737c1.288-1.235,2.305-2.827,1.89-4.608.876-.048,1.824-.013,2.7-.071,1.2-4.944-11.547-4.76-10.785-10.5,1.566-.43,1.868.518,3.043,1.01.828.369,2.143.338,2.926.782,1.127.636,1.106,1.421,2.051,2.284.673.622,1.545.588,2.329,1.142,3.225,2.246.247,8.585,7.172,8.125-2.408,1.291.154,3.662.69,5.437.089-1.775,1.656-2.965,1.611-5.011-.024-2.272-1.178-2.882,1.405-3.7,1.659-.531,3.455-.565,5.073-1.167,2.463-.9,2.119-.976,1.453-3.467-.258-.933-.993-.772-.557-2.059.23-.638,1.679-1.48,2.122-2.136.965-1.475,1.518-4.412,3.871-4.531,2.466-.114,1.518,2.412,2.971,3.493a3.269,3.269,0,0,0,2.438.465,146.975,146.975,0,0,0-15.7-28.762,19.012,19.012,0,0,1-2.164-.535c-.5-.114-3.218-.417-3.562.025" transform="translate(-425.316 -241.78)" fill="#fff"/>
                  <path id="Path_4622" data-name="Path 4622" d="M652.364,250.209c-.412.968.021,1.625-.691,2.568-1.449,1.96-4.245,2.085-6.429,2.55-1.773.364-2.074,2.025-3.8,2.545-.1,1.738-.206,5.149,1.106,6.455,1.751,1.715,5.256-1.423,7.327-.927,1.541.37,1.2,1.571,1.593,2.664a6.877,6.877,0,0,0,3.108,3.01,3.366,3.366,0,0,0,3.946-1.165c.711-1.107.3-2.364,1.264-3.307.872-.832,1.566-1.259,1.751-2.58.258-1.959-.9-1.335-1.958-2.412-2.652-2.649,2.95-4.032,4.352-4.747a5.83,5.83,0,0,0,1.8-1.38c.371-.449.556-1.393,1.013-1.709a1.169,1.169,0,0,1,.415-.192q-3.394-3.959-7.065-7.669c-3.445,1.477-6.55,3.582-7.731,6.3" transform="translate(-446.357 -227.023)" fill="#fff"/>
                  <path id="Path_4623" data-name="Path 4623" d="M686.8,260.794c-.927,1.978-2.841,4.042-.7,6.15,1.82,1.785,3.891-.083,5.877-.241.381-.03.855-.071,1.346-.1q-2.952-3.985-6.158-7.761a4.921,4.921,0,0,1-.368,1.954" transform="translate(-465.851 -233.677)" fill="#fff"/>
                </g>
              </g>
            </g>
          </g>
        </g>
        <g id="Group_849" data-name="Group 849" transform="translate(72.334 485.077)" opacity="0.2">
          <g id="Group_848" data-name="Group 848">
            <g id="Group_847" data-name="Group 847" clip-path="url(#clip-path-5)">
              <path id="Path_4625" data-name="Path 4625" d="M130.52,875.666l361.728,11.81h0L130.52,875.666" transform="translate(-130.511 -875.389)" fill="url(#linear-gradient)"/>
            </g>
          </g>
        </g>
        <path id="Path_4626" data-name="Path 4626" d="M494.714,345.963v23H442.9a9.528,9.528,0,0,0-9.789,9.255v13.334H417.992a10.644,10.644,0,0,1-10.467-10.817V319.309l15.089,15.837h61.647a10.639,10.639,0,0,1,10.453,10.817" transform="translate(-181.647 -142.326)" fill="#00dc00"/>
        <path id="Path_4627" data-name="Path 4627" d="M525.611,447.393H463.552c-6.672,0-12.1-5.184-12.1-11.552V406.113c0-6.371,5.428-11.552,12.1-11.552h56.8l17.356-16.625v57.907c0,6.371-5.428,11.552-12.1,11.552Zm-62.059-48.226a7.24,7.24,0,0,0-7.49,6.944v29.728a7.242,7.242,0,0,0,7.49,6.944h62.059a7.24,7.24,0,0,0,7.49-6.944V388.728l-10.9,10.439Z" transform="translate(-201.227 -168.458)" fill="#007fff"/>
      </g>
    </g>
    <text id="BCHAT" transform="translate(225.01 311.714)" fill="#00dc00" font-size="23" font-family="RechargeRg-Bold, Recharge" font-weight="700"><tspan x="0" y="0">B</tspan><tspan y="0" fill="#167ffb">CHAT</tspan></text>
    <g id="Group_871" data-name="Group 871">
      <g id="Group_983" data-name="Group 983" transform="translate(27.97 24.646)" clip-path="url(#clip-path-6)">
        <rect id="Rectangle_385" data-name="Rectangle 385" width="522.994" height="460.708" transform="translate(0 0)" fill="#7f7fa5"/>
      </g>
      <path id="Path_4688" data-name="Path 4688" d="M932.334,412.3l-.544-.222,33.186-82.771.544.223Z" transform="translate(-415.328 -146.785)" fill="#7f7fa5"/>
      <path id="Path_4689" data-name="Path 4689" d="M94.694,611.437,63.35,463.713l.025-.012-12.6-181.292.585-.04L63.938,463.336l101.277-65.367-30.693,93.35,81.258,31.87-.432.315ZM134.339,491.88,95.449,610.161l119.122-86.817Zm-70.26-27.557L94.948,609.811l38.845-118.145Zm.24-.536L133.975,491.1l30.166-91.742Z" transform="translate(-22.633 -125.861)" fill="#7f7fa5"/>
      <path id="Path_4690" data-name="Path 4690" d="M588.365,733.62l-.511-.218L344.379,630.236l120.108,6.727,105.36,7.994-5.815-29.221.575-.117,5.848,29.388,45.993,3.489,42.609-125.274L680.6,653.95l-63.749-4.835L588.27,733.15ZM347.707,631.009,587.571,732.643l-17.6-87.089-105.521-8.009ZM570.576,645.6l17.463,86.409,28.212-82.943Zm46.475,2.94,62.852,4.771L658.859,525.624Z" transform="translate(-153.501 -233.217)" fill="#7f7fa5"/>
      <path id="Path_4692" data-name="Path 4692" d="M555.859,26.9a4.865,4.865,0,1,1,4.865-4.864,4.868,4.868,0,0,1-4.865,4.864" transform="translate(-245.595 -7.653)" fill="none"/>
      <path id="Path_4693" data-name="Path 4693" d="M255.7,326.3l.028-.169,33.7-206.386.258.01L557.931,129.4,524.162,389.138l-.581-.074,33.688-259.1L289.92,120.351,256.335,326.059" transform="translate(-113.974 -53.376)" fill="#7f7fa5"/>
    </g>
    <g id="Group_873" data-name="Group 873" transform="translate(286.527)">
      <g id="Group_872" data-name="Group 872" clip-path="url(#clip-path-7)">
        <rect id="Rectangle_335" data-name="Rectangle 335" width="47.427" height="47.427" transform="translate(0 0)" fill="url(#linear-gradient-2)"/>
      </g>
    </g>
    <g id="Group_882" data-name="Group 882">
      <g id="Group_881" data-name="Group 881" clip-path="url(#clip-path-2)">
        <g id="Group_880" data-name="Group 880" transform="translate(544.002 161.475)" style="mix-blend-mode: screen;isolation: isolate">
          <g id="Group_879" data-name="Group 879">
            <g id="Group_878" data-name="Group 878" clip-path="url(#clip-path-9)">
              <g id="Group_875" data-name="Group 875" transform="translate(4.388 0)">
                <g id="Group_874" data-name="Group 874" clip-path="url(#clip-path-10)">
                  <rect id="Rectangle_336" data-name="Rectangle 336" width="11.188" height="11.188" transform="translate(-3.956 3.956) rotate(-45)" fill="url(#linear-gradient-3)"/>
                </g>
              </g>
              <g id="Group_877" data-name="Group 877" transform="translate(0 9.239)">
                <g id="Group_876" data-name="Group 876" clip-path="url(#clip-path-11)">
                  <rect id="Rectangle_337" data-name="Rectangle 337" width="20.695" height="20.695" transform="translate(-6.15 6.15) rotate(-45)" fill="url(#linear-gradient-4)"/>
                </g>
              </g>
            </g>
          </g>
        </g>
      </g>
    </g>
    <g id="Group_884" data-name="Group 884" transform="translate(533.051 153.74)">
      <g id="Group_883" data-name="Group 883" clip-path="url(#clip-path-12)">
        <rect id="Rectangle_340" data-name="Rectangle 340" width="38.552" height="38.553" transform="translate(0 0)" fill="url(#linear-gradient-5)"/>
      </g>
    </g>
    <g id="Group_893" data-name="Group 893">
      <g id="Group_892" data-name="Group 892" clip-path="url(#clip-path-2)">
        <g id="Group_891" data-name="Group 891" transform="translate(516.013 404.527)" style="mix-blend-mode: screen;isolation: isolate">
          <g id="Group_890" data-name="Group 890">
            <g id="Group_889" data-name="Group 889" clip-path="url(#clip-path-14)">
              <g id="Group_886" data-name="Group 886" transform="translate(4.385 0)">
                <g id="Group_885" data-name="Group 885" clip-path="url(#clip-path-15)">
                  <rect id="Rectangle_341" data-name="Rectangle 341" width="11.187" height="11.187" transform="translate(-3.955 3.955) rotate(-45)" fill="url(#linear-gradient-6)"/>
                </g>
              </g>
              <g id="Group_888" data-name="Group 888" transform="translate(0 9.237)">
                <g id="Group_887" data-name="Group 887" clip-path="url(#clip-path-16)">
                  <rect id="Rectangle_342" data-name="Rectangle 342" width="20.693" height="20.693" transform="translate(-6.149 6.149) rotate(-45)" fill="url(#linear-gradient-7)"/>
                </g>
              </g>
            </g>
          </g>
        </g>
      </g>
    </g>
    <g id="Group_895" data-name="Group 895" transform="translate(505.06 396.787)">
      <g id="Group_894" data-name="Group 894" clip-path="url(#clip-path-17)">
        <rect id="Rectangle_345" data-name="Rectangle 345" width="38.55" height="38.553" fill="url(#linear-gradient-8)"/>
      </g>
    </g>
    <g id="Group_904" data-name="Group 904">
      <g id="Group_903" data-name="Group 903" clip-path="url(#clip-path-2)">
        <g id="Group_902" data-name="Group 902" transform="translate(63.954 469.1)" style="mix-blend-mode: screen;isolation: isolate">
          <g id="Group_901" data-name="Group 901">
            <g id="Group_900" data-name="Group 900" clip-path="url(#clip-path-19)">
              <g id="Group_897" data-name="Group 897" transform="translate(4.388 0)">
                <g id="Group_896" data-name="Group 896" clip-path="url(#clip-path-20)">
                  <rect id="Rectangle_346" data-name="Rectangle 346" width="11.186" height="11.186" transform="translate(-3.955 3.955) rotate(-45)" fill="url(#linear-gradient-9)"/>
                </g>
              </g>
              <g id="Group_899" data-name="Group 899" transform="translate(0 9.237)">
                <g id="Group_898" data-name="Group 898" clip-path="url(#clip-path-21)">
                  <rect id="Rectangle_347" data-name="Rectangle 347" width="20.695" height="20.695" transform="translate(-6.15 6.15) rotate(-45)" fill="url(#linear-gradient-10)"/>
                </g>
              </g>
            </g>
          </g>
        </g>
      </g>
    </g>
    <g id="Group_906" data-name="Group 906" transform="translate(53.001 461.364)">
      <g id="Group_905" data-name="Group 905" clip-path="url(#clip-path-22)">
        <rect id="Rectangle_350" data-name="Rectangle 350" width="38.552" height="38.549" transform="translate(0)" fill="url(#linear-gradient-11)"/>
      </g>
    </g>
    <g id="Group_915" data-name="Group 915">
      <g id="Group_914" data-name="Group 914" clip-path="url(#clip-path-2)">
        <g id="Group_913" data-name="Group 913" transform="translate(455.631 152.443)" style="mix-blend-mode: screen;isolation: isolate">
          <g id="Group_912" data-name="Group 912">
            <g id="Group_911" data-name="Group 911" clip-path="url(#clip-path-24)">
              <g id="Group_908" data-name="Group 908" transform="translate(3.485 0)">
                <g id="Group_907" data-name="Group 907" clip-path="url(#clip-path-25)">
                  <rect id="Rectangle_351" data-name="Rectangle 351" width="8.885" height="8.885" transform="translate(-3.141 3.141) rotate(-45)" fill="url(#linear-gradient-12)"/>
                </g>
              </g>
              <g id="Group_910" data-name="Group 910" transform="translate(0 7.339)">
                <g id="Group_909" data-name="Group 909" clip-path="url(#clip-path-26)">
                  <rect id="Rectangle_352" data-name="Rectangle 352" width="16.437" height="16.437" transform="translate(-4.885 4.885) rotate(-45)" fill="url(#linear-gradient-13)"/>
                </g>
              </g>
            </g>
          </g>
        </g>
      </g>
    </g>
    <g id="Group_917" data-name="Group 917" transform="translate(446.93 146.3)">
      <g id="Group_916" data-name="Group 916" clip-path="url(#clip-path-27)">
        <rect id="Rectangle_355" data-name="Rectangle 355" width="30.623" height="30.621" transform="translate(0)" fill="url(#linear-gradient-14)"/>
      </g>
    </g>
    <g id="Group_919" data-name="Group 919" transform="translate(408.708 471.53)">
      <g id="Group_918" data-name="Group 918" clip-path="url(#clip-path-28)">
        <rect id="Rectangle_356" data-name="Rectangle 356" width="51.264" height="51.268" fill="url(#linear-gradient-15)"/>
      </g>
    </g>
    <g id="Group_928" data-name="Group 928">
      <g id="Group_927" data-name="Group 927" clip-path="url(#clip-path-2)">
        <g id="Group_926" data-name="Group 926" transform="translate(114.723 155.859)" style="mix-blend-mode: screen;isolation: isolate">
          <g id="Group_925" data-name="Group 925">
            <g id="Group_924" data-name="Group 924" clip-path="url(#clip-path-30)">
              <g id="Group_921" data-name="Group 921" transform="translate(3.081 0)">
                <g id="Group_920" data-name="Group 920" clip-path="url(#clip-path-31)">
                  <rect id="Rectangle_357" data-name="Rectangle 357" width="7.858" height="7.858" transform="matrix(0.707, -0.707, 0.707, 0.707, -2.778, 2.778)" fill="url(#linear-gradient-16)"/>
                </g>
              </g>
              <g id="Group_923" data-name="Group 923" transform="translate(0 6.487)">
                <g id="Group_922" data-name="Group 922" clip-path="url(#clip-path-32)">
                  <rect id="Rectangle_358" data-name="Rectangle 358" width="14.535" height="14.535" transform="matrix(0.707, -0.707, 0.707, 0.707, -4.319, 4.319)" fill="url(#linear-gradient-17)"/>
                </g>
              </g>
            </g>
          </g>
        </g>
      </g>
    </g>
    <g id="Group_930" data-name="Group 930" transform="translate(107.033 150.426)">
      <g id="Group_929" data-name="Group 929" clip-path="url(#clip-path-33)">
        <rect id="Rectangle_361" data-name="Rectangle 361" width="27.074" height="27.075" transform="translate(0 0)" fill="url(#linear-gradient-18)"/>
      </g>
    </g>
    <g id="Group_939" data-name="Group 939">
      <g id="Group_938" data-name="Group 938" clip-path="url(#clip-path-2)">
        <g id="Group_937" data-name="Group 937" transform="translate(187.882 386.038)" style="mix-blend-mode: screen;isolation: isolate">
          <g id="Group_936" data-name="Group 936">
            <g id="Group_935" data-name="Group 935" clip-path="url(#clip-path-19)">
              <g id="Group_932" data-name="Group 932" transform="translate(4.388)">
                <g id="Group_931" data-name="Group 931" clip-path="url(#clip-path-36)">
                  <rect id="Rectangle_362" data-name="Rectangle 362" width="11.187" height="11.187" transform="translate(-3.955 3.955) rotate(-45)" fill="url(#linear-gradient-19)"/>
                </g>
              </g>
              <g id="Group_934" data-name="Group 934" transform="translate(0 9.236)">
                <g id="Group_933" data-name="Group 933" clip-path="url(#clip-path-37)">
                  <rect id="Rectangle_363" data-name="Rectangle 363" width="20.696" height="20.696" transform="translate(-6.15 6.15) rotate(-45)" fill="url(#linear-gradient-20)"/>
                </g>
              </g>
            </g>
          </g>
        </g>
      </g>
    </g>
    <g id="Group_941" data-name="Group 941" transform="translate(176.931 378.3)">
      <g id="Group_940" data-name="Group 940" clip-path="url(#clip-path-38)">
        <rect id="Rectangle_366" data-name="Rectangle 366" width="38.55" height="38.552" fill="url(#linear-gradient-21)"/>
      </g>
    </g>
    <g id="Group_950" data-name="Group 950">
      <g id="Group_949" data-name="Group 949" clip-path="url(#clip-path-2)">
        <g id="Group_948" data-name="Group 948" transform="translate(169.318 51.131)" style="mix-blend-mode: screen;isolation: isolate">
          <g id="Group_947" data-name="Group 947">
            <g id="Group_946" data-name="Group 946" clip-path="url(#clip-path-40)">
              <g id="Group_943" data-name="Group 943" transform="translate(4.251)">
                <g id="Group_942" data-name="Group 942" clip-path="url(#clip-path-41)">
                  <rect id="Rectangle_367" data-name="Rectangle 367" width="10.837" height="10.837" transform="translate(-3.831 3.831) rotate(-45)" fill="url(#linear-gradient-22)"/>
                </g>
              </g>
              <g id="Group_945" data-name="Group 945" transform="translate(0 8.948)">
                <g id="Group_944" data-name="Group 944" clip-path="url(#clip-path-42)">
                  <rect id="Rectangle_368" data-name="Rectangle 368" width="20.047" height="20.047" transform="translate(-5.958 5.958) rotate(-45)" fill="url(#linear-gradient-23)"/>
                </g>
              </g>
            </g>
          </g>
        </g>
      </g>
    </g>
    <g id="Group_952" data-name="Group 952" transform="translate(158.711 43.638)">
      <g id="Group_951" data-name="Group 951" clip-path="url(#clip-path-43)">
        <rect id="Rectangle_371" data-name="Rectangle 371" width="37.342" height="37.343" transform="translate(0 0)" fill="url(#linear-gradient-24)"/>
      </g>
    </g>
    <g id="Group_954" data-name="Group 954" transform="translate(384.443 335.725)">
      <g id="Group_953" data-name="Group 953" clip-path="url(#clip-path-44)">
        <rect id="Rectangle_372" data-name="Rectangle 372" width="47.427" height="47.428" fill="url(#linear-gradient-25)"/>
      </g>
    </g>
    <g id="Group_956" data-name="Group 956" transform="translate(415.421 40.164)">
      <g id="Group_955" data-name="Group 955" clip-path="url(#clip-path-45)">
        <rect id="Rectangle_373" data-name="Rectangle 373" width="56.408" height="58.01" transform="translate(0 0)" fill="url(#linear-gradient-26)"/>
      </g>
    </g>
    <g id="Group_958" data-name="Group 958" transform="translate(0 119.915)">
      <g id="Group_957" data-name="Group 957" clip-path="url(#clip-path-46)">
        <rect id="Rectangle_374" data-name="Rectangle 374" width="56.408" height="58.008" transform="translate(0 0)" fill="url(#linear-gradient-27)"/>
      </g>
    </g>
    <g id="Group_960" data-name="Group 960" transform="translate(474.419 261.145)">
      <g id="Group_959" data-name="Group 959" clip-path="url(#clip-path-47)">
        <rect id="Rectangle_375" data-name="Rectangle 375" width="56.408" height="58.011" transform="translate(0 0)" fill="url(#linear-gradient-28)"/>
      </g>
    </g>
    <g id="Group_962" data-name="Group 962" transform="translate(17.137 309.541)">
      <g id="Group_961" data-name="Group 961" clip-path="url(#clip-path-48)">
        <rect id="Rectangle_376" data-name="Rectangle 376" width="47.427" height="47.427" fill="url(#linear-gradient-29)"/>
      </g>
    </g>
    <g id="Group_978" data-name="Group 978">
      <g id="Group_977" data-name="Group 977" clip-path="url(#clip-path-2)">
        <path id="Path_4671" data-name="Path 4671" d="M911.642,503.011c0,14.008-11,25.364-24.573,25.364S862.5,517.019,862.5,503.011s11-25.364,24.572-25.364S911.642,489,911.642,503.011" transform="translate(-384.442 -212.903)" fill="#007fff"/>
        <path id="Path_4672" data-name="Path 4672" d="M564.4,25.035a22.07,22.07,0,1,1-22.07-22.07,22.07,22.07,0,0,1,22.07,22.07" transform="translate(-231.899 -1.322)" fill="#007fff"/>
        <path id="Path_4673" data-name="Path 4673" d="M55.779,248.577a24.992,24.992,0,1,1-24.992-24.992,24.992,24.992,0,0,1,24.992,24.992" transform="translate(-2.583 -99.659)" fill="#00dc00"/>
        <path id="Path_4674" data-name="Path 4674" d="M77.8,584.424a20.929,20.929,0,1,1-20.93-20.93,20.93,20.93,0,0,1,20.93,20.93" transform="translate(-16.02 -251.167)" fill="#007fff"/>
        <g id="Group_969" data-name="Group 969" transform="translate(399.673 348.671)" style="mix-blend-mode: screen;isolation: isolate">
          <g id="Group_968" data-name="Group 968">
            <g id="Group_967" data-name="Group 967" clip-path="url(#clip-path-14)">
              <g id="Group_964" data-name="Group 964" transform="translate(4.385)">
                <g id="Group_963" data-name="Group 963" clip-path="url(#clip-path-51)">
                  <rect id="Rectangle_377" data-name="Rectangle 377" width="11.187" height="11.187" transform="translate(-3.955 3.955) rotate(-45)" fill="url(#linear-gradient-30)"/>
                </g>
              </g>
              <g id="Group_966" data-name="Group 966" transform="translate(0 9.237)">
                <g id="Group_965" data-name="Group 965" clip-path="url(#clip-path-52)">
                  <rect id="Rectangle_378" data-name="Rectangle 378" width="20.693" height="20.693" transform="translate(-6.149 6.149) rotate(-45)" fill="url(#linear-gradient-31)"/>
                </g>
              </g>
            </g>
          </g>
        </g>
        <path id="Path_4677" data-name="Path 4677" d="M66.267,582.236a13.056,13.056,0,0,0-7.744,2.385,7.7,7.7,0,0,0-3.375,6.11,7.849,7.849,0,0,0,4.236,6.828L56.8,601.966l8.565-2.783c.3.02.592.044.9.044a13.056,13.056,0,0,0,7.744-2.385,7.218,7.218,0,0,0,0-12.22,13.056,13.056,0,0,0-7.744-2.385" transform="translate(-24.581 -259.521)" fill="#fff"/>
        <path id="Path_4678" data-name="Path 4678" d="M49.455,262.728a1.188,1.188,0,0,0-1.206.088l-1.81,1.25a1.183,1.183,0,0,1-1.342.01,26.083,26.083,0,0,1-5.36-4.683,1.183,1.183,0,0,1-.17-1.331l1-1.962a1.19,1.19,0,0,0-.077-1.21L37.4,250.351a1.194,1.194,0,0,0-1.353-.467,3.928,3.928,0,0,0-1.757,1.224c-1.989,2.275-2.879,5.948,5.68,13.427s12.08,6.1,14.069,3.828a3.933,3.933,0,0,0,.978-1.908,1.19,1.19,0,0,0-.641-1.273l-4.921-2.453" transform="translate(-14.69 -111.356)" fill="#fff"/>
        <g id="Group_976" data-name="Group 976" transform="translate(433.189 55.921)" style="mix-blend-mode: screen;isolation: isolate">
          <g id="Group_975" data-name="Group 975">
            <g id="Group_974" data-name="Group 974" clip-path="url(#clip-path-53)">
              <g id="Group_971" data-name="Group 971" transform="translate(5.399 0)">
                <g id="Group_970" data-name="Group 970" clip-path="url(#clip-path-54)">
                  <rect id="Rectangle_380" data-name="Rectangle 380" width="13.762" height="13.762" transform="translate(-4.865 4.865) rotate(-45)" fill="url(#linear-gradient-32)"/>
                </g>
              </g>
              <g id="Group_973" data-name="Group 973" transform="translate(0 11.363)">
                <g id="Group_972" data-name="Group 972" clip-path="url(#clip-path-55)">
                  <rect id="Rectangle_381" data-name="Rectangle 381" width="25.46" height="25.46" transform="translate(-7.566 7.566) rotate(-45)" fill="url(#linear-gradient-33)"/>
                </g>
              </g>
            </g>
          </g>
        </g>
        <path id="Path_4681" data-name="Path 4681" d="M805.3,104.207a25.632,25.632,0,1,1-25.632-25.632A25.631,25.631,0,0,1,805.3,104.207" transform="translate(-336.099 -35.023)" fill="#00b400"/>
        <path id="Path_4682" data-name="Path 4682" d="M560.035,26.034H541.467a2.32,2.32,0,0,0-2.321,2.321V42.281a2.32,2.32,0,0,0,2.321,2.321h18.567a2.32,2.32,0,0,0,2.321-2.321V28.355a2.32,2.32,0,0,0-2.321-2.321m-11.6,4.641a1.161,1.161,0,1,1-1.161,1.161,1.161,1.161,0,0,1,1.161-1.161m9.284,10.445h-13.9a.58.58,0,0,1-.457-.937l2.89-3.716a.58.58,0,0,1,.9-.014l2.44,2.937,3.595-4.633a.58.58,0,0,1,.923.008l4.069,5.425a.58.58,0,0,1-.464.928" transform="translate(-240.315 -11.604)" fill="#fff"/>
        <path id="Path_4683" data-name="Path 4683" d="M890.089,511.391a2.034,2.034,0,0,0-2.032,2.032v10.158a2.034,2.034,0,0,0,2.032,2.032h13.206a2.034,2.034,0,0,0,2.032-2.032v-2.966l5.079,4.063V512.326l-5.079,4.063v-2.966a2.034,2.034,0,0,0-2.032-2.032Z" transform="translate(-395.835 -227.943)" fill="#fff"/>
        <path id="Path_4685" data-name="Path 4685" d="M797.914,109.884h-7.421a2,2,0,0,0-2,2v2.748h-1.721l-3.07-4.5.023,6.293v.042c-.005.055-.006.109-.006.169v8.291a2,2,0,0,0,2,2h8.473a2,2,0,0,0,2-2h0V122.18h2.768a2,2,0,0,0,2-2v-8.05l-.009-.452.024-6.293Zm-6.724,3.729v0a1.068,1.068,0,0,1,1.069-1.067h4.932a1.068,1.068,0,0,1,1.067,1.07v4.838h0a1.066,1.066,0,0,1-1.069,1.064H796.2v-2.879a2.005,2.005,0,0,0-2.007-2h-3v-.951h0Zm0,4.836V117.3h1.232a1.067,1.067,0,0,1,1.069,1.064h0v1.152H792.26a1.068,1.068,0,0,1-1.069-1.067m-3.733,5.817h.025a1.07,1.07,0,0,1-1.069-1.069v-4.833a1.067,1.067,0,0,1,1.069-1.065h1.009v2.88h0a2,2,0,0,0,2,2h3V123.2a1.067,1.067,0,0,1-1.066,1.069h-4.967" transform="translate(-349.321 -46.973)" fill="#fff"/>
        <path id="Path_4686" data-name="Path 4686" d="M798.534,97.588a18.019,18.019,0,1,0,0,25.483,18.019,18.019,0,0,0,0-25.483m-12.741,29.519A16.777,16.777,0,1,1,802.57,110.33a16.8,16.8,0,0,1-16.777,16.777" transform="translate(-342.22 -41.146)" fill="#fff"/>
      </g>
    </g>
  </g>
  <g id="BCHat-2" data-name="BCHat">
    <path id="Path_4628" data-name="Path 4628" d="M505.817,217.9c-.539-.419-.815-.646-.815-.646l-1.831-.907-1.831.907s-.277.227-.815.646" transform="translate(-223.1 -96.433)" fill="none" stroke="#7a7a7a" stroke-miterlimit="10" stroke-width="2"/>
    <path id="Path_4629" data-name="Path 4629" d="M407.5,225.938c-14.535,10.145-54.327,34.335-104.151,35.032" transform="translate(-135.214 -100.708)" fill="none" stroke="#7a7a7a" stroke-miterlimit="10" stroke-width="2" stroke-dasharray="11.489 11.489"/>
    <path id="Path_4630" data-name="Path 4630" d="M295.12,289.169h-3.086v3.086" transform="translate(-130.169 -128.892)" fill="none" stroke="#7a7a7a" stroke-miterlimit="10" stroke-width="2"/>
    <path id="Path_4631" data-name="Path 4631" d="M292.086,303.375c1.031,91.5,29.406,147.2,58.055,179.911,29.169,33.341,58.864,42.99,58.864,42.99l1.258.4,1.258-.4s29.695-9.649,58.864-42.99c28.969-33.079,57.657-89.657,58.079-182.987" transform="translate(-130.192 -133.853)" fill="none" stroke="#7a7a7a" stroke-miterlimit="10" stroke-width="2" stroke-dasharray="11.113 11.113"/>
    <path id="Path_4632" data-name="Path 4632" d="M716.084,292.255V289.17H713" transform="translate(-317.806 -128.892)" fill="none" stroke="#7a7a7a" stroke-miterlimit="10" stroke-width="2"/>
    <path id="Path_4633" data-name="Path 4633" d="M618.225,259.405c-51.667-1.761-92-28.355-103.564-36.806" transform="translate(-229.401 -99.219)" fill="none" stroke="#7a7a7a" stroke-miterlimit="10" stroke-width="2" stroke-dasharray="11.489 11.489"/>
    <path id="Path_4634" data-name="Path 4634" d="M403.638,199.25l-1.958.971s-51.442,42.2-120.1,42.2h-4.359v4.359c0,101.146,30.906,162.294,62.118,197.934,31.2,35.657,62.953,45.975,62.953,45.975l1.345.425,1.345-.425s31.757-10.319,62.953-45.975c31.213-35.64,62.118-96.788,62.118-197.934v-4.359H525.7c-68.657,0-120.1-42.2-120.1-42.2Z" transform="translate(-123.567 -88.812)" fill="none" stroke="#00dc00" stroke-miterlimit="10" stroke-width="2"/>
  </g>
  <g id="Group_990" data-name="Group 990" transform="translate(425.18 485.793)" style="mix-blend-mode: screen;isolation: isolate">
    <g id="Group_936-2" data-name="Group 936">
      <g id="Group_935-2" data-name="Group 935" clip-path="url(#clip-path-19)">
        <g id="Group_932-2" data-name="Group 932" transform="translate(4.388)">
          <g id="Group_931-2" data-name="Group 931" clip-path="url(#clip-path-36)">
            <rect id="Rectangle_362-2" data-name="Rectangle 362" width="11.187" height="11.187" transform="translate(-3.955 3.955) rotate(-45)" fill="url(#linear-gradient-19)"/>
          </g>
        </g>
        <g id="Group_934-2" data-name="Group 934" transform="translate(0 9.236)">
          <g id="Group_933-2" data-name="Group 933" clip-path="url(#clip-path-37)">
            <rect id="Rectangle_363-2" data-name="Rectangle 363" width="20.696" height="20.696" transform="translate(-6.15 6.15) rotate(-45)" fill="url(#linear-gradient-20)"/>
          </g>
        </g>
      </g>
    </g>
  </g>
</svg>
