<svg xmlns="http://www.w3.org/2000/svg" xmlns:xlink="http://www.w3.org/1999/xlink" width="546.226" height="461.41" viewBox="0 0 546.226 461.41">
  <defs>
    <linearGradient id="linear-gradient" x1="0.5" y1="-57.677" x2="0.5" y2="-56.677" gradientUnits="objectBoundingBox">
      <stop offset="0" stop-color="#575554"/>
      <stop offset="0.5" stop-color="#575554"/>
      <stop offset="1" stop-color="#131313"/>
    </linearGradient>
    <linearGradient id="linear-gradient-2" x1="1" y1="-119.125" x2="0" y2="-119.125" gradientUnits="objectBoundingBox">
      <stop offset="0" stop-color="#a7a7a7"/>
      <stop offset="0" stop-color="#454545"/>
      <stop offset="0" stop-color="#757575"/>
      <stop offset="0" stop-color="#6b6968"/>
      <stop offset="0.4" stop-color="#6b6968"/>
      <stop offset="0.9" stop-color="#8d8d8d"/>
      <stop offset="1" stop-color="#2b2b2b"/>
      <stop offset="1" stop-color="#6b6968"/>
    </linearGradient>
    <linearGradient id="linear-gradient-3" x1="0.5" y1="-0.666" x2="0.5" y2="0.334" gradientUnits="objectBoundingBox">
      <stop offset="0" stop-color="#504e4e"/>
      <stop offset="0.4" stop-color="#979494"/>
      <stop offset="1" stop-color="#7b7878"/>
    </linearGradient>
    <linearGradient id="linear-gradient-4" x1="0.5" y1="5.622" x2="0.5" y2="6.622" gradientUnits="objectBoundingBox">
      <stop offset="0" stop-color="#1a1a1a"/>
      <stop offset="1" stop-color="#9f9f9f"/>
    </linearGradient>
    <clipPath id="clip-path">
      <path id="Path_4695" data-name="Path 4695" d="M420.2,134.82V345.79H82.83V134.82a8.881,8.881,0,0,1,8.87-8.87H411.33a8.881,8.881,0,0,1,8.87,8.87Z"/>
    </clipPath>
    <linearGradient id="linear-gradient-5" y1="-119.125" x2="1" y2="-119.125" gradientUnits="objectBoundingBox">
      <stop offset="0" stop-color="#818181"/>
      <stop offset="0" stop-color="#202020"/>
      <stop offset="0" stop-color="#4f4f4f"/>
      <stop offset="0" stop-color="#6b6968"/>
      <stop offset="0.4" stop-color="#6b6968"/>
      <stop offset="0.9" stop-color="#686868"/>
      <stop offset="1" stop-color="#131313"/>
      <stop offset="1" stop-color="#6b6968"/>
    </linearGradient>
    <linearGradient id="linear-gradient-6" y1="-112.146" x2="1" y2="-112.146" gradientUnits="objectBoundingBox">
      <stop offset="0" stop-color="#838180"/>
      <stop offset="0.1" stop-color="#6b6968"/>
      <stop offset="0.5" stop-color="#838180"/>
      <stop offset="0.9" stop-color="#6b6968"/>
      <stop offset="1" stop-color="#838180"/>
    </linearGradient>
  </defs>
  <g id="b" transform="translate(0.016)">
    <g id="c">
      <g id="d">
        <path id="e" d="M217.45,415.9c-55.2,25.5-144.5,21.6-185.9-30.2-39.4-49.4-31.5-98.4-4.8-151.6,26.6-53.2,2.1-120.9,97.8-175.2,106.5-60.5,200.4-64.3,287.6-12.2,99.9,59.6,48,123.9,94.6,183.3,63,80.5-35.6,179.4-123.1,174.4-87.5-4.9-111.1-14-166.2,11.5Z" fill="#2a8eff" opacity="0.1" style="isolation: isolate"/>
        <path id="f" d="M309.85,39.3c55.1-25.5,144.5-21.7,185.8,30.1,39.4,49.5,31.6,98.4,4.9,151.7-26.6,53.2-2.1,120.9-97.8,175.2-106.6,60.5-200.4,64.4-287.7,12.2-99.9-59.6-48-124-94.6-183.4-63-80.4,35.6-179.4,123.1-174.4s111.1,14.1,166.3-11.4h0Z" fill="none" stroke="#727272" stroke-width="1" stroke-dasharray="7" style="isolation: isolate"/>
        <path id="g" d="M212.75,3.2a10.371,10.371,0,0,1,10.4,10.3,10.35,10.35,0,1,1-10.4-10.3Z" fill="none" stroke="#fff" stroke-width="1"/>
        <g id="h">
          <path id="i" d="M404.65,296.1c22.5-7.5,30.6-30.9,49.1-20.2,18.6,10.8,9.8,37.5-18.1,36.8-28-.8-31.6-1.7-36.6.3-5.1,2,4.8-15.7,4.8-15.7" fill="#2a8eff"/>
          <path id="j" d="M409.45,292.9c17.4-16.2,34.2-88.7,64.4-66.5,23.3,17.1-10.3,53-36.4,63-26.7,10.2-22.4,17.2-26,21.3-3.6,4-2.2-16.4-2.2-16.4" fill="#26e003"/>
          <path id="k" d="M414.65,290.6c18.7-14.5,18.6-39.3,39.7-35.3,21,4,21.6,32.1-5,40.7s-30.3,8.9-34.4,12.5-.7-16.5-.7-16.5" fill="none" stroke="#fff" stroke-width="1"/>
        </g>
        <g id="l">
          <path id="m" d="M141.65,279.5s3.7,17.8-3.4,14.8-56.8-74.7-96.4-76.3c-39.2-1.6-48.7-27-35.1-36.5,42.8-29.8,94.3,70.7,126,82.1" fill="#2a8eff"/>
          <path id="n" d="M91.05,245.7c3.5-42.5-52.8-60.1-27.6-80.3,17.8-14.2,50,30.9,35.7,67.8-14.6,37.8,2.3,35.2,3.2,42.9.9,7.6-19.2-13.2-19.2-13.2" fill="#26e003"/>
          <path id="o" d="M193.55,393.7a8.217,8.217,0,0,1,8.1,8.2,8.1,8.1,0,1,1-16.2,0A8.216,8.216,0,0,1,193.55,393.7Z" fill="#26e003"/>
          <path id="p" d="M207.45,396.3a17.55,17.55,0,1,1-17.5,17.6A17.605,17.605,0,0,1,207.45,396.3Z" fill="#2a8eff"/>
          <path id="q" d="M462.65,54.8a26.9,26.9,0,1,1-26.9,26.9,26.973,26.973,0,0,1,26.9-26.9Z" fill="none" stroke="#26e003" stroke-width="1"/>
          <path id="r" d="M462.65,59.7a22,22,0,1,1-22,22,22.065,22.065,0,0,1,22-22Z" fill="none" stroke="#2a8eff" stroke-width="1"/>
          <path id="s" d="M96.45,246.4c-27.9-27.8-57.5-4.5-62.8-24.7-2.75-21.1,36.2-12.2,48.6-1,15.3,13.6,12.2,15.8,15.3,17.9,3.1,2.2,4.3,7.2,4.3,7.2" fill="none" stroke="#fff" stroke-width="1"/>
        </g>
        <g id="t">
          <g id="u">
            <path id="w" d="M251.55,356.5h208.1a153.778,153.778,0,0,1-45.2,6.8H88.55a154.276,154.276,0,0,1-45.2-6.8Z" fill="url(#linear-gradient)"/>
            <g id="x">
              <path id="a_" data-name="a`" d="M216.65,353.6v3.2a1.8,1.8,0,0,1-.6-.1,19.928,19.928,0,0,0-4.9-.6H43.35v-2.5Z" fill="url(#linear-gradient-2)"/>
              <path id="ab" d="M421.75,135.7V353.1h-1.6V134.8a9.156,9.156,0,0,0-2.1-5.8.723.723,0,0,1-.3-.3l-.1-.1-.5-.5h0a.723.723,0,0,1-.3-.3h0a6.226,6.226,0,0,1-.7-.4l-.6-.4a8.679,8.679,0,0,0-4.2-1H91.76a8.808,8.808,0,0,0-3.3.6h0a.846.846,0,0,0-.4.1h0a2.8,2.8,0,0,1-.6.3,3.12,3.12,0,0,0-.5.4,8.4,8.4,0,0,0-1.5,1.2.275.275,0,0,0-.2.1.723.723,0,0,1-.3.3,8.95,8.95,0,0,0-1.7,3.2,10275555714990.127,10275555714990.127,0,0,1-.2.8,1.566,1.566,0,0,0-.1.5,7.543,7.543,0,0,0-.1,1.3V353.1h-1.5V136.3a10.392,10.392,0,0,1,10.4-10.4h319.6a10.481,10.481,0,0,1,10.4,9.8h0Z" fill="url(#linear-gradient-3)"/>
              <path id="ad" d="M81.35,134.8a10.392,10.392,0,0,1,10.4-10.4h319.6a10.457,10.457,0,0,1,10.4,10.4v.9a10.481,10.481,0,0,0-10.4-9.8H91.75a10.392,10.392,0,0,0-10.4,10.4v-1.5Z" fill="url(#linear-gradient-4)"/>
              <path id="ae" d="M82.85,345.8h337.4v7.3H82.85Z" fill="#212121"/>
              <g id="Group_991" data-name="Group 991" clip-path="url(#clip-path)">
                <path id="ag" d="M420.15,134.8v211H82.85v-211a8.835,8.835,0,0,1,8.9-8.8h319.6A8.749,8.749,0,0,1,420.15,134.8Z" fill="#212131"/>
              </g>
              <path id="ai" d="M459.65,353.6v2.5H291.85a19.928,19.928,0,0,0-4.9.6,1.8,1.8,0,0,1-.6.1v-3.2h173.3Z" fill="url(#linear-gradient-5)"/>
              <path id="ak" d="M286.35,353.6v3.2a12.588,12.588,0,0,1-2.2.2h-65.3a12.588,12.588,0,0,1-2.2-.2v-3.2h69.7Z" fill="url(#linear-gradient-6)"/>
              <path id="al" d="M421.75,353.1v.5H81.35v-.5Z" fill="#131313"/>
            </g>
          </g>
        </g>
      </g>
      <path id="Path_4696" data-name="Path 4696" d="M382.92,0H337.05c-3.16,0-5.73,2.29-5.73,5.1V40.79c0,2.81,2.57,5.1,5.73,5.1h45.87c3.16,0,5.73-2.29,5.73-5.1V5.1C388.65,2.29,386.08,0,382.92,0ZM351.38,33.14V12.75l20.07,10.2-20.07,10.2Z" fill="#2a8eff"/>
      <g id="am">
        <g id="an">
          <g id="ao">
            <g id="Group_992" data-name="Group 992">
              <path id="Path_4697" data-name="Path 4697" d="M304.57,110.47v38.02H218.94c-8.94,0-16.18,6.84-16.18,15.3v22.04h-25c-9.56,0-17.3-8-17.3-17.88V66.42L185.4,92.6H287.29c9.54,0,17.28,8,17.28,17.88Z" fill="#00dc00"/>
              <path id="Path_4698" data-name="Path 4698" d="M323.27,234.93H220.7c-11.03,0-20-8.57-20-19.09V166.71c0-10.53,8.97-19.09,20-19.09h93.88l28.69-27.48v95.71c0,10.53-8.97,19.09-20,19.09h0ZM220.7,155.22c-6.83,0-12.38,5.15-12.38,11.48v49.13c0,6.33,5.56,11.48,12.38,11.48H323.27c6.83,0,12.38-5.15,12.38-11.48V137.96l-18.01,17.25H220.7Z" fill="#2a8eff"/>
            </g>
          </g>
        </g>
      </g>
      <g id="Group_993" data-name="Group 993">
        <path id="Path_4699" data-name="Path 4699" d="M171.25,278.42v7.17h-9.91V252.01c0-.96.46-1.44,1.39-1.44H191.5q4.905,0,7.07,2.19a8.425,8.425,0,0,1,2.16,6.18v3.08a6.064,6.064,0,0,1-.87,3.42,7.533,7.533,0,0,1-1.97,2.07,6.583,6.583,0,0,1,2.55,2.26,6.471,6.471,0,0,1,1.01,3.7v3.08q0,4.425-2.09,6.73c-1.4,1.54-3.79,2.31-7.19,2.31H174.32l-2.74-7.17h-.34Zm.82-20.06a.722.722,0,0,0-.82.82v5.92h16.64a3.36,3.36,0,0,0,2.31-.63,2.865,2.865,0,0,0,.67-2.16v-1.06a3.09,3.09,0,0,0-.67-2.24,3.3,3.3,0,0,0-2.31-.65H172.06Zm-.82,12.41v6.59h17.22a2.553,2.553,0,0,0,1.9-.62,3.112,3.112,0,0,0,.6-2.17v-1.01a3.353,3.353,0,0,0-.55-2.17,2.506,2.506,0,0,0-1.95-.62H171.25Z" fill="#00dc00"/>
        <path id="Path_4700" data-name="Path 4700" d="M237.25,264.52h-.38v-4.71c0-.32-.14-.48-.43-.48H219.7c-1.92,0-3.28.4-4.06,1.2s-1.18,2.28-1.18,4.43v5.87c0,2.08.38,3.55,1.15,4.4s2.13,1.28,4.09,1.28h26.22v9.09H218.84a19.641,19.641,0,0,1-6.64-.99,11.143,11.143,0,0,1-4.43-2.79,10.82,10.82,0,0,1-2.45-4.38,20.1,20.1,0,0,1-.77-5.75v-7.22a20.152,20.152,0,0,1,.77-5.75,10.954,10.954,0,0,1,2.45-4.38,11.073,11.073,0,0,1,4.43-2.79,19.641,19.641,0,0,1,6.64-.99h26.22a1.257,1.257,0,0,1,1.4,1.44v9.09l-9.19,3.42Z" fill="#2a8eff"/>
        <path id="Path_4701" data-name="Path 4701" d="M250.33,248.07h8.71v11.11h12.84a14.708,14.708,0,0,1,5,.75,8.274,8.274,0,0,1,3.34,2.12,8.143,8.143,0,0,1,1.85,3.29,15.226,15.226,0,0,1,.58,4.33v15.92h-8.71V270.25a4.394,4.394,0,0,0-.94-3.22,3.807,3.807,0,0,0-2.77-.91H260.8l-1.44-3.85h-.34V285.6h-8.71V248.08Z" fill="#2a8eff"/>
        <path id="Path_4702" data-name="Path 4702" d="M286.84,265.72v-6.54h24.53a4.735,4.735,0,0,1,3.82,1.44,6.335,6.335,0,0,1,1.23,4.18v19.63c0,.77-.37,1.15-1.11,1.15H292.27a8.443,8.443,0,0,1-2.57-.36,4.3,4.3,0,0,1-1.92-1.23,5.6,5.6,0,0,1-1.2-2.29,13.087,13.087,0,0,1-.41-3.54v-1.97q0-3.75,1.61-5.36a6.086,6.086,0,0,1,4.5-1.61H305.7l1.64,3.9h.34v-5.34a2.239,2.239,0,0,0-.46-1.59,1.813,1.813,0,0,0-1.37-.48h-19Zm20.3,13.32c.35,0,.53-.19.53-.58v-4.04H296.22a1.517,1.517,0,0,0-1.23.43,2,2,0,0,0-.36,1.3v1.15a1.98,1.98,0,0,0,.36,1.27,1.463,1.463,0,0,0,1.23.46h10.92Z" fill="#2a8eff"/>
        <path id="Path_4703" data-name="Path 4703" d="M339.56,265.82h-7.7v19.77h-8.71V265.82h-3.46l-2.4-6.25v-.38h5.87v-8.61h8.71v8.61h7.7v6.64Z" fill="#2a8eff"/>
      </g>
      <g id="ap">
        <path id="aq" d="M159.37,311.52a6.5,6.5,0,0,0,6.68,6.68,6.316,6.316,0,0,0,6.14-3.97h-2.08a4.184,4.184,0,0,1-4.06,2.53c-2.8,0-4.88-2.08-4.88-5.24s2.08-5.33,4.88-5.33a4.175,4.175,0,0,1,4.06,2.53h2.08a6.27,6.27,0,0,0-6.14-4.06,6.653,6.653,0,0,0-6.68,6.86Zm15.35,6.59h1.72v-5.78c0-2.26,1.26-3.34,2.98-3.34,1.81,0,2.89,1.08,2.89,3.25v5.87h1.72v-6.14c0-2.98-1.81-4.42-4.15-4.42a3.955,3.955,0,0,0-3.43,1.63v-5.15h-1.72v14.09Zm11.56-5.24c0,3.25,2.08,5.42,4.88,5.42a4.394,4.394,0,0,0,3.88-2.08v1.9h1.81V307.73h-1.81v1.9a4.315,4.315,0,0,0-3.88-2.08c-2.8,0-4.88,2.08-4.88,5.33Zm8.76,0c0,2.53-1.63,3.88-3.52,3.88a3.568,3.568,0,0,1-3.52-3.88,3.489,3.489,0,0,1,3.52-3.79A3.54,3.54,0,0,1,195.04,312.87Zm5.06,2.44c0,2.08,1.08,2.8,2.89,2.8h1.53v-1.44h-1.26c-.99,0-1.44-.36-1.44-1.35v-6.14h2.71v-1.44h-2.71v-2.62H200.1v2.62h-1.35v1.44h1.35v6.14Zm14.27,2.89,1.99-.09,3.16-10.65,3.07,10.65h1.99l3.79-13.18h-1.9l-2.89,11.2-2.98-11.2h-1.99l-3.16,11.2-2.89-11.2h-1.9l3.7,13.27Zm15.89-.09h1.72V307.73h-1.72Zm.9-12.1a1.17,1.17,0,1,0-1.17-1.17A1.191,1.191,0,0,0,231.16,306.01Zm4.15,9.3c0,2.08,1.08,2.8,2.89,2.8h1.53v-1.44h-1.26c-1.08,0-1.44-.36-1.44-1.35v-6.14h2.71v-1.44h-2.71v-2.62h-1.72v2.62h-1.35v1.44h1.35v6.14Zm6.5,2.8h1.81v-5.78c0-2.17,1.17-3.34,2.98-3.34s2.89,1.08,2.89,3.25v5.87h1.72v-6.14c0-2.98-1.9-4.42-4.15-4.42a3.631,3.631,0,0,0-3.43,1.72v-5.15h-1.81v14Zm17.25,0h1.72v-6.05h4.7v-1.35h-4.7V306.2h5.78v-1.35h-7.49v13.27Zm11.29-5.69c0-2.44,1.26-3.16,2.98-3.16h.45v-1.81a3.562,3.562,0,0,0-3.43,1.9v-1.63h-1.72V318.1h1.72v-5.69Zm9.84-3.43a2.981,2.981,0,0,1,3.25,3.07h-6.59a3.21,3.21,0,0,1,3.34-3.07Zm4.88,5.87h-1.9a2.847,2.847,0,0,1-2.89,1.9,3.319,3.319,0,0,1-3.43-3.25h8.31a4.035,4.035,0,0,0,.09-1.08,4.8,4.8,0,0,0-4.97-4.97c-2.98,0-5.15,2.08-5.15,5.42a4.936,4.936,0,0,0,5.15,5.33,4.713,4.713,0,0,0,4.79-3.34Zm6.86-5.87a3.055,3.055,0,0,1,3.34,3.07h-6.59a3.187,3.187,0,0,1,3.25-3.07Zm4.88,5.87h-1.9a2.847,2.847,0,0,1-2.89,1.9,3.244,3.244,0,0,1-3.34-3.25h8.31v-1.08a4.744,4.744,0,0,0-4.97-4.97c-3.07,0-5.15,2.08-5.15,5.42a4.936,4.936,0,0,0,5.15,5.33,4.639,4.639,0,0,0,4.79-3.34h0Zm1.9-2.08c0,3.25,2.08,5.42,4.88,5.42a4.216,4.216,0,0,0,3.88-2.08v1.99h1.72V304.02h-1.72v5.51a4.58,4.58,0,0,0-3.88-2.08c-2.8,0-4.88,2.17-4.88,5.33h0Zm8.76.09a3.568,3.568,0,0,1-3.52,3.88c-1.89,0-3.52-1.44-3.52-3.97a3.44,3.44,0,0,1,3.52-3.79,3.568,3.568,0,0,1,3.52,3.88Zm14.54,0a5.243,5.243,0,1,0-10.48,0,4.983,4.983,0,0,0,5.15,5.33,5.174,5.174,0,0,0,5.33-5.33Zm-8.76,0c0-2.62,1.72-3.88,3.52-3.88s3.52,1.26,3.52,3.88a3.58,3.58,0,0,1-3.61,3.88C314.88,316.75,313.25,315.49,313.25,312.87Zm26.09,5.24h1.72v-6.14c0-2.98-1.81-4.51-4.24-4.51a3.927,3.927,0,0,0-3.7,2.35,3.9,3.9,0,0,0-3.79-2.35,3.708,3.708,0,0,0-3.25,1.72v-1.53h-1.72v10.47h1.72v-5.78c0-2.26,1.17-3.34,2.89-3.34s2.89,1.08,2.89,3.16v5.96h1.72v-5.78c0-2.26,1.17-3.34,2.89-3.34s2.89,1.08,2.89,3.16v5.96Z" fill="#fff"/>
      </g>
      <path id="Path_4704" data-name="Path 4704" d="M51.93,55.15a2.469,2.469,0,0,0-1.74.82L38.71,67.23H32.73a1.741,1.741,0,0,0-1.74,1.74V79.41a1.741,1.741,0,0,0,1.74,1.74h5.98l11.42,11.2c1.74,1.74,3.48.85,3.48-1.52V57.27c0-1.38-.75-2.13-1.69-2.12Zm12.62,1.74a1.743,1.743,0,0,0-.38,3.32,15.671,15.671,0,0,1,0,27.96,1.742,1.742,0,0,0-.34,3.13,1.758,1.758,0,0,0,1.86-.03,19.1,19.1,0,0,0,0-34.16,1.768,1.768,0,0,0-.98-.22h-.16ZM60.8,61.68A1.744,1.744,0,0,0,60.31,65a10.46,10.46,0,0,1,.05,18.38,1.743,1.743,0,1,0,1.63,3.05,13.9,13.9,0,0,0-.05-24.48,1.665,1.665,0,0,0-.82-.27,1.819,1.819,0,0,0-.33,0Zm-4.51,5.71a1.737,1.737,0,0,0-.05,3.42,3.481,3.481,0,0,1,0,6.74,1.74,1.74,0,0,0,.87,3.37,6.961,6.961,0,0,0,0-13.48,1.791,1.791,0,0,0-.65-.05H56.3Z" fill="#00dc00"/>
      <path id="Path_4705" data-name="Path 4705" d="M384.35,449.87a4.12,4.12,0,0,0,4.31-3.88V425.08a1.094,1.094,0,0,0-1.84-.68l-4.62,4.16H362.81a4.12,4.12,0,0,0-4.31,3.88V446a4.127,4.127,0,0,0,4.31,3.88h21.54Zm-30.16-9.69v-7.75c0-4.28,3.86-7.75,8.62-7.75h12.92v-1.94a4.127,4.127,0,0,0-4.31-3.88H352.03l-4.62-4.16a1.1,1.1,0,0,0-1.84.68v20.91a4.127,4.127,0,0,0,4.31,3.88h4.31Z" fill="#fff"/>
      <path id="Path_4706" data-name="Path 4706" d="M505.28,307.72a2.394,2.394,0,0,0-2.41,2.41,40.834,40.834,0,0,0,40.93,40.93,2.388,2.388,0,0,0,2.41-2.41V340.2a2.406,2.406,0,0,0-2.35-2.41,37.323,37.323,0,0,1-4.63-.34,36.02,36.02,0,0,1-3.98-1.02,2.44,2.44,0,0,0-2.45.61l-5.34,5.31a37.6,37.6,0,0,1-15.86-15.86l5.31-5.34a2.445,2.445,0,0,0,.61-2.45,35.455,35.455,0,0,1-1.02-3.98,37.322,37.322,0,0,1-.34-4.63,2.406,2.406,0,0,0-2.41-2.35H505.3Zm24.07,2.41-7.22,7.22,7.22,7.22v-4.81h9.63v4.81l7.22-7.22-7.22-7.22v4.81h-9.63Z" fill="#26e003"/>
      <g id="Group_994" data-name="Group 994">
        <path id="Path_4707" data-name="Path 4707" d="M62.66,399.55,37.35,410.8v16.87c0,22.02,18.1,32.3,25.31,33.74,7.2-1.45,25.31-11.73,25.31-33.74V410.8L62.66,399.55Zm19.68,28.12c0,17.25-13.45,26.02-19.68,27.94-6.23-1.92-19.68-10.69-19.68-27.94V414.45l19.68-8.75,19.68,8.75Z" fill="#2a8eff"/>
        <path id="Path_4708" data-name="Path 4708" d="M85.15,427.67c0,17.25-15.37,29.01-22.49,30.93-7.12-1.92-22.49-13.68-22.49-30.93V414.45l22.49-12.09,22.49,12.09Z" fill="#2a8eff" opacity="0.3" style="isolation: isolate"/>
      </g>
      <path id="Path_4709" data-name="Path 4709" d="M82.26,281.92a8.491,8.491,0,0,0-7.69,8.57v6.6H72.3a1.874,1.874,0,0,0-1.87,1.87v14.16a1.921,1.921,0,0,0,1.92,1.92H93.36a1.92,1.92,0,0,0,1.92-1.92V298.96a1.874,1.874,0,0,0-1.87-1.87H91.14v-6.9a8.3,8.3,0,0,0-8.87-8.26Zm.59,2.74a5.505,5.505,0,0,1,5.52,5.52v6.9H77.33v-6.9a5.505,5.505,0,0,1,5.52-5.52Z" fill="#00dc00"/>
    </g>
  </g>
</svg>
