<svg width="28" height="28" viewBox="0 0 28 28" fill="none" xmlns="http://www.w3.org/2000/svg">
<g id="vuesax/linear/calendar">
<g id="calendar">
<path id="Vector (Stroke)" fill-rule="evenodd" clip-rule="evenodd" d="M9.33327 1.3335C9.88555 1.3335 10.3333 1.78121 10.3333 2.3335V3.0835H17.6667V2.3335C17.6667 1.78121 18.1144 1.3335 18.6667 1.3335C19.219 1.3335 19.6667 1.78121 19.6667 2.3335V3.12948C21.4287 3.29728 22.8417 3.92414 23.8474 5.00721C25.0243 6.27469 25.5 8.01354 25.5 9.91683V19.8335C25.5 21.7368 25.0243 23.4756 23.8474 24.7431C22.658 26.024 20.8989 26.6668 18.6667 26.6668H9.33333C7.10107 26.6668 5.34203 26.024 4.15262 24.7431C2.97568 23.4756 2.5 21.7368 2.5 19.8335V9.91683C2.5 8.01354 2.97568 6.27469 4.15262 5.00721C5.15833 3.92414 6.57131 3.29728 8.33327 3.12948V2.3335C8.33327 1.78121 8.78099 1.3335 9.33327 1.3335ZM8.33327 5.14046C7.05042 5.29549 6.1877 5.75482 5.61821 6.36811C4.94693 7.09103 4.55429 8.16589 4.50523 9.60511H23.4948C23.4457 8.16589 23.0531 7.09103 22.3818 6.36811C21.8123 5.75482 20.9496 5.29549 19.6667 5.14046V5.8335C19.6667 6.38578 19.219 6.8335 18.6667 6.8335C18.1144 6.8335 17.6667 6.38578 17.6667 5.8335V5.0835H10.3333V5.8335C10.3333 6.38578 9.88555 6.8335 9.33327 6.8335C8.78099 6.8335 8.33327 6.38578 8.33327 5.8335V5.14046ZM23.5 11.6051H4.5V19.8335C4.5 21.4302 4.89932 22.608 5.61821 23.3822C6.32464 24.143 7.48227 24.6668 9.33333 24.6668H18.6667C20.5177 24.6668 21.6754 24.143 22.3818 23.3822C23.1007 22.608 23.5 21.4302 23.5 19.8335V11.6051ZM8.6776 15.9837C8.6776 15.4314 9.12531 14.9837 9.6776 14.9837H9.6826C10.2349 14.9837 10.6826 15.4314 10.6826 15.9837C10.6826 16.5359 10.2349 16.9837 9.6826 16.9837H9.6776C9.12531 16.9837 8.6776 16.5359 8.6776 15.9837ZM12.9953 15.9837C12.9953 15.4314 13.443 14.9837 13.9953 14.9837H14.0003C14.5525 14.9837 15.0003 15.4314 15.0003 15.9837C15.0003 16.5359 14.5525 16.9837 14.0003 16.9837H13.9953C13.443 16.9837 12.9953 16.5359 12.9953 15.9837ZM17.3108 15.9837C17.3108 15.4314 17.7585 14.9837 18.3108 14.9837H18.3158C18.868 14.9837 19.3158 15.4314 19.3158 15.9837C19.3158 16.5359 18.868 16.9837 18.3158 16.9837H18.3108C17.7585 16.9837 17.3108 16.5359 17.3108 15.9837ZM8.6776 19.4837C8.6776 18.9314 9.12531 18.4837 9.6776 18.4837H9.6826C10.2349 18.4837 10.6826 18.9314 10.6826 19.4837C10.6826 20.0359 10.2349 20.4837 9.6826 20.4837H9.6776C9.12531 20.4837 8.6776 20.0359 8.6776 19.4837ZM12.9953 19.4837C12.9953 18.9314 13.443 18.4837 13.9953 18.4837H14.0003C14.5525 18.4837 15.0003 18.9314 15.0003 19.4837C15.0003 20.0359 14.5525 20.4837 14.0003 20.4837H13.9953C13.443 20.4837 12.9953 20.0359 12.9953 19.4837ZM17.3108 19.4837C17.3108 18.9314 17.7585 18.4837 18.3108 18.4837H18.3158C18.868 18.4837 19.3158 18.9314 19.3158 19.4837C19.3158 20.0359 18.868 20.4837 18.3158 20.4837H18.3108C17.7585 20.4837 17.3108 20.0359 17.3108 19.4837Z" fill="#A7A7BA"/>
</g>
</g>
</svg>
