<svg width="30" height="30" viewBox="0 0 30 30" fill="none" xmlns="http://www.w3.org/2000/svg">
<g clip-path="url(#clip0_1059_819)">
<path d="M5 0C2.25 0 0 2.25 0 5V19C0 21.75 2.25 24 5 24H9.23C9.59 24 9.93 23.82 10.11 23.5C10.29 23.19 10.29 22.8 10.11 22.49C9.93 22.18 9.59 21.99 9.23 21.99H5C3.33 21.99 2 20.66 2 18.99V5C2 3.33 3.33 2 5 2H13.55C13.91 2 14.25 1.82 14.43 1.5C14.61 1.19 14.61 0.8 14.43 0.49C14.24 0.18 13.91 0 13.55 0H5ZM17.43 0C17.07 0 16.73 0.18 16.55 0.5C16.37 0.81 16.37 1.2 16.55 1.51C16.73 1.82 17.07 2.01 17.43 2.01H19C20.67 2.01 22 3.34 22 5.01V19.01C22 20.68 20.67 22.01 19 22.01H13.18C12.82 22.01 12.48 22.19 12.3 22.51C12.12 22.82 12.12 23.21 12.3 23.52C12.48 23.83 12.82 24.02 13.18 24.02H19C21.75 24.02 24 21.77 24 19.02V5C24 2.25 21.75 0 19 0H17.43ZM7.98 5.28C6.06 5.2 5.29 6.68 5.29 7.11C5.29 7.41 4.88 11 8.94 15.06C13 19.12 16.59 18.71 16.89 18.71C17.32 18.71 18.81 17.93 18.72 16.02C18.71 15.68 18.52 15.37 18.22 15.19C17.89 14.98 17.37 14.65 16.7 14.22C16.09 13.83 15.29 13.8 14.65 14.15L14.07 14.4C13.77 14.61 13.38 14.66 13.04 14.51C12.51 14.29 11.69 13.86 10.92 13.09C10.15 12.32 9.72 11.5 9.5 10.97C9.36 10.63 9.4 10.24 9.61 9.94L9.86 9.36C10.21 8.72 10.18 7.93 9.79 7.31C9.36 6.64 9.03 6.12 8.82 5.79C8.63 5.5 8.32 5.31 7.99 5.29L7.98 5.28Z" fill="#F0F0F0"/>
<path d="M21.9996 17.0001C21.1096 16.9101 20.4496 17.8001 19.5696 17.7201C17.9896 17.6901 17.7696 19.3201 16.8296 20.1101C16.1496 20.6701 15.9496 21.8001 16.0596 22.4001C16.0896 22.5601 16.1596 22.7501 16.1696 22.9601C16.1696 23.2001 16.0796 23.4301 16.0596 23.6101C15.9596 24.3501 16.4296 25.7001 17.3196 26.3001C17.6396 27.3301 18.4096 28.2401 19.5696 28.2901C20.7996 28.4001 21.9696 29.5901 23.2396 28.6701C24.2996 28.0501 25.9696 28.3601 26.4296 26.8801L26.6696 26.3001C27.8396 25.5901 28.2896 24.2701 27.7696 23.0101C28.2896 21.7501 27.8296 20.4301 26.6696 19.7201L26.4296 19.1401C26.0196 18.0801 24.8596 17.6501 23.7796 17.6801C23.2596 17.3401 22.6296 16.9801 21.9896 17.0101L21.9996 17.0001ZM24.2496 21.2501C24.7296 20.8401 25.8996 21.6201 24.7796 22.4901C23.9596 23.1201 21.7396 25.9801 20.8696 25.2501L19.2096 23.6401C18.5096 22.9701 19.6096 21.9401 20.2696 22.6101L21.3996 23.7001C21.7496 23.4601 23.4296 21.9501 24.2496 21.2401V21.2501Z" fill="#F0F0F0"/>
<path d="M21.87 16.9902C21.87 16.9902 21.96 16.9902 22 16.9902C22.03 16.9902 22.05 16.9902 22.08 16.9902C22.69 16.9902 23.29 17.3402 23.79 17.6602C23.82 17.6602 23.86 17.6602 23.89 17.6602C24.94 17.6602 26.04 18.0902 26.44 19.1202L26.68 19.7002C27.85 20.4102 28.3 21.7302 27.78 22.9902C28.3 24.2502 27.84 25.5702 26.68 26.2802L26.44 26.8602C25.97 28.3402 24.3 28.0302 23.25 28.6502C22.9 28.9102 22.56 29.0002 22.22 29.0002C21.33 29.0002 20.48 28.3502 19.58 28.2702C18.42 28.2202 17.65 27.3102 17.33 26.2802C16.44 25.6902 15.98 24.3302 16.07 23.5902C16.09 23.4002 16.19 23.1702 16.18 22.9402C16.18 22.7302 16.1 22.5402 16.07 22.3802C15.96 21.7902 16.16 20.6502 16.84 20.0902C17.77 19.3002 17.99 17.7002 19.54 17.7002C19.55 17.7002 19.57 17.7002 19.58 17.7002C19.62 17.7002 19.65 17.7002 19.69 17.7002C20.47 17.7002 21.09 16.9702 21.87 16.9702M21.4 23.7202L20.27 22.6302C20.12 22.4802 19.94 22.4102 19.77 22.4102C19.2 22.4102 18.67 23.1402 19.21 23.6602L20.87 25.2702C20.97 25.3502 21.08 25.3902 21.21 25.3902C22.22 25.3902 24.06 23.0702 24.78 22.5102C25.69 21.8102 25.09 21.1502 24.57 21.1502C24.45 21.1502 24.34 21.1902 24.25 21.2602C23.43 21.9702 21.75 23.4902 21.4 23.7202ZM21.87 15.9902C21.23 15.9902 20.72 16.2602 20.31 16.4702C20.07 16.5902 19.83 16.7202 19.69 16.7202H19.65H19.59H19.54C17.98 16.7202 17.26 17.8302 16.79 18.5702C16.59 18.8802 16.4 19.1802 16.2 19.3502C15.18 20.1902 14.94 21.7502 15.1 22.5902C15.11 22.6602 15.13 22.7402 15.15 22.8202C15.16 22.8702 15.19 22.9602 15.19 22.9802C15.19 23.0102 15.17 23.1002 15.15 23.1602C15.12 23.2702 15.1 23.3802 15.09 23.4802C14.96 24.5002 15.49 26.0402 16.49 26.9102C17.04 28.3202 18.18 29.2202 19.54 29.2902C19.77 29.3102 20.11 29.4402 20.46 29.5802C20.98 29.7802 21.56 30.0102 22.22 30.0102C22.78 30.0102 23.31 29.8402 23.79 29.5002C24.02 29.3802 24.35 29.3002 24.71 29.2102C25.44 29.0402 26.47 28.7902 27.08 27.8602H27.12L27.22 27.6102C27.28 27.4902 27.34 27.3602 27.38 27.2202L27.5 26.9402C28.76 26.0102 29.29 24.4702 28.86 22.9902C29.3 21.5102 28.77 19.9602 27.5 19.0302C27.46 18.9402 27.42 18.8402 27.38 18.7302L27.12 18.1202H27.04C26.43 17.2502 25.36 16.7102 24.09 16.6602C23.49 16.2902 22.83 15.9902 22.09 15.9902C22.07 15.9902 22.06 15.9902 22.04 15.9902C21.99 15.9902 21.93 15.9902 21.88 15.9902H21.87Z" fill="#202329"/>
</g>
<defs>
<clipPath id="clip0_1059_819">
<rect width="30" height="30" fill="white"/>
</clipPath>
</defs>
</svg>
