<svg width="179" height="191" viewBox="0 0 179 191" fill="none" xmlns="http://www.w3.org/2000/svg">
<g id="No_address">
<g id="Group 563">
<path id="Path 4516" d="M34.6238 83.816C27.5773 90.2388 23.4132 109.311 35.912 125.988C41.6899 133.7 50.6222 138.72 57.1239 139.003L34.6238 83.816ZM34.6238 83.816C40.3134 78.6314 47.6777 78.369 57.4866 82.301L34.6238 83.816ZM58.4468 139.67L58.4426 139.011L57.7833 139.016C58.4426 139.011 58.4426 139.011 58.4426 139.011L58.4425 139.009L58.4425 139.003L58.4423 138.978L58.4417 138.88L58.4392 138.495L58.4298 137.023C58.4217 135.75 58.4101 133.92 58.3962 131.689C58.3684 127.227 58.3313 121.164 58.2942 114.758C58.22 101.947 58.1459 87.7707 58.1459 82.301V81.855L57.7319 81.689C52.7768 79.7027 48.3821 78.7517 44.4718 78.9816C40.543 79.2126 37.1363 80.6345 34.1797 83.3287L34.1797 83.3288C30.4899 86.692 27.6448 93.2538 27.2799 101.026C26.9136 108.825 29.038 117.915 35.3844 126.383C38.4286 130.446 42.3284 133.773 46.3031 136.08C50.2684 138.382 54.359 139.698 57.7878 139.675L58.4468 139.67Z" fill="#EBEBEB" stroke="#ACACAC" stroke-width="1.31858"/>
<g id="Group 1748">
<path id="Path 4519" d="M32.5707 74.629C59.5159 80.6886 71.6815 70.2938 77.6913 48.8166C83.7598 27.125 75.5228 8.50142 72.6254 13.8847C69.7281 19.268 67.4996 30.7018 43.6536 25.3395C15.5215 19.0109 21.4775 8.79164 21.1743 2.6903C20.8711 -3.41104 5.48172 9.32212 2.12717 30.7029C-1.33074 52.7341 5.83346 68.616 32.5707 74.629Z" fill="#EBEBEB" stroke="#ACACAC" stroke-width="1.31858" stroke-miterlimit="10"/>
<path id="Path 4520" d="M42.0494 32.9916C34.8746 31.2282 30.6885 29.825 27.9885 29.0151C23.4172 27.644 15.8623 24.4241 12.2078 40.6819C10.1856 49.6755 14.0987 55.9803 19.1195 59.456C22.4156 61.7388 28.1982 63.768 33.8378 65.1249L35.4802 65.4942C41.1621 66.6852 47.2551 67.3274 51.2128 66.6769C57.2372 65.6847 63.4731 61.6629 65.4966 52.6693C69.1511 36.4168 60.9495 36.0881 56.2312 35.3711C53.4447 34.9508 49.061 34.4213 41.823 32.9435L42.0494 32.9916Z" fill="#EBEBEB" stroke="#ACACAC" stroke-width="1.31858" stroke-miterlimit="10"/>
<path id="Path 4521" d="M32.471 56.6196C33.0335 55.9457 33.7631 55.4313 34.5869 55.1281C35.4107 54.8248 36.2997 54.7433 37.1649 54.8917C38.0038 55.1238 38.7653 55.5761 39.3705 56.2017C39.9756 56.8273 40.4024 57.6035 40.6065 58.4496" stroke="#ACACAC" stroke-width="1.31858" stroke-miterlimit="10"/>
<path id="Path 4522" d="M22.0076 47.6008L28.7403 49.1111C29.0546 49.1812 29.3838 49.1238 29.6558 48.9514C29.9278 48.7791 30.1203 48.5058 30.191 48.1917L31.9415 40.4023L29.3401 41.4104C29.1144 41.4982 28.8677 41.5166 28.6315 41.4634L23.507 40.3116C23.2279 40.2488 22.9354 40.2995 22.6937 40.4524C22.452 40.6053 22.2809 40.8479 22.218 41.1269L21.0896 46.1462C21.0541 46.302 21.0497 46.4632 21.0766 46.6208C21.1036 46.7783 21.1613 46.9289 21.2466 47.0641C21.3319 47.1992 21.443 47.3162 21.5736 47.4083C21.7042 47.5004 21.8517 47.5658 22.0076 47.6008Z" fill="#EBEBEB" stroke="#ACACAC" stroke-width="1.31858" stroke-miterlimit="10"/>
<path id="Path 4523" d="M53.9167 54.7752L47.184 53.265C47.0286 53.2301 46.8815 53.1649 46.7512 53.0732C46.621 52.9815 46.51 52.865 46.4248 52.7304C46.3395 52.5958 46.2816 52.4458 46.2544 52.2888C46.2271 52.1318 46.2311 51.971 46.266 51.8156L48.019 44.0262L49.9434 46.0463C50.11 46.222 50.3251 46.3442 50.5614 46.3972L55.6859 47.5504C55.8241 47.5813 55.9549 47.6392 56.0707 47.7208C56.1866 47.8024 56.2852 47.906 56.3609 48.0257C56.4367 48.1454 56.488 48.2789 56.5121 48.4185C56.5362 48.5582 56.5325 48.7011 56.5012 48.8393L55.3754 53.8586C55.3402 54.0148 55.2746 54.1625 55.1821 54.2932C55.0897 54.424 54.9723 54.5351 54.8368 54.6203C54.7012 54.7055 54.5501 54.7631 54.3922 54.7897C54.2343 54.8162 54.0727 54.8113 53.9167 54.7752Z" fill="#EBEBEB" stroke="#ACACAC" stroke-width="1.31858" stroke-miterlimit="10"/>
</g>
<path id="Path 4525" d="M56.35 79.44V178.333C56.35 184.523 61.3679 189.541 67.5579 189.541H166.451C172.641 189.541 177.659 184.523 177.659 178.333V79.44C177.659 73.25 172.641 68.2321 166.451 68.2321H67.5579C61.3679 68.2321 56.35 73.25 56.35 79.44Z" fill="#EBEBEB" stroke="#ACACAC" stroke-width="1.31858" stroke-miterlimit="10"/>
<path id="Rectangle 295" d="M162.814 81.9702H71.8311C69.4585 81.9702 67.5352 83.8936 67.5352 86.2661V103.822C67.5352 106.194 69.4585 108.118 71.8311 108.118H162.814C165.187 108.118 167.11 106.194 167.11 103.822V86.2661C167.11 83.8936 165.187 81.9702 162.814 81.9702Z" stroke="#ACACAC" stroke-width="1.35813" stroke-miterlimit="10"/>
<path id="Rectangle 296" d="M162.814 116.911H71.8311C69.4585 116.911 67.5352 118.834 67.5352 121.207V138.763C67.5352 141.135 69.4585 143.058 71.8311 143.058H162.814C165.187 143.058 167.11 141.135 167.11 138.763V121.207C167.11 118.834 165.187 116.911 162.814 116.911Z" stroke="#ACACAC" stroke-width="1.35813" stroke-miterlimit="10"/>
<path id="Rectangle 297" d="M162.814 151.852H71.8311C69.4585 151.852 67.5352 153.775 67.5352 156.148V173.703C67.5352 176.076 69.4585 177.999 71.8311 177.999H162.814C165.187 177.999 167.11 176.076 167.11 173.703V156.148C167.11 153.775 165.187 151.852 162.814 151.852Z" stroke="#ACACAC" stroke-width="1.35813" stroke-miterlimit="10"/>
<path id="Line 101" d="M88.6558 95.2625H155.903" stroke="#ACACAC" stroke-width="1.97787" stroke-miterlimit="10" stroke-linecap="round"/>
<path id="Line 102" d="M88.6558 165.147H155.903" stroke="#ACACAC" stroke-width="1.97787" stroke-miterlimit="10" stroke-linecap="round"/>
<path id="Line 104" d="M88.6558 130.864H155.903" stroke="#ACACAC" stroke-width="1.97787" stroke-miterlimit="10" stroke-linecap="round"/>
<ellipse id="Ellipse 70" cx="79.6586" cy="95.2624" rx="2.63716" ry="2.63715" fill="#ACACAC"/>
<ellipse id="Ellipse 71" cx="79.6586" cy="130.864" rx="2.63716" ry="2.63715" fill="#ACACAC"/>
<ellipse id="Ellipse 72" cx="79.6586" cy="165.147" rx="2.63716" ry="2.63715" fill="#ACACAC"/>
<path id="Path 4529" d="M41.8366 110.175L41.8366 110.176C42.8442 116.859 43.5858 122.378 43.5905 126.352C43.5928 128.334 43.413 129.997 42.9544 131.246C42.4881 132.517 41.6991 133.439 40.4702 133.749L40.47 133.749C39.9169 133.889 39.3197 133.812 38.7303 133.612C38.1372 133.411 37.508 133.07 36.8617 132.622C35.5689 131.727 34.1369 130.353 32.6926 128.618C29.8011 125.145 26.7942 120.142 24.7058 114.376L24.7057 114.376C22.5898 108.529 21.6267 103.078 22.0378 98.8128C22.449 94.5466 24.2692 91.3042 27.8599 90.2682L41.8366 110.175ZM41.8366 110.175C40.9302 104.176 39.6099 98.6573 37.4751 94.9128M41.8366 110.175L37.4751 94.9128M37.4751 94.9128C36.4041 93.0341 35.0993 91.55 33.4882 90.6977M37.4751 94.9128L33.4882 90.6977M33.4882 90.6977C31.8579 89.8352 29.9819 89.6556 27.86 90.2682L33.4882 90.6977Z" fill="#EBEBEB" stroke="#ACACAC" stroke-width="1.31858"/>
<g id="Path 4531">
<mask id="path-18-inside-1_1179_4569" fill="white">
<path d="M53.0204 144.12L48.7297 142.876C47.5782 142.543 46.6064 141.765 46.0278 140.715C45.4492 139.665 45.3113 138.428 45.6443 137.276L46.8877 132.986C47.2218 131.834 47.9996 130.862 49.0502 130.283C50.1008 129.705 51.3382 129.567 52.4903 129.9L56.7836 131.144C57.3541 131.309 57.8865 131.584 58.3503 131.955C58.8142 132.326 59.2004 132.784 59.487 133.304C59.7735 133.824 59.9548 134.396 60.0203 134.986C60.0859 135.576 60.0345 136.173 59.8691 136.744L58.6283 141.034C58.2939 142.186 57.516 143.158 56.4655 143.736C55.415 144.315 54.1778 144.453 53.0257 144.12"/>
</mask>
<path d="M53.0204 144.12L48.7297 142.876C47.5782 142.543 46.6064 141.765 46.0278 140.715C45.4492 139.665 45.3113 138.428 45.6443 137.276L46.8877 132.986C47.2218 131.834 47.9996 130.862 49.0502 130.283C50.1008 129.705 51.3382 129.567 52.4903 129.9L56.7836 131.144C57.3541 131.309 57.8865 131.584 58.3503 131.955C58.8142 132.326 59.2004 132.784 59.487 133.304C59.7735 133.824 59.9548 134.396 60.0203 134.986C60.0859 135.576 60.0345 136.173 59.8691 136.744L58.6283 141.034C58.2939 142.186 57.516 143.158 56.4655 143.736C55.415 144.315 54.1778 144.453 53.0257 144.12" fill="#EBEBEB"/>
<path d="M48.7297 142.876L48.3626 144.143L48.3627 144.143L48.7297 142.876ZM45.6443 137.276L44.3778 136.909L44.3776 136.91L45.6443 137.276ZM46.8877 132.986L45.6213 132.618L45.6212 132.619L46.8877 132.986ZM52.4903 129.9L52.8571 128.634L52.8569 128.634L52.4903 129.9ZM56.7836 131.144L56.4168 132.41L56.4176 132.41L56.7836 131.144ZM59.8691 136.744L58.6027 136.376L58.6024 136.377L59.8691 136.744ZM58.6283 141.034L59.8946 141.402L59.895 141.401L58.6283 141.034ZM53.3874 142.853L49.0967 141.61L48.3627 144.143L52.6534 145.386L53.3874 142.853ZM49.0969 141.61C48.2811 141.373 47.5926 140.823 47.1827 140.079L44.8729 141.351C45.6202 142.708 46.8754 143.712 48.3626 144.143L49.0969 141.61ZM47.1827 140.079C46.7728 139.335 46.675 138.459 46.911 137.643L44.3776 136.91C43.9475 138.398 44.1257 139.995 44.8729 141.351L47.1827 140.079ZM46.9107 137.643L48.1541 133.353L45.6212 132.619L44.3778 136.909L46.9107 137.643ZM48.1541 133.353C48.3908 132.537 48.9419 131.848 49.6863 131.438L48.4142 129.128C47.0573 129.875 46.0528 131.131 45.6213 132.618L48.1541 133.353ZM49.6863 131.438C50.4307 131.028 51.3074 130.931 52.1238 131.167L52.8569 128.634C51.369 128.203 49.771 128.381 48.4142 129.128L49.6863 131.438ZM52.1235 131.167L56.4168 132.41L57.1504 129.877L52.8571 128.634L52.1235 131.167ZM56.4176 132.41C56.8216 132.527 57.1986 132.722 57.5271 132.985L59.1735 130.925C58.5743 130.446 57.8866 130.09 57.1496 129.877L56.4176 132.41ZM57.5271 132.985C57.8556 133.247 58.1292 133.572 58.3321 133.941L60.6419 132.668C60.2717 131.996 59.7727 131.404 59.1735 130.925L57.5271 132.985ZM58.3321 133.941C58.535 134.309 58.6634 134.714 58.7098 135.131L61.3309 134.84C61.2462 134.078 61.012 133.34 60.6419 132.668L58.3321 133.941ZM58.7098 135.131C58.7563 135.549 58.7199 135.972 58.6027 136.376L61.1355 137.111C61.3491 136.374 61.4155 135.603 61.3309 134.84L58.7098 135.131ZM58.6024 136.377L57.3616 140.668L59.895 141.401L61.1358 137.11L58.6024 136.377ZM57.362 140.667C57.125 141.483 56.5738 142.171 55.8294 142.581L57.1016 144.891C58.4582 144.144 59.4627 142.889 59.8946 141.402L57.362 140.667ZM55.8294 142.581C55.085 142.991 54.2083 143.089 53.3918 142.853L52.6595 145.386C54.1473 145.817 55.745 145.639 57.1016 144.891L55.8294 142.581Z" fill="#ACACAC" mask="url(#path-18-inside-1_1179_4569)"/>
</g>
<path id="Path 4532" d="M57.0476 125.665L57.0473 125.664C56.9598 125.408 56.8164 125.244 56.6222 125.13C56.4132 125.006 56.1133 124.922 55.7037 124.899C54.8735 124.852 53.7761 125.063 52.553 125.415L57.0476 125.665ZM57.0476 125.665C57.1513 125.968 57.1396 126.223 57.0557 126.453C56.9675 126.695 56.7839 126.951 56.4808 127.21C55.8654 127.735 54.864 128.18 53.6625 128.48C52.4489 128.783 51.384 128.891 50.6077 128.764C49.8543 128.641 49.5013 128.332 49.3836 127.867L49.3833 127.866M57.0476 125.665L49.3833 127.866M49.3833 127.866C49.3147 127.597 49.3336 127.387 49.4027 127.208M49.3833 127.866L49.4027 127.208M49.4027 127.208C49.4748 127.02 49.6202 126.819 49.8774 126.607M49.4027 127.208L49.8774 126.607M49.8774 126.607C50.4078 126.169 51.3044 125.775 52.553 125.415L49.8774 126.607Z" fill="#EBEBEB" stroke="#ACACAC" stroke-width="1.31858"/>
</g>
<g id="Group 1749">
<path id="Vector 19" d="M33.2764 161.191L41.8471 169.762" stroke="#ACACAC" stroke-width="2.63715" stroke-linecap="round"/>
<path id="Vector 20" d="M41.8477 161.191L33.2769 169.762" stroke="#ACACAC" stroke-width="2.63715" stroke-linecap="round"/>
</g>
<g id="Group 1750">
<path id="Vector 19_2" d="M132.168 49.1128L140.739 57.6835" stroke="#ACACAC" stroke-width="2.63715" stroke-linecap="round"/>
<path id="Vector 20_2" d="M140.739 49.113L132.168 57.6838" stroke="#ACACAC" stroke-width="2.63715" stroke-linecap="round"/>
</g>
</g>
</svg>
