<svg width="182" height="182" viewBox="0 0 182 182" fill="none" xmlns="http://www.w3.org/2000/svg">
<g id="no_transaction" clip-path="url(#clip0_1_8183)">
<g id="Group 564">
<g id="Clip path group">
<mask id="mask0_1_8183" style="mask-type:luminance" maskUnits="userSpaceOnUse" x="0" y="0" width="182" height="182">
<g id="clip-path">
<path id="Rectangle 299" d="M181.809 0H0.0090332V181.169H181.809V0Z" fill="white"/>
</g>
</mask>
<g mask="url(#mask0_1_8183)">
<g id="Group 563">
<path id="Path 4516" d="M58.4345 134.812C52.0722 134.855 42.9836 129.902 37.175 122.149C25.0258 105.938 29.0734 87.3992 35.9228 81.1561C41.4533 76.1164 48.6116 75.8614 58.1461 79.6834C58.1461 90.3215 58.4345 134.812 58.4345 134.812Z" fill="#202329"/>
<path id="Path 4517" d="M58.4345 134.812C52.0722 134.855 42.9836 129.902 37.175 122.149C25.0258 105.938 29.0734 87.3992 35.9228 81.1561C41.4533 76.1164 48.6116 75.8614 58.1461 79.6834C58.1461 90.3266 58.4345 134.812 58.4345 134.812Z" stroke="#65656E" stroke-width="1.2817" stroke-miterlimit="10" stroke-linecap="round"/>
<path id="Path 4518" d="M31.6757 72.2939C57.9185 77.9513 69.6538 67.7426 75.3099 46.815C81.0211 25.6785 72.8542 7.64759 70.0844 12.9051C67.3147 18.1627 65.2473 29.2955 42.0229 24.2892C14.624 18.3805 20.325 8.39611 19.9777 2.46825C19.6303 -3.45961 4.78186 9.04977 1.70579 29.8607C-1.46514 51.3048 5.63548 66.6801 31.6757 72.2939Z" fill="#202329"/>
<path id="Path 4519" d="M31.6757 72.2939C57.9185 77.9513 69.6538 67.7426 75.3099 46.815C81.0211 25.6785 72.8542 7.6476 70.0844 12.9051C67.3147 18.1627 65.2473 29.2955 42.0229 24.2892C14.624 18.3805 20.325 8.39611 19.9777 2.46825C19.6303 -3.45961 4.78186 9.04977 1.70579 29.8607C-1.46514 51.3048 5.63548 66.6801 31.6757 72.2939Z" stroke="#65656E" stroke-width="1.2817" stroke-miterlimit="10"/>
<path id="Path 4520" d="M40.5273 31.741C33.5382 30.0889 29.4573 28.761 26.826 27.9971C22.3708 26.7039 14.9997 23.6394 11.5879 39.4735C9.69991 48.2326 13.5578 54.3271 18.468 57.6621C21.6915 59.8525 27.3297 61.775 32.823 63.0452L34.4226 63.39C39.9557 64.4986 45.8836 65.0703 49.7248 64.4038C55.5719 63.3874 61.5985 59.4244 63.4877 50.6653C66.8996 34.8363 58.9248 34.5876 54.3325 33.9314C51.6204 33.5469 47.3549 33.0701 40.3069 31.6961L40.5273 31.741Z" fill="#202329" stroke="#65656E" stroke-width="1.2817" stroke-miterlimit="10"/>
<path id="Path 4521" d="M31.4224 54.7894C31.9633 54.1294 32.668 53.6232 33.4661 53.3213C34.2642 53.0195 35.1276 52.9326 35.9698 53.0693C36.7872 53.2877 37.5313 53.7208 38.125 54.3236C38.7186 54.9265 39.1401 55.6772 39.3458 56.4979" stroke="#65656E" stroke-width="1.2817" stroke-miterlimit="10"/>
<path id="Path 4522" d="M21.177 46.1148L27.7341 47.5246C28.0402 47.5901 28.3597 47.5314 28.6226 47.3615C28.8855 47.1917 29.0702 46.9244 29.1363 46.6185L30.7705 39.0321L28.2507 40.0344C28.0321 40.1217 27.7924 40.1417 27.5624 40.0921L22.5715 39.0167C22.2997 38.9581 22.0158 39.0099 21.7821 39.1606C21.5485 39.3113 21.3843 39.5486 21.3256 39.8203L20.2721 44.7087C20.2389 44.8605 20.236 45.0173 20.2636 45.1702C20.2912 45.323 20.3486 45.469 20.4327 45.5996C20.5167 45.7302 20.6258 45.8429 20.7535 45.9314C20.8812 46.0198 21.0251 46.0821 21.177 46.1148Z" stroke="#65656E" stroke-width="1.2817" stroke-miterlimit="10"/>
<path id="Path 4523" d="M52.2499 52.8119L45.6927 51.4021C45.5413 51.3695 45.3978 51.3074 45.2704 51.2194C45.143 51.1314 45.0342 51.0191 44.9501 50.889C44.8661 50.759 44.8085 50.6136 44.7807 50.4612C44.7528 50.3089 44.7553 50.1526 44.7879 50.0012L46.4246 42.4148L48.3125 44.3617C48.476 44.5311 48.6861 44.648 48.9162 44.6975L53.9072 45.7741C54.0418 45.803 54.1694 45.8582 54.2827 45.9365C54.396 46.0148 54.4927 46.1146 54.5674 46.2303C54.642 46.3461 54.6931 46.4754 54.7177 46.6109C54.7423 46.7463 54.74 46.8854 54.7108 47.0199L53.6598 51.9083C53.627 52.0605 53.5644 52.2046 53.4757 52.3325C53.387 52.4604 53.2738 52.5694 53.1428 52.6534C53.0118 52.7374 52.8654 52.7946 52.7122 52.8218C52.559 52.849 52.4019 52.8457 52.2499 52.8119Z" stroke="#65656E" stroke-width="1.2817" stroke-miterlimit="10"/>
<path id="Path 4524" d="M58.0532 181.168V68.5306C58.0536 62.9124 60.2855 57.5244 64.2582 53.5517C68.2309 49.579 73.6189 47.347 79.2371 47.3467H159.632C165.25 47.3467 170.638 49.5785 174.611 53.5512C178.584 57.5239 180.817 62.9122 180.817 68.5306V181.168" fill="#202329"/>
<path id="Path 4525" d="M58.0532 181.168V68.5306C58.0536 62.9124 60.2855 57.5244 64.2582 53.5517C68.2309 49.579 73.6189 47.347 79.2371 47.3467H159.632C165.25 47.3467 170.638 49.5785 174.611 53.5512C178.584 57.5239 180.817 62.9122 180.817 68.5306V181.168" stroke="#65656E" stroke-width="1.2817" stroke-miterlimit="10"/>
<path id="Rectangle 295" d="M164.376 79.3611H75.938C73.6318 79.3611 71.7622 81.2306 71.7622 83.5369V100.601C71.7622 102.908 73.6318 104.777 75.938 104.777H164.376C166.683 104.777 168.552 102.908 168.552 100.601V83.5369C168.552 81.2306 166.683 79.3611 164.376 79.3611Z" stroke="#65656E" stroke-width="1.32015" stroke-miterlimit="10"/>
<path id="Rectangle 296" d="M164.376 113.325H75.938C73.6318 113.325 71.7622 115.195 71.7622 117.501V134.566C71.7622 136.872 73.6318 138.741 75.938 138.741H164.376C166.683 138.741 168.552 136.872 168.552 134.566V117.501C168.552 115.195 166.683 113.325 164.376 113.325Z" stroke="#65656E" stroke-width="1.32015" stroke-miterlimit="10"/>
<path id="Rectangle 297" d="M164.376 147.289H75.938C73.6318 147.289 71.7622 149.158 71.7622 151.464V168.529C71.7622 170.835 73.6318 172.705 75.938 172.705H164.376C166.683 172.705 168.552 170.835 168.552 168.529V151.464C168.552 149.158 166.683 147.289 164.376 147.289Z" stroke="#65656E" stroke-width="1.32015" stroke-miterlimit="10"/>
<path id="Line 101" d="M97.8289 92.0701H145.966" stroke="#65656E" stroke-width="1.32015" stroke-miterlimit="10" stroke-linecap="round"/>
<path id="Line 102" d="M97.8289 159.997H145.966" stroke="#65656E" stroke-width="1.32015" stroke-miterlimit="10" stroke-linecap="round"/>
<path id="Line 103" d="M110.011 64.4595H133.524" stroke="#65656E" stroke-width="1.2817" stroke-miterlimit="10" stroke-linecap="round"/>
<path id="Line 104" d="M97.8289 127.236H145.966" stroke="#65656E" stroke-width="1.32015" stroke-miterlimit="10" stroke-linecap="round"/>
<path id="Path 4526" d="M89.7539 93.3764C89.7539 93.559 89.8264 93.734 89.9555 93.8631C90.0846 93.9922 90.2596 94.0647 90.4422 94.0647C90.6247 94.0647 90.7998 93.9922 90.9288 93.8631C91.0579 93.734 91.1304 93.559 91.1304 93.3764V88.556C91.1306 88.5108 91.1267 88.4658 91.1189 88.4214C91.1141 88.4014 91.1081 88.3817 91.101 88.3624L91.0792 88.2932C91.0692 88.2704 91.0572 88.2485 91.0433 88.2278C91.0355 88.2091 91.0261 88.1911 91.0151 88.174C90.9645 88.0985 90.8996 88.0336 90.8241 87.983C90.8077 87.9725 90.7905 87.9631 90.7728 87.9548C90.7513 87.9409 90.7286 87.9289 90.7049 87.919C90.6825 87.9096 90.6594 87.9023 90.6357 87.8972C90.6165 87.8972 90.596 87.8831 90.5767 87.8792C90.5323 87.8714 90.4873 87.8675 90.4422 87.8677H85.6217C85.4392 87.8677 85.2641 87.9402 85.135 88.0693C85.0059 88.1983 84.9334 88.3734 84.9334 88.556C84.9334 88.7385 85.0059 88.9136 85.135 89.0426C85.2641 89.1717 85.4392 89.2442 85.6217 89.2442H88.7798L82.8045 95.6002C82.6754 95.7293 82.6028 95.9045 82.6028 96.0872C82.6028 96.2699 82.6754 96.4451 82.8045 96.5743C82.9337 96.7034 83.1089 96.776 83.2916 96.776C83.4742 96.776 83.6494 96.7034 83.7786 96.5743L89.7539 90.2183V93.3764Z" fill="#65656E"/>
<path id="Path 4527" d="M89.7539 161.05C89.7539 161.232 89.8264 161.407 89.9555 161.536C90.0846 161.665 90.2596 161.738 90.4422 161.738C90.6247 161.738 90.7998 161.665 90.9288 161.536C91.0579 161.407 91.1304 161.232 91.1304 161.05V156.231C91.1306 156.185 91.1267 156.14 91.1189 156.096C91.1141 156.076 91.1081 156.056 91.101 156.037L91.0792 155.968C91.0692 155.945 91.0572 155.923 91.0433 155.902C91.0355 155.884 91.0261 155.866 91.0151 155.849C90.9645 155.773 90.8996 155.708 90.8241 155.658C90.8077 155.647 90.7905 155.638 90.7728 155.629C90.7513 155.615 90.7286 155.603 90.7049 155.594C90.6825 155.584 90.6594 155.577 90.6357 155.572C90.6165 155.572 90.596 155.558 90.5767 155.554C90.5323 155.546 90.4873 155.542 90.4422 155.542H85.6217C85.4392 155.542 85.2641 155.615 85.135 155.744C85.0059 155.873 84.9334 156.048 84.9334 156.231C84.9334 156.413 85.0059 156.588 85.135 156.717C85.2641 156.846 85.4392 156.919 85.6217 156.919H88.7798L82.8045 163.275C82.7406 163.339 82.6898 163.415 82.6552 163.498C82.6206 163.582 82.6028 163.671 82.6028 163.762C82.6028 163.852 82.6206 163.942 82.6552 164.025C82.6898 164.109 82.7406 164.185 82.8045 164.249C82.8685 164.313 82.9444 164.364 83.028 164.398C83.1116 164.433 83.2011 164.451 83.2916 164.451C83.382 164.451 83.4716 164.433 83.5552 164.398C83.6387 164.364 83.7147 164.313 83.7786 164.249L89.7539 157.893V161.05Z" fill="#65656E"/>
<path id="Path 4528" d="M83.9815 126.182C83.9815 125.999 83.909 125.824 83.7799 125.695C83.6509 125.566 83.4758 125.494 83.2933 125.494C83.1107 125.494 82.9357 125.566 82.8066 125.695C82.6775 125.824 82.605 125.999 82.605 126.182V130.999C82.6048 131.044 82.6087 131.089 82.6165 131.133C82.6213 131.153 82.6273 131.173 82.6345 131.192L82.6563 131.261C82.6663 131.284 82.6783 131.306 82.6921 131.327C82.6999 131.345 82.7094 131.363 82.7203 131.381C82.7709 131.456 82.8358 131.521 82.9113 131.572C82.9278 131.582 82.9449 131.591 82.9626 131.6C82.9841 131.614 83.0069 131.626 83.0305 131.636C83.0529 131.645 83.076 131.652 83.0997 131.657C83.1189 131.657 83.1395 131.672 83.1587 131.675C83.2031 131.683 83.2481 131.687 83.2933 131.687H88.1137C88.2963 131.687 88.4713 131.614 88.6004 131.485C88.7295 131.356 88.802 131.181 88.802 130.999C88.802 130.816 88.7295 130.641 88.6004 130.512C88.4713 130.383 88.2963 130.31 88.1137 130.31H84.9556L90.9309 123.954C90.9949 123.89 91.0456 123.815 91.0802 123.731C91.1148 123.647 91.1326 123.558 91.1326 123.467C91.1326 123.377 91.1148 123.287 91.0802 123.204C91.0456 123.12 90.9949 123.044 90.9309 122.98C90.8669 122.916 90.791 122.866 90.7074 122.831C90.6239 122.796 90.5343 122.779 90.4439 122.779C90.3534 122.779 90.2638 122.796 90.1803 122.831C90.0967 122.866 90.0208 122.916 89.9568 122.98L83.9815 129.336V126.182Z" fill="#65656E"/>
<path id="Path 4529" d="M29.706 88.6581L29.7059 88.6581C26.9319 89.4585 25.3413 91.9717 24.967 95.8553C24.5925 99.7401 25.4678 104.837 27.4897 110.423L29.706 88.6581ZM29.706 88.6581C31.489 88.1434 32.9652 88.3122 34.2219 88.9771C35.4973 89.6518 36.6121 90.8725 37.5833 92.5761C39.5328 95.9958 40.7909 101.157 41.6689 106.969C42.6514 113.486 43.355 118.753 43.3594 122.502M29.706 88.6581L43.3594 122.502M43.3594 122.502C43.3616 124.381 43.1869 125.816 42.8195 126.817M43.3594 122.502L42.8195 126.817M42.8195 126.817C42.4598 127.798 41.9499 128.284 41.2944 128.449M42.8195 126.817L41.2944 128.449M41.2944 128.449C41.077 128.504 40.7614 128.492 40.3287 128.345C39.8995 128.199 39.3957 127.934 38.8303 127.543C37.6997 126.76 36.3914 125.516 35.0331 123.884C32.3195 120.624 29.4703 115.892 27.4897 110.424L41.2944 128.449Z" fill="#202329" stroke="#65656E" stroke-width="1.2817"/>
<path id="Path 4531" d="M53.8074 139.773L49.6367 138.565C48.5174 138.24 47.5728 137.484 47.0104 136.464C46.448 135.443 46.3139 134.241 46.6376 133.121L47.8462 128.951C48.171 127.831 48.9271 126.886 49.9483 126.324C50.9695 125.761 52.1723 125.627 53.2921 125.951L57.4654 127.16C58.0199 127.32 58.5374 127.588 58.9882 127.949C59.4391 128.309 59.8146 128.755 60.0931 129.26C60.3717 129.766 60.5478 130.321 60.6116 130.895C60.6753 131.469 60.6253 132.049 60.4645 132.603L59.2585 136.774C58.9334 137.894 58.1772 138.838 57.1561 139.401C56.135 139.963 54.9324 140.097 53.8125 139.773" fill="#202329"/>
<path id="Rectangle 298" d="M48.0005 128.416L46.4876 133.646C45.8973 135.686 47.0731 137.819 49.1138 138.41L54.3437 139.923C56.3845 140.513 58.5174 139.337 59.1078 137.296L60.6207 132.067C61.211 130.026 60.0352 127.893 57.9945 127.303L52.7646 125.79C50.7238 125.199 48.5909 126.375 48.0005 128.416Z" stroke="#65656E" stroke-width="1.28221" stroke-miterlimit="10"/>
<path id="Path 4532" d="M53.1737 120.975C55.5781 120.283 57.7878 120.048 58.3261 121.626C58.9118 123.336 57.0111 124.586 54.5848 125.192C52.1586 125.798 50.0476 125.705 49.649 124.132C49.2645 122.626 50.7077 121.685 53.1737 120.975Z" fill="#202329"/>
<path id="Path 4533" d="M53.1749 120.975C55.5794 120.283 57.789 120.048 58.3274 121.626C58.9131 123.336 57.0123 124.586 54.5861 125.192C52.1598 125.798 50.0489 125.705 49.6503 124.132C49.2696 122.626 50.7089 121.685 53.1749 120.975Z" stroke="#65656E" stroke-width="1.2817" stroke-miterlimit="10"/>
</g>
</g>
</g>
</g>
</g>
<defs>
<clipPath id="clip0_1_8183">
<rect width="181.8" height="181.169" fill="white"/>
</clipPath>
</defs>
</svg>
