<svg id="no_messages" xmlns="http://www.w3.org/2000/svg" xmlns:xlink="http://www.w3.org/1999/xlink" width="650.774" height="400.029" viewBox="0 0 650.774 400.029">
  <defs>
    <clipPath id="clip-path">
      <rect id="Rectangle_269" data-name="Rectangle 269" width="650.774" height="400.029" fill="none"/>
    </clipPath>
    <clipPath id="clip-path-3">
      <rect id="Rectangle_267" data-name="Rectangle 267" width="16.143" height="52.345" fill="none"/>
    </clipPath>
  </defs>
  <g id="Group_676" data-name="Group 676" clip-path="url(#clip-path)">
    <g id="Group_675" data-name="Group 675">
      <g id="Group_674" data-name="Group 674" clip-path="url(#clip-path)">
        <path id="Path_2725" data-name="Path 2725" d="M687.052,88.425s-7.793-4.758-16.415,13.782-11.759,29.167-11.759,29.167-2.316,3.9-5.026,1.5-6.553-9.343-10.962-7.909c-4.571,1.488-5.906,6.7-4.753,14.24s3.076,24.164,3.244,25.666c.165,1.476-.6,3.688-2.712,2.349s-14.418-14.092-20.119-7.888.965,26.689,1.652,28.942.276,3.242-.785,3.844-4.794-4.075-8.443-7.559-8.492-6.884-11.482-3.028-3.429,19.422,12.261,44.117l8.02,10.967,13.589-1.246c28.919-4.44,40.351-15.017,41.286-19.8s-4.813-6.2-9.838-6.651-11-.187-11.247-1.382.229-2.154,2.377-3.12,21.96-9.431,22.878-17.805-16.785-9.25-19.18-9.956-1.237-2.74-.017-3.588c1.242-.863,15.02-10.354,21.458-14.45s9.482-8.531,7.593-12.951c-1.821-4.263-9.58-2.586-13.169-3.048s-2.175-4.774-2.175-4.774,5.936-9.355,14.22-28.049-.66-21.455-.66-21.455" transform="translate(-40.292 -5.922)" fill="#3c3c4c"/>
        <path id="Path_2726" data-name="Path 2726" d="M680.222,106.255s-.045.139-.152.4l-.49,1.159c-.448,1.033-1.094,2.525-1.921,4.437-1.674,3.852-4.137,9.406-7.206,16.258-6.135,13.707-14.771,32.569-24.377,53.368s-18.292,39.647-24.5,53.318c-3.093,6.825-5.6,12.354-7.34,16.2l-2,4.4-.531,1.14c-.121.256-.2.382-.2.382s.044-.139.152-.4c.117-.279.28-.663.49-1.158.447-1.034,1.093-2.525,1.921-4.436,1.673-3.852,4.136-9.406,7.205-16.258,6.135-13.707,14.772-32.571,24.381-53.378s18.288-39.638,24.5-53.309l7.34-16.2,2-4.4c.227-.487.4-.865.532-1.14.121-.256.195-.382.195-.382" transform="translate(-41.212 -7.161)" fill="#8b8b9e"/>
        <path id="Path_2727" data-name="Path 2727" d="M651.492,138.3a4.159,4.159,0,0,1,.381.906c.221.592.513,1.458.865,2.531.7,2.148,1.58,5.139,2.493,8.458.886,3.269,1.684,6.223,2.3,8.506l.71,2.574a4.015,4.015,0,0,1,.218.958,4.048,4.048,0,0,1-.389-.9c-.218-.593-.512-1.459-.852-2.537-.675-2.154-1.52-5.156-2.432-8.475-.907-3.26-1.728-6.209-2.362-8.487-.283-1.01-.525-1.868-.722-2.571a4,4,0,0,1-.212-.961" transform="translate(-43.906 -9.321)" fill="#8b8b9e"/>
        <path id="Path_2728" data-name="Path 2728" d="M660.312,163.527c-.041-.121,6.045-2.219,13.591-4.685s13.7-4.368,13.734-4.247-6.045,2.218-13.593,4.684-13.693,4.368-13.733,4.248" transform="translate(-44.501 -10.418)" fill="#8b8b9e"/>
        <path id="Path_2729" data-name="Path 2729" d="M642.946,197.578a4.191,4.191,0,0,1,1-.09l2.725-.1c2.3-.081,5.475-.205,8.974-.467s6.662-.593,8.947-.855l2.709-.3a4.277,4.277,0,0,1,1-.06,4.232,4.232,0,0,1-.976.237c-.633.121-1.553.281-2.692.45-2.279.345-5.445.736-8.956.991s-6.7.336-9,.334c-1.153-.006-2.086-.021-2.73-.051a4.2,4.2,0,0,1-1-.09" transform="translate(-43.331 -13.189)" fill="#8b8b9e"/>
        <path id="Path_2730" data-name="Path 2730" d="M629.817,176.067a3.614,3.614,0,0,1,.565.737c.339.49.816,1.207,1.4,2.1,1.162,1.782,2.74,4.263,4.459,7.017s3.255,5.264,4.346,7.091c.546.914.98,1.657,1.272,2.177a3.6,3.6,0,0,1,.413.831,3.624,3.624,0,0,1-.565-.736c-.339-.491-.815-1.208-1.4-2.1-1.162-1.783-2.741-4.264-4.461-7.019s-3.253-5.262-4.345-7.09c-.546-.913-.98-1.657-1.272-2.177a3.578,3.578,0,0,1-.413-.831" transform="translate(-42.446 -11.866)" fill="#8b8b9e"/>
        <path id="Path_2731" data-name="Path 2731" d="M610.725,203.731a5.925,5.925,0,0,1,.713.95l1.8,2.685c1.5,2.277,3.549,5.44,5.785,8.949s4.242,6.7,5.672,9.024l1.675,2.763a5.8,5.8,0,0,1,.56,1.046,5.853,5.853,0,0,1-.712-.95l-1.8-2.684c-1.5-2.277-3.549-5.442-5.786-8.951s-4.241-6.7-5.672-9.023l-1.674-2.762a5.881,5.881,0,0,1-.561-1.047" transform="translate(-41.159 -13.73)" fill="#e0e0e0"/>
        <path id="Path_2732" data-name="Path 2732" d="M627.867,229.981a6.757,6.757,0,0,1,1.264-.144l3.451-.243c2.913-.207,6.935-.505,11.366-.958s8.434-.953,11.329-1.339l3.429-.451a6.741,6.741,0,0,1,1.266-.114,6.63,6.63,0,0,1-1.238.29c-.8.158-1.967.366-3.41.6-2.886.468-6.889,1.028-11.33,1.474s-8.473.7-11.394.825c-1.461.058-2.644.092-3.462.1a6.707,6.707,0,0,1-1.271-.035" transform="translate(-42.315 -15.28)" fill="#8b8b9e"/>
        <path id="Path_2733" data-name="Path 2733" d="M490.561,399.563H199.114a39.88,39.88,0,0,1-39.88-39.88V40.418A39.88,39.88,0,0,1,199.114.538H490.561a39.88,39.88,0,0,1,39.88,39.88V359.683a39.88,39.88,0,0,1-39.88,39.88Z" transform="translate(-10.731 -0.036)" fill="none" stroke="#e2e2e2" stroke-width="1.078" stroke-dasharray="12.937 12.937"/>
        <path id="Path_2734" data-name="Path 2734" d="M91.408,175.968c21.755-14.522,27.066-42,26.6-66.769-.078-4.137.449-8.489-1.487-12.143s-6.545-6.2-10.323-4.518c-3.132,1.4-12.205,14.97-16.3,16.988-2.689,1.326-6,2.111-8.612.639-3.582-2.021-3.931-6.952-3.841-11.065q.252-11.489.5-22.982c.09-4.11.169-8.307-1.067-12.228S72.848,56.3,68.9,55.145s-8.881,1.028-9.78,5.038c-.374,1.67-.055,3.413-.2,5.118s-.977,3.581-2.627,4.033c-1.669.457-3.318-.735-4.546-1.956C47.516,63.163,36.822,41.583,33,36.988c-8.319-10.009-16.57-12.709-22.529-13.131S1.832,26.973.234,32.73c-1.6,5.773,5.4,16.158,9.056,20.906a92.39,92.39,0,0,0,19.075,18.5c1.3.939,2.706,1.955,3.186,3.484.862,2.754-1.813,5.438-4.567,6.3-3.122.973-6.485.6-9.739.934s-6.795,1.689-8.072,4.7c-1.77,4.178,1.723,8.635,5.181,11.572a79.892,79.892,0,0,0,23.365,13.781c3.048,1.154,6.256,2.171,8.694,4.333s3.871,5.879,2.335,8.752-5.386,3.746-8.587,3.111-6.046-2.4-9.087-3.583c-5.692-2.218-13.089-1.938-16.832,2.889-2.46,3.174-2.742,7.64-1.582,11.483s3.578,7.176,6.155,10.254c9.01,10.761,20.622,19.489,33.83,24.231s25.494,6.157,38.764,1.591" transform="translate(0 -1.605)" fill="#3c3c4c"/>
        <path id="Path_2735" data-name="Path 2735" d="M90.425,177.011c-3.5-12.547-13.086-42.068-18.793-55.953q-2.16-5.2-4.268-10.264c-1.405-3.367-2.8-6.7-4.37-9.882A183.633,183.633,0,0,0,52.92,83.146c-3.482-5.5-6.99-10.593-10.3-15.334s-6.508-9.089-9.581-12.936A147.449,147.449,0,0,0,17.188,37.8c-2.024-1.866-3.64-3.263-4.749-4.2l-1.264-1.055c-.289-.235-.446-.343-.446-.343s.129.141.4.392l1.226,1.1c1.078.965,2.669,2.39,4.664,4.281A154.043,154.043,0,0,1,32.69,55.148c3.045,3.855,6.2,8.218,9.5,12.959s6.78,9.848,10.242,15.345a184.543,184.543,0,0,1,10.012,17.726c1.557,3.168,2.94,6.481,4.347,9.856s2.823,6.8,4.262,10.26c5.706,13.875,15.294,43.365,18.816,55.873" transform="translate(-0.723 -2.17)" fill="#8b8b9e"/>
        <path id="Path_2736" data-name="Path 2736" d="M66.6,102.547a9.892,9.892,0,0,0,.407-1.752c.228-1.134.507-2.785.825-4.827.64-4.086,1.338-9.757,2.092-16.013s1.55-11.9,2.277-15.965c.357-2.033.667-3.674.9-4.806a9.821,9.821,0,0,0,.286-1.775,10.119,10.119,0,0,0-.522,1.721c-.3,1.117-.679,2.75-1.092,4.778-.842,4.052-1.708,9.708-2.463,15.972-.739,6.2-1.407,11.814-1.91,16.027-.254,1.961-.466,3.591-.63,4.851a9.879,9.879,0,0,0-.168,1.79" transform="translate(-4.488 -3.869)" fill="#8b8b9e"/>
        <path id="Path_2737" data-name="Path 2737" d="M9.346,94.358a1.931,1.931,0,0,0,.55.1l1.584.159c1.374.131,3.361.318,5.81.629,4.9.582,11.638,1.632,19.019,3.119s14,3.147,18.75,4.482c2.38.651,4.291,1.23,5.614,1.626l1.527.449a1.888,1.888,0,0,0,.547.117,1.9,1.9,0,0,0-.506-.235c-.409-.153-.9-.339-1.491-.559-1.3-.466-3.2-1.113-5.567-1.82-4.73-1.446-11.352-3.164-18.751-4.668s-14.168-2.475-19.093-2.946c-2.46-.256-4.46-.377-5.841-.435L9.9,94.33a1.929,1.929,0,0,0-.558.028" transform="translate(-0.63 -6.357)" fill="#8b8b9e"/>
        <path id="Path_2738" data-name="Path 2738" d="M90.639,164.311a3.256,3.256,0,0,0,.363-.644c.243-.5.553-1.126.934-1.9.806-1.655,1.914-4.079,3.244-7.091,2.665-6.021,6.092-14.448,9.754-23.8s7.022-17.8,9.582-23.853c1.268-2.969,2.306-5.4,3.059-7.164.339-.8.613-1.444.827-1.95a3.28,3.28,0,0,0,.251-.7,3.306,3.306,0,0,0-.364.646l-.934,1.9c-.806,1.655-1.911,4.079-3.242,7.091-2.666,6.021-6.093,14.448-9.756,23.8s-7.021,17.79-9.581,23.85c-1.268,2.968-2.306,5.4-3.059,7.164-.339.8-.613,1.444-.827,1.952a3.29,3.29,0,0,0-.251.7" transform="translate(-6.108 -6.551)" fill="#e0e0e0"/>
        <path id="Path_2739" data-name="Path 2739" d="M14.709,143.75a3.659,3.659,0,0,0,.706.284l2.06.7,7.591,2.529c6.405,2.143,15.217,5.212,24.944,8.627s18.573,6.422,25.018,8.46c3.223,1.021,5.837,1.821,7.654,2.342l2.1.59a3.455,3.455,0,0,0,.743.165,3.577,3.577,0,0,0-.707-.285l-2.059-.7-7.59-2.528c-6.406-2.143-15.218-5.214-24.949-8.628s-18.569-6.421-25.013-8.459c-3.223-1.02-5.838-1.821-7.655-2.342l-2.1-.59a3.455,3.455,0,0,0-.743-.165" transform="translate(-0.991 -9.688)" fill="#8b8b9e"/>
        <path id="Path_2740" data-name="Path 2740" d="M496.761,31.987h87.754L589.629,19.9a.87.87,0,0,1,1.67.338l.035,41.752a25.436,25.436,0,0,1-25.622,25.245H491.93a25.436,25.436,0,0,1-25.623-25.245,30.232,30.232,0,0,1,30.454-30" transform="translate(-31.426 -1.305)" fill="#3c3c4c"/>
        <path id="Path_2741" data-name="Path 2741" d="M574.763,57.451c0,.134-19.63.243-43.839.243s-43.844-.109-43.844-.243,19.626-.242,43.844-.242,43.839.108,43.839.242" transform="translate(-32.826 -3.856)" fill="#8b8b9e"/>
        <path id="Path_2742" data-name="Path 2742" d="M574.763,67.192c0,.134-19.63.242-43.839.242s-43.844-.108-43.844-.242,19.626-.242,43.844-.242,43.839.108,43.839.242" transform="translate(-32.826 -4.512)" fill="#8b8b9e"/>
        <path id="Path_2743" data-name="Path 2743" d="M322.388,341H212.641l-5.3-9.479a.559.559,0,0,0-1.046.27l-.372,57.74a6.72,6.72,0,0,0,6.719,6.719H322.388a6.719,6.719,0,0,0,6.719-6.719V347.714A6.718,6.718,0,0,0,322.388,341" transform="translate(-13.878 -22.323)" fill="#3c3c4c"/>
        <path id="Path_2744" data-name="Path 2744" d="M317.808,366.065c0,.134-20.984.242-46.862.242s-46.866-.108-46.866-.242,20.979-.242,46.866-.242,46.862.108,46.862.242" transform="translate(-15.102 -24.654)" fill="#8b8b9e"/>
        <path id="Path_2745" data-name="Path 2745" d="M317.808,379.312c0,.134-20.984.243-46.862.243s-46.866-.109-46.866-.243,20.979-.242,46.866-.242,46.862.108,46.862.242" transform="translate(-15.102 -25.547)" fill="#8b8b9e"/>
        <path id="Path_2746" data-name="Path 2746" d="M580.919,365.353H418.09a36.172,36.172,0,0,1-36.173-36.173V196.652a36.172,36.172,0,0,1,36.173-36.173H580.919c19.977,0,36.173-49.088,36.173-29.109V329.18a36.173,36.173,0,0,1-36.173,36.173" transform="translate(-25.739 -8.531)" fill="#1063e8"/>
        <path id="Path_2747" data-name="Path 2747" d="M374.473,260.83l-14.766-16.745c-3.993-3.992-5.361-5.919-4.565-6.618,1.062-.934.611-.622,8.9,5.6,0,0-11.755-8.986-7.679-9.042.718-.009,2.713,1.156,4.85,2.558-2.909-2.474-3.714-4.137-3.162-4.936.948-1.373,8.138,3.61,11.448,6.014-2.708-2.018-7.863-5.931-8.772-7.158-1.242-1.677,1.278-1.543,3.33-.841,2.3.787,15.032,7.283,18.8,8.965a2.435,2.435,0,0,0,3.5-1.19c1.388-5.831,5.584-9.63,7.2-10.126s2.842,1.565,1.7,3.048a22.4,22.4,0,0,0-2.484,5.537,14.318,14.318,0,0,0-.753,4.781c.032,1.884.131,3.478.253,4.829l13.488,18.516L383.207,277.11Z" transform="translate(-23.92 -15.315)" fill="#b78876"/>
        <path id="Path_2748" data-name="Path 2748" d="M369.39,246.331c-.152.212-2.775-1.592-5.858-4.029s-5.445-4.573-5.274-4.77,2.793,1.608,5.859,4.031,5.424,4.557,5.273,4.768" transform="translate(-24.144 -16.007)" fill="#aa6550"/>
        <path id="Path_2749" data-name="Path 2749" d="M372.381,243.182c-.149.214-3.051-1.551-6.483-3.941s-6.094-4.5-5.944-4.715,3.051,1.55,6.483,3.941,6.093,4.5,5.943,4.715" transform="translate(-24.258 -15.804)" fill="#aa6550"/>
        <path id="Path_2750" data-name="Path 2750" d="M374.659,239.869c-.146.215-2.921-1.408-6.2-3.627s-5.815-4.192-5.669-4.408,2.921,1.408,6.2,3.628,5.814,4.192,5.668,4.407" transform="translate(-24.45 -15.623)" fill="#aa6550"/>
        <path id="Path_2751" data-name="Path 2751" d="M394.953,249.562l53.79,68.214-12.319,28.679s-14.753-3.266-19.228-9.483-41.312-74.636-41.312-74.636Z" transform="translate(-25.332 -16.819)" fill="#b78876"/>
        <path id="Path_2752" data-name="Path 2752" d="M541.869,147.213c3.872,3.354,3.858,9.268,3.411,14.371s-.788,10.913,2.747,14.622c2.913,3.056,8.2,4.394,8.879,8.561a4.8,4.8,0,0,1-7.937,4.352c1.139,3.29.351,7.408-2.5,9.4s-7.632.767-8.518-2.6a4.225,4.225,0,1,1-8.3,1.509" transform="translate(-35.695 -9.921)" fill="#3c3c4c"/>
        <path id="Path_2753" data-name="Path 2753" d="M482.145,180.846a5.085,5.085,0,1,1-9.378-3.92c.888-1.94,2.986-3.34,3.187-5.464.242-2.572-2.378-4.4-4.706-5.525s-5.049-2.578-5.3-5.149c-.243-2.482,1.976-4.413,3.837-6.073s3.691-4.228,2.544-6.442c-.587-1.133-1.807-1.785-2.6-2.788-1.747-2.22-.833-5.753,1.391-7.494s5.307-1.985,8.087-1.484a75.928,75.928,0,0,1,8.1,2.456,33.768,33.768,0,0,0,26.9-3.523" transform="translate(-31.401 -9.128)" fill="#3c3c4c"/>
        <path id="Path_2754" data-name="Path 2754" d="M499.265,240.808a18.721,18.721,0,0,0,22-14.361L534.5,165.769a26.927,26.927,0,0,0-20.761-32.546l-1.389-.2A27.108,27.108,0,0,0,482,153.771c-2.943,12.807-6.03,26.994-6.963,33.961-1.93,14.422,12.141,18.77,12.141,18.77l-2.526,12.148A18.721,18.721,0,0,0,499.265,240.808Z" transform="translate(-32.002 -8.945)" fill="#b78876"/>
        <path id="Path_2755" data-name="Path 2755" d="M485.29,165.371a2.077,2.077,0,0,0,1.679,2.364,1.986,1.986,0,0,0,2.39-1.543,2.078,2.078,0,0,0-1.676-2.365,1.99,1.99,0,0,0-2.393,1.544" transform="translate(-32.704 -11.038)" fill="#3c3c4c"/>
        <path id="Path_2756" data-name="Path 2756" d="M484.722,163.212c.215.3,1.942-.619,4.154-.289,2.213.3,3.67,1.673,3.95,1.438.136-.1-.053-.625-.685-1.243a5.7,5.7,0,0,0-3.114-1.483,5.476,5.476,0,0,0-3.355.565c-.757.422-1.059.874-.95,1.012" transform="translate(-32.666 -10.889)" fill="#3c3c4c"/>
        <path id="Path_2757" data-name="Path 2757" d="M508.478,169.219a2.077,2.077,0,0,0,1.679,2.364,1.986,1.986,0,0,0,2.39-1.543,2.078,2.078,0,0,0-1.677-2.366,1.988,1.988,0,0,0-2.392,1.544" transform="translate(-34.266 -11.297)" fill="#3c3c4c"/>
        <path id="Path_2758" data-name="Path 2758" d="M507.975,167.069c.215.306,1.944-.618,4.153-.289,2.214.3,3.671,1.674,3.951,1.438.135-.1-.05-.624-.685-1.242a5.7,5.7,0,0,0-3.113-1.484,5.479,5.479,0,0,0-3.356.565c-.754.422-1.058.874-.949,1.012" transform="translate(-34.233 -11.149)" fill="#3c3c4c"/>
        <path id="Path_2759" data-name="Path 2759" d="M496.4,182.2a14.81,14.81,0,0,0-3.5-1.175c-.557-.141-1.074-.331-1.114-.73a2.917,2.917,0,0,1,.622-1.62q1.1-1.933,2.3-4.057c3.217-5.785,5.634-10.575,5.4-10.7s-3.032,4.458-6.248,10.243q-1.169,2.143-2.234,4.093a3.307,3.307,0,0,0-.618,2.175,1.434,1.434,0,0,0,.809.962,3.9,3.9,0,0,0,.939.274,14.6,14.6,0,0,0,3.642.538" transform="translate(-33.089 -11.047)" fill="#3c3c4c"/>
        <path id="Path_2760" data-name="Path 2760" d="M508.725,157.719c.131.633,2.381.671,4.931,1.364,2.564.642,4.545,1.709,4.969,1.219.191-.235-.091-.854-.852-1.561a8.894,8.894,0,0,0-7.542-1.968c-1.009.243-1.558.646-1.506.946" transform="translate(-34.285 -10.553)" fill="#3c3c4c"/>
        <path id="Path_2761" data-name="Path 2761" d="M486.6,156.463c.315.56,1.916.261,3.752.505,1.845.179,3.335.833,3.77.359.194-.232.023-.771-.586-1.346a5.481,5.481,0,0,0-6.06-.7c-.723.422-1.012.907-.876,1.178" transform="translate(-32.792 -10.424)" fill="#3c3c4c"/>
        <path id="Path_2762" data-name="Path 2762" d="M524.527,148.245l.07.074a11.45,11.45,0,0,1,3.137,7.939q0,.157,0,.3c-.038,4.188-.752,8.351-.75,12.54s.812,8.569,3.431,11.838c1.076,1.345,3.165,2.468,4.39,1.256a3.547,3.547,0,0,0,.788-1.806c2.22-9.8,6.216-18.2,7.715-28.572a8.832,8.832,0,0,0-2.585-7.645c-1.943-1.874-4.357-3.875-6.936-3.087s-6.367,4.848-8.517,6.487" transform="translate(-35.35 -9.496)" fill="#3c3c4c"/>
        <path id="Path_2763" data-name="Path 2763" d="M532.391,174.371c.261-.071,10.32-1.477,8.564,8.319s-11.229,6.013-11.195,5.729,2.631-14.048,2.631-14.048" transform="translate(-35.703 -11.744)" fill="#b78876"/>
        <path id="Path_2764" data-name="Path 2764" d="M533.681,185.5c.049-.023.149.15.414.334a1.737,1.737,0,0,0,1.271.256c1.1-.195,2.269-1.681,2.633-3.439a5.722,5.722,0,0,0-.04-2.529,2,2,0,0,0-1.049-1.54.883.883,0,0,0-1.091.287c-.18.25-.153.457-.208.464-.032.02-.181-.2-.029-.592a1.1,1.1,0,0,1,.5-.545,1.308,1.308,0,0,1,.989-.08,2.435,2.435,0,0,1,1.51,1.838,5.876,5.876,0,0,1,.1,2.836c-.417,1.963-1.758,3.629-3.247,3.785a1.858,1.858,0,0,1-1.515-.539c-.26-.3-.272-.524-.235-.536" transform="translate(-35.966 -12)" fill="#aa6550"/>
        <path id="Path_2765" data-name="Path 2765" d="M530.426,141.611c3-3.583-2.812-10.209-7.445-12.451s-11.379-.812-16.448.083c-3.2.565-6.444,1.531-9.636.929a21.958,21.958,0,0,1-6.006-2.5,16.087,16.087,0,0,0-6.114-2.165,6,6,0,0,0-5.661,2.525c-1.108,1.875-.339,4.78,1.751,5.389a4.884,4.884,0,1,0-2.6,8.768c-1.244-1.266-3.646.173-3.729,1.945s1.315,3.276,2.819,4.218c3.84,2.4,8.711,2.528,13.168,1.721s8.724-2.457,13.16-3.376,11.894-2.641,15.9-.531c2.952,1.553,4.569,5.619,6.448,5.049a6.083,6.083,0,0,0,3.763-3.969,17.61,17.61,0,0,0,.627-5.632" transform="translate(-31.882 -8.457)" fill="#3c3c4c"/>
        <path id="Path_2766" data-name="Path 2766" d="M553.813,188.455a1.486,1.486,0,0,0,.515-.223,2.868,2.868,0,0,0,1.061-1.211,4.248,4.248,0,0,0,.322-2.531,5.136,5.136,0,0,0-1.763-2.88,12.719,12.719,0,0,0-3.53-2.056,23.518,23.518,0,0,1-4.13-1.995,8.277,8.277,0,0,1-3-3.892,13.607,13.607,0,0,1-.869-5.3c.1-3.736,1.134-7.228,1.389-10.519.308-3.269-.174-6.379-1.571-8.515a7.927,7.927,0,0,0-4.65-3.5,5.645,5.645,0,0,0-1.6-.159,2.328,2.328,0,0,0-.553.084,8.284,8.284,0,0,1,2.1.262,7.883,7.883,0,0,1,4.4,3.5c1.3,2.068,1.739,5.075,1.413,8.287-.27,3.231-1.322,6.718-1.43,10.549a13.973,13.973,0,0,0,.914,5.49,8.691,8.691,0,0,0,3.192,4.089,23.21,23.21,0,0,0,4.228,2,12.6,12.6,0,0,1,3.458,1.941,4.887,4.887,0,0,1,1.72,2.667,4.112,4.112,0,0,1-.225,2.4,3.213,3.213,0,0,1-1.4,1.515" transform="translate(-36.085 -9.818)" fill="#455a64"/>
        <path id="Path_2767" data-name="Path 2767" d="M480.477,133.714a2.232,2.232,0,0,0-.425-.224,2.9,2.9,0,0,0-.549-.216,4.112,4.112,0,0,0-.788-.2,5.9,5.9,0,0,0-4.942,1.512h0l-.007.007a7.9,7.9,0,0,0-1.759,5.839,9.732,9.732,0,0,0,3.6,6.648,15.029,15.029,0,0,0,8.152,3.28,33.268,33.268,0,0,0,9.68-.594,43.733,43.733,0,0,0,14.271-5.513,44.208,44.208,0,0,1,5.889-3.059,15.819,15.819,0,0,1,5.6-1.144,16.64,16.64,0,0,1,8.039,1.9,28.374,28.374,0,0,1,2.6,1.642,11.488,11.488,0,0,0-2.507-1.813,16.418,16.418,0,0,0-8.136-2.081,16.027,16.027,0,0,0-5.744,1.112,43.732,43.732,0,0,0-5.969,3.046,43.893,43.893,0,0,1-14.136,5.421,33.15,33.15,0,0,1-9.534.6,14.645,14.645,0,0,1-7.922-3.137,9.372,9.372,0,0,1-3.511-6.344,7.63,7.63,0,0,1,1.605-5.621l-.007.007a5.809,5.809,0,0,1,4.717-1.562,11.311,11.311,0,0,1,1.785.491" transform="translate(-31.808 -8.963)" fill="#455a64"/>
        <path id="Path_2768" data-name="Path 2768" d="M486.944,125.02a5.591,5.591,0,0,0,.344,2.2,9.261,9.261,0,0,0,3.861,4.646,11.625,11.625,0,0,0,3.909,1.62,16.626,16.626,0,0,0,4.843.253c3.425-.256,7.009-1.429,10.769-2.4s7.513-1.479,10.758-.614a14.1,14.1,0,0,1,7.311,4.746,14.651,14.651,0,0,1,2.8,5.262c.376,1.373.419,2.17.479,2.163a2.541,2.541,0,0,0-.026-.576,11.283,11.283,0,0,0-.266-1.636,14.636,14.636,0,0,0-10.183-10.4c-3.357-.921-7.225-.407-11,.574-3.789.984-7.332,2.153-10.685,2.429a16.483,16.483,0,0,1-4.722-.2,11.43,11.43,0,0,1-3.805-1.514,9.3,9.3,0,0,1-3.867-4.416,12.884,12.884,0,0,1-.526-2.138" transform="translate(-32.816 -8.426)" fill="#455a64"/>
        <path id="Path_2769" data-name="Path 2769" d="M492.033,191.284a10.155,10.155,0,0,0,.758,2.791,3.425,3.425,0,0,0,2.092,1.881,3.073,3.073,0,0,0,2.832-.854,4.905,4.905,0,0,0,1.314-2.742c.15-.92-.039-2.1-.922-2.393a2.34,2.34,0,0,0-1.152.013l-5.166.934" transform="translate(-33.144 -12.798)" fill="#aa6550"/>
        <path id="Path_2770" data-name="Path 2770" d="M492.887,195.179a7.021,7.021,0,0,0,2.568.486,3.709,3.709,0,0,0,2.412-1.1,3.908,3.908,0,0,0,1.031-3.011,3.434,3.434,0,0,0-.182-.822c-.121-.252-.091-.232-.3-.267-.205-.009-.556.036-.836.053l-.861.067c-1.119.083-2.13.146-2.98.187a8.848,8.848,0,0,1-2.766-.048,8.882,8.882,0,0,1,2.709-.563c.841-.119,1.846-.245,2.963-.373l.856-.1a8.523,8.523,0,0,1,.958-.077,1.133,1.133,0,0,1,.682.24,1.338,1.338,0,0,1,.382.567,4.252,4.252,0,0,1,.239,1.045,4.566,4.566,0,0,1-1.328,3.662,4.161,4.161,0,0,1-2.961,1.148,3.919,3.919,0,0,1-2.032-.564c-.422-.269-.587-.5-.554-.535" transform="translate(-33.089 -12.779)" fill="#3c3c4c"/>
        <path id="Path_2771" data-name="Path 2771" d="M488,211.831s9.4,3.564,18.55.974c0,0-6.9,5.786-19.493,3.565Z" transform="translate(-32.824 -14.276)" fill="#aa6550"/>
        <path id="Path_2772" data-name="Path 2772" d="M500.679,354.32a10.315,10.315,0,0,1-1.291-.981c-.4-.333-.9-.732-1.5-1.158s-1.257-.956-2.046-1.447c-.773-.516-1.622-1.076-2.576-1.608-.929-.574-1.977-1.087-3.066-1.651a48.164,48.164,0,0,0-15.223-4.552c-1.221-.127-2.378-.273-3.47-.3-1.089-.08-2.107-.078-3.036-.071-.93-.021-1.767.056-2.505.087s-1.372.086-1.889.145a10.442,10.442,0,0,1-1.617.112,10.2,10.2,0,0,1,1.595-.3,18.756,18.756,0,0,1,1.89-.228c.741-.057,1.583-.159,2.519-.159.935-.029,1.96-.051,3.061.011,1.1.013,2.272.145,3.506.261a46.034,46.034,0,0,1,15.367,4.6c1.094.58,2.145,1.112,3.073,1.706.954.551,1.8,1.132,2.565,1.671.782.514,1.431,1.061,2.018,1.516a18.724,18.724,0,0,1,1.456,1.228,10.283,10.283,0,0,1,1.169,1.126" transform="translate(-31.167 -23.061)" fill="#fafafa"/>
        <path id="Path_2773" data-name="Path 2773" d="M440.266,299.577l7.652-33.136c2.927-12.461,6.395-24.435,12.222-25.854v3.856l-2.493,94.672S442.056,356.869,422.175,347c-6.21-3.082-17.543-24.765-17.543-24.765s-26.327-47.048-25.236-49.183,17.207-22.895,18.853-23.927Z" transform="translate(-25.567 -16.214)" fill="#e2e2e2"/>
        <path id="Path_2774" data-name="Path 2774" d="M524.542,230.425c15.2,2.913,32.319,11.781,40.192,34.491,2.876,8.3,23.808,69.48,23.808,69.48l-35.7-.741-5.813-12.615L549.87,341.5l2.419,29.2-90.125,1.515.631-43.975.865-87.477s1.014-1.327,16.553-9.9c9.653-5.326,44.33-.434,44.33-.434" transform="translate(-31.147 -15.391)" fill="#e2e2e2"/>
        <g id="Group_673" data-name="Group 673" transform="translate(502.387 273.508)" opacity="0.2">
          <g id="Group_672" data-name="Group 672">
            <g id="Group_671" data-name="Group 671" clip-path="url(#clip-path-3)">
              <path id="Path_2775" data-name="Path 2775" d="M538.692,293.273c1.479,18.467,3.184,24.17,4.663,42.637a16.32,16.32,0,0,0,.974,5.133,5.523,5.523,0,0,0,3.729,3.4c2.625.533,6.037,2.432,6.778-.143l-2.492-17.786a35.038,35.038,0,0,0-2.46-7.507c-5.53-12.277-7.577-13-11.191-25.734" transform="translate(-538.692 -293.273)"/>
            </g>
          </g>
        </g>
        <path id="Path_2776" data-name="Path 2776" d="M481.517,239.586l.3-1.919,2.88-18.425a2.146,2.146,0,0,1,2.3-1.807l35.486,2.963a4.078,4.078,0,0,1,3.729,4.365l-.791,10.708-11.08,14.456-15.955,2.489" transform="translate(-32.451 -14.653)" fill="#e2e2e2"/>
        <path id="Path_2777" data-name="Path 2777" d="M462.4,278.339c.134,0,.242,14.436.242,32.238s-.108,32.242-.242,32.242-.242-14.433-.242-32.242.108-32.238.242-32.238" transform="translate(-31.147 -18.758)" fill="#3c3c4c"/>
        <path id="Path_2778" data-name="Path 2778" d="M558.2,338.208a.839.839,0,0,1-.116-.209c-.078-.169-.174-.377-.292-.633q-.4-.9-1.083-2.453c-.935-2.176-2.262-5.261-3.894-9.056l-12.677-29.949c-2.456-5.856-4.8-11.433-6.926-16.512a31.048,31.048,0,0,1-2.293-7.5,41.191,41.191,0,0,1-.617-6.8,27.6,27.6,0,0,1,1.419-9.747c.1-.274.194-.535.293-.774.115-.231.222-.449.324-.652a5.729,5.729,0,0,1,.559-.99l.4-.576c.091-.129.141-.191.148-.187a18.211,18.211,0,0,0-1.541,3.243,28.359,28.359,0,0,0-1.255,9.679,35.548,35.548,0,0,0,2.98,14.129c2.142,5.074,4.493,10.647,6.963,16.5,4.892,11.7,9.321,22.292,12.546,30l3.75,9.115c.422,1.052.755,1.884,1,2.488.1.264.183.478.248.652a.93.93,0,0,1,.07.228" transform="translate(-35.739 -16.995)" fill="#3c3c4c"/>
        <path id="Path_2779" data-name="Path 2779" d="M535.121,234.019a11.325,11.325,0,0,1-1.036.9,15.931,15.931,0,0,1-3.4,1.982,25.664,25.664,0,0,1-6,1.681,73.782,73.782,0,0,1-8.205.809c-3.054.137-6.4.076-9.978.146a46.186,46.186,0,0,0-11.283,1.373,20.849,20.849,0,0,0-10.612,6.26,14.554,14.554,0,0,0-2.947,5.821,12.415,12.415,0,0,0,.107,6.671,10.553,10.553,0,0,0,1.562,2.982,7.815,7.815,0,0,0,2.52,2.123,5.441,5.441,0,0,0,3.114.657,4.252,4.252,0,0,0,2.736-1.4,7.387,7.387,0,0,0,1.379-5.9,9.866,9.866,0,0,0-.887-2.913,14.485,14.485,0,0,0-1.658-2.5,17.568,17.568,0,0,0-9.561-5.665,20.312,20.312,0,0,0-9.788.111,26.736,26.736,0,0,0-7.494,3.2,34.757,34.757,0,0,0-4.963,3.691c-1.28,1.121-2.187,2.087-2.816,2.725l-.7.747a1.9,1.9,0,0,1-.25.243A31,31,0,0,1,458.6,253.9a33.828,33.828,0,0,1,4.947-3.781,26.751,26.751,0,0,1,7.552-3.306,20.6,20.6,0,0,1,9.963-.171,17.949,17.949,0,0,1,9.815,5.771A14.837,14.837,0,0,1,492.6,255a10.246,10.246,0,0,1,.937,3.05,9.727,9.727,0,0,1-.057,3.26,6.344,6.344,0,0,1-1.429,3.025,4.725,4.725,0,0,1-3.035,1.561,5.907,5.907,0,0,1-3.391-.705,8.281,8.281,0,0,1-2.679-2.252,11.019,11.019,0,0,1-1.642-3.134,12.881,12.881,0,0,1-.114-6.935,15.007,15.007,0,0,1,3.051-6.011,21.247,21.247,0,0,1,10.859-6.386,46.249,46.249,0,0,1,11.393-1.344c3.591-.053,6.93.028,9.971-.087a75.885,75.885,0,0,0,8.175-.733,26.143,26.143,0,0,0,5.966-1.588,16.872,16.872,0,0,0,3.415-1.887c.373-.248.624-.483.811-.616a1.81,1.81,0,0,1,.284-.2" transform="translate(-30.662 -15.772)" fill="#fafafa"/>
        <path id="Path_2780" data-name="Path 2780" d="M571.3,275.492a1.258,1.258,0,0,1-.4.066c-.261.021-.647.07-1.146.082a35.438,35.438,0,0,1-4.227-.1c-1.781-.129-3.889-.4-6.221-.722s-4.891-.674-7.589-.818a29.568,29.568,0,0,0-7.552.568,19.238,19.238,0,0,0-5.758,2.192,16.613,16.613,0,0,0-4.253,3.771c-.014-.009.055-.129.2-.349a8.056,8.056,0,0,1,.677-.934,12.881,12.881,0,0,1,3.2-2.782,18.836,18.836,0,0,1,5.84-2.335,28.852,28.852,0,0,1,7.674-.616c2.729.145,5.3.519,7.627.86s4.422.651,6.189.823,3.2.245,4.194.253a11.35,11.35,0,0,1,1.546.041" transform="translate(-35.999 -18.431)" fill="#fafafa"/>
        <path id="Path_2781" data-name="Path 2781" d="M544.065,318.6a19.222,19.222,0,0,0-5.355-.455,29.38,29.38,0,0,0-6.213,1.111c-2.384.644-5.038,1.588-8.02,2.5a33.021,33.021,0,0,1-10.053,1.75,28.939,28.939,0,0,1-11.454-2.377,28.482,28.482,0,0,1-10.445-7.593,21.931,21.931,0,0,1-3.7-5.8,13.339,13.339,0,0,1-1.065-7,10.141,10.141,0,0,1,3.311-6.238,7.271,7.271,0,0,1,3.139-1.607,7.39,7.39,0,0,1,6.461,1.745,5.609,5.609,0,0,1,1.682,2.9,5.753,5.753,0,0,1-.253,3.274,7.98,7.98,0,0,1-1.747,2.675,14.027,14.027,0,0,1-5.121,3.253,15.213,15.213,0,0,1-2.809.769c-.469.087-.932.187-1.4.26l-1.386.16a30.152,30.152,0,0,1-10.177-.713,31.709,31.709,0,0,1-7.859-3.024,28.64,28.64,0,0,1-5.231-3.616l-.93-.815-.764-.77a13.7,13.7,0,0,1-1.154-1.248l-.668-.8a1.863,1.863,0,0,1-.215-.284,1.911,1.911,0,0,1,.253.252l.7.77a14.967,14.967,0,0,0,1.182,1.211l.776.751.938.793a29.218,29.218,0,0,0,5.238,3.521,31.858,31.858,0,0,0,7.809,2.929,29.987,29.987,0,0,0,10.057.646l1.366-.164c.456-.074.911-.175,1.373-.262a14.788,14.788,0,0,0,2.74-.762,13.617,13.617,0,0,0,4.949-3.163,7.526,7.526,0,0,0,1.642-2.525,5.287,5.287,0,0,0,.228-3.018,5.843,5.843,0,0,0-4.347-4.18,6.68,6.68,0,0,0-3.24-.1,6.806,6.806,0,0,0-2.93,1.507,9.672,9.672,0,0,0-3.143,5.94,12.874,12.874,0,0,0,1.031,6.746,21.513,21.513,0,0,0,3.616,5.68,28.092,28.092,0,0,0,10.261,7.492,28.638,28.638,0,0,0,11.278,2.387,32.9,32.9,0,0,0,9.952-1.676c2.978-.893,5.648-1.816,8.05-2.439a28.753,28.753,0,0,1,6.275-1.037,19.277,19.277,0,0,1,2.323.041c.667.1,1.236.144,1.684.247l1.016.254a1.8,1.8,0,0,1,.34.1" transform="translate(-31.18 -19.728)" fill="#fafafa"/>
        <path id="Path_2782" data-name="Path 2782" d="M461.069,308.865c-.078.033-.506-.987-1.412-2.506a24.355,24.355,0,0,0-9.957-9.281c-1.58-.8-2.626-1.152-2.6-1.233a2.444,2.444,0,0,1,.762.172,15.238,15.238,0,0,1,1.986.752,21.714,21.714,0,0,1,10.108,9.421,15.126,15.126,0,0,1,.89,1.929,2.419,2.419,0,0,1,.224.747" transform="translate(-30.132 -19.938)" fill="#fafafa"/>
        <path id="Path_2783" data-name="Path 2783" d="M422.728,348.318a1.151,1.151,0,0,1-.146-.232l-.385-.7c-.332-.621-.816-1.541-1.413-2.738a63.851,63.851,0,0,1-4.269-10.5,34.1,34.1,0,0,1-1.337-7.733,24.286,24.286,0,0,1,.179-4.385,25.433,25.433,0,0,1,1.1-4.524,19.767,19.767,0,0,1,5.472-8.284,13.4,13.4,0,0,1,9.955-3.492,7.4,7.4,0,0,1,4.9,2.385,6.027,6.027,0,0,1,1.382,5.1,4.5,4.5,0,0,1-1.321,2.3,5.319,5.319,0,0,1-2.278,1.242,6.69,6.69,0,0,1-4.87-.589,11.2,11.2,0,0,1-3.563-3.032,16.45,16.45,0,0,1-2.238-3.79,16.724,16.724,0,0,1-1.246-7.737,15.728,15.728,0,0,1,1.85-6.2,16.329,16.329,0,0,1,2.923-3.919,15.118,15.118,0,0,1,2.4-1.941c.291-.2.533-.321.688-.414a1.158,1.158,0,0,1,.244-.122c.012.019-.3.214-.878.616a16.732,16.732,0,0,0-2.322,1.994,16.549,16.549,0,0,0-2.817,3.912,15.619,15.619,0,0,0-1.748,6.1,16.454,16.454,0,0,0,1.275,7.554,16.09,16.09,0,0,0,2.2,3.679,10.769,10.769,0,0,0,3.432,2.9,6.237,6.237,0,0,0,4.545.542,4.381,4.381,0,0,0,3.257-3.205,5.558,5.558,0,0,0-1.285-4.68,6.926,6.926,0,0,0-4.589-2.215,12.952,12.952,0,0,0-9.591,3.368,19.391,19.391,0,0,0-5.362,8.075,25.108,25.108,0,0,0-1.1,4.434,23.955,23.955,0,0,0-.2,4.308,34.136,34.136,0,0,0,1.265,7.657,68.052,68.052,0,0,0,4.109,10.513l1.331,2.776.342.725a1.142,1.142,0,0,1,.1.255" transform="translate(-27.978 -19.478)" fill="#fafafa"/>
        <path id="Path_2784" data-name="Path 2784" d="M409.472,264.318a1.232,1.232,0,0,1,.086.389c.033.257.1.637.136,1.13a24.29,24.29,0,0,1-.007,4.188,26.652,26.652,0,0,1-15.031,21.854,24.252,24.252,0,0,1-3.909,1.505c-.472.146-.852.215-1.1.277a1.227,1.227,0,0,1-.394.059,11.551,11.551,0,0,1,1.44-.516,29.37,29.37,0,0,0,3.813-1.632,27.285,27.285,0,0,0,14.842-21.58,29.565,29.565,0,0,0,.16-4.145,11.525,11.525,0,0,1-.034-1.529" transform="translate(-26.233 -17.814)" fill="#fafafa"/>
        <path id="Path_2785" data-name="Path 2785" d="M580.95,307.679a13.416,13.416,0,0,0-3.6,3.288c-.928,1.2-1.859,2.754-2.923,4.477a34.638,34.638,0,0,1-3.985,5.269,33.658,33.658,0,0,1-9.556,7.185,29.422,29.422,0,0,1-3.34,1.43,7.042,7.042,0,0,1-1.28.367,7,7,0,0,1,1.211-.545c.78-.345,1.915-.83,3.251-1.557a35.966,35.966,0,0,0,9.358-7.21,36.416,36.416,0,0,0,3.964-5.179,47.256,47.256,0,0,1,3.032-4.451,11.654,11.654,0,0,1,2.674-2.478,6.364,6.364,0,0,1,.87-.477c.207-.094.318-.135.325-.12" transform="translate(-37.489 -20.736)" fill="#fafafa"/>
        <path id="Path_2786" data-name="Path 2786" d="M525.646,231.625a1.5,1.5,0,0,1-.428.11l-1.24.22c-1.079.179-2.644.416-4.583.678-3.876.523-9.249,1.132-15.2,1.569a75.939,75.939,0,0,1-8.425.3,23.927,23.927,0,0,1-6.8-1.163,15.408,15.408,0,0,1-4.152-2.1,10.378,10.378,0,0,1-.981-.8c-.211-.2-.314-.309-.3-.322.028-.033.483.369,1.391.965a16.723,16.723,0,0,0,4.151,1.927,24.634,24.634,0,0,0,6.71,1.042,82.229,82.229,0,0,0,8.374-.34c5.944-.436,11.314-.989,15.2-1.425l4.6-.523a11.627,11.627,0,0,1,1.695-.144" transform="translate(-32.587 -15.509)" fill="#3c3c4c"/>
        <path id="Path_2787" data-name="Path 2787" d="M590.318,348.914a25.06,25.06,0,0,1-24.356,29.791l-70.639-.783,1.856-22.874,60.565-9.033" transform="translate(-33.382 -23.319)" fill="#b78876"/>
        <path id="Path_2788" data-name="Path 2788" d="M498.839,356.4c-.324.108-4.4-1.721-8.059-3.411a26.349,26.349,0,0,0-12.406-2.405l-16.839.856s1.04,2.778,2.826,3.766,12.254,1.2,12.254,1.2l-.536.551a12.108,12.108,0,0,1-8.381,3.668l-1.609.041a15.773,15.773,0,0,1-3.515-.687l-4.153-1.679c-1.257-.566-2.585-.475-3.132.792-.494,1.144-.132,2.721,3.3,4.449,1.917.966,9.024,3.424,9.024,3.424a17.2,17.2,0,0,0,.413,3c.311,1.033,3.1,2.069,3.1,2.069a36.91,36.91,0,0,0,2.483,4.447c.325.371,2.853,1.157,5.543,1.913a23.845,23.845,0,0,0,13.268-.1l6.418-1.916V356.822" transform="translate(-30.672 -23.625)" fill="#b78876"/>
        <path id="Path_2789" data-name="Path 2789" d="M476.686,370.35a19.16,19.16,0,0,1-8.5-2.235c.049-.114,1.886.593,4.227,1.2s4.285.908,4.271,1.031" transform="translate(-31.553 -24.808)" fill="#aa6550"/>
        <path id="Path_2790" data-name="Path 2790" d="M476.34,374.65a6.19,6.19,0,0,1-4.5-1.223,81.395,81.395,0,0,0,4.5,1.223" transform="translate(-31.799 -25.166)" fill="#aa6550"/>
        <path id="Path_2791" data-name="Path 2791" d="M479.156,355.194a7.453,7.453,0,0,1-1.3,1.39,20.954,20.954,0,0,1-3.668,2.777,14.592,14.592,0,0,1-4.3,1.659,6.178,6.178,0,0,1-1.9.206,24.574,24.574,0,0,0,5.985-2.23,28.7,28.7,0,0,0,3.684-2.637,9.876,9.876,0,0,1,1.5-1.165" transform="translate(-31.54 -23.938)" fill="#aa6550"/>
        <path id="Path_2792" data-name="Path 2792" d="M503.714,352.2,502,378.067l66.544.025A24.884,24.884,0,0,0,592.967,348.4a76.558,76.558,0,0,0-4.293-14.348l-33.454,5.505,1.07,4.165Z" transform="translate(-33.832 -22.513)" fill="#e2e2e2"/>
        <path id="Path_2793" data-name="Path 2793" d="M571.9,342.108a3.627,3.627,0,0,1-.671.154l-1.943.35-7.159,1.2-23.651,3.763L514.8,351.194l-7.183,1.043-1.957.259a3.731,3.731,0,0,1-.686.058,3.571,3.571,0,0,1,.672-.155l1.943-.35,7.16-1.2L538.4,347.09l23.669-3.622,7.184-1.044,1.958-.259a3.642,3.642,0,0,1,.688-.058" transform="translate(-34.032 -23.056)" fill="#3c3c4c"/>
        <path id="Path_2794" data-name="Path 2794" d="M539.242,379.244c-.117-.021.4-1.869.463-4.914a19.752,19.752,0,0,0-.1-2.482,23.515,23.515,0,0,0-.408-2.818,26.664,26.664,0,0,0-2.164-6.138,28.314,28.314,0,0,0-3.637-5.407l-.979-1.095c-.323-.35-.67-.657-.987-.973-.625-.643-1.283-1.155-1.862-1.651-2.378-1.908-4.068-2.793-4.013-2.885a6.847,6.847,0,0,1,1.191.6,13,13,0,0,1,1.339.813c.5.354,1.108.7,1.7,1.2a23.444,23.444,0,0,1,1.926,1.626c.327.313.685.62,1.018.97s.665.723,1.009,1.1a27.341,27.341,0,0,1,3.733,5.482,25.861,25.861,0,0,1,2.168,6.268,22.38,22.38,0,0,1,.37,2.876,18.663,18.663,0,0,1,.039,2.523,17.215,17.215,0,0,1-.186,2.071,10.493,10.493,0,0,1-.274,1.543,6.961,6.961,0,0,1-.345,1.29" transform="translate(-35.419 -23.647)" fill="#fafafa"/>
        <path id="Path_2795" data-name="Path 2795" d="M581.985,376.963a13.785,13.785,0,0,1-3.087-.371,15.832,15.832,0,0,1-3.452-1.215,13.6,13.6,0,0,1-3.888-2.9,12.356,12.356,0,0,1-2.861-5.129,13.865,13.865,0,0,1-.493-3.258,12.633,12.633,0,0,1,.278-3.485,10.526,10.526,0,0,1,1.377-3.423,7.755,7.755,0,0,1,2.8-2.662,6.925,6.925,0,0,1,3.9-.9,5.236,5.236,0,0,1,3.653,1.889,5.147,5.147,0,0,1,1.226,3.933,4.665,4.665,0,0,1-2.29,3.275,10.935,10.935,0,0,1-7.354,1.01,15.335,15.335,0,0,1-12.969-14.7,10.776,10.776,0,0,1,.265-3.1,23.871,23.871,0,0,0-.076,3.088,15.693,15.693,0,0,0,2.653,7.851,15.252,15.252,0,0,0,10.2,6.413,10.537,10.537,0,0,0,7.032-.972,4.192,4.192,0,0,0,2.063-2.939,4.672,4.672,0,0,0-1.12-3.553,4.75,4.75,0,0,0-3.322-1.72,6.471,6.471,0,0,0-3.632.83,8.479,8.479,0,0,0-3.965,5.764,12.283,12.283,0,0,0-.287,3.373,13.576,13.576,0,0,0,.454,3.166,12.083,12.083,0,0,0,2.727,5.005,13.5,13.5,0,0,0,3.758,2.886,16.305,16.305,0,0,0,3.372,1.274c1.933.47,3.051.49,3.043.555" transform="translate(-37.661 -23.314)" fill="#fafafa"/>
        <path id="Path_2796" data-name="Path 2796" d="M285.935,74.12H119.287c-16.011,0-29.628-27.61-34.653-39.238a1.08,1.08,0,0,0-2.07.431V246.557a36.724,36.724,0,0,0,36.723,36.723H285.935a36.724,36.724,0,0,0,36.723-36.723V110.844A36.724,36.724,0,0,0,285.935,74.12" transform="translate(-5.564 -2.307)" fill="#00be08"/>
        <path id="Path_2797" data-name="Path 2797" d="M226.882,83.527c-1.055,2.726.755,5.7,2.785,7.808s4.489,4.106,5.127,6.959c.535,2.394-.352,4.888-.136,7.331.22,2.5,1.567,4.745,2.332,7.136,1.386,4.327.829,9.057-.408,13.429a24.824,24.824,0,0,1-5,9.894,13.177,13.177,0,0,1-9.777,4.681,3.838,3.838,0,0,1-2.889-1.045,4.615,4.615,0,0,1-.835-2.565,250.122,250.122,0,0,1-.007-56.51" transform="translate(-14.589 -5.435)" fill="#3c3c4c"/>
        <path id="Path_2798" data-name="Path 2798" d="M224.121,148.523c8.112-.354,15.607,7.413,14.965,15.507,8.214,2,14.016,11.041,12.41,19.341-.53,2.74-1.748,5.349-1.917,8.135-.184,3.038.894,5.991,1.481,8.979a28.289,28.289,0,0,1-1.621,16.187c-1.281,3.086-3.665,6.275-7.006,6.369a6.878,6.878,0,0,1-5.629-3.29,17.383,17.383,0,0,1-2.262-6.373c-1.447-7.286-1.882-14.776-3.881-21.93s-5.882-14.2-12.354-17.849c-3.575-2.014-7.866-2.965-10.7-5.927a11.638,11.638,0,0,1-2.1-12.032,15.343,15.343,0,0,1,9.143-8.533" transform="translate(-13.795 -9.914)" fill="#3c3c4c"/>
        <path id="Path_2799" data-name="Path 2799" d="M165.22,89.165c-.1-3.466,3.107-6.145,6.334-7.415s6.814-1.749,9.691-3.685c2.547-1.714,4.259-4.389,6.415-6.574a21.348,21.348,0,0,1,35.9,9.794c1.238,4.936.393,10.773-3.5,14.054-4.517,3.808-11.213,2.962-17,1.778s-12.338-2.353-17.17,1.045c-2.913,2.05-4.584,5.384-6.365,8.469s-4.017,6.236-7.386,7.4-7.942-.843-8.074-4.4" transform="translate(-11.057 -4.392)" fill="#3c3c4c"/>
        <path id="Path_2800" data-name="Path 2800" d="M179.588,91.09a5.8,5.8,0,0,0-5.177,5.9l3.461,78.342c.145,9.252,13.669,14.451,23.575,14.22,10-.232,10.327-5.139,10.451-13.942.21-14.706.192-20.226.2-20.142,0,0,12.636-2.127,15.218-18.625,1.284-8.205.843-21.652.126-32.644-.645-9.892-7.228-22.018-17.084-20.953Z" transform="translate(-11.754 -5.606)" fill="#ffbe9d"/>
        <path id="Path_2801" data-name="Path 2801" d="M227.917,116.679a2.115,2.115,0,0,1-2.035,2.138,2.023,2.023,0,0,1-2.184-1.9,2.116,2.116,0,0,1,2.032-2.139,2.025,2.025,0,0,1,2.187,1.9" transform="translate(-15.076 -7.735)" fill="#3c3c4c"/>
        <path id="Path_2802" data-name="Path 2802" d="M227.556,113.062c-.262.276-1.867-.906-4.143-.9-2.274-.021-3.942,1.154-4.189.876-.122-.123.145-.622.87-1.153a5.807,5.807,0,0,1,3.353-1.042,5.576,5.576,0,0,1,3.3,1.057c.7.535.939,1.033.81,1.157" transform="translate(-14.773 -7.471)" fill="#3c3c4c"/>
        <path id="Path_2803" data-name="Path 2803" d="M204.466,116.68a2.115,2.115,0,0,1-2.035,2.138,2.023,2.023,0,0,1-2.184-1.9,2.116,2.116,0,0,1,2.033-2.139,2.025,2.025,0,0,1,2.186,1.9" transform="translate(-13.495 -7.735)" fill="#3c3c4c"/>
        <path id="Path_2804" data-name="Path 2804" d="M203.568,113.571c-.262.276-1.869-.906-4.144-.894-2.274-.022-3.942,1.153-4.189.875-.121-.124.142-.622.871-1.153a5.807,5.807,0,0,1,3.353-1.043,5.579,5.579,0,0,1,3.3,1.058c.7.535.939,1.033.811,1.157" transform="translate(-13.156 -7.505)" fill="#3c3c4c"/>
        <path id="Path_2805" data-name="Path 2805" d="M212.989,130.441a15.059,15.059,0,0,1,3.695-.675c.581-.062,1.131-.178,1.228-.574a2.957,2.957,0,0,0-.392-1.723q-.824-2.107-1.729-4.421c-2.4-6.3-4.14-11.474-3.885-11.568s2.407,4.933,4.808,11.229q.866,2.328,1.656,4.449a3.36,3.36,0,0,1,.307,2.28,1.459,1.459,0,0,1-.954.851,3.973,3.973,0,0,1-.987.14,14.808,14.808,0,0,1-3.747.013" transform="translate(-14.28 -7.513)" fill="#3c3c4c"/>
        <path id="Path_2806" data-name="Path 2806" d="M213.221,160.265a41.964,41.964,0,0,1-22.1-5.843s5.384,11.317,21.887,9.737Z" transform="translate(-12.88 -10.407)" fill="#eb996e"/>
        <path id="Path_2807" data-name="Path 2807" d="M211.56,137.584a4.1,4.1,0,0,0-3.68-1.515,3.741,3.741,0,0,0-2.582,1.392,2.371,2.371,0,0,0-.174,2.713,2.751,2.751,0,0,0,2.985.748,8.6,8.6,0,0,0,2.905-1.742,2.521,2.521,0,0,0,.649-.675.761.761,0,0,0-.006-.847" transform="translate(-13.801 -9.169)" fill="#eb996e"/>
        <path id="Path_2808" data-name="Path 2808" d="M205.863,133.515c.37-.022.381,2.448,2.5,4.2s4.747,1.472,4.767,1.817c.035.155-.586.481-1.7.514a6.15,6.15,0,0,1-3.979-1.377,5.358,5.358,0,0,1-1.937-3.52c-.1-1.032.178-1.645.347-1.631" transform="translate(-13.849 -8.998)" fill="#3c3c4c"/>
        <path id="Path_2809" data-name="Path 2809" d="M204.51,109.332c-.223.619-2.5.331-5.166.658-2.677.274-4.828,1.06-5.183.506-.159-.265.215-.848,1.085-1.449a9.058,9.058,0,0,1,7.884-.888c.981.393,1.476.879,1.38,1.172" transform="translate(-13.083 -7.254)" fill="#3c3c4c"/>
        <path id="Path_2810" data-name="Path 2810" d="M226.687,105.991c-.4.518-1.969-.015-3.854-.036-1.885-.087-3.481.355-3.851-.185-.161-.263.089-.781.785-1.272a5.582,5.582,0,0,1,6.207.179c.668.53.888,1.061.712,1.314" transform="translate(-14.755 -6.985)" fill="#3c3c4c"/>
        <path id="Path_2811" data-name="Path 2811" d="M167.6,145.1a14.645,14.645,0,0,0,17.423-16.2c-.513-4.05-2.7-8.171-1.293-12.005,1.857-5.069,8.962-6.628,10.847-11.686,1.1-2.94.113-6.379,1.355-9.26,1.168-2.709,4.018-4.269,6.792-5.273s5.75-1.7,8.079-3.506,3.782-5.228,2.279-7.767a156.275,156.275,0,0,0-36.04,8.756c-2.691,1.005-5.519,2.214-7.11,4.606-1.684,2.531-1.6,5.8-1.461,8.839.691,14.809-1.563,28.682-.872,43.491" transform="translate(-11.287 -5.351)" fill="#3c3c4c"/>
        <path id="Path_2812" data-name="Path 2812" d="M163.124,139.955a1.216,1.216,0,0,1-.27-.089,3.817,3.817,0,0,1-.752-.366,5.485,5.485,0,0,1-2.056-2.431,8.141,8.141,0,0,1-.538-5.009,15.979,15.979,0,0,1,3-5.99,43.852,43.852,0,0,0,4.526-6.66,10.273,10.273,0,0,0,1.092-4.25,13.965,13.965,0,0,0-.971-4.588,14.068,14.068,0,0,1-.975-4.986,11.139,11.139,0,0,1,5.362-9.007,12.767,12.767,0,0,1,5.433-1.55,22.908,22.908,0,0,0,5.441-.95,7.054,7.054,0,0,0,3.823-3.443,26.542,26.542,0,0,0,1.811-4.864,26.3,26.3,0,0,1,1.86-4.71,17.649,17.649,0,0,1,6.184-6.95,13.372,13.372,0,0,1,7.83-2.03,10.02,10.02,0,0,1,6.159,2.527,9.831,9.831,0,0,1,2.758,4.23,7.908,7.908,0,0,1,.381,3.173,5.043,5.043,0,0,1-.192,1.1c-.033-.006.063-.381.1-1.105a8.268,8.268,0,0,0-.464-3.107,9.668,9.668,0,0,0-8.759-6.474,13.053,13.053,0,0,0-7.6,2.028,17.287,17.287,0,0,0-6,6.815,25.789,25.789,0,0,0-1.813,4.64,26.814,26.814,0,0,1-1.837,4.956,8.533,8.533,0,0,1-1.667,2.2,7.229,7.229,0,0,1-2.4,1.466,23.211,23.211,0,0,1-5.557.981A12.327,12.327,0,0,0,171.786,97a10.683,10.683,0,0,0-5.143,8.606,13.713,13.713,0,0,0,.935,4.832,14.292,14.292,0,0,1,.972,4.734,10.624,10.624,0,0,1-1.155,4.418,43.291,43.291,0,0,1-4.611,6.688,15.84,15.84,0,0,0-3.009,5.845,8.022,8.022,0,0,0,.444,4.875,5.527,5.527,0,0,0,1.938,2.427c.6.4.983.5.967.536" transform="translate(-10.738 -4.856)" fill="#455a64"/>
        <path id="Path_2813" data-name="Path 2813" d="M214.8,67.752a1.586,1.586,0,0,1,.64.193,6.883,6.883,0,0,1,1.56.944,8,8,0,0,1,1.628,10.919,6.9,6.9,0,0,1-1.216,1.358c-.331.275-.537.394-.556.371a22.381,22.381,0,0,0,1.485-1.917,8.056,8.056,0,0,0-1.561-10.468,22.425,22.425,0,0,0-1.98-1.4" transform="translate(-14.476 -4.566)" fill="#455a64"/>
        <path id="Path_2814" data-name="Path 2814" d="M251.937,186.937a12.592,12.592,0,0,0,.471-1.745,8.049,8.049,0,0,0-.807-4.749,10.937,10.937,0,0,0-5.207-4.85,20.809,20.809,0,0,0-4.052-1.445c-1.456-.375-3-.686-4.54-1.183a10.329,10.329,0,0,1-4.164-2.276,6.916,6.916,0,0,1-1.964-3.961c-.255-1.385-.339-2.7-.647-3.875a7.674,7.674,0,0,0-1.5-2.969,8.557,8.557,0,0,0-3.99-2.715c-1.114-.333-1.776-.334-1.77-.385a1.747,1.747,0,0,1,.475-.01,7.347,7.347,0,0,1,1.348.214,8.461,8.461,0,0,1,4.2,2.677,7.939,7.939,0,0,1,1.626,3.086c.336,1.218.436,2.551.7,3.894a6.494,6.494,0,0,0,1.856,3.7,9.973,9.973,0,0,0,3.982,2.155c1.509.486,3.041.8,4.51,1.184a20.816,20.816,0,0,1,4.131,1.5,11.153,11.153,0,0,1,5.318,5.1,7.983,7.983,0,0,1,.684,4.93,5.929,5.929,0,0,1-.421,1.3,1.719,1.719,0,0,1-.237.412" transform="translate(-15.081 -10.565)" fill="#455a64"/>
        <path id="Path_2815" data-name="Path 2815" d="M175.528,152.585c-8.353-2.235-15.572-10.419-18.5-18.556s-2.93-17.029-2.18-25.645c.545-6.245,1.639-12.846,5.786-17.547,6.25-7.086,13.014-10.7,22.458-10.409" transform="translate(-10.408 -5.419)" fill="#3c3c4c"/>
        <path id="Path_2816" data-name="Path 2816" d="M224.336,176.158l-7.787-1.957a4.436,4.436,0,0,0,1.545-5.432,7.131,7.131,0,0,0-5.951-4.411l-35.517-4.009a2.849,2.849,0,0,0-2.979,1.751q-2.366,6-.161,9.887l-.169,0-6.841,1.362L154.9,275.691l75.986-3.552Z" transform="translate(-10.44 -10.805)" fill="#f5f5f5"/>
        <path id="Path_2817" data-name="Path 2817" d="M214.724,175.491a8.241,8.241,0,0,1-1.426.273c-.922.15-2.264.317-3.928.477a91.614,91.614,0,0,1-26.009-1.293c-1.64-.325-2.958-.623-3.861-.864a8.289,8.289,0,0,1-1.391-.414,8.383,8.383,0,0,1,1.433.229c.913.184,2.239.431,3.881.711a107.666,107.666,0,0,0,25.919,1.288c1.661-.116,3.006-.229,3.933-.322a8.276,8.276,0,0,1,1.449-.086" transform="translate(-12.003 -11.704)" fill="#3c3c4c"/>
        <path id="Path_2818" data-name="Path 2818" d="M180.539,192.44a27.573,27.573,0,0,1,2.66-4.421,27.492,27.492,0,0,1,3.065-4.152,27.651,27.651,0,0,1-2.661,4.421,27.469,27.469,0,0,1-3.064,4.151" transform="translate(-12.167 -12.391)" fill="#e0e0e0"/>
        <path id="Path_2819" data-name="Path 2819" d="M206.343,194.347a26.833,26.833,0,0,1-3.374-3.81,26.823,26.823,0,0,1-3-4.115,53.328,53.328,0,0,1,6.371,7.924" transform="translate(-13.477 -12.564)" fill="#e0e0e0"/>
        <path id="Path_2820" data-name="Path 2820" d="M194.471,208.125a28.092,28.092,0,0,1-1.147-5.09,28.178,28.178,0,0,1-.67-5.176,28.251,28.251,0,0,1,1.147,5.091,28.251,28.251,0,0,1,.67,5.175" transform="translate(-12.982 -13.335)" fill="#e0e0e0"/>
        <path id="Path_2821" data-name="Path 2821" d="M214,209.733a41.016,41.016,0,0,1-4.313,4.589,40.9,40.9,0,0,1-4.655,4.243A81.84,81.84,0,0,1,214,209.733" transform="translate(-13.818 -14.135)" fill="#e0e0e0"/>
        <path id="Path_2822" data-name="Path 2822" d="M187.181,227.811a21.478,21.478,0,0,1-8.087-8.572c.125-.079,1.557,2.158,3.8,4.518s4.376,3.933,4.289,4.053" transform="translate(-12.07 -14.775)" fill="#e0e0e0"/>
        <path id="Path_2823" data-name="Path 2823" d="M195.757,242.867c.042.14-2.129.827-4.589,2.134s-4.261,2.7-4.352,2.581a17.678,17.678,0,0,1,8.942-4.715" transform="translate(-12.59 -16.367)" fill="#e0e0e0"/>
        <path id="Path_2824" data-name="Path 2824" d="M209.833,242.933a9.089,9.089,0,0,1-1.485-1.6c-.862-1.031-2.005-2.5-3.2-4.164s-2.206-3.228-2.9-4.377a9.059,9.059,0,0,1-1.027-1.922,10.475,10.475,0,0,1,1.315,1.735l3.01,4.282,3.073,4.236a10.45,10.45,0,0,1,1.214,1.806" transform="translate(-13.561 -15.56)" fill="#e0e0e0"/>
        <path id="Path_2825" data-name="Path 2825" d="M211.039,256.119a27.012,27.012,0,0,1-5.611,1.307,27,27,0,0,1-5.735.565,46.807,46.807,0,0,1,5.655-1.045,46.9,46.9,0,0,1,5.69-.828" transform="translate(-13.458 -17.259)" fill="#e0e0e0"/>
        <path id="Path_2826" data-name="Path 2826" d="M189.065,173.262c-.065-.052.384-.563.766-1.55a8.181,8.181,0,0,0,.4-4.05,16.414,16.414,0,0,0-1.2-3.978,7.758,7.758,0,0,1-.63-1.64,5.468,5.468,0,0,1,.941,1.495,13.027,13.027,0,0,1,1.373,4.055,7.519,7.519,0,0,1-.571,4.255,3.1,3.1,0,0,1-1.081,1.414" transform="translate(-12.697 -10.921)" fill="#e0e0e0"/>
        <path id="Path_2827" data-name="Path 2827" d="M204.331,165.856a8.471,8.471,0,0,1,1.5,6.414c-.144,0-.155-1.489-.574-3.248s-1.054-3.1-.927-3.166" transform="translate(-13.77 -11.178)" fill="#e0e0e0"/>
        <path id="Path_2828" data-name="Path 2828" d="M272.815,236.69l35.353-62.084,4.259-10.77s11.018-23.693,11.787-26.1c.888-2.787,2.444-3.027,3.449-2.63,1.566.618,2.068,2.952,1.379,5.366-.238.835-4.522,13.848-4.522,13.848a32.282,32.282,0,0,1,3.655-2.713c2.713-1.823,7.69-1.767,12.292-.128s5.746,2.5,5.193,4.322a2.418,2.418,0,0,1-1.474,1.463,4.781,4.781,0,0,1-3.4.075c-7.406-2.524-10.687.814-10.687.814l-.558,1.409s5.565-1.782,8.732.738a4.614,4.614,0,0,1,1.155,1.349,6.12,6.12,0,0,1,2.264,10.312,2.543,2.543,0,0,1-2.809.712,3.256,3.256,0,0,1-1.061-1.223,4.944,4.944,0,0,0-.506-.7l-2.113,3.729s-5.2,8.121-7.056,11.911l-24.33,64.836a17.17,17.17,0,0,1-22.39,9.934h0a17.17,17.17,0,0,1-8.605-24.463" transform="translate(-18.234 -9.095)" fill="#ffbe9d"/>
        <path id="Path_2829" data-name="Path 2829" d="M313.493,176.318c1.247.812,2.97.26,4.1-.713s1.889-2.3,2.941-3.353c3.148-3.148,8.419-3.442,11.412-6.736.418-.46.788-1.157.428-1.662-.334-.469-1.035-.408-1.6-.3l-14.464,2.864" transform="translate(-21.128 -11.018)" fill="#ffbe9d"/>
        <path id="Path_2830" data-name="Path 2830" d="M316.307,166.392a5.938,5.938,0,0,1,1.532-.47c1-.249,2.446-.582,4.24-.975l6.308-1.341,1.825-.376a2.921,2.921,0,0,1,2.209.073,1.244,1.244,0,0,1,.472,1.313,2.555,2.555,0,0,1-.567,1.065,9.662,9.662,0,0,1-1.628,1.44c-2.409,1.665-5.049,2.35-7.152,3.454a11.111,11.111,0,0,0-2.747,1.873c-.744.72-1.33,1.541-1.948,2.241a5.189,5.189,0,0,1-3.832,2.152c-1.11-.022-1.562-.544-1.527-.552a4.309,4.309,0,0,0,1.512.225,5.026,5.026,0,0,0,3.392-2.207c.569-.7,1.127-1.546,1.912-2.354a11.441,11.441,0,0,1,2.88-2.065c2.175-1.18,4.8-1.9,7.023-3.453a9.084,9.084,0,0,0,1.478-1.294c.4-.46.547-1.012.255-1.165-.292-.216-.957-.086-1.575.043l-1.832.348-6.344,1.164c-1.807.32-3.273.563-4.291.713a5.908,5.908,0,0,1-1.6.149" transform="translate(-21.127 -10.988)" fill="#eb996e"/>
        <path id="Path_2831" data-name="Path 2831" d="M333.586,161.016a6.083,6.083,0,0,1,1.66-2.236,4.692,4.692,0,0,1,2.8-.919,12,12,0,0,1,3.688.621,19.266,19.266,0,0,0,3.785.858,6.182,6.182,0,0,0,3.177-.491,2.412,2.412,0,0,0,1.353-1.693,1.428,1.428,0,0,0-.017-.795c-.053,0-.048.283-.188.742a2.274,2.274,0,0,1-1.313,1.4,6.137,6.137,0,0,1-2.968.339,21.258,21.258,0,0,1-3.68-.882,11.7,11.7,0,0,0-3.857-.6,4.927,4.927,0,0,0-3.016,1.119,4.371,4.371,0,0,0-1.259,1.762,1.51,1.51,0,0,0-.16.774" transform="translate(-22.481 -10.538)" fill="#eb996e"/>
        <path id="Path_2832" data-name="Path 2832" d="M333.132,139.866a15.337,15.337,0,0,0-.869,2.581c-.55,1.786-1.207,3.913-1.932,6.264-.761,2.342-1.449,4.459-2.027,6.236a15.366,15.366,0,0,0-.776,2.61,12.2,12.2,0,0,0,1.137-2.48c.622-1.565,1.406-3.755,2.183-6.2s1.393-4.69,1.785-6.328a12.23,12.23,0,0,0,.5-2.682" transform="translate(-22.073 -9.426)" fill="#eb996e"/>
        <path id="Path_2833" data-name="Path 2833" d="M335.734,165.443a3.3,3.3,0,0,0,.851-.051,2.524,2.524,0,0,1,2.035.546,1.354,1.354,0,0,1,.328,1.3,7.19,7.19,0,0,1-.663,1.647,3.056,3.056,0,0,0-.344,2.141,2.6,2.6,0,0,0,1.656,1.668,2.948,2.948,0,0,0,2.324-.23,3.687,3.687,0,0,0,1.545-1.505,11.973,11.973,0,0,0,1.017-3.354,7.046,7.046,0,0,0,.025-2.359,1.591,1.591,0,0,0-.327-.8c-.046.021.07.3.118.834a8.349,8.349,0,0,1-.194,2.262,12.827,12.827,0,0,1-1.08,3.185,2.922,2.922,0,0,1-3.252,1.46,2.093,2.093,0,0,1-1.323-1.3,2.6,2.6,0,0,1,.29-1.785,7.216,7.216,0,0,0,.651-1.779,1.759,1.759,0,0,0-.506-1.652,2.641,2.641,0,0,0-2.33-.478,2.213,2.213,0,0,0-.823.26" transform="translate(-22.626 -11.082)" fill="#eb996e"/>
        <path id="Path_2834" data-name="Path 2834" d="M342.264,171.96c-.024-.012-.185.242-.165.76a2.375,2.375,0,0,0,1.086,1.823,3.163,3.163,0,0,0,3.139.034,5.178,5.178,0,0,0,2.374-3.024,6.263,6.263,0,0,0,0-3.84,5.985,5.985,0,0,0-1.731-2.612,5.639,5.639,0,0,0-1.8-1.084,1.629,1.629,0,0,0-.752-.161,9.886,9.886,0,0,1,2.289,1.526,5.889,5.889,0,0,1,1.514,2.482,5.961,5.961,0,0,1-.04,3.522,4.8,4.8,0,0,1-2.094,2.75,2.8,2.8,0,0,1-2.7.079,2.255,2.255,0,0,1-1.075-1.519c-.081-.458,0-.726-.045-.736" transform="translate(-23.055 -11.042)" fill="#eb996e"/>
        <path id="Path_2835" data-name="Path 2835" d="M329.3,178.27a2.226,2.226,0,0,0-1.252-.382,5.139,5.139,0,0,0-3.242.774l.4.268a15.119,15.119,0,0,0,.269-1.831,11.7,11.7,0,0,0-.945-6.305,29.6,29.6,0,0,1,.4,6.26c-.052.625-.137,1.225-.237,1.775l-.111.608.508-.339a5.383,5.383,0,0,1,2.94-.882c.783,0,1.248.125,1.267.056" transform="translate(-21.87 -11.51)" fill="#eb996e"/>
        <path id="Path_2836" data-name="Path 2836" d="M337.536,155.089c-.142.021.061,1.118,1.049,1.975s2.1.923,2.1.78c.033-.155-.89-.428-1.74-1.187-.865-.741-1.259-1.621-1.407-1.568" transform="translate(-22.745 -10.452)" fill="#eb996e"/>
        <path id="Path_2837" data-name="Path 2837" d="M219.2,290.92l36.971.363-6.22-26.83,2.078,5.061A25.484,25.484,0,0,0,275.6,285.32c11.692,0,19.773-8.7,24.721-19.294,11.566-24.769,22.713-64.657,22.713-64.657l-22.55-19.808c-16.313,30.864-31.649,57.671-31.649,57.671s-4.428-13.46-7.848-25.466-3.4-18.321-8.654-24.31c-8.079-9.209-19.6-11.5-30.291-14.254l-.4,49.837Z" transform="translate(-14.773 -11.808)" fill="#e2e2e2"/>
        <path id="Path_2838" data-name="Path 2838" d="M170,253.677l67.33,13.115,3.282,25.867H137.375a20.34,20.34,0,0,1-20.551-21.94c1.487-18.853,3.1-42.082,4.325-51.9.956-7.656,4.009-15.572,7.628-22.387,5.209-9.812,22.58-22.415,37.811-23.036l2.884,64.138" transform="translate(-7.869 -11.686)" fill="#e2e2e2"/>
        <path id="Path_2839" data-name="Path 2839" d="M159.571,253.23a2.928,2.928,0,0,1-.031-.616c0-.454,0-1.039.007-1.764.009-1.591.021-3.792.037-6.486.007-5.476-.1-13.042-.521-21.387-.21-4.173-.483-8.144-.772-11.754a48.332,48.332,0,0,0-1.353-9.472,13.474,13.474,0,0,0-2.968-5.628,19.74,19.74,0,0,0-1.777-1.557,7.234,7.234,0,0,1,1.912,1.426,13.181,13.181,0,0,1,3.162,5.663,46.592,46.592,0,0,1,1.47,9.532c.314,3.611.6,7.588.811,11.767.426,8.355.475,15.933.38,21.414-.047,2.74-.122,4.958-.192,6.488-.04.726-.072,1.309-.1,1.763a2.958,2.958,0,0,1-.067.614" transform="translate(-10.257 -13.112)" fill="#3c3c4c"/>
        <path id="Path_2840" data-name="Path 2840" d="M238.952,274.285A10.386,10.386,0,0,0,236.5,272.3a15.385,15.385,0,0,0-3.439-1.375c-1.4-.4-3.025-.7-4.824-1.073-7.194-1.466-17.129-3.509-28.14-5.565s-21.019-3.717-28.268-4.881l-8.585-1.377-2.332-.39a5.292,5.292,0,0,1-.808-.169,5.185,5.185,0,0,1,.823.072l2.346.3c2.035.27,4.978.684,8.61,1.225,7.264,1.077,17.286,2.681,28.3,4.743s20.944,4.154,28.121,5.706c1.792.391,3.425.724,4.83,1.149a15.026,15.026,0,0,1,3.459,1.473,8.005,8.005,0,0,1,1.847,1.495,4.679,4.679,0,0,1,.394.478.691.691,0,0,1,.116.175" transform="translate(-10.79 -17.352)" fill="#3c3c4c"/>
        <path id="Path_2841" data-name="Path 2841" d="M159.088,257.468c.021.088-1.241.379-3.162,1.159a26.509,26.509,0,0,0-3.258,1.607,25.912,25.912,0,0,0-6.775,5.694,26.442,26.442,0,0,0-2.144,2.932c-1.1,1.757-1.6,2.951-1.687,2.914a3.312,3.312,0,0,1,.292-.864,17.093,17.093,0,0,1,1.1-2.228,23.063,23.063,0,0,1,2.094-3.041,24.056,24.056,0,0,1,6.9-5.8,22.9,22.9,0,0,1,3.356-1.538,16.951,16.951,0,0,1,2.384-.7,3.269,3.269,0,0,1,.9-.139" transform="translate(-9.574 -17.351)" fill="#3c3c4c"/>
        <path id="Path_2842" data-name="Path 2842" d="M253.137,270.119a3.253,3.253,0,0,1-.139-.641c-.078-.472-.18-1.087-.306-1.852-.258-1.61-.6-3.944-.991-6.832-.786-5.777-1.739-13.776-2.538-22.634s-1.284-16.9-1.54-22.728c-.13-2.913-.211-5.269-.244-6.9-.012-.775-.021-1.4-.029-1.876a3.3,3.3,0,0,1,.022-.656,3.347,3.347,0,0,1,.076.652c.031.477.071,1.1.12,1.873.1,1.682.232,4.022.4,6.888.344,5.817.887,13.847,1.681,22.7s1.7,16.85,2.395,22.634c.348,2.85.632,5.176.837,6.85.09.77.161,1.39.215,1.864a3.253,3.253,0,0,1,.043.655" transform="translate(-16.67 -13.883)" fill="#3c3c4c"/>
        <path id="Path_2843" data-name="Path 2843" d="M277.122,262.579c-.027.02-.218-.2-.542-.614a17.322,17.322,0,0,1-1.24-1.851,24.52,24.52,0,0,1-3.31-14.143,17.4,17.4,0,0,1,.291-2.208,2.648,2.648,0,0,1,.214-.791c.083.014-.1,1.159-.161,3.017a27.661,27.661,0,0,0,3.266,13.957c.878,1.64,1.551,2.583,1.483,2.633" transform="translate(-18.329 -16.375)" fill="#3c3c4c"/>
        <path id="Path_2844" data-name="Path 2844" d="M157.419,219.687c0,.017-.118.042-.348.074a8.7,8.7,0,0,1-1.015.1,15.578,15.578,0,0,1-3.738-.292,27.05,27.05,0,0,1-5.3-1.662c-1.933-.8-3.984-1.832-6.132-2.9a45.865,45.865,0,0,0-6.207-2.6,21.158,21.158,0,0,0-5.359-1.047,17.475,17.475,0,0,0-5,.565c-.007-.016.1-.068.322-.153a7.517,7.517,0,0,1,.966-.325,12.639,12.639,0,0,1,3.727-.431,20.312,20.312,0,0,1,5.481.963,43,43,0,0,1,6.289,2.591c2.152,1.07,4.186,2.107,6.09,2.922a28.79,28.79,0,0,0,5.2,1.737,23.617,23.617,0,0,0,5.031.457" transform="translate(-8.378 -14.221)" fill="#fafafa"/>
        <path id="Path_2845" data-name="Path 2845" d="M171.374,217.875a32.515,32.515,0,0,1-5.487,1.181,32.7,32.7,0,0,1-5.569.7,32.537,32.537,0,0,1,5.487-1.182,32.623,32.623,0,0,1,5.569-.7" transform="translate(-10.805 -14.681)" fill="#fafafa"/>
        <path id="Path_2846" data-name="Path 2846" d="M156.737,239.345a8.751,8.751,0,0,1-1.357.586c-.887.341-2.179.809-3.8,1.333A97.283,97.283,0,0,1,138.7,244.45c-2.556.448-5.009.773-7.245,1a29.093,29.093,0,0,1-5.985.163,10.227,10.227,0,0,1-3.887-1.109,5.92,5.92,0,0,1-.924-.6c-.2-.159-.292-.247-.284-.26.03-.039.445.29,1.293.692a10.853,10.853,0,0,0,3.833.935,30.992,30.992,0,0,0,5.907-.266c2.225-.246,4.663-.584,7.208-1.03a118.245,118.245,0,0,0,12.868-3.037c1.625-.479,2.931-.9,3.836-1.183a8.59,8.59,0,0,1,1.419-.408" transform="translate(-8.112 -16.13)" fill="#fafafa"/>
        <path id="Path_2847" data-name="Path 2847" d="M171.157,244.6a26.8,26.8,0,0,1-5.079.327,26.779,26.779,0,0,1-5.086-.159,26.872,26.872,0,0,1,5.079-.327,26.784,26.784,0,0,1,5.086.159" transform="translate(-10.85 -16.473)" fill="#fafafa"/>
        <path id="Path_2848" data-name="Path 2848" d="M120.433,287.947a1.958,1.958,0,0,1,.1-.5l.375-1.4c.086-.31.181-.645.283-1.009s.274-.751.428-1.17a27.411,27.411,0,0,1,1.155-2.811q.364-.767.76-1.6c.27-.554.615-1.095.937-1.674a40.692,40.692,0,0,1,2.292-3.558A42.6,42.6,0,0,1,141.288,261.6a40.434,40.434,0,0,1,3.842-1.778c.618-.24,1.2-.506,1.787-.7l1.689-.531a27.363,27.363,0,0,1,2.943-.754c.437-.094.841-.2,1.219-.262l1.039-.14,1.437-.177a1.947,1.947,0,0,1,.5-.029,2.008,2.008,0,0,1-.492.126l-1.418.267-1.026.181c-.372.078-.77.193-1.2.3a29.786,29.786,0,0,0-2.9.817l-1.664.556c-.576.2-1.151.471-1.76.716-1.23.467-2.466,1.136-3.785,1.8a43.643,43.643,0,0,0-14.377,12.505c-.839,1.214-1.673,2.345-2.306,3.5-.326.569-.677,1.1-.953,1.644l-.781,1.571a29.984,29.984,0,0,0-1.211,2.76c-.165.413-.334.792-.464,1.15s-.222.686-.321.99l-.461,1.368a2.058,2.058,0,0,1-.193.47" transform="translate(-8.116 -17.335)" fill="#fafafa"/>
        <path id="Path_2849" data-name="Path 2849" d="M169.549,259.451a16.7,16.7,0,0,0-3.831,4.813,23.5,23.5,0,0,0-2.144,6.331,64.657,64.657,0,0,0-.882,8.2,58.054,58.054,0,0,1-.956,8.255,22.5,22.5,0,0,1-2.337,6.386,14.282,14.282,0,0,1-2.843,3.6,9.484,9.484,0,0,1-.981.771,1.444,1.444,0,0,1-.372.225,16.467,16.467,0,0,0,3.9-4.758,23.108,23.108,0,0,0,2.2-6.31,61.761,61.761,0,0,0,.908-8.2,60.669,60.669,0,0,1,.929-8.255,22.842,22.842,0,0,1,2.28-6.405,14.417,14.417,0,0,1,2.8-3.633,9.629,9.629,0,0,1,.969-.786,1.476,1.476,0,0,1,.368-.231" transform="translate(-10.46 -17.485)" fill="#fafafa"/>
        <path id="Path_2850" data-name="Path 2850" d="M187.648,298.851c-.134,0,.021-8.041.345-17.947s.7-17.937.831-17.933-.021,8.039-.345,17.949-.7,17.936-.831,17.931" transform="translate(-12.643 -17.723)" fill="#fafafa"/>
        <path id="Path_2851" data-name="Path 2851" d="M214.671,297.8a6.022,6.022,0,0,1-.414-1.164,13.644,13.644,0,0,1-.38-1.4c-.123-.551-.292-1.175-.393-1.881a33.491,33.491,0,0,1-.5-4.979,34.785,34.785,0,0,1,1.852-12.075,33.39,33.39,0,0,1,1.965-4.6c.308-.643.655-1.188.938-1.678a13.72,13.72,0,0,1,.781-1.221,5.952,5.952,0,0,1,.744-.987c.08.052-.924,1.5-2.156,4.038a37.424,37.424,0,0,0-1.848,4.59,36.967,36.967,0,0,0-1.829,11.926,37.327,37.327,0,0,0,.387,4.933c.414,2.792.939,4.473.847,4.5" transform="translate(-14.354 -18.049)" fill="#fafafa"/>
        <path id="Path_2852" data-name="Path 2852" d="M166.711,189.152c-.035.079-1.477-.569-3.9-1.35a44.142,44.142,0,0,0-19.593-1.731c-2.518.345-4.05.73-4.072.646a4.854,4.854,0,0,1,1.058-.345,28.867,28.867,0,0,1,2.963-.641,39.6,39.6,0,0,1,19.754,1.745,28.816,28.816,0,0,1,2.8,1.151,4.847,4.847,0,0,1,.981.525" transform="translate(-9.378 -12.481)" fill="#fafafa"/>
        <path id="Path_2853" data-name="Path 2853" d="M245.992,231.419a26.712,26.712,0,0,1-3.461-.054c-2.133-.083-5.079-.2-8.333-.278s-6.2-.113-8.338-.136a26.507,26.507,0,0,1-3.458-.118,3.47,3.47,0,0,1,.926-.113c.6-.042,1.461-.08,2.528-.113,2.137-.064,5.091-.086,8.353,0s6.211.25,8.342.42c1.065.085,1.927.167,2.522.239a3.444,3.444,0,0,1,.919.159" transform="translate(-14.989 -15.538)" fill="#fafafa"/>
        <path id="Path_2854" data-name="Path 2854" d="M266.26,227.745c.028.082-1.17.484-2.987,1.38a29.264,29.264,0,0,0-11.654,10.387c-1.1,1.7-1.634,2.846-1.712,2.81a3.111,3.111,0,0,1,.306-.837,18.907,18.907,0,0,1,1.114-2.154,26.281,26.281,0,0,1,11.8-10.517,18.668,18.668,0,0,1,2.267-.862,3.172,3.172,0,0,1,.866-.208" transform="translate(-16.842 -15.348)" fill="#fafafa"/>
        <path id="Path_2855" data-name="Path 2855" d="M255.409,195.674a13.959,13.959,0,0,0-4.74.664,32.743,32.743,0,0,0-4.781,2.126,38.8,38.8,0,0,1-5.913,2.656,24.089,24.089,0,0,1-11.686.763,22.151,22.151,0,0,1-3.447-.933,6.075,6.075,0,0,1-1.2-.529c.031-.093,1.753.649,4.7,1.123a25.06,25.06,0,0,0,11.479-.886,41.6,41.6,0,0,0,5.861-2.594,30,30,0,0,1,4.88-2.055,10.95,10.95,0,0,1,3.542-.506,5.841,5.841,0,0,1,.969.092c.22.035.334.062.331.078" transform="translate(-15.072 -13.175)" fill="#fafafa"/>
        <path id="Path_2856" data-name="Path 2856" d="M250.582,262.649a5.667,5.667,0,0,1-1.086.506c-.354.154-.793.328-1.315.5s-1.106.391-1.777.559a34.772,34.772,0,0,1-4.748.989,36.016,36.016,0,0,1-11.839-.355,34.694,34.694,0,0,1-4.68-1.271c-.659-.208-1.231-.462-1.74-.665s-.938-.4-1.282-.573a5.551,5.551,0,0,1-1.053-.572c.038-.085,1.574.656,4.183,1.483A39.332,39.332,0,0,0,229.9,264.4a38.578,38.578,0,0,0,11.7.352,39.533,39.533,0,0,0,4.717-.877c2.653-.67,4.231-1.316,4.265-1.229" transform="translate(-14.898 -17.641)" fill="#fafafa"/>
        <path id="Path_2857" data-name="Path 2857" d="M275.081,289.172a1.732,1.732,0,0,1-.362-.3c-.219-.214-.573-.5-.959-.94a22.254,22.254,0,0,1-2.951-3.958,32.217,32.217,0,0,1-4.155-15.617,62.6,62.6,0,0,1,2.115-16.1c.5-2.018.953-3.638,1.28-4.753.156-.511.284-.934.389-1.28a1.75,1.75,0,0,1,.169-.437,1.715,1.715,0,0,1-.074.464c-.082.353-.181.782-.3,1.3l-1.128,4.783a67.384,67.384,0,0,0-1.963,16.012,33.075,33.075,0,0,0,3.966,15.457,24.9,24.9,0,0,0,2.794,4c.756.875,1.211,1.331,1.18,1.363" transform="translate(-17.97 -16.565)" fill="#fafafa"/>
        <path id="Path_2858" data-name="Path 2858" d="M309.641,257.084a18.668,18.668,0,0,0-4.933-2.774,39.658,39.658,0,0,0-5.971-1.551,67.432,67.432,0,0,1-7.43-1.712,30.571,30.571,0,0,1-11.818-7.107A27.6,27.6,0,0,1,276.7,240.8c-.3-.392-.511-.717-.659-.932s-.214-.337-.2-.346a10.885,10.885,0,0,1,1.006,1.159,34.616,34.616,0,0,0,2.88,3.009,31.764,31.764,0,0,0,11.731,6.894,73.842,73.842,0,0,0,7.37,1.737,36.877,36.877,0,0,1,6.005,1.668,14.377,14.377,0,0,1,3.676,2.049,7.96,7.96,0,0,1,.864.751c.188.182.281.283.27.295" transform="translate(-18.59 -16.142)" fill="#fafafa"/>
        <path id="Path_2859" data-name="Path 2859" d="M321.351,224.046a6.907,6.907,0,0,1-1-.866c-.3-.293-.684-.647-1.146-1.032s-.96-.856-1.565-1.312a43.84,43.84,0,0,0-4.331-3.064,43.114,43.114,0,0,0-11.9-5.093,43.923,43.923,0,0,0-5.208-1.017c-.747-.123-1.431-.163-2.029-.227s-1.115-.1-1.538-.116a6.961,6.961,0,0,1-1.316-.124,6.868,6.868,0,0,1,1.321-.065c.426-.01.948-.008,1.551.035s1.3.054,2.052.157a38.941,38.941,0,0,1,5.277.924,40.469,40.469,0,0,1,12.029,5.147,39.163,39.163,0,0,1,4.312,3.178c.6.477,1.085.965,1.529,1.377s.81.783,1.1,1.1a6.856,6.856,0,0,1,.865,1" transform="translate(-19.633 -14.229)" fill="#fafafa"/>
        <path id="Path_2860" data-name="Path 2860" d="M235.09,179.077a6.85,6.85,0,0,1-1.771.853,33.552,33.552,0,0,1-9.208,2.146,6.829,6.829,0,0,1-1.965.018c-.011-.146,2.966-.4,6.536-1.238,3.572-.823,6.352-1.916,6.408-1.779" transform="translate(-14.971 -12.068)" fill="#fafafa"/>
        <path id="Path_2861" data-name="Path 2861" d="M269.2,316.955a2.6,2.6,0,0,1-2.849,3.292h0a2.6,2.6,0,0,1-2.134-1.826l-.786-2.936.115.039a2.709,2.709,0,0,1-3.023,3.2c-1.229-.03-2.285-1.786-2.63-2.723a5.075,5.075,0,0,1-4.739-2.277l-5.475-8.541-10.137-7.415,6.13-21.907L265.5,289.984c.855.665.986.948,2.349,2.209l14.081,12.948c-1.6.96-2.952.886-5.166,0s-11.945-7.447-11.945-7.447Z" transform="translate(-16.009 -18.592)" fill="#ffbe9d"/>
        <path id="Path_2862" data-name="Path 2862" d="M251.479,300.6c.021-.027.251.111.65.381l.719.5a4.411,4.411,0,0,1,.9.785,4.11,4.11,0,0,1,.741,1.264q.256.732.533,1.527l1.192,3.508c.834,2.493,1.562,4.759,2.066,6.405a15.821,15.821,0,0,1,.719,2.694,15.886,15.886,0,0,1-1.046-2.591c-.588-1.619-1.366-3.865-2.2-6.355-.407-1.238-.795-2.418-1.155-3.516q-.256-.8-.491-1.539a3.918,3.918,0,0,0-.627-1.18,4.536,4.536,0,0,0-.8-.788l-.67-.568c-.364-.317-.555-.5-.534-.532" transform="translate(-16.948 -20.258)" fill="#eb996e"/>
        <path id="Path_2863" data-name="Path 2863" d="M264.876,317.285a3.785,3.785,0,0,1-.312-.9q-.292-1.042-.7-2.5c-.589-2.109-1.389-5.026-2.4-8.2a30.058,30.058,0,0,0-3.353-7.771,6.642,6.642,0,0,0-1.789-1.783c-.509-.321-.84-.413-.824-.461,0-.016.09,0,.248.038a3.16,3.16,0,0,1,.671.258,6.118,6.118,0,0,1,1.97,1.742c1.391,1.768,2.512,4.648,3.54,7.828s1.769,6.132,2.274,8.267c.25,1.068.436,1.935.553,2.539a3.552,3.552,0,0,1,.128.948" transform="translate(-17.219 -19.926)" fill="#eb996e"/>
        <path id="Path_2864" data-name="Path 2864" d="M270.948,318.5a4.346,4.346,0,0,1-.38-.978L269.7,314.8c-.709-2.3-1.656-5.491-2.673-9.021l-2.56-9.043a4.424,4.424,0,0,0-1.493-2.28,5.938,5.938,0,0,0-.9-.482c0-.013.1-.019.276.02a2.376,2.376,0,0,1,.734.306,4.387,4.387,0,0,1,1.71,2.32c.768,2.306,1.672,5.492,2.7,9.025s1.912,6.735,2.537,9.061q.421,1.63.715,2.761a4.408,4.408,0,0,1,.2,1.031" transform="translate(-17.662 -19.811)" fill="#eb996e"/>
        <path id="Path_2865" data-name="Path 2865" d="M413.69,103.185a3.265,3.265,0,1,0,3.265-3.265,3.264,3.264,0,0,0-3.265,3.265" transform="translate(-27.88 -6.734)" fill="#8b8b9e"/>
        <path id="Path_2866" data-name="Path 2866" d="M399.682,103.185a3.265,3.265,0,1,0,3.264-3.265,3.264,3.264,0,0,0-3.264,3.265" transform="translate(-26.936 -6.734)" fill="#8b8b9e"/>
        <path id="Path_2867" data-name="Path 2867" d="M385.677,101.553a3.265,3.265,0,1,0,4.46-1.195,3.265,3.265,0,0,0-4.46,1.195" transform="translate(-25.963 -6.734)" fill="#8b8b9e"/>
        <path id="Path_2868" data-name="Path 2868" d="M400.184,62.535a3.686,3.686,0,0,0-.66-.011l-1.94.055c-.426.02-.9.02-1.43.063l-1.711.241-2,.287-2.231.553A36.122,36.122,0,0,0,379.4,68.437a38.162,38.162,0,0,0-17.528,28.683,39.586,39.586,0,0,0-.106,5.229c.062.884.045,1.783.173,2.675l.406,2.693a38.381,38.381,0,0,0,3.634,10.641,40.977,40.977,0,0,0,6.95,9.563,40.184,40.184,0,0,0,10.013,7.194,36.385,36.385,0,0,0,12.206,3.745,24.1,24.1,0,0,0,3.256.277,29.312,29.312,0,0,0,3.29.061,39.168,39.168,0,0,0,6.592-.833,38.528,38.528,0,0,0,13.123-5.522l-.4.04,13.367,5.364.792.318-.226-.822q-2.024-7.358-3.93-14.29l-.067.353a38.348,38.348,0,0,0,7.133-16.329,34.713,34.713,0,0,0,.52-8.365,27.022,27.022,0,0,0-.38-4.019q-.152-.983-.3-1.955c-.119-.643-.315-1.266-.467-1.893a38.226,38.226,0,0,0-14.913-21.74,36.573,36.573,0,0,0-8.875-4.683l-2-.715-1.9-.482-1.736-.43c-.558-.107-1.095-.164-1.6-.242-1.011-.129-1.9-.3-2.677-.341l-1.964-.066-1.2-.026a1.866,1.866,0,0,0-.406.014,1.794,1.794,0,0,0,.406.056l1.195.094,1.951.132c.772.06,1.652.256,2.651.4a38.018,38.018,0,0,1,30.395,28.2c.146.616.336,1.228.45,1.861q.143.954.288,1.921a26.3,26.3,0,0,1,.354,3.945,34.084,34.084,0,0,1-.542,8.2,37.669,37.669,0,0,1-7.035,15.974l-.121.159.053.194q1.889,6.926,3.9,14.3l.565-.5-13.36-5.38-.209-.084-.189.124a37.732,37.732,0,0,1-12.83,5.393,38.285,38.285,0,0,1-6.443.816,28.677,28.677,0,0,1-3.217-.059,23.472,23.472,0,0,1-3.183-.269,35.6,35.6,0,0,1-11.936-3.65,39.4,39.4,0,0,1-9.809-7.02,40.277,40.277,0,0,1-6.826-9.346,37.691,37.691,0,0,1-3.594-10.412q-.2-1.329-.408-2.639c-.131-.873-.115-1.755-.18-2.622a37.191,37.191,0,0,1,6.219-22.646,38.569,38.569,0,0,1,10.938-10.826,36.368,36.368,0,0,1,10.638-4.8l2.2-.587,1.976-.325,1.695-.28c.52-.057,1-.071,1.419-.1l1.93-.141a3.765,3.765,0,0,0,.658-.077" transform="translate(-24.377 -4.213)" fill="#57576d"/>
      </g>
    </g>
  </g>
</svg>
