<svg xmlns="http://www.w3.org/2000/svg" xmlns:xlink="http://www.w3.org/1999/xlink" width="574.209" height="357.89" viewBox="0 0 574.209 357.89">
  <defs>
    <clipPath id="clip-path">
      <rect id="Rectangle_466" data-name="Rectangle 466" width="410.756" height="297.54" fill="none"/>
    </clipPath>
    <clipPath id="clip-path-2">
      <rect id="Rectangle_464" data-name="Rectangle 464" width="66.511" height="91.104" fill="none"/>
    </clipPath>
    <clipPath id="clip-path-3">
      <rect id="Rectangle_465" data-name="Rectangle 465" width="69.696" height="87.297" fill="none"/>
    </clipPath>
  </defs>
  <g id="No_Address" data-name="No Address" transform="translate(-899.896 -327.828)">
    <line id="Line_213" data-name="Line 213" x2="446.616" transform="translate(962.382 438.17)" fill="none" stroke="#dfe0e6" stroke-miterlimit="10" stroke-width="1.968"/>
    <g id="Group_1240" data-name="Group 1240" transform="translate(899.896 327.828)">
      <rect id="Rectangle_460" data-name="Rectangle 460" width="446.616" height="276.326" rx="6.521" transform="translate(62.486 81.064)" fill="none" stroke="#aeb0cb" stroke-miterlimit="10" stroke-width="1" stroke-dasharray="10.034 10.034"/>
      <path id="Path_4811" data-name="Path 4811" d="M101.812,106.857a4.085,4.085,0,1,1-4.085-4.085,4.085,4.085,0,0,1,4.085,4.085" transform="translate(-9.892 -10.857)" fill="#dfe0e6"/>
      <path id="Path_4812" data-name="Path 4812" d="M119.564,106.857a4.085,4.085,0,1,1-4.085-4.085,4.085,4.085,0,0,1,4.085,4.085" transform="translate(-11.767 -10.857)" fill="#dfe0e6"/>
      <path id="Path_4813" data-name="Path 4813" d="M137.317,106.857a4.085,4.085,0,1,1-4.085-4.085,4.085,4.085,0,0,1,4.085,4.085" transform="translate(-13.643 -10.857)" fill="#f1f1f3"/>
      <path id="Path_4814" data-name="Path 4814" d="M614.886,219.829H509.922a5.358,5.358,0,0,1-5.358-5.358V117.4a5.358,5.358,0,0,1,5.358-5.358H614.886a5.358,5.358,0,0,1,5.358,5.358v97.075a5.358,5.358,0,0,1-5.358,5.358" transform="translate(-53.302 -11.836)" fill="#dfe0e6"/>
      <path id="Path_4815" data-name="Path 4815" d="M538.1,195.727h54.554a5.386,5.386,0,0,0,5.386-5.386v-44.71a5.386,5.386,0,0,0-5.386-5.385H538.1a5.385,5.385,0,0,0-5.386,5.385v44.71a5.386,5.386,0,0,0,5.386,5.386" transform="translate(-56.275 -14.815)" fill="#f1f1f3"/>
      <path id="Path_4816" data-name="Path 4816" d="M105.212,313.005H5.109A5.11,5.11,0,0,1,0,307.9V220.619a5.11,5.11,0,0,1,5.109-5.109h100.1a5.11,5.11,0,0,1,5.109,5.109V307.9a5.11,5.11,0,0,1-5.109,5.109" transform="translate(0 -22.766)" fill="#dfe0e6"/>
      <path id="Path_4817" data-name="Path 4817" d="M83.576,296.194H31.66a5.938,5.938,0,0,1-5.938-5.938V240.118a5.937,5.937,0,0,1,5.938-5.938H83.576a5.937,5.937,0,0,1,5.938,5.938v50.139a5.938,5.938,0,0,1-5.938,5.938" transform="translate(-2.717 -24.739)" fill="#f1f1f3"/>
      <path id="Path_4818" data-name="Path 4818" d="M99.857,61.327H9.17a3.392,3.392,0,1,1,0-6.785H99.857a3.392,3.392,0,1,1,0,6.785" transform="translate(-0.61 -5.762)" fill="#c7c8cd"/>
      <path id="Path_4819" data-name="Path 4819" d="M632.64,309.011H588.624a3.392,3.392,0,1,1,0-6.785H632.64a3.392,3.392,0,1,1,0,6.785" transform="translate(-61.823 -31.927)" fill="#c7c8cd"/>
      <path id="Path_4820" data-name="Path 4820" d="M602.833,352.488h-5.379a2.559,2.559,0,0,1-2.559-2.559v-5.05a2.559,2.559,0,0,1,2.559-2.559h5.379a2.559,2.559,0,0,1,2.559,2.559v5.05a2.559,2.559,0,0,1-2.559,2.559" transform="translate(-62.844 -36.162)" fill="#dfe0e6"/>
      <path id="Path_4821" data-name="Path 4821" d="M32.785,378.766H27.407a2.559,2.559,0,0,1-2.559-2.559v-5.05a2.559,2.559,0,0,1,2.559-2.559h5.379a2.559,2.559,0,0,1,2.559,2.559v5.05a2.559,2.559,0,0,1-2.559,2.559" transform="translate(-2.625 -38.938)" fill="#dfe0e6"/>
      <path id="Path_4822" data-name="Path 4822" d="M483.108,54.992H393.6A2.693,2.693,0,0,1,390.9,52.3V30.444A2.693,2.693,0,0,1,393.6,27.75h89.512a2.694,2.694,0,0,1,2.693,2.694V52.3a2.694,2.694,0,0,1-2.693,2.694" transform="translate(-41.295 -2.931)" fill="#dfe0e6"/>
      <line id="Line_214" data-name="Line 214" x2="63.659" transform="translate(362.534 34.526)" fill="none" stroke="#f5f5f5" stroke-miterlimit="10" stroke-width="1"/>
      <line id="Line_215" data-name="Line 215" x2="25.929" transform="translate(362.534 41.059)" fill="none" stroke="#f5f5f5" stroke-miterlimit="10" stroke-width="1"/>
      <path id="Path_4823" data-name="Path 4823" d="M402.461,54.764V65.381l13.352-10.617Z" transform="translate(-42.516 -5.785)" fill="#dfe0e6"/>
      <path id="Path_4824" data-name="Path 4824" d="M242.087,53.681h-43.33a7.62,7.62,0,0,1-7.62-7.62V5.778A5.777,5.777,0,0,1,196.914,0h45.173a5.777,5.777,0,0,1,5.778,5.778V47.9a5.777,5.777,0,0,1-5.778,5.778" transform="translate(-20.192)" fill="#dfe0e6"/>
    </g>
    <g id="Group_1223" data-name="Group 1223" transform="translate(1003.521 386.957)" clip-path="url(#clip-path)">
      <path id="Path_4825" data-name="Path 4825" d="M450.705,286.764l-32.646-4.348.255,3.242L390.4,289.376s-17.992,45.137-2.135,144.408h22.7l8.172-100.659h2.9l7.915,100.659h22.7c15.857-99.271-1.96-147.02-1.96-147.02" transform="translate(-143.951 -88.962)" fill="#dfe0e6"/>
      <line id="Line_216" data-name="Line 216" x2="23.689" transform="translate(264.813 244.163)" fill="none" stroke="#adadad" stroke-linecap="round" stroke-linejoin="round" stroke-width="1.233"/>
      <path id="Path_4826" data-name="Path 4826" d="M477.737,233.517c-2.793-4.458-18.482-4.3-19.31-4.4-4.241-.5,2.72,33.253,11.543,62.755a9.906,9.906,0,0,0,13.35,6.3l.176-.074a9.918,9.918,0,0,0,5.881-10.975c-4.2-22.262-8.411-48.45-11.64-53.605" transform="translate(-151.918 -83.331)" fill="#fee8dc"/>
      <path id="Path_4827" data-name="Path 4827" d="M481.762,246.867l-20.031,7.773-1.877-9.5,20.741-5.174Z" transform="translate(-152.204 -84.477)" fill="#f7dccf"/>
      <path id="Path_4828" data-name="Path 4828" d="M487.511,267.945s-9.489,12.744-9.037,12.158,7.441-20.594,7.441-20.594Z" transform="translate(-154.169 -86.542)" fill="#f7dccf"/>
      <path id="Path_4829" data-name="Path 4829" d="M500.291,249.788l-27.2,35.241A10,10,0,1,0,489.8,295.9l22.64-41.77Z" transform="translate(-153.382 -85.515)" fill="#fee8dc"/>
      <path id="Path_4830" data-name="Path 4830" d="M510.7,257.32a11.22,11.22,0,1,1,14.126-7.227A11.22,11.22,0,0,1,510.7,257.32" transform="translate(-156.754 -83.998)" fill="#fee8dc"/>
      <path id="Path_4831" data-name="Path 4831" d="M522.4,239.661s3.07-3.188-2.376-5.423-12.181-1.722-16.48,8.718Z" transform="translate(-156.819 -83.759)" fill="#fee8dc"/>
      <path id="Path_4832" data-name="Path 4832" d="M528.935,215.515l11.389,4.938a1.175,1.175,0,0,1,.515,1.678l-14.982,27.985a1.432,1.432,0,0,1-1.779.683l-11.389-4.938a1.174,1.174,0,0,1-.515-1.678L527.156,216.2a1.432,1.432,0,0,1,1.779-.683" transform="translate(-157.713 -81.884)" fill="#c7c8cd"/>
      <path id="Path_4833" data-name="Path 4833" d="M527.719,214.961l11.389,4.938a1.175,1.175,0,0,1,.515,1.678l-14.982,27.985a1.432,1.432,0,0,1-1.779.683l-11.389-4.938a1.175,1.175,0,0,1-.515-1.678l14.982-27.985a1.433,1.433,0,0,1,1.779-.683" transform="translate(-157.585 -81.826)" fill="#dfe0e6"/>
      <path id="Path_4834" data-name="Path 4834" d="M526.839,218.157l10.007,4.339L524.635,245.3l-10.007-4.338Z" transform="translate(-157.99 -82.174)" fill="#e6e6e6"/>
      <path id="Path_4835" data-name="Path 4835" d="M536.846,222.5l-22.217,18.469,12.21-22.807Z" transform="translate(-157.99 -82.174)" fill="#fff"/>
      <path id="Path_4836" data-name="Path 4836" d="M517.231,233.327a18.155,18.155,0,0,1,4.824,1.791,2.56,2.56,0,0,1-.917,4.779l-5.922.747s-3.088,5.324-7.125,5.922l3.7-9.349Z" transform="translate(-157.299 -83.776)" fill="#fee8dc"/>
      <path id="Path_4837" data-name="Path 4837" d="M427.679,184.417c-.654,0,41.987,5.9,49.023,54.516l-22.126,3.39-4.461,36.7H388.389l-12.255-67.81s13.676-19.6,39.068-26.8Z" transform="translate(-143.359 -78.61)" fill="#e5e6eb"/>
      <line id="Line_217" data-name="Line 217" y1="21.227" x2="1.92" transform="translate(311.216 142.486)" fill="none" stroke="#adadad" stroke-linecap="round" stroke-linejoin="round" stroke-width="1.233"/>
      <path id="Path_4838" data-name="Path 4838" d="M435.333,183.2V166.313H415.544V183.4a38.434,38.434,0,0,0-5.316,2.156l15.434,9.193,15.778-9.194a25.744,25.744,0,0,0-6.108-2.354" transform="translate(-146.961 -76.697)" fill="#fee8dc"/>
      <path id="Path_4839" data-name="Path 4839" d="M415.967,168s3.554,9.437,13.042,8.623c8.719-.749,7.331-13.826,7.331-13.826Z" transform="translate(-147.567 -76.326)" fill="#f7dccf"/>
      <path id="Path_4840" data-name="Path 4840" d="M405.4,153.187c-3.1,2.814-10.037-7.858-7.04-10.854s5.283,1.7,5.283,1.7l1.338,3.185,1.01,4.314.24,1.13Z" transform="translate(-145.63 -74.058)" fill="#fee8dc"/>
      <path id="Path_4841" data-name="Path 4841" d="M400.065,146.66s2.348-1.056,4.433,2.348" transform="translate(-145.888 -74.605)" fill="none" stroke="#e2c8bc" stroke-linecap="round" stroke-linejoin="round" stroke-width="0.993"/>
      <path id="Path_4842" data-name="Path 4842" d="M447.238,152.879c2.852,3.066,10.666-6.98,7.933-10.22s-5.408,1.252-5.408,1.252l-1.6,3.061-1.371,4.213-.335,1.105Z" transform="translate(-150.788 -74.074)" fill="#fee8dc"/>
      <path id="Path_4843" data-name="Path 4843" d="M453.684,146.845s-2.25-1.251-4.616,1.964" transform="translate(-151.064 -74.615)" fill="none" stroke="#e2c8bc" stroke-linecap="round" stroke-linejoin="round" stroke-width="0.993"/>
      <path id="Path_4844" data-name="Path 4844" d="M400.234,128.266c0,14.126,10.77,20.825,24.055,20.825s24.056-6.7,24.056-20.825-10.77-23.735-24.056-23.735-24.055,9.61-24.055,23.735" transform="translate(-145.905 -70.171)" fill="#8b8c96"/>
      <path id="Path_4845" data-name="Path 4845" d="M403.888,129.632a96.617,96.617,0,0,0,2.448,21.466c1.2,5.2,4.567,8.834,9.329,11.759l.868.532a16.371,16.371,0,0,0,16.664.185c5.159-3.008,8.771-6.973,9.883-12.553a141.173,141.173,0,0,0,2.243-21.389s1.924-21.891-20.421-21.466-21.013,21.466-21.013,21.466" transform="translate(-146.29 -70.554)" fill="#fee8dc"/>
      <path id="Path_4846" data-name="Path 4846" d="M425.538,146.137v3.029a1.378,1.378,0,0,0,.1.509,1.35,1.35,0,0,0,1.609.744l1.39-.368" transform="translate(-148.579 -74.566)" fill="none" stroke="#e2c8bc" stroke-linecap="round" stroke-linejoin="round" stroke-width="1.232"/>
      <path id="Path_4847" data-name="Path 4847" d="M420.253,132.823l-11.105,2.6s.505-2.826,5.048-3.853,6.058,1.25,6.058,1.25" transform="translate(-146.847 -72.999)" fill="#8b8c96"/>
      <path id="Path_4848" data-name="Path 4848" d="M432.586,132.823l10.723,2.6s-.487-2.826-4.874-3.853-5.849,1.25-5.849,1.25" transform="translate(-149.323 -72.999)" fill="#8b8c96"/>
      <path id="Path_4849" data-name="Path 4849" d="M418.5,141.9a1.873,1.873,0,1,1-1.873-1.867A1.871,1.871,0,0,1,418.5,141.9" transform="translate(-147.439 -73.921)" fill="#282828"/>
      <path id="Path_4850" data-name="Path 4850" d="M438.352,141.9a1.873,1.873,0,1,1-1.873-1.867,1.87,1.87,0,0,1,1.873,1.867" transform="translate(-149.536 -73.921)" fill="#282828"/>
      <circle id="Ellipse_161" data-name="Ellipse 161" cx="7.964" cy="7.964" r="7.964" transform="translate(258.818 74.629) rotate(-76.717)" fill="none" stroke="#8686a5" stroke-miterlimit="10" stroke-width="1.342"/>
      <circle id="Ellipse_162" data-name="Ellipse 162" cx="7.964" cy="7.964" r="7.964" transform="translate(278.383 74.629) rotate(-76.717)" fill="none" stroke="#8686a5" stroke-miterlimit="10" stroke-width="1.342"/>
      <path id="Path_4851" data-name="Path 4851" d="M424.872,142.843a2.592,2.592,0,0,1,3.636,0" transform="translate(-148.508 -74.135)" fill="none" stroke="#8686a5" stroke-miterlimit="10" stroke-width="1.342"/>
      <line id="Line_218" data-name="Line 218" x1="2.509" y1="0.063" transform="translate(257.927 68.644)" fill="none" stroke="#8686a5" stroke-miterlimit="10" stroke-width="1.342"/>
      <line id="Line_219" data-name="Line 219" y1="0.063" x2="2.524" transform="translate(295.928 68.644)" fill="none" stroke="#8686a5" stroke-miterlimit="10" stroke-width="1.342"/>
      <path id="Path_4852" data-name="Path 4852" d="M449.049,137.411s-8.934-12.077-6.873-24.313a17.6,17.6,0,0,1,8.358,11.95c1.727,8.614-1.485,12.364-1.485,12.364" transform="translate(-150.303 -71.076)" fill="#8b8c96"/>
      <path id="Path_4853" data-name="Path 4853" d="M403.726,138.132s10.378-13.718,8.318-25.953a20.43,20.43,0,0,0-8.925,12.771c-1.727,8.614.607,13.182.607,13.182" transform="translate(-146.143 -70.978)" fill="#8b8c96"/>
      <path id="Path_4854" data-name="Path 4854" d="M444,117.29s-11.472,12.559-42.858,10.409c0,0,4.806-18.428,20.017-20.391,0,0,17.563-2.1,22.841,9.983" transform="translate(-146.001 -70.449)" fill="#8b8c96"/>
      <path id="Path_4855" data-name="Path 4855" d="M461.374,100.3a14.985,14.985,0,1,1-14.986-14.985A14.986,14.986,0,0,1,461.374,100.3" transform="translate(-149.198 -68.141)" fill="#8b8c96"/>
      <path id="Path_4856" data-name="Path 4856" d="M235.484,286.418,207.572,282.7l.255-3.242-32.646,4.347s-17.817,47.749-1.96,147.02h22.7l7.915-100.659h2.9l8.171,100.659h22.7c15.857-99.27-2.134-144.408-2.134-144.408" transform="translate(-121.23 -88.65)" fill="#dfe0e6"/>
      <path id="Path_4857" data-name="Path 4857" d="M232.613,132.022a51.464,51.464,0,0,1-9.373-16.9c-2.76-7.81-11.8-4.635-11.8-4.635s-7.531-9.686-18.86-6.312-15.268,11.436-15.5,21.022-7.771,11.086-13.577,22.175c-10.25,19.578,7.007,36.068,38.421,31.493l.043-.3a32.96,32.96,0,0,0,11.512,1.075c37.738-2.24,34.1-30,19.129-47.608" transform="translate(-120.586 -70.057)" fill="#8b8c96"/>
      <path id="Path_4858" data-name="Path 4858" d="M227.213,150.229c3.1,2.813,10.037-7.858,7.04-10.854s-5.283,1.7-5.283,1.7l-1.338,3.185-1.01,4.314-.24,1.13Z" transform="translate(-127.54 -73.746)" fill="#fee8dc"/>
      <path id="Path_4859" data-name="Path 4859" d="M233.039,143.7s-2.348-1.056-4.433,2.348" transform="translate(-127.775 -74.292)" fill="none" stroke="#e2c8bc" stroke-linecap="round" stroke-linejoin="round" stroke-width="0.993"/>
      <path id="Path_4860" data-name="Path 4860" d="M185.293,149.921c-2.853,3.066-10.666-6.98-7.933-10.219s5.408,1.251,5.408,1.251l1.6,3.061,1.371,4.213.335,1.105Z" transform="translate(-122.301 -73.762)" fill="#fee8dc"/>
      <path id="Path_4861" data-name="Path 4861" d="M179.4,143.887s2.25-1.251,4.616,1.964" transform="translate(-122.577 -74.303)" fill="none" stroke="#e2c8bc" stroke-linecap="round" stroke-linejoin="round" stroke-width="0.993"/>
      <path id="Path_4862" data-name="Path 4862" d="M227.71,125.307c0,14.126-10.77,20.824-24.055,20.824s-24.056-6.7-24.056-20.824,10.77-23.735,24.056-23.735,24.055,9.61,24.055,23.735" transform="translate(-122.598 -69.858)" fill="#8b8c96"/>
      <rect id="Rectangle_462" data-name="Rectangle 462" width="19.789" height="25.624" transform="translate(71.07 86.97)" fill="#fee8dc"/>
      <path id="Path_4863" data-name="Path 4863" d="M192.1,161.568s5.508,10.993,12.285,12.71a9.538,9.538,0,0,0,5.49-.318c2.551-.9,5.785-4.706,6.335-8.914l.255-2.4s-12.059,6.566-24.364-1.074" transform="translate(-123.918 -76.196)" fill="#f7dccf"/>
      <path id="Path_4864" data-name="Path 4864" d="M224.839,126.674a96.617,96.617,0,0,1-2.448,21.466c-1.2,5.2-4.568,8.834-9.329,11.759l-.868.532a16.369,16.369,0,0,1-16.663.185c-5.16-3.008-8.772-6.973-9.884-12.553a141.176,141.176,0,0,1-2.243-21.389s-1.924-21.891,20.422-21.466,21.012,21.466,21.012,21.466" transform="translate(-122.995 -70.241)" fill="#fee8dc"/>
      <path id="Path_4865" data-name="Path 4865" d="M204.828,144.5v1.8a1.365,1.365,0,0,0,.1.507,1.351,1.351,0,0,0,1.609.742l1.39-.368" transform="translate(-125.263 -74.393)" fill="none" stroke="#e2c8bc" stroke-linecap="round" stroke-linejoin="round" stroke-width="1.23"/>
      <path id="Path_4866" data-name="Path 4866" d="M210.034,131.042l11.889,2.814s-.541-3.055-5.4-4.165-6.484,1.351-6.484,1.351" transform="translate(-125.813 -72.798)" fill="#8b8c96"/>
      <path id="Path_4867" data-name="Path 4867" d="M201.633,131.042l-12.041,2.814s.547-3.055,5.473-4.165,6.568,1.351,6.568,1.351" transform="translate(-123.653 -72.798)" fill="#8b8c96"/>
      <path id="Path_4868" data-name="Path 4868" d="M197.79,139.266a1.873,1.873,0,1,1-1.873-1.862,1.867,1.867,0,0,1,1.873,1.862" transform="translate(-124.124 -73.643)" fill="#282828"/>
      <path id="Path_4869" data-name="Path 4869" d="M217.642,139.266a1.873,1.873,0,1,1-1.873-1.862,1.868,1.868,0,0,1,1.873,1.862" transform="translate(-126.221 -73.643)" fill="#282828"/>
      <path id="Path_4870" data-name="Path 4870" d="M183.5,134.453s8.934-12.077,6.873-24.313a17.6,17.6,0,0,0-8.358,11.95c-1.727,8.613,1.485,12.364,1.485,12.364" transform="translate(-122.799 -70.763)" fill="#8b8c96"/>
      <path id="Path_4871" data-name="Path 4871" d="M228.741,133.954s-10.378-12.5-8.318-24.733a20.434,20.434,0,0,1,8.926,12.771c1.726,8.613-.608,11.961-.608,11.961" transform="translate(-126.882 -70.666)" fill="#8b8c96"/>
      <path id="Path_4872" data-name="Path 4872" d="M184.569,114.332s10.251,13.779,41.637,11.63c0,0-3.585-19.649-18.8-21.612,0,0-17.563-2.1-22.841,9.982" transform="translate(-123.123 -70.137)" fill="#8b8c96"/>
      <path id="Path_4873" data-name="Path 4873" d="M151.565,341.554c-.456.718,26.123-115.645,18.232-113.886-.72.16-14.541,1.443-16.594,5.62-5.955,12.106-10.225,107.383-10.225,107.383Z" transform="translate(-118.729 -83.176)" fill="#fee8dc"/>
      <path id="Path_4874" data-name="Path 4874" d="M142.916,353.736s-4.284,19.877,11.911,22.05a2.277,2.277,0,0,0,2.45-1.5l.047-.135a2.274,2.274,0,0,0-1.26-2.813c-2.64-1.181-6.736-4.163-4.7-10.938,0,0,2.341-.286,3.633,4.08a1.872,1.872,0,0,0,3.655-.76c-.388-3.059-1.926-10.42-7.829-12.4Z" transform="translate(-118.669 -96.241)" fill="#fee8dc"/>
      <path id="Path_4875" data-name="Path 4875" d="M149.071,263.187s15.314,21.567,15.395,21.15,5.355-30.279,5.355-30.279l-18.583-8.049Z" transform="translate(-119.373 -85.116)" fill="#f7dccf"/>
      <path id="Path_4876" data-name="Path 4876" d="M191.345,187.253c.654,0-37.848.686-44.884,49.3l22.126,3.39,4.461,36.7h61.725l12.255-67.81s-8.712-14.692-34.1-21.889Z" transform="translate(-119.097 -78.877)" fill="#e5e6eb"/>
      <path id="Path_4877" data-name="Path 4877" d="M175.606,192.678s5.441,7.223,27.735,7.223c22.086,0,27.734-7.6,27.734-7.6a95.244,95.244,0,0,0-28.129-9.629,100.109,100.109,0,0,0-27.341,10.007" transform="translate(-122.176 -78.425)" fill="#fee8dc"/>
      <path id="Path_4878" data-name="Path 4878" d="M260.3,366.063l.054,96.953h47.963l3.687-96.953Z" transform="translate(-131.123 -97.798)" fill="#dfe0e6"/>
      <path id="Path_4879" data-name="Path 4879" d="M370.639,366.063l-.054,96.953H322.622l-3.687-96.953Z" transform="translate(-137.317 -97.798)" fill="#dfe0e6"/>
      <rect id="Rectangle_463" data-name="Rectangle 463" width="49.591" height="33.683" transform="translate(157.535 268.264)" fill="#dfe0e6"/>
      <path id="Path_4880" data-name="Path 4880" d="M406.823,271.459c2.974,32.853-.163,56.791.7,117.244L378.9,389.9l-4.265-113.156Z" transform="translate(-143.201 -87.805)" fill="#fee8dc"/>
      <path id="Path_4881" data-name="Path 4881" d="M378.582,298.157s17.728-1.623,29.848-9.617l-.319-7.037-29.539,4.024Z" transform="translate(-143.617 -88.866)" fill="#f7dccf"/>
      <g id="Group_1219" data-name="Group 1219" transform="translate(209.208 107.119)" opacity="0.5" style="mix-blend-mode: multiply;isolation: isolate">
        <g id="Group_1218" data-name="Group 1218" transform="translate(0 2)" opacity="0.199">
          <g id="Group_1217" data-name="Group 1217" clip-path="url(#clip-path-2)">
            <path id="Path_4882" data-name="Path 4882" d="M349.784,185.884s56.309,13.764,66.511,83.238c0,0-27.559,11.614-55.177,6.617l6.213-23.236Z" transform="translate(-349.784 -185.884)" fill="#353535"/>
          </g>
        </g>
      </g>
      <path id="Path_4883" data-name="Path 4883" d="M346.784,186.884s56.309,14.16,66.511,85.633c0,0-27.559,11.948-55.177,6.808l6.213-23.9Z" transform="translate(-140.259 -78.87)" fill="#e5e6eb"/>
      <path id="Path_4884" data-name="Path 4884" d="M156.7,220.113l41.926,49.513-12.83,36.13s-31.866-44.3-46.185-78.547Z" transform="translate(-118.374 -82.381)" fill="#fee8dc"/>
      <path id="Path_4885" data-name="Path 4885" d="M156.671,218.664s-14.722,8.318-18.467,5.309c-6.544-5.258-11.951-24.5-11.951-24.5s27.53-10.379,27.272-9.974,3.146,29.17,3.146,29.17" transform="translate(-116.962 -79.145)" fill="#fee8dc"/>
      <path id="Path_4886" data-name="Path 4886" d="M159.675,218.937c-.26-1.482,5.459-17.471,7.42-23.467A2.644,2.644,0,0,0,165,192.138a3.053,3.053,0,0,0-3.4,1.4l-6.906,11.8Z" transform="translate(-119.966 -79.418)" fill="#fee8dc"/>
      <path id="Path_4887" data-name="Path 4887" d="M158.485,199.714l-4.741-23.587a2.968,2.968,0,0,0-3.432-2.353,2.556,2.556,0,0,0-2.1,2.836l2.066,17.563Z" transform="translate(-119.28 -77.48)" fill="#fee8dc"/>
      <path id="Path_4888" data-name="Path 4888" d="M147.76,190.838l-6.439-16.844a2.955,2.955,0,0,0-3.658-1.8,2.547,2.547,0,0,0-1.683,3.021l4.778,19.463Z" transform="translate(-117.983 -77.303)" fill="#fee8dc"/>
      <path id="Path_4889" data-name="Path 4889" d="M139.772,196.438l-8.146-16.549a3.239,3.239,0,0,0-4.135-1.585,2.819,2.819,0,0,0-1.455,3.724l6.494,15.626Z" transform="translate(-116.915 -77.938)" fill="#fee8dc"/>
      <path id="Path_4890" data-name="Path 4890" d="M125.473,199.062l-6.392-10.138a2.29,2.29,0,0,1,1.117-3.06,2.617,2.617,0,0,1,3.195.93l8.405,11.661Z" transform="translate(-116.182 -78.739)" fill="#fee8dc"/>
      <path id="Path_4891" data-name="Path 4891" d="M157.01,200.8s-9.6-1.007-10.587,11.786" transform="translate(-119.093 -80.338)" fill="none" stroke="#adadad" stroke-linecap="round" stroke-linejoin="round" stroke-width="1.532"/>
      <path id="Path_4892" data-name="Path 4892" d="M181.749,288.611s7.886,27.29,23.6,23.661,40.2-37.189,40.2-37.189l-5.482-57.305-44.1,54.282Z" transform="translate(-122.825 -82.134)" fill="#fee8dc"/>
      <path id="Path_4893" data-name="Path 4893" d="M212.941,259.036s14.89,22.46,27.592,30.38l8.314-10.494-32.074-24.81Z" transform="translate(-126.12 -85.972)" fill="#f7dccf"/>
      <g id="Group_1222" data-name="Group 1222" transform="translate(83.272 106.773)" opacity="0.2" style="mix-blend-mode: multiply;isolation: isolate">
        <g id="Group_1221" data-name="Group 1221">
          <g id="Group_1220" data-name="Group 1220" clip-path="url(#clip-path-3)">
            <path id="Path_4894" data-name="Path 4894" d="M277.551,183.5s-45.467,9.422-69.7,58c0,0,14.639,20.28,38.107,29.293l15.712-17.7Z" transform="translate(-207.855 -183.499)" fill="#353535"/>
          </g>
        </g>
      </g>
      <path id="Path_4895" data-name="Path 4895" d="M277.868,185.5s-43.716,9.854-67.013,60.661c0,0,14.075,21.209,36.64,30.635L262.6,258.287Z" transform="translate(-125.9 -78.724)" fill="#e5e6eb"/>
      <path id="Path_4896" data-name="Path 4896" d="M282.5,184.875a109.48,109.48,0,0,0-27.813,20.376l3.369,148.518H365.67l-.349-147.752s-13.565-13.274-28.266-19.746c-12.488-5.5-42.417-7.623-54.557-1.4" transform="translate(-130.53 -78.257)" fill="#e5e6eb"/>
      <path id="Path_4897" data-name="Path 4897" d="M340.952,262.7h0a14.968,14.968,0,0,1-14.968-14.968V232.767H355.92v14.969A14.968,14.968,0,0,1,340.952,262.7Z" transform="translate(-138.062 -83.717)" fill="none" stroke="#adadad" stroke-linecap="round" stroke-linejoin="round" stroke-width="1.397"/>
      <line id="Line_220" data-name="Line 220" y1="48.584" x2="1.396" transform="translate(234.965 152.423)" fill="none" stroke="#adadad" stroke-linecap="round" stroke-linejoin="round" stroke-width="1.397"/>
      <line id="Line_221" data-name="Line 221" x1="2.325" y1="42.115" transform="translate(123.483 150.796)" fill="none" stroke="#adadad" stroke-linecap="round" stroke-linejoin="round" stroke-width="1.397"/>
      <path id="Path_4898" data-name="Path 4898" d="M286.6,120.035l-4.486-22.194c-.252-1.808-.953-4.6-.095-7.218,1.421-4.337,6.643-12.665,15.568-8.851l1.93,8.786s-9.269,1.871-12.987,14Z" transform="translate(-133.374 -67.663)" fill="#8b8c96"/>
      <path id="Path_4899" data-name="Path 4899" d="M297.165,87.009c-.163,2.916-2.737,15.675-11.785,20.323,0,0-7.926-17,11.785-20.323" transform="translate(-133.606 -68.32)" fill="#8b8c96"/>
      <path id="Path_4900" data-name="Path 4900" d="M328.911,176.3h0V138.617H294.171V176.3l-10.341,4.714s2.426,15.619,28.077,15.965,28.228-15.2,28.228-15.2Z" transform="translate(-133.609 -73.771)" fill="#ffe8dc"/>
      <path id="Path_4901" data-name="Path 4901" d="M299.478,80.646s6.376-16.819,26.037-7.878c11.9,5.413,15.233,12.669,16.65,17.81a20.648,20.648,0,0,1,.531,6l-4.755,22.334-18.567-30.9-17.967,1.426Z" transform="translate(-135.262 -66.538)" fill="#8b8c96"/>
      <path id="Path_4902" data-name="Path 4902" d="M342.24,124.387s2.342-3.725,7.173-1.893,2.646,13.565-4.6,15.059a5.731,5.731,0,0,1-4.635-1.212s1.782-8.665,2.062-11.954" transform="translate(-139.561 -72.015)" fill="#ffe8dc"/>
      <path id="Path_4903" data-name="Path 4903" d="M348.616,127.165s-4.047-1.35-6.919,4.609" transform="translate(-139.722 -72.548)" fill="none" stroke="#e2c8bc" stroke-linecap="round" stroke-linejoin="round" stroke-width="1.397"/>
      <path id="Path_4904" data-name="Path 4904" d="M286.041,124.387s-2.342-3.725-7.173-1.893-2.646,13.565,4.6,15.059a5.732,5.732,0,0,0,4.635-1.212s-1.782-8.665-2.062-11.954" transform="translate(-132.812 -72.015)" fill="#ffe8dc"/>
      <path id="Path_4905" data-name="Path 4905" d="M280.244,127.165s4.047-1.35,6.919,4.609" transform="translate(-133.23 -72.548)" fill="none" stroke="#e2c8bc" stroke-linecap="round" stroke-linejoin="round" stroke-width="1.397"/>
      <path id="Path_4906" data-name="Path 4906" d="M337.061,109.253c0,7.073-.692,21.869-5.04,30.652-4.083,8.245-10.834,12.683-19.686,12.948S296.889,149.7,291.6,139s-5.033-29.619-5.033-29.619,0-25.265,24.971-25.265c26.3,0,25.519,25.133,25.519,25.133" transform="translate(-133.898 -68.014)" fill="#ffe8dc"/>
      <path id="Path_4907" data-name="Path 4907" d="M295.684,151.384s2.909,14.761,15.757,16.458c14.786,1.951,18.723-16.083,18.723-16.083s-6.533,8.187-16.865,8.2a22.608,22.608,0,0,1-17.614-8.574" transform="translate(-134.861 -75.12)" fill="#f7dccf"/>
      <path id="Path_4908" data-name="Path 4908" d="M312.807,123.95V129.8a1.9,1.9,0,0,0,.137.712,1.882,1.882,0,0,0,2.245,1.042l1.938-.516" transform="translate(-136.67 -72.222)" fill="none" stroke="#e2c8bc" stroke-linecap="round" stroke-linejoin="round" stroke-width="1.397"/>
      <path id="Path_4909" data-name="Path 4909" d="M304.024,120.559a2.273,2.273,0,1,1-2.273-2.273,2.273,2.273,0,0,1,2.273,2.273" transform="translate(-135.262 -71.624)" fill="#282828"/>
      <path id="Path_4910" data-name="Path 4910" d="M327.854,120.559a2.273,2.273,0,1,1-2.273-2.273,2.273,2.273,0,0,1,2.273,2.273" transform="translate(-137.779 -71.624)" fill="#282828"/>
      <path id="Path_4911" data-name="Path 4911" d="M319.344,107.911l15.284,3.948s-.695-4.287-6.947-5.845-8.336,1.9-8.336,1.9" transform="translate(-137.36 -70.285)" fill="#8b8c96"/>
      <path id="Path_4912" data-name="Path 4912" d="M306.92,107.911l-15.284,3.948s.695-4.287,6.947-5.845,8.336,1.9,8.336,1.9" transform="translate(-134.433 -70.285)" fill="#8b8c96"/>
      <path id="Path_4913" data-name="Path 4913" d="M305.326,140.735s2.255-1.728,8.183-1.728a20.731,20.731,0,0,1,8.76,1.728" transform="translate(-135.879 -73.813)" fill="none" stroke="#e2c8bc" stroke-linecap="round" stroke-linejoin="round" stroke-width="1.397"/>
      <path id="Path_4914" data-name="Path 4914" d="M309.854,120.429a9.66,9.66,0,1,1-9.659-9.658A9.659,9.659,0,0,1,309.854,120.429Z" transform="translate(-134.317 -70.83)" fill="none" stroke="#8686a5" stroke-miterlimit="10" stroke-width="1.951"/>
      <path id="Path_4915" data-name="Path 4915" d="M336.386,120.429a9.66,9.66,0,1,1-9.659-9.658A9.659,9.659,0,0,1,336.386,120.429Z" transform="translate(-137.12 -70.83)" fill="none" stroke="#8686a5" stroke-miterlimit="10" stroke-width="1.951"/>
      <path id="Path_4916" data-name="Path 4916" d="M312.136,121.458s2.288-2.134,4.411,0" transform="translate(-136.599 -71.858)" fill="none" stroke="#8686a5" stroke-miterlimit="10" stroke-width="1.951"/>
      <line id="Line_222" data-name="Line 222" x1="3.238" y1="0.082" transform="translate(152.98 49.518)" fill="none" stroke="#8686a5" stroke-miterlimit="10" stroke-width="1.951"/>
      <line id="Line_223" data-name="Line 223" y1="0.059" x2="3.616" transform="translate(199.267 49.541)" fill="none" stroke="#8686a5" stroke-miterlimit="10" stroke-width="1.951"/>
      <path id="Path_4917" data-name="Path 4917" d="M295.684,86.991s4.639,13.178,25.571,12.774c14.223-.275,17.622,10.018,17.622,10.018S336.4,86.775,335.75,86.991s-21.643-5.6-21.643-5.6Z" transform="translate(-134.861 -67.726)" fill="#8b8c96"/>
    </g>
    <g id="Group_1226" data-name="Group 1226" transform="translate(899.896 327.828)">
      <g id="Group_1239" data-name="Group 1239">
        <path id="Path_4918" data-name="Path 4918" d="M39.112,266.762l2.227,1.283,10.329,6.12,6.794,9.9,1.429,2.137.924-2.392L72.1,254.15l1.166-3.079-2.994,1.369-28.84,13.24Zm5.766.309,20.35-9.356-12.882,13.77ZM54.3,273.31l12.882-13.771L59.2,280.467Z" transform="translate(-4.132 -26.523)" fill="#fff"/>
        <path id="Path_4919" data-name="Path 4919" d="M567.434,154.237a15.26,15.26,0,1,0,15.26,15.26,15.276,15.276,0,0,0-15.26-15.26m0,2.544A12.716,12.716,0,1,1,554.717,169.5a12.7,12.7,0,0,1,12.717-12.716m-5.722,7.63a1.907,1.907,0,1,0,1.907,1.908,1.908,1.908,0,0,0-1.907-1.908m11.444,0a1.907,1.907,0,1,0,1.908,1.908,1.907,1.907,0,0,0-1.908-1.908m-5.722,7.63a10.152,10.152,0,0,0-8.226,4.252l2.067,1.47a7.557,7.557,0,0,1,12.319,0l2.067-1.47a10.152,10.152,0,0,0-8.226-4.252" transform="translate(-58.331 -16.293)" fill="#fff"/>
        <path id="icons8-conference" d="M8.7,3A2.566,2.566,0,0,0,6.133,5.567V23.533A2.566,2.566,0,0,0,8.7,26.1H21.533A2.566,2.566,0,0,0,24.1,23.533V5.567A2.566,2.566,0,0,0,21.533,3Zm0,2.567H21.533V23.533H8.7ZM1,6.85v15.4H3.567V6.85Zm25.666,0v15.4h2.567V6.85ZM15.116,9.417a2.567,2.567,0,1,0,2.567,2.567A2.566,2.566,0,0,0,15.116,9.417Zm0,7.7c-1.713,0-5.133.86-5.133,2.567v1.283H20.25V19.683C20.25,17.976,16.83,17.116,15.116,17.116Z" transform="translate(184.09 12.622)" fill="#fff"/>
      </g>
    </g>
  </g>
</svg>
