<svg width="177" height="189" viewBox="0 0 177 189" fill="none" xmlns="http://www.w3.org/2000/svg">
<g id="No_address">
<g id="Group 563">
<path id="Path 4516" d="M57.5532 138.106L57.5489 137.455L56.8971 137.459C57.5489 137.455 57.5489 137.454 57.5489 137.454L57.5489 137.452L57.5489 137.446L57.5487 137.422L57.5481 137.324L57.5456 136.944L57.5363 135.489C57.5283 134.23 57.5169 132.42 57.5031 130.215C57.4756 125.803 57.4389 119.808 57.4023 113.475C57.3289 100.808 57.2556 86.7919 57.2556 81.3839V80.9429L56.8463 80.7788C51.9471 78.8149 47.6019 77.8746 43.7358 78.1019C39.8512 78.3304 36.483 79.7362 33.5598 82.4L33.5597 82.4001C29.9116 85.7253 27.0986 92.2131 26.7378 99.8973C26.3757 107.609 28.476 116.596 34.7509 124.969C37.7607 128.986 41.6166 132.275 45.5464 134.556C49.467 136.832 53.5114 138.134 56.9016 138.111L57.5532 138.106Z" fill="#202329" stroke="#65656E" stroke-width="1.3037"/>
<g id="Group 1748">
<path id="Path 4519" d="M31.9735 73.7985C58.6147 79.7898 70.6431 69.5122 76.5852 48.2773C82.5851 26.8303 74.4411 8.41682 71.5764 13.7394C68.7117 19.0619 66.5084 30.3668 42.9314 25.065C15.1166 18.8077 21.0054 8.70376 20.7057 2.67123C20.4059 -3.36129 5.19013 9.22825 1.87343 30.3679C-1.54547 52.1506 5.53791 67.8534 31.9735 73.7985Z" fill="#202329" stroke="#65656E" stroke-width="1.3037" stroke-miterlimit="10"/>
<path id="Path 4520" d="M41.3446 32.6301C34.2507 30.8866 30.1119 29.4992 27.4424 28.6984C22.9226 27.3428 15.4529 24.1592 11.8396 40.2337C9.84023 49.1258 13.7092 55.3595 18.6734 58.796C21.9323 61.053 27.6497 63.0594 33.2257 64.401L34.8495 64.7661C40.4674 65.9437 46.4916 66.5787 50.4046 65.9355C56.3611 64.9545 62.5266 60.978 64.5273 52.0859C68.1406 36.0166 60.0315 35.6917 55.3665 34.9828C52.6114 34.5672 48.2772 34.0437 41.1208 32.5825L41.3446 32.6301Z" fill="#202329" stroke="#65656E" stroke-width="1.3037" stroke-miterlimit="10"/>
<path id="Path 4521" d="M31.8738 55.9927C32.4299 55.3264 33.1513 54.8179 33.9658 54.518C34.7803 54.2182 35.6593 54.1376 36.5147 54.2843C37.3441 54.5138 38.097 54.961 38.6954 55.5796C39.2937 56.1981 39.7157 56.9655 39.9175 57.8021" stroke="#65656E" stroke-width="1.3037" stroke-miterlimit="10"/>
<path id="Path 4522" d="M21.53 47.0752L28.1867 48.5685C28.4975 48.6378 28.823 48.581 29.0919 48.4106C29.3608 48.2402 29.5511 47.97 29.6211 47.6595L31.3518 39.9579L28.7797 40.9546C28.5566 41.0414 28.3127 41.0596 28.0792 41.0071L23.0125 39.8682C22.7366 39.8062 22.4473 39.8562 22.2083 40.0074C21.9693 40.1586 21.8002 40.3985 21.738 40.6744L20.6223 45.637C20.5872 45.791 20.5829 45.9505 20.6095 46.1062C20.6362 46.262 20.6933 46.4109 20.7776 46.5445C20.8619 46.6781 20.9718 46.7938 21.1009 46.8849C21.23 46.9759 21.3758 47.0406 21.53 47.0752Z" fill="#202329" stroke="#65656E" stroke-width="1.3037" stroke-miterlimit="10"/>
<path id="Path 4523" d="M53.0782 54.1687L46.4215 52.6755C46.2678 52.641 46.1224 52.5766 45.9936 52.4859C45.8648 52.3952 45.7551 52.2801 45.6708 52.147C45.5865 52.0139 45.5292 51.8655 45.5023 51.7103C45.4754 51.5551 45.4792 51.3961 45.5138 51.2424L47.247 43.5409L49.1497 45.5382C49.3144 45.7119 49.5271 45.8327 49.7607 45.8852L54.8274 47.0253C54.9641 47.056 55.0934 47.1132 55.2079 47.1939C55.3225 47.2745 55.4199 47.377 55.4948 47.4953C55.5697 47.6137 55.6205 47.7457 55.6443 47.8837C55.6681 48.0218 55.6645 48.1631 55.6335 48.2998L54.5204 53.2624C54.4857 53.4168 54.4207 53.5629 54.3293 53.6922C54.2379 53.8214 54.1219 53.9313 53.9879 54.0156C53.8538 54.0998 53.7044 54.1567 53.5483 54.183C53.3922 54.2093 53.2325 54.2044 53.0782 54.1687Z" fill="#202329" stroke="#65656E" stroke-width="1.3037" stroke-miterlimit="10"/>
</g>
<path id="Path 4525" d="M55.4832 78.5554V176.333C55.4832 182.453 60.4445 187.415 66.5646 187.415H164.342C170.463 187.415 175.424 182.453 175.424 176.333V78.5554C175.424 72.4352 170.463 67.4739 164.342 67.4739H66.5646C60.4445 67.4739 55.4832 72.4352 55.4832 78.5554Z" fill="#202329" stroke="#65656E" stroke-width="1.3037" stroke-miterlimit="10"/>
<path id="Rectangle 295" d="M160.744 81.0564H70.7873C68.4415 81.0564 66.5398 82.9581 66.5398 85.3039V102.661C66.5398 105.007 68.4415 106.909 70.7873 106.909H160.744C163.09 106.909 164.992 105.007 164.992 102.661V85.3039C164.992 82.9581 163.09 81.0564 160.744 81.0564Z" stroke="#65656E" stroke-width="1.34281" stroke-miterlimit="10"/>
<path id="Rectangle 296" d="M160.744 115.603H70.7873C68.4415 115.603 66.5398 117.505 66.5398 119.851V137.208C66.5398 139.554 68.4415 141.456 70.7873 141.456H160.744C163.09 141.456 164.992 139.554 164.992 137.208V119.851C164.992 117.505 163.09 115.603 160.744 115.603Z" stroke="#65656E" stroke-width="1.34281" stroke-miterlimit="10"/>
<path id="Rectangle 297" d="M160.744 150.15H70.7873C68.4415 150.15 66.5398 152.052 66.5398 154.398V171.755C66.5398 174.101 68.4415 176.003 70.7873 176.003H160.744C163.09 176.003 164.992 174.101 164.992 171.755V154.398C164.992 152.052 163.09 150.15 160.744 150.15Z" stroke="#65656E" stroke-width="1.34281" stroke-miterlimit="10"/>
<path id="Line 101" d="M87.4231 94.199H153.912" stroke="#65656E" stroke-width="1.95555" stroke-miterlimit="10" stroke-linecap="round"/>
<path id="Line 102" d="M87.4231 163.296H153.912" stroke="#65656E" stroke-width="1.95555" stroke-miterlimit="10" stroke-linecap="round"/>
<path id="Line 104" d="M87.4231 129.399H153.912" stroke="#65656E" stroke-width="1.95555" stroke-miterlimit="10" stroke-linecap="round"/>
<ellipse id="Ellipse 70" cx="78.5278" cy="94.1987" rx="2.60741" ry="2.60741" fill="#65656E"/>
<ellipse id="Ellipse 71" cx="78.5278" cy="129.399" rx="2.60741" ry="2.60741" fill="#65656E"/>
<ellipse id="Ellipse 72" cx="78.5278" cy="163.295" rx="2.60741" ry="2.60741" fill="#65656E"/>
<path id="Path 4529" d="M41.1307 108.943L41.1308 108.943C42.1269 115.552 42.8602 121.008 42.8648 124.937C42.8671 126.897 42.6893 128.541 42.2359 129.777C41.7749 131.033 40.9948 131.945 39.7797 132.251L39.7796 132.251C39.2327 132.389 38.6422 132.314 38.0594 132.116C37.473 131.917 36.851 131.58 36.2119 131.137C34.9337 130.252 33.5179 128.894 32.0899 127.178C29.231 123.744 26.2581 118.797 24.1932 113.096L24.1931 113.096C22.1011 107.316 21.1488 101.926 21.5553 97.7088C21.9619 93.4908 23.7615 90.285 27.3117 89.2606L41.1307 108.943ZM41.1307 108.943C40.2346 103.012 38.9291 97.5551 36.8184 93.8528M41.1307 108.943L36.8184 93.8528M36.8184 93.8528C35.7595 91.9953 34.4694 90.528 32.8765 89.6853M36.8184 93.8528L32.8765 89.6853M32.8765 89.6853C31.2646 88.8325 29.4098 88.655 27.3118 89.2606L32.8765 89.6853Z" fill="#202329" stroke="#65656E" stroke-width="1.3037"/>
<g id="Path 4531">
<mask id="path-18-inside-1_1_9451" fill="white">
<path d="M52.1913 142.505L47.949 141.275C46.8105 140.945 45.8496 140.177 45.2776 139.138C44.7055 138.1 44.5691 136.877 44.8984 135.739L46.1277 131.496C46.4581 130.357 47.2272 129.396 48.2659 128.824C49.3047 128.252 50.5281 128.116 51.6672 128.446L55.912 129.675C56.4761 129.838 57.0024 130.111 57.4611 130.477C57.9197 130.844 58.3016 131.297 58.5849 131.811C58.8682 132.325 59.0474 132.89 59.1123 133.474C59.1771 134.057 59.1263 134.648 58.9627 135.212L57.7359 139.454C57.4053 140.593 56.6362 141.554 55.5975 142.126C54.5588 142.698 53.3356 142.834 52.1965 142.505"/>
</mask>
<path d="M52.1913 142.505L47.949 141.275C46.8105 140.945 45.8496 140.177 45.2776 139.138C44.7055 138.1 44.5691 136.877 44.8984 135.739L46.1277 131.496C46.4581 130.357 47.2272 129.396 48.2659 128.824C49.3047 128.252 50.5281 128.116 51.6672 128.446L55.912 129.675C56.4761 129.838 57.0024 130.111 57.4611 130.477C57.9197 130.844 58.3016 131.297 58.5849 131.811C58.8682 132.325 59.0474 132.89 59.1123 133.474C59.1771 134.057 59.1263 134.648 58.9627 135.212L57.7359 139.454C57.4053 140.593 56.6362 141.554 55.5975 142.126C54.5588 142.698 53.3356 142.834 52.1965 142.505" fill="#202329"/>
<path d="M47.949 141.275L47.586 142.528L47.5861 142.528L47.949 141.275ZM44.8984 135.739L43.6462 135.376L43.6459 135.376L44.8984 135.739ZM46.1277 131.496L44.8756 131.133L44.8756 131.133L46.1277 131.496ZM51.6672 128.446L52.0299 127.193L52.0296 127.193L51.6672 128.446ZM55.912 129.675L55.5494 130.927L55.5501 130.927L55.912 129.675ZM58.9627 135.212L57.7106 134.849L57.7103 134.85L58.9627 135.212ZM57.7359 139.454L58.9879 139.818L58.9883 139.816L57.7359 139.454ZM52.5541 141.253L48.3119 140.023L47.5861 142.528L51.8284 143.757L52.5541 141.253ZM48.312 140.023C47.5054 139.789 46.8247 139.245 46.4194 138.509L44.1357 139.768C44.8745 141.108 46.1156 142.101 47.586 142.528L48.312 140.023ZM46.4194 138.509C46.0141 137.774 45.9175 136.907 46.1508 136.101L43.6459 135.376C43.2207 136.847 43.3969 138.427 44.1357 139.768L46.4194 138.509ZM46.1505 136.101L47.3799 131.859L44.8756 131.133L43.6462 135.376L46.1505 136.101ZM47.3798 131.859C47.6139 131.052 48.1588 130.371 48.8948 129.966L47.637 127.682C46.2955 128.421 45.3023 129.662 44.8756 131.133L47.3798 131.859ZM48.8948 129.966C49.6308 129.561 50.4976 129.464 51.3048 129.698L52.0296 127.193C50.5585 126.768 48.9785 126.943 47.637 127.682L48.8948 129.966ZM51.3045 129.698L55.5494 130.927L56.2747 128.423L52.0299 127.193L51.3045 129.698ZM55.5501 130.927C55.9496 131.043 56.3224 131.236 56.6472 131.495L58.275 129.459C57.6825 128.985 57.0026 128.633 56.2739 128.423L55.5501 130.927ZM56.6472 131.495C56.972 131.755 57.2424 132.076 57.4431 132.44L59.7268 131.182C59.3608 130.518 58.8675 129.932 58.275 129.459L56.6472 131.495ZM57.4431 132.44C57.6437 132.804 57.7706 133.205 57.8165 133.618L60.408 133.33C60.3242 132.576 60.0928 131.846 59.7268 131.182L57.4431 132.44ZM57.8165 133.618C57.8624 134.031 57.8264 134.449 57.7106 134.849L60.2148 135.575C60.4261 134.847 60.4917 134.084 60.408 133.33L57.8165 133.618ZM57.7103 134.85L56.4835 139.092L58.9883 139.816L60.2151 135.574L57.7103 134.85ZM56.4839 139.091C56.2496 139.897 55.7046 140.578 54.9686 140.984L56.2264 143.268C57.5677 142.529 58.5609 141.288 58.9879 139.818L56.4839 139.091ZM54.9686 140.984C54.2326 141.389 53.3657 141.486 52.5585 141.252L51.8344 143.757C53.3054 144.182 54.8851 144.006 56.2264 143.268L54.9686 140.984Z" fill="#65656E" mask="url(#path-18-inside-1_1_9451)"/>
</g>
<path id="Path 4532" d="M56.1707 124.259L56.1705 124.258C56.0839 124.004 55.9422 123.843 55.7502 123.73C55.5435 123.608 55.247 123.524 54.842 123.502C54.0212 123.455 52.9361 123.664 51.7269 124.012L56.1707 124.259ZM56.1707 124.259C56.2733 124.558 56.2617 124.81 56.1787 125.038C56.0916 125.277 55.91 125.531 55.6104 125.786C55.0019 126.306 54.0118 126.745 52.8239 127.042C51.6239 127.342 50.571 127.449 49.8035 127.323C49.0586 127.201 48.7096 126.896 48.5932 126.436L48.5929 126.435M56.1707 124.259L48.5929 126.435M48.5929 126.435C48.5251 126.17 48.5437 125.962 48.6121 125.784M48.5929 126.435L48.6121 125.784M48.6121 125.784C48.6834 125.599 48.8271 125.4 49.0814 125.19M48.6121 125.784L49.0814 125.19M49.0814 125.19C49.6058 124.758 50.4924 124.367 51.7268 124.012L49.0814 125.19Z" fill="#202329" stroke="#65656E" stroke-width="1.3037"/>
</g>
<g id="Group 1749">
<path id="Vector 19" d="M32.6653 159.384L41.1394 167.858" stroke="#65656E" stroke-width="2.60741" stroke-linecap="round"/>
<path id="Vector 20" d="M41.1394 159.384L32.6653 167.858" stroke="#65656E" stroke-width="2.60741" stroke-linecap="round"/>
</g>
<g id="Group 1750">
<path id="Vector 19_2" d="M130.445 48.5693L138.919 57.0434" stroke="#65656E" stroke-width="2.60741" stroke-linecap="round"/>
<path id="Vector 20_2" d="M138.919 48.5693L130.445 57.0434" stroke="#65656E" stroke-width="2.60741" stroke-linecap="round"/>
</g>
</g>
</svg>
