<svg xmlns="http://www.w3.org/2000/svg" width="77.916" height="75.833" viewBox="0 0 77.916 75.833">
  <g id="no_failed" transform="translate(-1147.084 -745.167)">
    <path id="icons8-close_window" d="M11.628,4A7.651,7.651,0,0,0,4,11.628V60.446a7.651,7.651,0,0,0,7.628,7.628H60.446a7.651,7.651,0,0,0,7.628-7.628V11.628A7.651,7.651,0,0,0,60.446,4Zm0,3.051H60.446a4.554,4.554,0,0,1,4.577,4.577V60.446a4.554,4.554,0,0,1-4.577,4.577H11.628a4.554,4.554,0,0,1-4.577-4.577V11.628A4.554,4.554,0,0,1,11.628,7.051ZM23.386,21.228l-2.157,2.157L33.88,36.037,21.228,48.689l2.157,2.157L36.037,38.194,48.689,50.846l2.157-2.157L38.194,36.037,50.846,23.386l-2.157-2.157L36.037,33.88Z" transform="translate(1143.084 741.167)" fill="#82828d"/>
    <g id="icons8-unavailable" transform="translate(1191 787)" fill="#82828d">
      <path d="M 17 32 C 8.728969573974609 32 2 25.27103042602539 2 17 C 2 8.728969573974609 8.728969573974609 2 17 2 C 25.27103042602539 2 32 8.728969573974609 32 17 C 32 25.27103042602539 25.27103042602539 32 17 32 Z M 13.88434791564941 24.78235244750977 C 14.87291526794434 25.18967628479004 15.92418193817139 25.39999961853027 17 25.39999961853027 C 19.25116920471191 25.39999961853027 21.36264038085938 24.52829933166504 22.94547080993652 22.94547080993652 C 24.52829933166504 21.36264038085938 25.39999961853027 19.25116920471191 25.39999961853027 17 C 25.39999961853027 15.92418193817139 25.18967628479004 14.87291526794434 24.78235244750977 13.88434791564941 L 13.88434791564941 24.78235244750977 Z M 17 8.600000381469727 C 14.74882984161377 8.600000381469727 12.63735008239746 9.471699714660645 11.05453014373779 11.05453014373779 C 9.471699714660645 12.63735008239746 8.600000381469727 14.74882984161377 8.600000381469727 17 C 8.600000381469727 18.07582473754883 8.810325622558594 19.1270866394043 9.2176513671875 20.11564826965332 L 20.11564826965332 9.2176513671875 C 19.1270866394043 8.810325622558594 18.07582473754883 8.600000381469727 17 8.600000381469727 Z" stroke="none"/>
      <path d="M 17 4 C 9.835689544677734 4 4 9.835699081420898 4 17 C 4 24.16429901123047 9.835689544677734 30 17 30 C 24.16431045532227 30 30 24.16429901123047 30 17 C 30 9.835699081420898 24.16431045532227 4 17 4 M 8.808980941772461 23.35272979736328 C 7.443899154663086 21.5932502746582 6.600000381469727 19.40793037414551 6.600000381469727 17 C 6.600000381469727 11.24084091186523 11.24082946777344 6.600000381469727 17 6.600000381469727 C 19.40793037414551 6.600000381469727 21.5932502746582 7.443899154663086 23.35272979736328 8.808980941772461 L 8.808980941772461 23.35272979736328 M 17 27.39999961853027 C 14.59206962585449 27.39999961853027 12.4067497253418 26.55609893798828 10.64726066589355 25.19102096557617 L 25.19102096557617 10.64726066589355 C 26.55609893798828 12.4067497253418 27.39999961853027 14.59206962585449 27.39999961853027 17 C 27.39999961853027 22.75915908813477 22.75915908813477 27.39999961853027 17 27.39999961853027 M 17 0 C 26.37382888793945 0 34 7.626169204711914 34 17 C 34 26.37382888793945 26.37382888793945 34 17 34 C 7.626169204711914 34 0 26.37382888793945 0 17 C 0 7.626169204711914 7.626169204711914 0 17 0 Z M 10.71174812316895 15.7931022644043 L 15.79310035705566 10.71175003051758 C 14.53789138793945 10.94761848449707 13.38622283935547 11.55125617980957 12.46874046325684 12.46874046325684 C 11.55124855041504 13.38623046875 10.9476146697998 14.53789520263672 10.71174812316895 15.7931022644043 Z M 18.20688819885254 23.28825187683105 C 19.46209335327148 23.05238342285156 20.61376953125 22.4487419128418 21.53125953674316 21.53125953674316 C 22.4487419128418 20.61376953125 23.05238342285156 19.46209335327148 23.28825187683105 18.20688819885254 L 18.20688819885254 23.28825187683105 Z" stroke="none" fill="#303041"/>
    </g>
  </g>
</svg>
