<svg xmlns="http://www.w3.org/2000/svg" width="26.071" height="24.209" viewBox="0 0 26.071 24.209">
  <g id="Group_694" data-name="Group 694" transform="translate(-140.965 -1021.896)">
    <path id="icons8-chat" d="M3.793,2A2.8,2.8,0,0,0,1,4.793V14.1A2.8,2.8,0,0,0,3.793,16.9H6.572v3.724L11.548,16.9h5.281A2.8,2.8,0,0,0,19.622,14.1V4.793A2.8,2.8,0,0,0,16.829,2Zm0,1.862H16.829a.919.919,0,0,1,.931.931V14.1a.919.919,0,0,1-.931.931H10.922L8.434,16.9V15.035H3.793a.919.919,0,0,1-.931-.931V4.793A.919.919,0,0,1,3.793,3.862ZM21.484,7.587V9.449h2.793a.919.919,0,0,1,.931.931v9.311a.919.919,0,0,1-.931.931H19.629v1.862l-2.481-1.862H11.242a.942.942,0,0,1-.844-.546L8.9,21.2a2.789,2.789,0,0,0,2.342,1.28h5.281l4.968,3.724V22.484h2.786a2.8,2.8,0,0,0,2.793-2.793V10.38a2.8,2.8,0,0,0-2.793-2.793Z" transform="translate(139.965 1019.896)" fill="#fff"/>
  </g>
</svg>
