<svg xmlns="http://www.w3.org/2000/svg" width="17.999" height="18.004" viewBox="0 0 17.999 18.004">
  <path id="icons8-sad" d="M10,.977a9,9,0,1,0,9,9A9.013,9.013,0,0,0,10,.977Zm0,1.385A7.617,7.617,0,1,1,2.385,9.976,7.605,7.605,0,0,1,10,2.361ZM6.538,6.547A1.385,1.385,0,1,0,7.923,7.932,1.387,1.387,0,0,0,6.538,6.547Zm6.923,0a1.385,1.385,0,1,0,1.385,1.385A1.387,1.387,0,0,0,13.461,6.547ZM10,12.085a4.68,4.68,0,0,0-3.25,1.136,3.467,3.467,0,0,0-.865,1.233l1.309.454a1.781,1.781,0,0,1,.5-.671A3.192,3.192,0,0,1,10,13.47a3.187,3.187,0,0,1,2.282.773,2.051,2.051,0,0,1,.535.692l1.287-.508a3.626,3.626,0,0,0-.892-1.211A4.709,4.709,0,0,0,10,12.085Z" transform="translate(-1 -0.977)" fill="#646474"/>
</svg>
