<svg width="70" height="72" viewBox="0 0 70 72" fill="none"
    xmlns="http://www.w3.org/2000/svg">
    <g id="Frame">
        <g id="Beldex_sad_dark">
            <g id="wallet in chat">
                <g id="Beldex_send_green">
                    <g id="Vector">
                        <path d="M33.3603 64.9586C29.0958 64.9586 24.9573 64.1231 21.0602 62.4746C17.2981 60.8836 13.9185 58.6051 11.0155 55.7016C8.11596 52.8059 5.83739 49.4263 4.24342 45.6574C2.59573 41.7638 1.76028 37.6261 1.76028 33.3612C1.76028 29.092 2.59573 24.9534 4.24342 21.0615C5.8361 17.2943 8.1151 13.9147 11.016 11.0164C13.9207 8.11209 17.2999 5.83266 21.0598 4.24256C24.9637 2.59487 29.1014 1.76028 33.3603 1.76028C37.6179 1.76028 41.756 2.59487 45.6591 4.2417C49.419 5.8318 52.7982 8.11123 55.7042 11.0172C58.6033 13.9112 60.8823 17.2917 62.4767 21.0615C64.1253 24.9603 64.9612 29.0988 64.9612 33.3612C64.9612 37.6192 64.1253 41.756 62.4767 45.6565C60.8841 49.4229 58.6055 52.8025 55.7038 55.7025C52.7999 58.6059 49.4207 60.8845 45.6604 62.4746C41.7625 64.1231 37.6239 64.9586 33.3603 64.9586ZM20.6954 34.5834V48.0141C20.6954 48.8917 21.4126 49.606 22.2941 49.606H36.4597C37.3351 49.606 38.0472 48.8917 38.0472 48.0141V41.6709H44.4059C45.286 41.6709 46.002 40.9567 46.002 40.0791V26.632L45.9926 25.8885V25.8576L46.0153 21.0942L43.6061 24.6285H30.2721C29.3971 24.6285 28.6854 25.3428 28.6854 26.2203V40.0791C28.6854 40.9567 29.3971 41.6709 30.2721 41.6709H37.033V45.1262C37.033 47.0798 35.4408 48.6691 33.4841 48.6691H25.2336C23.2769 48.6691 21.6847 47.0798 21.6847 45.1262V37.0382C21.6847 35.1223 23.2314 33.558 25.1494 33.5133V32.5738H23.1162L20.6967 29.0249L20.7117 33.8055V33.8279L20.7113 33.8494L20.6954 34.5834ZM41.4646 40.7409H38.0472V34.1682C38.0386 33.289 37.3222 32.5738 36.4485 32.5738H29.6713V29.1083C29.6713 27.1512 31.2605 25.5585 33.2142 25.5585H41.4646C43.4188 25.5585 45.0084 27.1512 45.0084 29.1083V37.2066C45.0084 38.5217 44.2499 39.7534 43.0745 40.3499C42.5842 40.606 42.0281 40.7409 41.4646 40.7409ZM33.2142 40.7409C33.1149 40.7409 32.9301 40.7409 32.7169 40.7023L32.7174 40.698C30.9812 40.459 29.6713 38.9815 29.6713 37.1808V33.5124H33.4841C35.4408 33.5124 37.033 35.0939 37.033 37.0382V40.7392L33.2142 40.7409Z" fill="#A7A7BA"/>
                        <path d="M33.3603 63.1983C37.3871 63.1983 41.2953 62.4093 44.9749 60.8536C48.5281 59.3511 51.7178 57.1989 54.4596 54.4571C57.1998 51.7186 59.352 48.5264 60.8553 44.9715C62.4101 41.2927 63.2009 37.3837 63.2009 33.3612C63.2009 29.3335 62.4101 25.4244 60.8553 21.7474C59.352 18.1925 57.2023 15.0002 54.4596 12.2618C51.7178 9.51997 48.5281 7.36603 44.9749 5.8636C41.2953 4.31132 37.3871 3.52057 33.3603 3.52057C29.3318 3.52057 25.4244 4.31132 21.7457 5.8636C18.1933 7.36603 15.0019 9.51997 12.2601 12.2618C9.51911 15.0002 7.36775 18.1925 5.86446 21.7474C4.30788 25.4244 3.52057 29.3335 3.52057 33.3612C3.52057 37.3837 4.30788 41.2927 5.86446 44.9715C7.36947 48.5298 9.52169 51.7221 12.2601 54.4571C15.0019 57.1989 18.1933 59.3511 21.7457 60.8536C25.4244 62.4093 29.3318 63.1983 33.3603 63.1983ZM18.9179 23.2911L24.0466 30.8136H26.9096V35.2727H25.2336C24.2469 35.2727 23.4449 36.0635 23.4449 37.0382V45.1262C23.4449 46.1112 24.2469 46.9088 25.2336 46.9088H33.4841C34.4708 46.9088 35.2727 46.1112 35.2727 45.1262V43.4312H30.2721C28.4275 43.4312 26.9251 41.9288 26.9251 40.0791V26.2203C26.9251 24.3724 28.4275 22.8682 30.2721 22.8682H42.6757L47.8036 15.3458L47.7528 25.8662L47.7623 26.6209V40.0791C47.7623 41.9288 46.2564 43.4312 44.4059 43.4312H39.8075V48.0141C39.8075 49.8621 38.3051 51.3662 36.4597 51.3662H22.2941C20.4427 51.3662 18.9351 49.8621 18.9351 48.0141V34.5645L18.9514 33.8115L18.9179 23.2911ZM41.4646 38.9807C41.744 38.9807 42.0225 38.9153 42.2692 38.7847C42.8631 38.4873 43.2481 37.8684 43.2481 37.2066V29.1083C43.2481 28.1233 42.4462 27.3188 41.4646 27.3188H33.2142C32.2318 27.3188 31.4315 28.1233 31.4315 29.1083V30.8136H36.4485C38.287 30.8136 39.7946 32.3143 39.8075 34.1605V38.9807H41.4646ZM35.2727 38.9807V37.0382C35.2727 36.0635 34.4708 35.2727 33.4841 35.2727H31.4315V37.1808C31.4315 38.1572 32.1888 38.9411 33.1557 38.9703H33.032C33.0887 38.9807 33.1557 38.9807 33.2142 38.9807H35.2727ZM33.3603 66.7189C28.859 66.7189 24.4897 65.8362 20.3743 64.0965C16.4025 62.4161 12.8351 60.0104 9.77052 56.9462C6.71065 53.8906 4.3053 50.3219 2.62195 46.3432C0.882291 42.2313 0 37.8633 0 33.3612C0 28.8547 0.88229 24.4858 2.62238 20.3748C4.30401 16.3987 6.70936 12.8308 9.77181 9.77095C12.8368 6.70592 16.4047 4.30015 20.3743 2.62152C24.497 0.881861 28.865 0 33.3603 0C37.8543 0 42.2223 0.881861 46.3432 2.6198C50.3142 4.29929 53.8816 6.70506 56.9492 9.77267C60.0087 12.8274 62.4144 16.3952 64.0978 20.3765C65.8387 24.4936 66.7215 28.8616 66.7215 33.3612C66.7215 37.8564 65.8387 42.2236 64.0982 46.3424C62.4166 50.3185 60.0112 53.8863 56.9484 56.9471C53.8838 60.0121 50.3163 62.417 46.3458 64.0965C42.2296 65.8362 37.8607 66.7189 33.3603 66.7189Z" fill="#2D2D3B"/>
                    </g>
                </g>
            </g>
            <g id="icons8-sad">
                <path id="Vector_2" d="M55.3292 65.5232C48.6714 65.5232 43.2549 60.1067 43.2549 53.4488C43.2549 46.791 48.6714 41.3745 55.3292 41.3745C61.9871 41.3745 67.4036 46.791 67.4036 53.4488C67.4036 60.1067 61.9871 65.5232 55.3292 65.5232ZM59.7079 50.7453C59.4243 50.7453 59.1937 50.976 59.1937 51.2595C59.1937 51.5431 59.4243 51.7737 59.7079 51.7737C59.9914 51.7737 60.2221 51.5431 60.2221 51.2595C60.2221 50.976 59.9914 50.7453 59.7079 50.7453ZM50.9506 50.7453C50.6671 50.7453 50.4364 50.976 50.4364 51.2595C50.4364 51.5431 50.6671 51.7737 50.9506 51.7737C51.2341 51.7737 51.4648 51.5431 51.4648 51.2595C51.4648 50.976 51.2341 50.7453 50.9506 50.7453Z" fill="#2E333D"/>
                <path id="Vector_3" d="M55.3291 42.5023C49.2931 42.5023 44.3825 47.413 44.3825 53.4489C44.3825 59.4849 49.2931 64.3955 55.3291 64.3955C61.365 64.3955 66.2757 59.4849 66.2757 53.4489C66.2757 47.413 61.365 42.5023 55.3291 42.5023ZM50.9504 52.9016C50.0441 52.9016 49.3085 52.166 49.3085 51.2596C49.3085 50.3532 50.0441 49.6176 50.9504 49.6176C51.8568 49.6176 52.5924 50.3532 52.5924 51.2596C52.5924 52.166 51.8568 52.9016 50.9504 52.9016ZM59.7077 52.9016C58.8013 52.9016 58.0657 52.166 58.0657 51.2596C58.0657 50.3532 58.8013 49.6176 59.7077 49.6176C60.6141 49.6176 61.3497 50.3532 61.3497 51.2596C61.3497 52.166 60.6141 52.9016 59.7077 52.9016ZM59.8752 59.2835C57.2404 57.4006 53.4189 57.4006 50.783 59.2835L49.511 57.5013C51.2022 56.2939 53.2142 55.6558 55.3291 55.6558C57.444 55.6558 59.4559 56.2939 61.1472 57.5013L59.8752 59.2835ZM55.3291 40.2468C62.6088 40.2468 68.5312 46.1692 68.5312 53.4489C68.5312 60.7286 62.6088 66.6511 55.3291 66.6511C48.0494 66.6511 42.127 60.7286 42.127 53.4489C42.127 46.1692 48.0494 40.2468 55.3291 40.2468Z" fill="#A7A7BA"/>
            </g>
        </g>
    </g>
</svg>
