<svg width="70" height="72" viewBox="0 0 70 72" fill="none"
    xmlns="http://www.w3.org/2000/svg">
    <g id="Frame">
        <g id="Beldex_sad_dark">
            <g id="wallet in chat">
                <g id="Beldex_send_green">
                    <g id="Vector">
                        <path d="M33.3603 63.1983C37.3871 63.1983 41.2953 62.4093 44.9749 60.8536C48.5281 59.3511 51.7178 57.1989 54.4596 54.4571C57.1998 51.7186 59.352 48.5264 60.8553 44.9715C62.4101 41.2927 63.2009 37.3837 63.2009 33.3612C63.2009 29.3335 62.4101 25.4244 60.8553 21.7474C59.352 18.1925 57.2023 15.0002 54.4596 12.2618C51.7178 9.51997 48.5281 7.36603 44.9749 5.8636C41.2953 4.31132 37.3871 3.52057 33.3603 3.52057C29.3318 3.52057 25.4244 4.31132 21.7457 5.8636C18.1933 7.36603 15.0019 9.51997 12.2601 12.2618C9.51911 15.0002 7.36775 18.1925 5.86446 21.7474C4.30788 25.4244 3.52057 29.3335 3.52057 33.3612C3.52057 37.3837 4.30788 41.2927 5.86446 44.9715C7.36947 48.5298 9.52169 51.7221 12.2601 54.4571C15.0019 57.1989 18.1933 59.3511 21.7457 60.8536C25.4244 62.4093 29.3318 63.1983 33.3603 63.1983ZM18.9179 23.2911L24.0466 30.8136H26.9096V35.2727H25.2336C24.2469 35.2727 23.4449 36.0635 23.4449 37.0382V45.1262C23.4449 46.1112 24.2469 46.9088 25.2336 46.9088H33.4841C34.4708 46.9088 35.2727 46.1112 35.2727 45.1262V43.4312H30.2721C28.4275 43.4312 26.9251 41.9288 26.9251 40.0791V26.2203C26.9251 24.3724 28.4275 22.8682 30.2721 22.8682H42.6757L47.8036 15.3458L47.7528 25.8662L47.7623 26.6209V40.0791C47.7623 41.9288 46.2564 43.4312 44.4059 43.4312H39.8075V48.0141C39.8075 49.8621 38.3051 51.3662 36.4597 51.3662H22.2941C20.4427 51.3662 18.9351 49.8621 18.9351 48.0141V34.5645L18.9514 33.8115L18.9179 23.2911ZM41.4646 38.9807C41.744 38.9807 42.0225 38.9153 42.2692 38.7847C42.8631 38.4873 43.2481 37.8684 43.2481 37.2066V29.1083C43.2481 28.1233 42.4462 27.3188 41.4646 27.3188H33.2142C32.2318 27.3188 31.4315 28.1233 31.4315 29.1083V30.8136H36.4485C38.287 30.8136 39.7946 32.3143 39.8075 34.1605V38.9807H41.4646ZM35.2727 38.9807V37.0382C35.2727 36.0635 34.4708 35.2727 33.4841 35.2727H31.4315V37.1808C31.4315 38.1572 32.1888 38.9411 33.1557 38.9703H33.032C33.0887 38.9807 33.1557 38.9807 33.2142 38.9807H35.2727ZM33.3603 66.7189C28.859 66.7189 24.4897 65.8362 20.3743 64.0965C16.4025 62.4161 12.8351 60.0104 9.77052 56.9462C6.71065 53.8906 4.3053 50.3219 2.62195 46.3432C0.882291 42.2313 0 37.8633 0 33.3612C0 28.8547 0.88229 24.4858 2.62238 20.3748C4.30401 16.3987 6.70936 12.8308 9.77181 9.77095C12.8368 6.70592 16.4047 4.30015 20.3743 2.62152C24.497 0.881861 28.865 0 33.3603 0C37.8543 0 42.2223 0.881861 46.3432 2.6198C50.3142 4.29929 53.8816 6.70506 56.9492 9.77267C60.0087 12.8274 62.4144 16.3952 64.0978 20.3765C65.8387 24.4936 66.7215 28.8616 66.7215 33.3612C66.7215 37.8564 65.8387 42.2236 64.0982 46.3424C62.4166 50.3185 60.0112 53.8863 56.9484 56.9471C53.8838 60.0121 50.3163 62.417 46.3458 64.0965C42.2296 65.8362 37.8607 66.7189 33.3603 66.7189Z" fill="#3E4A53"/>
                    </g>
                </g>
            </g>
            <g id="icons8-sad">
                <path id="Vector_2" d="M55.3292 65.5232C48.6714 65.5232 43.2549 60.1067 43.2549 53.4488C43.2549 46.791 48.6714 41.3745 55.3292 41.3745C61.9871 41.3745 67.4036 46.791 67.4036 53.4488C67.4036 60.1067 61.9871 65.5232 55.3292 65.5232Z" fill="#F8F8F8"/>
                <path id="Vector_3" d="M55.3291 42.5023C49.2931 42.5023 44.3825 47.413 44.3825 53.4489C44.3825 59.4849 49.2931 64.3955 55.3291 64.3955C61.365 64.3955 66.2757 59.4849 66.2757 53.4489C66.2757 47.413 61.365 42.5023 55.3291 42.5023ZM50.9504 52.9016C50.0441 52.9016 49.3085 52.166 49.3085 51.2596C49.3085 50.3532 50.0441 49.6176 50.9504 49.6176C51.8568 49.6176 52.5924 50.3532 52.5924 51.2596C52.5924 52.166 51.8568 52.9016 50.9504 52.9016ZM59.7077 52.9016C58.8013 52.9016 58.0657 52.166 58.0657 51.2596C58.0657 50.3532 58.8013 49.6176 59.7077 49.6176C60.6141 49.6176 61.3497 50.3532 61.3497 51.2596C61.3497 52.166 60.6141 52.9016 59.7077 52.9016ZM59.8752 59.2835C57.2404 57.4006 53.4189 57.4006 50.783 59.2835L49.511 57.5013C51.2022 56.2939 53.2142 55.6558 55.3291 55.6558C57.444 55.6558 59.4559 56.2939 61.1472 57.5013L59.8752 59.2835ZM55.3291 40.2468C62.6088 40.2468 68.5312 46.1692 68.5312 53.4489C68.5312 60.7286 62.6088 66.6511 55.3291 66.6511C48.0494 66.6511 42.127 60.7286 42.127 53.4489C42.127 46.1692 48.0494 40.2468 55.3291 40.2468Z" fill="#3E4A53"/>
            </g>
        </g>
    </g>
</svg>
