<svg xmlns="http://www.w3.org/2000/svg" width="37.453" height="37.453" viewBox="0 0 37.453 37.453">
  <path id="light_theme" d="M17.166,0V4.682h3.121V0ZM6.59,4.383,4.383,6.59,7.693,9.9,9.9,7.693Zm24.273,0-3.31,3.31L29.76,9.9l3.31-3.31ZM18.726,7.8A10.924,10.924,0,1,0,29.65,18.726,10.947,10.947,0,0,0,18.726,7.8Zm0,3.121a7.8,7.8,0,1,1-7.8,7.8A7.779,7.779,0,0,1,18.726,10.924ZM0,17.166v3.121H4.682V17.166Zm32.771,0v3.121h4.682V17.166ZM7.693,27.553l-3.31,3.31L6.59,33.07,9.9,29.76Zm22.067,0L27.553,29.76l3.31,3.31,2.207-2.207ZM17.166,32.771v4.682h3.121V32.771Z" fill="#fff"/>
</svg>
