<svg xmlns="http://www.w3.org/2000/svg" width="19.575" height="19.575" viewBox="0 0 19.575 19.575">
  <path id="light_theme" d="M8.972,0V2.447H10.6V0ZM3.444,2.291,2.291,3.444l1.73,1.73L5.174,4.021Zm12.687,0L14.4,4.021l1.153,1.153,1.73-1.73ZM9.787,4.078A5.709,5.709,0,1,0,15.5,9.787,5.722,5.722,0,0,0,9.787,4.078Zm0,1.631A4.078,4.078,0,1,1,5.709,9.787,4.066,4.066,0,0,1,9.787,5.709ZM0,8.972V10.6H2.447V8.972Zm17.128,0V10.6h2.447V8.972ZM4.021,14.4l-1.73,1.73,1.153,1.153,1.73-1.73Zm11.533,0L14.4,15.554l1.73,1.73,1.153-1.153ZM8.972,17.128v2.447H10.6V17.128Z" fill="#fff"/>
</svg>
