<?xml version="1.0" encoding="iso-8859-1"?>
<!-- Generator: Adobe Illustrator 27.1.0, SVG Export Plug-In . SVG Version: 6.00 Build 0)  -->
<svg version="1.1" id="Layer_1" xmlns="http://www.w3.org/2000/svg" xmlns:xlink="http://www.w3.org/1999/xlink" x="0px" y="0px"
	 viewBox="0 0 31.004 30.116" style="enable-background:new 0 0 31.004 30.116;" xml:space="preserve">
<g id="Group_1270" transform="translate(-381.429 -40.474)">
	<g id="Group_1271" transform="translate(379.377 37.771)">
		<path id="Path_2761" style="fill:#00B900;" d="M21.437,9.726v4.977H10.215c-1.137-0.031-2.085,0.863-2.12,2v2.9H4.819
			c-1.273-0.021-2.288-1.069-2.267-2.342c0-0.001,0-0.002,0-0.003V3.952L5.82,7.383h13.353c1.27,0.02,2.284,1.065,2.264,2.335
			C21.437,9.721,21.437,9.723,21.437,9.726"/>
		<path id="Path_2762" style="fill:#00B900;stroke:#00B900;" d="M21.437,9.726v4.977H10.215c-1.137-0.031-2.085,0.863-2.12,2v2.9
			H4.819c-1.273-0.021-2.288-1.069-2.267-2.342c0-0.001,0-0.002,0-0.003V3.952L5.82,7.383h13.353c1.27,0.02,2.284,1.065,2.264,2.335
			C21.437,9.721,21.437,9.723,21.437,9.726z"/>
		<path id="Path_2763" style="fill:none;stroke:#2075FF;stroke-miterlimit:10;" d="M22.949,15.09h-12.5
			c-1.138-0.032-2.087,0.863-2.122,2v6.439c0.035,1.137,0.984,2.032,2.122,2h11.31L21.137,22.6c1.172,0,2.6-0.476,2.6-1.583
			l2.27,0.666v-9.526L22.949,15.09z"/>
	</g>
	<g id="icons8-plus__" transform="translate(397.501 55.659)">
		<g id="Subtraction_2">
			<path style="fill:#222222;" d="M6.473,13.931C2.352,13.931-1,10.582-1,6.466S2.352-1,6.473-1c4.114,0,7.46,3.349,7.46,7.466
				S10.586,13.931,6.473,13.931z"/>
			<path style="fill:#F2F2F2;" d="M6.473,12.931c3.562,0,6.46-2.9,6.46-6.466S10.035,0,6.473,0C2.903,0,0,2.9,0,6.466
				S2.903,12.931,6.473,12.931 M3.649,5.903h2.255V3.648c0-0.157,0.127-0.284,0.284-0.284h0.562c0.156,0,0.284,0.127,0.284,0.284
				v2.255h2.257c0.154,0,0.283,0.127,0.283,0.284V6.75c0,0.156-0.128,0.283-0.283,0.283H7.035V9.29c0,0.156-0.128,0.283-0.284,0.283
				H6.189c-0.157,0-0.284-0.127-0.284-0.283V7.034H3.649c-0.157,0-0.284-0.128-0.284-0.283V6.187
				C3.365,6.03,3.492,5.903,3.649,5.903 M6.473,14.931C1.801,14.931-2,11.134-2,6.466S1.801-2,6.473-2
				c4.665,0,8.46,3.798,8.46,8.466S11.138,14.931,6.473,14.931z"/>
		</g>
	</g>
</g>
</svg>
