<svg xmlns="http://www.w3.org/2000/svg" xmlns:xlink="http://www.w3.org/1999/xlink" width="637.089" height="407.709" viewBox="0 0 637.089 407.709">
  <defs>
    <clipPath id="clip-path">
      <rect id="Rectangle_317" data-name="Rectangle 317" width="637.089" height="407.709" fill="none"/>
    </clipPath>
    <clipPath id="clip-path-2">
      <rect id="Rectangle_316" data-name="Rectangle 316" width="637.09" height="407.708" fill="none"/>
    </clipPath>
    <clipPath id="clip-path-3">
      <rect id="Rectangle_312" data-name="Rectangle 312" width="86.625" height="77.334" fill="none"/>
    </clipPath>
    <clipPath id="clip-path-4">
      <rect id="Rectangle_313" data-name="Rectangle 313" width="50.002" height="79.061" fill="none"/>
    </clipPath>
    <clipPath id="clip-path-5">
      <rect id="Rectangle_314" data-name="Rectangle 314" width="169.243" height="104.224" fill="none"/>
    </clipPath>
    <clipPath id="clip-path-6">
      <rect id="Rectangle_315" data-name="Rectangle 315" width="22.542" height="86.965" fill="none"/>
    </clipPath>
  </defs>
  <g id="Group_826" data-name="Group 826" opacity="0.5">
    <g id="Group_825" data-name="Group 825" clip-path="url(#clip-path)">
      <g id="Group_824" data-name="Group 824" transform="translate(0 0.001)">
        <g id="Group_823" data-name="Group 823" clip-path="url(#clip-path-2)">
          <path id="Path_4498" data-name="Path 4498" d="M2428.736,1646.559q-.648,1.034-1.313,2.079h-2.459" transform="translate(-1828.652 -1241.662)" fill="none" stroke="#ebf3fa" stroke-miterlimit="10" stroke-width="2"/>
          <path id="Path_4499" data-name="Path 4499" d="M611.509,407.733H77.748S.429,332.687,49.619,244.392,164.875,200.5,161.678,97.734,313.618-13.863,363,15.935s49.084,65.687,151.026,53.812,121.417,87.11,94.9,137.557C571.861,277.8,709.1,267.414,627.746,401.453" transform="translate(-25.07 -0.757)" fill="none" stroke="#515165" stroke-miterlimit="10" stroke-width="2" stroke-dasharray="17.07 12.15"/>
          <g id="Group_813" data-name="Group 813" transform="translate(392.222 153.051)" opacity="0.3">
            <g id="Group_812" data-name="Group 812">
              <g id="Group_811" data-name="Group 811" clip-path="url(#clip-path-3)">
                <path id="Path_4500" data-name="Path 4500" d="M1595.006,699.735s16.429-69.633,71.852-77.289c0,0,10.784-1.324,14.374,10.55s-17.849,11.96-31.1,16.736-44.149,25.024-55.124,50" transform="translate(-1595.007 -622.401)" fill="#63637f"/>
              </g>
            </g>
          </g>
          <g id="Group_816" data-name="Group 816" transform="translate(390.677 138.291)" opacity="0.3">
            <g id="Group_815" data-name="Group 815">
              <g id="Group_814" data-name="Group 814" clip-path="url(#clip-path-4)">
                <path id="Path_4501" data-name="Path 4501" d="M1589.017,641.443s-5.762-57.679,34.683-78.149c0,0,7.913-3.856,13.793,4.3s-10.524,13.867-19.419,21.018-27.231,30.806-29.057,52.836" transform="translate(-1588.733 -562.382)" fill="#63637f"/>
              </g>
            </g>
          </g>
          <path id="Path_4502" data-name="Path 4502" d="M636.356,1652.625H.735A.737.737,0,0,1,0,1651.89v-.281a.737.737,0,0,1,.735-.734H636.356a.736.736,0,0,1,.735.734v.281a.737.737,0,0,1-.735.734" transform="translate(0 -1244.917)" fill="#363647"/>
          <g id="Group_819" data-name="Group 819" transform="translate(90.435 289.483)" opacity="0.3">
            <g id="Group_818" data-name="Group 818">
              <g id="Group_817" data-name="Group 817" clip-path="url(#clip-path-5)">
                <path id="Path_4503" data-name="Path 4503" d="M369.256,1242.339c-8.557-19.5,22.481-36.25,22.481-36.25s40.9,13.238,46.772,9.607-32.758-18.146-32.758-18.146c9.531-9.326,46.079-17.873,46.079-17.873s24.653,34.021,29.451,29.057-23.366-29.01-23.366-29.01c12.421-5.056,31.157-.906,31.157-.906,26.979,9.606,13.251,43.754,13.251,43.754s8.8,11.606,26.275,18.97h0a49.572,49.572,0,0,1,8.408,3.915l-2.727,2.2c-.812-.552-1.627-1.061-2.445-1.52a.021.021,0,0,0-.015-.008l-.036-.02c-.526-.271-1.278-.654-2.2-1.115l0,0s0,0,0,0c-2.146-.96-3.68-1.711-4.737-2.294l-.009-.006c-6.62-3.109-15.59-6.883-19.116-6.35a6.779,6.779,0,0,0-.424-1.721c.135.549.276,1.121.424,1.721,3.389,13.763-18.609,34.231-33.762,42.038s-12.439-.427-10.231-12.02,18.143-21.841,20.6-27.667-5.761-3.057-13.893,4.593-5.484,19.811-18.415,32.425-44.818-5.134-44.818-5.134c12.087-4.788,25.129-24.089,23.11-27.96s-27.426,17.142-32.233,19.365-18.255-.14-26.812-19.637" transform="translate(-367.764 -1177.215)" fill="#63637f"/>
              </g>
            </g>
          </g>
          <path id="Path_4504" data-name="Path 4504" d="M1513.423,1272.985c12.483-14.729-10.153-37.321-10.153-37.321s-38.97.917-43.133-3.758,33.165-7.29,33.165-7.29c-5.869-10.572-35.418-27.459-35.418-27.459s-30.23,23.183-33.115,17.628,27.815-19.162,27.815-19.162c-9.485-7.609-26.842-8.852-26.842-8.852-25.932,1.365-22.842,34.594-22.842,34.594s-10.65,7.808-27.744,9.684h0a44.926,44.926,0,0,0-8.32,1.226l1.8,2.615c.848-.27,1.688-.5,2.518-.689a.02.02,0,0,1,.015,0l.036-.008c.528-.1,1.28-.238,2.2-.4h.008c2.114-.279,3.641-.535,4.711-.768l.01,0c6.558-.988,15.33-1.946,18.256-.571a6.174,6.174,0,0,1,.814-1.386l-.814,1.386c-6.508,11.084,7.312,34.565,18.459,45.271s10.92,2.849,12-7.8-10.113-23.677-10.739-29.375,5.8-1.165,10.885,7.588-.362,18.636,7.61,32.945,40.277,7.14,40.277,7.14c-9.265-7.289-15.6-27.438-12.846-30.28s19.4,22,23,25.172,15.9,4.6,28.383-10.125" transform="translate(-1030.724 -894.938)" fill="#63637f"/>
          <path id="Path_4505" data-name="Path 4505" d="M677.671,344.892c12.866-21.589,50.243-3.254,50.243-3.254s15.323,48.373,22.837,51.526-5.025-43.916-5.025-43.916c15.5,2.763,48.765,32.019,48.765,32.019s-15.784,47.012-7.725,48.219,11.852-42.34,11.852-42.34c13.374,8.467,22.232,29.315,22.232,29.315,9.268,32.509-32.954,42.731-32.954,42.731s-5.119,16.41-.212,38.251h0a58.51,58.51,0,0,1,2,10.763l-3.981-1.115c-.026-1.158-.1-2.29-.215-3.392a.025.025,0,0,0,0-.02c0-.016,0-.031-.006-.047-.1-.691-.247-1.676-.437-2.879v0s0,0,0-.006c-.549-2.721-.879-4.709-1.043-6.125a.045.045,0,0,1,0-.013c-1.552-8.493-4.075-19.7-7-22.721a8.007,8.007,0,0,0,1.363-1.587L777,471.884c-10.9,12.693-45.649,5.589-63.539-3.617s-8.118-12.244,4.534-18.071,33.425,2.457,40.7.821-1.013-7.63-13.938-10.2-22.795,8.314-43.78,4.538-25.8-46.581-25.8-46.581c12.887,8.331,40.374,7.628,42.71,3.034s-35.274-14.6-40.706-17.692-12.382-17.636.484-39.225" transform="translate(-505.519 -252.15)" fill="#63637f"/>
          <g id="Group_822" data-name="Group 822" transform="translate(513.746 104.752)" opacity="0.3">
            <g id="Group_821" data-name="Group 821">
              <g id="Group_820" data-name="Group 820" clip-path="url(#clip-path-6)">
                <path id="Path_4506" data-name="Path 4506" d="M2089.2,502.6a10.6,10.6,0,0,1,.8-4.155,9.713,9.713,0,0,1,2.269-3.3,10.414,10.414,0,0,1,3.524-2.18,12.986,12.986,0,0,1,4.641-.783,13.277,13.277,0,0,1,4.676.783,10.356,10.356,0,0,1,3.559,2.18,9.725,9.725,0,0,1,2.268,3.3,10.612,10.612,0,0,1,.8,4.155,10.36,10.36,0,0,1-.8,4.121,9.785,9.785,0,0,1-2.268,3.27,10.322,10.322,0,0,1-3.559,2.18,13.277,13.277,0,0,1-4.676.783,12.986,12.986,0,0,1-4.641-.783,10.38,10.38,0,0,1-3.524-2.18,9.773,9.773,0,0,1-2.269-3.27,10.348,10.348,0,0,1-.8-4.121m19.61-19.383h-16.749l-2.373-57.228h21.494Z" transform="translate(-2089.201 -425.992)" fill="#63637f"/>
              </g>
            </g>
          </g>
          <path id="Path_4507" data-name="Path 4507" d="M1092.813,158.174a7.568,7.568,0,0,1,.574-2.969,6.935,6.935,0,0,1,1.621-2.36,7.442,7.442,0,0,1,2.518-1.558,9.279,9.279,0,0,1,3.316-.56,9.488,9.488,0,0,1,3.341.56,7.4,7.4,0,0,1,2.543,1.558,6.952,6.952,0,0,1,1.62,2.36,7.588,7.588,0,0,1,.573,2.969,7.409,7.409,0,0,1-.573,2.944,7,7,0,0,1-1.62,2.336,7.378,7.378,0,0,1-2.543,1.558,9.488,9.488,0,0,1-3.341.56,9.279,9.279,0,0,1-3.316-.56,7.419,7.419,0,0,1-2.518-1.558,6.98,6.98,0,0,1-1.621-2.336,7.39,7.39,0,0,1-.574-2.944m14.011-13.849h-11.967l-1.7-40.89h15.358Z" transform="translate(-824.084 -78.001)" fill="#63637f"/>
          <path id="Path_4508" data-name="Path 4508" d="M1808.123,964.361a80.7,80.7,0,0,1-8.81,13.138v0c-3.345,3.993-6.768,7.028-9.657,8.055l-.022.008c-.151.052-.3.1-.448.141a.036.036,0,0,1-.022,0l0,0a5.26,5.26,0,0,1-1.678.215c-9.481-.426-19.475-20.765-19.475-20.765a7.23,7.23,0,0,1,2.1-4.114,8.526,8.526,0,0,1,2.847-1.874s10.212,10.487,12.707,11.242c1.57.473,3.632-6.85,6.587-16.047S1805.6,942.9,1805.6,942.9s10.511,6.652,2.527,21.456" transform="translate(-1333.244 -711.041)" fill="#8686a5"/>
          <path id="Path_4509" data-name="Path 4509" d="M1864.182,1061.588v0c-3.344,3.993-6.768,7.028-9.657,8.055l-.022.007-.448.141-.025.007,0,0c.1-.07,3.2-1.673,3.681-4.649.5-3.041-2.722-5.53,5.365-10.234,4.712-2.741,1.1,6.672,1.1,6.672" transform="translate(-1398.114 -795.13)" fill="#5c5a72"/>
          <path id="Path_4510" data-name="Path 4510" d="M1865.211,1613.456h22.223c1.592-1.08-.43-11.636-.43-11.636s-6.065-2.3-7.113,2.379-7.725,6.164-11.258,6.734c-2.417.393-3.181,1.721-3.423,2.524" transform="translate(-1406.546 -1207.498)" fill="#363647"/>
          <path id="Path_4511" data-name="Path 4511" d="M1917.435,1182.53s-.7,12.964-1.577,27.986c-.631,10.771-1.349,22.6-1.965,31.462-.082,1.176-.164,2.3-.24,3.362-.022.329-.047.656-.072.983a197.515,197.515,0,0,1-6.912,37.272c-6.248,1.317-9.07-1.091-9.07-1.091s-4.3-50.454-5.9-70.8c-1.173-14.98-2.173-36.789-2.173-36.789Z" transform="translate(-1424.881 -885.994)" fill="#63637f"/>
          <path id="Path_4512" data-name="Path 4512" d="M1952.465,1271.475c-.631,10.771-1.349,22.6-1.965,31.462-4.085-9.635-12.43-47.189-12.43-47.189Z" transform="translate(-1461.488 -946.954)" fill="#48485e"/>
          <path id="Path_4513" data-name="Path 4513" d="M1999.241,1613.456h22.223c1.592-1.08-.43-11.636-.43-11.636s-6.065-2.3-7.113,2.379-7.725,6.164-11.258,6.734c-2.417.393-3.181,1.721-3.423,2.524" transform="translate(-1507.617 -1207.498)" fill="#363647"/>
          <path id="Path_4514" data-name="Path 4514" d="M1914.075,1172s15.87,39.5,20.943,54.476c3.614,10.666,13.805,48.083,13.805,48.083a10.241,10.241,0,0,0,8.156-1.258s3.792-38.228-3.867-49.007c-4.063-5.719-1.01-59.448-17.485-59.908s-21.552,7.614-21.552,7.614" transform="translate(-1443.394 -878.046)" fill="#63637f"/>
          <path id="Path_4515" data-name="Path 4515" d="M1920.839,985.9c-.067,5.617-.128,9.741-.114,10.783.045,3.4-2.129,4.166-4.369,4.684,0,0-2.07.446-4.681.889a51.514,51.514,0,0,1-7.82.837,70.539,70.539,0,0,1-20.468-3.369c-2.1,0-3.052-3.243-3.4-7.771-.232-3.065.713-33.628.832-41.26.082-5.474,3.087-10.531,3.926-11.271,7.781-6.88,30.741-6.013,34.873-1.267,1.022,1.173,1.319,12.489,1.354,24.884.022,7.979-.06,16.405-.136,22.862" transform="translate(-1417.663 -704.645)" fill="#8686a5"/>
          <path id="Path_4516" data-name="Path 4516" d="M1951.853,906.061c-2.931,3.176-12.776,2.706-12.484-.067.04-.342.1-2.372.136-2.686.025-.253.049-.5.069-.733q.1-1.025.166-1.809c.131-1.52.173-2.344.173-2.344h.01c.282-.079,6.613-1.876,9.761-2.622a5.072,5.072,0,0,1,1.745-.29c-.965,7.073,1.384,9.509.423,10.551" transform="translate(-1462.463 -675.279)" fill="#ffb27d"/>
          <path id="Path_4517" data-name="Path 4517" d="M1951.177,898.865s-2.644,2.686-10.279,2.879c.131-1.52.173-2.344.173-2.344h.01c.282-.079,6.612-1.877,9.761-2.622.555.228-.181,1.705.334,2.087" transform="translate(-1463.621 -676.256)" fill="#ed975d"/>
          <path id="Path_4518" data-name="Path 4518" d="M1929.738,846.72a23.924,23.924,0,0,0,4.4,1.025c3.6.486,8.343.2,9.831-4.161,2.508-7.339,5.711-11.74-1.668-14.737-3.95-1.6-6.477-1.689-8.193-1.077a5.934,5.934,0,0,0-3.036,2.628c-1.433,2.246-4.315,15.036-1.331,16.321" transform="translate(-1454.222 -623.953)" fill="#ffb27d"/>
          <path id="Path_4519" data-name="Path 4519" d="M1936.6,809.417a3.481,3.481,0,0,0,1.331,6.334,25.578,25.578,0,0,1,4.326.794c1.835.815,3.412,1.68,2.979,4.527-.147.968-.619,2.148,1.873,1.562a1.212,1.212,0,0,1,.905.054c1.034.613-.287,3.586-.686,4.23,0,0-.573,2.13.7,3.166.154.124,2.654,1.216,8.678-8a8.563,8.563,0,0,0,.388-7.846c-1.461-3.139-5.535-7.109-13.209-7.109a14.633,14.633,0,0,0-7.284,2.29" transform="translate(-1459.202 -608.651)" fill="#2a2b3a"/>
          <path id="Path_4520" data-name="Path 4520" d="M2023.25,1063.891c-1.121,5.211-.836,5.266-2.556,3.9-7.008-5.57-4.96-8.488-3.4-13.315s-3.909-12.378,0-15.6c3.822-3.146,6,1.926,6.095,2.151.022,7.979-.06,16.405-.136,22.862" transform="translate(-1520.074 -782.64)" fill="#5c5a72"/>
          <path id="Path_4521" data-name="Path 4521" d="M2006.23,1141.017s-2.641,4.32-4.373,4.167-4.069-.8-5.418.489-3.524,4.609-2.916,5.493,3.051.1,4.807-.868,4.52.477,5.994-.623a51.44,51.44,0,0,0,5-5.468Z" transform="translate(-1503.225 -860.436)" fill="#ffb27d"/>
          <path id="Path_4522" data-name="Path 4522" d="M2026.731,949.58s21.923,20.629,19.076,34.351c-1.3,6.253-5.322,11.528-16.05,20.069,0,0-5.075-3.507-6.189-6.354,0,0,9.737-13.715,9.361-16.05-.461-2.858-7.108-10.026-9.492-11.14s-2.166-18.482,3.294-20.876" transform="translate(-1524.772 -716.074)" fill="#8686a5"/>
          <path id="Path_4523" data-name="Path 4523" d="M2016.71,1153.115s-2.311-1.01-3.053-1.444-.578.268-.351.619a2.565,2.565,0,0,0,1.754,1.217,2.9,2.9,0,0,0,1.651-.392" transform="translate(-1518.079 -868.367)" fill="#ffb27d"/>
          <path id="Path_4524" data-name="Path 4524" d="M427.77,830.827c-.793-1.529,17.292-7.033,17.578,8.053,0,0,33.878-.833,17.7-19.715-5.6-6.537-5.024-11.942-4.856-16.973s-3.488-19.656-16.027-18.183a9.338,9.338,0,0,0-7.382.79c-9.32,4.835-30.2,51.592-7.015,46.029" transform="translate(-314.619 -590.905)" fill="#2a2b3a"/>
          <path id="Path_4525" data-name="Path 4525" d="M685.371,1019.755s2.205-3.357,3.982-3.423,5.069-.988,4.805-.329-2.3.724-2.5,1.119,3.028.987,3.949,1.053,3.094,0,3.028.461-3.915,2.37-6.631,2.107a18.415,18.415,0,0,0-6.073.79Z" transform="translate(-516.835 -765.985)" fill="#ffb27d"/>
          <path id="Path_4526" data-name="Path 4526" d="M555.68,954.195a33.076,33.076,0,0,0,3.373,5.1c2.62,3.282,6.661,7.073,11.734,7.822a12.594,12.594,0,0,0,6.971-1.132l.008,0c6.161-2.735,10.794-9.025,10.794-9.025a5.066,5.066,0,0,0-.691-4.97s-12.441,2.8-13.626,2.206-8.469-16.753-9.782-19.444c-2.789-5.721-7.215-7.362-7.215-7.362Z" transform="translate(-419.035 -699.339)" fill="#8686a5"/>
          <path id="Path_4527" data-name="Path 4527" d="M568.195,1036.925c2.62,3.282,6.661,7.073,11.734,7.822a12.593,12.593,0,0,0,6.971-1.132c-.241.031-6.394.792-8.847-3.6-2.5-4.476-5.207-11.585-8.924-9.216-1.6,1.023-1.532,3.565-.934,6.122" transform="translate(-428.177 -776.969)" fill="#5c5a72"/>
          <path id="Path_4528" data-name="Path 4528" d="M357.269,1577.476s-3.8,3.464-3.055,5.926,4.167,4.1,4.629,7.111,2.315,4.65,3.981,4.65h7.946s1.227-2.117-1.736-2.755-4.08-4.174-3.895-7.456a57.86,57.86,0,0,0-.278-7.658l-6.3-1.459Z" transform="translate(-267.038 -1188.33)" fill="#363647"/>
          <path id="Path_4529" data-name="Path 4529" d="M495.978,1588.489s-1.366,14.676.3,15.5l21.329-.044s0-2.462-3.426-3.009-9.444-2.552-10.462-7.02-7.741-5.424-7.741-5.424" transform="translate(-373.617 -1197.872)" fill="#363647"/>
          <path id="Path_4530" data-name="Path 4530" d="M430.439,938.895a84.92,84.92,0,0,0,0,9.858c.211,3.564,3.817,8.339,4.328,9.52,1.283,2.962,2.731,3.444,2.731,3.444l11.2,2.745,3.938.964,12.417-3.708s5.656-15.786,3.385-24.672a68.3,68.3,0,0,0-5.741-15.057s-8.418-3.322-23.325-.841Z" transform="translate(-324.485 -693.938)" fill="#8686a5"/>
          <path id="Path_4531" data-name="Path 4531" d="M444.2,1031.093c.211,3.564.539,6.884,1.051,8.065,1.284,2.962,2.731,3.444,2.731,3.444l11.2,2.745,4.864-1.43s-16.236-2.461-14.437-16.429Z" transform="translate(-334.97 -774.823)" fill="#f2ccaa"/>
          <path id="Path_4532" data-name="Path 4532" d="M505.237,1098.695s6.149,19.14,6.544,25.657-11.755,92.574-12.243,95.576c-.461,2.831-3.975,4.635-3.975,4.635a5.318,5.318,0,0,1-3.924.3c-3.2-.9-4.213-1.986-4.213-1.986s-4.786-61.375-1.824-83.3a347.248,347.248,0,0,0,3-40.884Z" transform="translate(-365.461 -828.521)" fill="#48485e"/>
          <path id="Path_4533" data-name="Path 4533" d="M394.4,1096.375s-9.38,12.585-10.255,21.093-1.372,38.392-3.235,46.685-8.708,24.255-8.708,50.123a5.161,5.161,0,0,0,2.908,2.273,23.974,23.974,0,0,0,2.558.707,4.02,4.02,0,0,0,4.5-2.135c4.628-9.317,19.368-39.368,20.124-45.606.535-4.414,5.189-33.63,15.342-50.774,2.437-4.116-1.5-20.484-1.5-20.484Z" transform="translate(-280.676 -826.771)" fill="#63637f"/>
          <path id="Path_4534" data-name="Path 4534" d="M485.428,1086.68s-2.469,1.953-7.372,2.052c-5.858.118-20.373-1.493-20.373-1.493a12,12,0,0,0-.619,3.7s17.728,4.472,28,.653a6.491,6.491,0,0,0,.365-4.916" transform="translate(-344.669 -819.461)" fill="#48485e"/>
          <path id="Path_4535" data-name="Path 4535" d="M537.275,1093.971a2.693,2.693,0,1,1,2.673,3.025,2.869,2.869,0,0,1-2.673-3.025m.886,0a1.816,1.816,0,1,0,1.787-2.139,1.989,1.989,0,0,0-1.787,2.139" transform="translate(-405.156 -822.677)" fill="#fff"/>
          <path id="Path_4536" data-name="Path 4536" d="M387.006,1029.308l14.4,12.535a2.5,2.5,0,0,0,3.523-.244l18.368-21.094a2.5,2.5,0,0,0-.243-3.523l-14.4-12.535a2.5,2.5,0,0,0-3.523.243l-18.368,21.095a2.5,2.5,0,0,0,.243,3.523" transform="translate(-291.192 -756.986)" fill="#63637f"/>
          <path id="Path_4537" data-name="Path 4537" d="M472.371,1101c.2.054,7.646.929,7.648,2.466,0,1.778-2.181,4.16-4.237,4.048-.833-.046-4.672-3.576-4.672-3.576Z" transform="translate(-355.261 -830.256)" fill="#ffb27d"/>
          <path id="Path_4538" data-name="Path 4538" d="M491.1,892.9a24.771,24.771,0,0,0,1.327-9.053l.562.111,9.453,1.872s-.215,2.975-.221,5.778c0,.023,0,.047,0,.07-.012,2.434,1.644,4.877-2.26,5.842-1.206.3-10.639-.307-8.861-4.62" transform="translate(-370.168 -666.502)" fill="#ffb27d"/>
          <path id="Path_4539" data-name="Path 4539" d="M508.918,886.166s-.215,2.975-.222,5.778c-5.29-.149-8.086-4.975-9.232-7.65Z" transform="translate(-376.644 -666.842)" fill="#e8945b"/>
          <path id="Path_4540" data-name="Path 4540" d="M506.253,837.933s-12.516.207-12.525-7.59-1.63-13.02,6.361-13.482,9.547,2.512,10.182,5.113-.763,15.7-4.019,15.958" transform="translate(-372.211 -615.956)" fill="#ffb27d"/>
          <path id="Path_4541" data-name="Path 4541" d="M493.448,811.372s-3.427,9.147-8.686,10.5-7.54-.057-7.54-.057a14.894,14.894,0,0,0,4.871-8.8s8.77-6,11.355-1.644" transform="translate(-359.871 -610.657)" fill="#2a2b3a"/>
          <path id="Path_4542" data-name="Path 4542" d="M539.754,814.677a7.764,7.764,0,0,1,3.587,2.8,12.6,12.6,0,0,1,1.692,7.158s2.582-6.217-.32-9.734c-3.076-3.729-4.959-.227-4.959-.227" transform="translate(-407.026 -613.22)" fill="#2a2b3a"/>
          <path id="Path_4543" data-name="Path 4543" d="M476.241,1099.657a8.508,8.508,0,0,1,2.975-.406c1.192.167,2.074-.024,2.074.31s-1.539.49-1.866.65a16.227,16.227,0,0,1-3.183-.554" transform="translate(-359.131 -828.917)" fill="#ffb27d"/>
          <path id="Path_4544" data-name="Path 4544" d="M399.245,923.968s-8.885.623-12.29,8.9-9.867,22.179-9.867,24.518,3.609,9.547,22.994,13.692c0,0,2.005-2.109,1.884-3.777,0,0-12.1-10.394-12.068-11.608.061-2.3,1.984-5.331,12.608-15.959,2.889-2.889-3.26-15.767-3.26-15.767" transform="translate(-284.359 -696.76)" fill="#8686a5"/>
          <path id="Path_4545" data-name="Path 4545" d="M947.443,637.079h-96.01a8.755,8.755,0,0,0-6.191,2.564l-67.889,67.889a8.756,8.756,0,0,0-2.564,6.191v96.01a8.754,8.754,0,0,0,2.564,6.19l67.889,67.889a8.755,8.755,0,0,0,6.191,2.564h96.01a8.755,8.755,0,0,0,6.191-2.564l67.889-67.889a8.754,8.754,0,0,0,2.564-6.19v-96.01a8.755,8.755,0,0,0-2.564-6.191l-67.889-67.889a8.755,8.755,0,0,0-6.191-2.564" transform="translate(-584.264 -480.419)" fill="#363647"/>
          <path id="Path_4546" data-name="Path 4546" d="M978.959,912.167h-82.5a12.5,12.5,0,0,1-8.9-3.684l-58.337-58.338a12.5,12.5,0,0,1-3.685-8.9v-82.5a12.5,12.5,0,0,1,3.685-8.9l58.337-58.337a12.5,12.5,0,0,1,8.9-3.685h82.5a12.5,12.5,0,0,1,8.9,3.685l58.337,58.337a12.5,12.5,0,0,1,3.685,8.9v82.5a12.5,12.5,0,0,1-3.685,8.9l-58.337,58.337a12.5,12.5,0,0,1-8.9,3.685m-82.5-215.783a4,4,0,0,0-2.847,1.18L835.273,755.9a4,4,0,0,0-1.179,2.847v82.5a4,4,0,0,0,1.179,2.847l58.337,58.338a4,4,0,0,0,2.847,1.179h82.5a4,4,0,0,0,2.848-1.179l58.337-58.337a4,4,0,0,0,1.179-2.847v-82.5a4,4,0,0,0-1.179-2.847l-58.337-58.337a4,4,0,0,0-2.848-1.179Z" transform="translate(-622.534 -518.689)" fill="#8686a5"/>
          <path id="icons8-user_clock" d="M49.571,5.1a30.312,30.312,0,0,0-30.5,30.5A29.853,29.853,0,0,0,32.577,60.874C16.891,66.974,6,82.658,6,100.522h8.714A34.959,34.959,0,0,1,49.571,65.665a33.855,33.855,0,0,1,6.97.868c.2-.272.468-.507.681-.774A35,35,0,1,0,73.357,54.44,30.314,30.314,0,0,0,49.571,5.1Zm0,8.28A21.574,21.574,0,0,1,71.357,35.165a21.786,21.786,0,0,1-43.571,0A21.574,21.574,0,0,1,49.571,13.38ZM63.842,59.419c-.124.092-.251.179-.374.272C63.593,59.6,63.716,59.509,63.842,59.419Zm20.586,1.889A26.143,26.143,0,1,1,58.285,87.451,26.22,26.22,0,0,1,84.428,61.308Zm-23.973.936c-.537.511-1.054,1.039-1.557,1.583C59.4,63.285,59.91,62.757,60.455,62.244ZM58.9,63.827l42.683,46.064H110.3L67.612,63.827Z" transform="translate(252.531 211.241)" fill="#8686a5"/>
        </g>
      </g>
    </g>
    <path id="icons8-close" d="M7,4a1,1,0,0,0-.707.293l-2,2a1,1,0,0,0,0,1.414L11.586,15,4.293,22.293a1,1,0,0,0,0,1.414l2,2a1,1,0,0,0,1.414,0L15,18.414l7.293,7.293a1,1,0,0,0,1.414,0l2-2a1,1,0,0,0,0-1.414L18.414,15l7.293-7.293a1,1,0,0,0,0-1.414l-2-2a1,1,0,0,0-1.414,0L15,11.586,7.707,4.293A1,1,0,0,0,7,4Z" transform="translate(352.045 83.859)" fill="#63637f"/>
    <path id="icons8-close-2" data-name="icons8-close" d="M6.153,4a.714.714,0,0,0-.507.21L4.21,5.645a.717.717,0,0,0,0,1.015l5.233,5.233L4.21,17.127a.717.717,0,0,0,0,1.015l1.435,1.435a.717.717,0,0,0,1.015,0l5.233-5.233,5.233,5.233a.717.717,0,0,0,1.015,0l1.435-1.435a.717.717,0,0,0,0-1.015l-5.233-5.233L19.576,6.66a.717.717,0,0,0,0-1.015L18.141,4.21a.717.717,0,0,0-1.015,0L11.893,9.443,6.66,4.21A.715.715,0,0,0,6.153,4Z" transform="translate(46.152 286.966)" fill="#63637f" opacity="0.3"/>
  </g>
</svg>
