<svg xmlns="http://www.w3.org/2000/svg" width="128.726" height="117.999" viewBox="0 0 128.726 117.999">
  <path id="icons8-group_task" d="M53.06,6a7.179,7.179,0,0,0-7.151,7.151V32.818a7.179,7.179,0,0,0,7.151,7.151h1.788v9.065l9.065-9.065H85.242a7.179,7.179,0,0,0,7.151-7.151V13.151A7.179,7.179,0,0,0,85.242,6Zm0,3.576H85.242a3.552,3.552,0,0,1,3.576,3.576V32.818a3.552,3.552,0,0,1-3.576,3.576H62.432L58.424,40.4V36.394H53.06a3.552,3.552,0,0,1-3.576-3.576V13.151A3.552,3.552,0,0,1,53.06,9.576ZM28.03,41.757a14.3,14.3,0,1,0,14.3,14.3V54.272H41.97A14.167,14.167,0,0,0,28.03,41.757Zm78.666,0A14.291,14.291,0,1,0,121,56.06V54.272h-.363A14.167,14.167,0,0,0,106.7,41.757ZM28.03,45.333A10.727,10.727,0,1,1,17.3,56.06,10.7,10.7,0,0,1,28.03,45.333Zm78.666,0A10.727,10.727,0,1,1,95.969,56.06a10.96,10.96,0,0,1,.056-1.1A10.694,10.694,0,0,1,106.7,45.333ZM67.363,54.272A16.091,16.091,0,1,0,83.454,70.363V68.575H83.09A15.951,15.951,0,0,0,67.363,54.272Zm0,3.576A12.515,12.515,0,1,1,54.848,70.363,12.489,12.489,0,0,1,67.363,57.848ZM28.03,73.939A25.118,25.118,0,0,0,3,98.969v7.151H42.815a26.524,26.524,0,0,0-2.27,10.727V124H94.181v-7.151a26.524,26.524,0,0,0-2.27-10.727h39.815V98.969a25,25,0,0,0-49.6-4.463,26.584,26.584,0,0,0-29.528,0A25.084,25.084,0,0,0,28.03,73.939Zm0,3.576A21.476,21.476,0,0,1,49.345,97.076a27.113,27.113,0,0,0-4.6,5.468H6.576V98.969A21.512,21.512,0,0,1,28.03,77.514Zm78.666,0A21.512,21.512,0,0,1,128.15,98.969v3.576H89.984a27.113,27.113,0,0,0-4.6-5.468A21.476,21.476,0,0,1,106.7,77.514ZM67.363,93.605a23.3,23.3,0,0,1,23.242,23.242v3.576H44.121v-3.576A23.3,23.3,0,0,1,67.363,93.605ZM10.151,95.393a1.788,1.788,0,1,0,1.788,1.788A1.791,1.791,0,0,0,10.151,95.393Zm7.151,0a1.788,1.788,0,1,0,1.788,1.788A1.791,1.791,0,0,0,17.3,95.393Zm7.151,0a1.788,1.788,0,1,0,1.788,1.788A1.791,1.791,0,0,0,24.454,95.393Zm7.151,0a1.788,1.788,0,1,0,1.788,1.788A1.791,1.791,0,0,0,31.606,95.393Zm7.151,0a1.788,1.788,0,1,0,1.788,1.788A1.791,1.791,0,0,0,38.757,95.393Zm7.151,0A1.788,1.788,0,1,0,47.7,97.181,1.791,1.791,0,0,0,45.909,95.393Zm42.909,0a1.788,1.788,0,1,0,1.788,1.788A1.791,1.791,0,0,0,88.817,95.393Zm7.151,0a1.788,1.788,0,1,0,1.788,1.788A1.791,1.791,0,0,0,95.969,95.393Zm7.151,0a1.788,1.788,0,1,0,1.788,1.788A1.791,1.791,0,0,0,103.12,95.393Zm7.151,0a1.788,1.788,0,1,0,1.788,1.788A1.791,1.791,0,0,0,110.272,95.393Zm7.151,0a1.788,1.788,0,1,0,1.788,1.788A1.791,1.791,0,0,0,117.423,95.393Zm7.151,0a1.788,1.788,0,1,0,1.788,1.788A1.791,1.791,0,0,0,124.574,95.393Zm-75.09,17.879a1.788,1.788,0,1,0,1.788,1.788A1.791,1.791,0,0,0,49.484,113.272Zm7.151,0a1.788,1.788,0,1,0,1.788,1.788A1.791,1.791,0,0,0,56.636,113.272Zm7.151,0a1.788,1.788,0,1,0,1.788,1.788A1.791,1.791,0,0,0,63.787,113.272Zm7.151,0a1.788,1.788,0,1,0,1.788,1.788A1.791,1.791,0,0,0,70.939,113.272Zm7.151,0a1.788,1.788,0,1,0,1.788,1.788A1.791,1.791,0,0,0,78.09,113.272Zm7.151,0a1.788,1.788,0,1,0,1.788,1.788A1.791,1.791,0,0,0,85.242,113.272Z" transform="translate(-3 -6)" fill="#4e4e5f"/>
</svg>
