<svg width="245" height="182" viewBox="0 0 245 182" fill="none" xmlns="http://www.w3.org/2000/svg">
<g id="no_media_dark 1" opacity="0.5" clip-path="url(#clip0_2673_1643)">
<g id="no_media" opacity="0.603">
<g id="Clip path group">
<mask id="mask0_2673_1643" style="mask-type:luminance" maskUnits="userSpaceOnUse" x="0" y="0" width="245" height="182">
<g id="clip-path">
<path id="Rectangle 249" d="M244.095 0H0V181.282H244.095V0Z" fill="white"/>
</g>
</mask>
<g mask="url(#mask0_2673_1643)">
<g id="Group 431">
<g id="Group 430">
<g id="Clip path group_2">
<mask id="mask1_2673_1643" style="mask-type:luminance" maskUnits="userSpaceOnUse" x="0" y="0" width="245" height="182">
<g id="clip-path_2">
<path id="Rectangle 249_2" d="M244.095 0H0V181.282H244.095V0Z" fill="white"/>
</g>
</mask>
<g mask="url(#mask1_2673_1643)">
<g id="Group 429">
<path id="Path 2770" d="M35.318 69.6329L18.83 80.4729C18.559 80.6511 18.2556 80.7742 17.9371 80.8351C17.6185 80.896 17.2911 80.8935 16.9735 80.8279C16.656 80.7622 16.3544 80.6346 16.0861 80.4524C15.8179 80.2702 15.5881 80.0369 15.41 79.7659L0.410004 56.9449C0.0503874 56.3976 -0.0771523 55.7299 0.0554267 55.0885C0.188006 54.4472 0.56985 53.8848 1.117 53.5249L11.57 46.6499L25.149 49.6719L36.025 66.2139C36.3846 66.7611 36.5121 67.4286 36.3795 68.0698C36.2469 68.711 35.8651 69.2732 35.318 69.6329Z" fill="#3F3F49"/>
<path id="Path 2771" d="M11.57 46.6509L15.793 53.0739C16.1281 53.582 16.651 53.9366 17.247 54.06C17.8431 54.1833 18.4638 54.0653 18.973 53.7319L25.149 49.6719L11.57 46.6509Z" fill="#3F3F49"/>
<path id="Path 2772" d="M16.247 53.5821C16.5707 54.0657 17.0498 54.4241 17.605 54.5982C18.1602 54.7722 18.7582 54.7514 19.3 54.5391C19.3791 54.5141 19.4569 54.4851 19.533 54.4521C20.433 54.0661 26.364 51.5201 26.283 51.3981C26.202 51.2761 25.149 49.6721 25.149 49.6721L18.973 53.7321C18.5594 53.9937 18.0746 54.1198 17.586 54.0929C17.0974 54.066 16.6294 53.8875 16.247 53.5821Z" fill="#3F3F49"/>
<path id="Path 2773" d="M14.238 53.7209C13.0699 54.7018 11.8271 55.5901 10.521 56.3779C9.28086 57.2648 7.9732 58.0532 6.61002 58.7359C7.77751 57.7552 9.01959 56.8668 10.325 56.0789C11.5655 55.1916 12.8739 54.4032 14.238 53.7209Z" fill="#B7B7B7"/>
<path id="Path 2774" d="M21.552 54.1129C21.605 54.1959 18.84 56.1129 15.373 58.3889C11.906 60.6649 9.05199 62.4489 8.99999 62.3669C8.94799 62.2849 11.711 60.3669 15.18 58.0899C18.649 55.8129 21.5 54.0299 21.555 54.1129" fill="#B7B7B7"/>
<path id="Path 2775" d="M24.676 56.4C24.73 56.483 21.71 58.564 17.932 61.048C14.154 63.532 11.045 65.48 10.991 65.397C10.937 65.314 13.956 63.234 17.735 60.749C21.514 58.264 24.622 56.317 24.676 56.4Z" fill="#B7B7B7"/>
<path id="Path 2776" d="M26.557 59.2631C26.611 59.3461 23.592 61.4271 19.813 63.9111C16.034 66.3951 12.926 68.3431 12.872 68.2601C12.818 68.1771 15.837 66.0971 19.616 63.6121C23.395 61.1271 26.503 59.1801 26.557 59.2631Z" fill="#B7B7B7"/>
<path id="Path 2777" d="M28.438 62.1241C28.492 62.2071 25.473 64.2881 21.694 66.7721C17.915 69.2561 14.807 71.2041 14.753 71.1211C14.699 71.0381 17.718 68.9581 21.497 66.4731C25.276 63.9881 28.384 62.0421 28.438 62.1241Z" fill="#B7B7B7"/>
<path id="Path 2778" d="M30.319 64.9849C30.373 65.0679 27.353 67.1489 23.575 69.6329C19.797 72.1169 16.688 74.0649 16.634 73.9819C16.58 73.8989 19.599 71.8199 23.378 69.3349C27.157 66.8499 30.265 64.9029 30.319 64.9849Z" fill="#B7B7B7"/>
<path id="Path 2779" d="M74.416 72.5089L50.733 59.4999C50.3439 59.2859 50.0009 58.9974 49.7233 58.6508C49.4458 58.3042 49.2392 57.9064 49.1154 57.48C48.9916 57.0536 48.9531 56.607 49.0019 56.1656C49.0507 55.7243 49.186 55.2969 49.4 54.9079L67.4 22.1279C67.6137 21.7375 67.9024 21.3932 68.2495 21.1147C68.5966 20.8362 68.9952 20.6289 69.4226 20.5048C69.85 20.3807 70.2976 20.3421 70.7399 20.3914C71.1822 20.4407 71.6104 20.5768 72 20.7919L87.02 29.0429L92.06 47.4139L79.007 71.1739C78.5752 71.9597 77.8489 72.5418 76.9879 72.7921C76.127 73.0425 75.2018 72.9406 74.416 72.5089Z" fill="#3F3F49"/>
<path id="Path 2780" d="M87.016 29.043L81.948 38.269C81.5466 38.9999 81.4519 39.8604 81.6848 40.6611C81.9178 41.4619 82.4592 42.1373 83.19 42.539L92.06 47.413L87.016 29.043Z" fill="#3F3F49"/>
<path id="Path 2781" d="M81.624 39.1449C81.2471 39.8468 81.121 40.6563 81.2665 41.4396C81.4119 42.2229 81.8203 42.9331 82.424 43.4529C82.505 43.533 82.5905 43.6084 82.68 43.6789C83.724 44.5229 90.604 50.0679 90.7 49.8929L92.062 47.4129L83.188 42.5399C83.188 42.5399 81.015 41.2479 81.624 39.1399" fill="#3F3F49"/>
<path id="Path 2782" d="M80.169 36.8C78.2319 36.017 76.3595 35.0828 74.569 34.006C72.7007 33.0727 70.9082 31.9948 69.208 30.782C71.1446 31.5661 73.0169 32.5003 74.808 33.576C76.6755 34.5102 78.4685 35.5881 80.169 36.8Z" fill="#B7B7B7"/>
<path id="Path 2783" d="M84.38 45.9C84.315 46.019 80.225 43.9 75.246 41.162C70.267 38.424 66.282 36.112 66.346 35.994C66.41 35.876 70.5 37.994 75.481 40.732C80.462 43.47 84.443 45.781 84.38 45.9Z" fill="#B7B7B7"/>
<path id="Path 2784" d="M83.611 51.1531C83.546 51.2721 79.092 48.9531 73.665 45.9691C68.238 42.9851 63.889 40.4691 63.954 40.3551C64.019 40.2411 68.472 42.5551 73.901 45.5391C79.33 48.5231 83.676 51.0391 83.611 51.1531Z" fill="#B7B7B7"/>
<path id="Path 2785" d="M81.354 55.262C81.288 55.381 76.834 53.062 71.407 50.078C65.98 47.094 61.632 44.578 61.696 44.464C61.76 44.35 66.215 46.664 71.643 49.649C77.071 52.634 81.418 55.149 81.354 55.262Z" fill="#B7B7B7"/>
<path id="Path 2786" d="M79.1 59.3721C79.035 59.4911 74.581 57.1721 69.154 54.1881C63.727 51.2041 59.378 48.6881 59.443 48.5741C59.508 48.4601 63.961 50.7741 69.39 53.7581C74.819 56.7421 79.165 59.2581 79.1 59.3721Z" fill="#B7B7B7"/>
<path id="Path 2787" d="M76.839 63.481C76.773 63.6 72.319 61.281 66.892 58.297C61.465 55.313 57.117 52.797 57.181 52.683C57.245 52.569 61.7 54.883 67.128 57.867C72.556 60.851 76.903 63.362 76.839 63.481Z" fill="#B7B7B7"/>
<path id="Path 2788" d="M153.753 42.816L125.089 53.839C124.138 54.2048 123.08 54.1777 122.149 53.7639C121.218 53.35 120.489 52.5831 120.123 51.632L104.866 11.957C104.5 11.0058 104.527 9.94825 104.941 9.01697C105.355 8.08569 106.122 7.35694 107.073 6.991L125.252 0L144.9 9.093L155.96 37.85C156.141 38.321 156.228 38.823 156.215 39.3275C156.202 39.832 156.09 40.329 155.885 40.7902C155.68 41.2514 155.387 41.6676 155.021 42.0152C154.655 42.3628 154.224 42.6349 153.753 42.816Z" fill="#3F3F49"/>
<path id="Path 2789" d="M125.252 0L129.546 11.166C129.714 11.6041 129.967 12.0047 130.291 12.345C130.614 12.6852 131.001 12.9585 131.43 13.1491C131.859 13.3398 132.321 13.4441 132.79 13.4561C133.259 13.4681 133.726 13.3875 134.164 13.219L144.9 9.092L125.252 0Z" fill="#3F3F49"/>
<path id="Path 2790" d="M130.069 12.09C130.401 12.9326 131.011 13.6365 131.798 14.0852C132.584 14.5338 133.501 14.7003 134.395 14.557C134.524 14.5449 134.651 14.5262 134.778 14.501C136.278 14.212 146.136 12.301 146.055 12.093L144.901 9.09302L134.164 13.221C134.164 13.221 131.449 14.161 130.064 12.09" fill="#3F3F49"/>
<path id="Path 2791" d="M126.967 11.635C124.866 12.7396 122.683 13.6791 120.437 14.445C118.256 15.3819 116.006 16.1476 113.706 16.735C115.806 15.6291 117.99 14.6895 120.237 13.925C122.417 12.9873 124.667 12.2217 126.967 11.635Z" fill="#B7B7B7"/>
<path id="Path 2792" d="M137.959 14.654C138.014 14.799 133.173 16.794 127.147 19.111C121.121 21.428 116.189 23.191 116.133 23.048C116.077 22.905 120.919 20.91 126.947 18.592C132.975 16.274 137.904 14.512 137.959 14.654Z" fill="#B7B7B7"/>
<path id="Path 2793" d="M141.952 19.1701C142.007 19.3141 136.725 21.4781 130.157 24.0041C123.589 26.5301 118.216 28.4631 118.157 28.3191C118.098 28.1751 123.382 26.0121 129.957 23.4851C136.532 20.9581 141.897 19.0271 141.952 19.1701Z" fill="#B7B7B7"/>
<path id="Path 2794" d="M143.865 24.1439C143.92 24.2879 138.639 26.4519 132.07 28.9779C125.501 31.5039 120.129 33.4369 120.07 33.2929C120.011 33.1489 125.295 30.9859 131.87 28.4589C138.445 25.9319 143.81 24.0009 143.87 24.1439" fill="#B7B7B7"/>
<path id="Path 2795" d="M145.778 29.1181C145.833 29.2621 140.552 31.4261 133.983 33.9521C127.414 36.4781 122.042 38.4111 121.983 38.2671C121.924 38.1231 127.208 35.9601 133.783 33.4331C140.358 30.9061 145.723 28.9751 145.778 29.1181Z" fill="#B7B7B7"/>
<path id="Path 2796" d="M147.69 34.0919C147.745 34.2349 142.463 36.3999 135.895 38.9259C129.327 41.4519 123.954 43.3849 123.895 43.2409C123.836 43.0969 129.12 40.9339 135.695 38.4069C142.27 35.8799 147.635 33.9489 147.69 34.0919Z" fill="#B7B7B7"/>
<path id="Path 2797" d="M167.332 100.4C163.619 98.0737 159.423 96.6294 155.065 96.178C153.06 95.972 150.865 96.03 149.265 97.245C149.079 97.3511 148.925 97.5056 148.819 97.692C148.714 97.8784 148.66 98.0898 148.665 98.304C148.759 98.6071 148.96 98.8652 149.232 99.029C151.837 100.887 154.9 101.997 158.091 102.238C161.281 102.48 164.477 101.844 167.332 100.4Z" fill="#3F3F49"/>
<path id="Path 2798" d="M167.018 100.057C164.177 97.9712 161.526 95.6385 159.095 93.086C156.656 90.5165 154.942 87.3466 154.127 83.899C153.966 83.3886 153.918 82.8495 153.986 82.3188C154.054 81.7881 154.236 81.2785 154.52 80.825C160.836 85.758 165.797 92.137 167.02 100.057" fill="#3F3F49"/>
<path id="Path 2799" d="M167.267 100.357C166.681 96.9105 166.73 93.3857 167.414 89.957C168.12 86.5024 170.097 83.4388 172.955 81.373C174.046 83.924 173.577 86.863 172.808 89.529C171.616 93.6574 169.76 97.5644 167.314 101.097" fill="#3F3F49"/>
<path id="Path 2800" d="M173.458 111.451C169.741 112.049 166.303 113.789 163.62 116.43C160.799 118.997 158.834 122.369 157.993 126.09C161.679 125.862 164.807 123.263 167.075 120.348C169.343 117.433 170.915 114.234 173.407 111.508" fill="#3F3F49"/>
<path id="Path 2801" d="M174.8 113.225C173.32 109.468 172.801 105.402 173.29 101.394C173.779 97.3862 175.261 93.5637 177.6 90.2729C179.741 97.8899 178.955 106.493 174.8 113.225Z" fill="#3F3F49"/>
<path id="Path 2802" d="M182.984 122.966C179.549 122.753 176.127 123.555 173.144 125.272C170.161 126.989 167.749 129.545 166.208 132.623C165.999 133.039 165.816 133.566 166.094 133.938C166.239 134.079 166.416 134.182 166.609 134.239C166.803 134.297 167.008 134.306 167.206 134.266C170.512 134.052 173.443 132.066 175.861 129.797C178.279 127.528 180.385 124.915 183.061 122.956" fill="#3F3F49"/>
<path id="Path 2803" d="M182.722 122.435C180.962 116.765 180.854 110.711 182.41 104.981C183.025 102.735 184.057 100.369 186.135 99.3161C186.218 99.2615 186.312 99.2245 186.41 99.2073C186.508 99.1901 186.608 99.1931 186.705 99.2161C186.873 99.3046 187.002 99.4536 187.065 99.6331C187.763 101.205 188.064 102.924 187.943 104.64C187.82 106.349 187.558 108.044 187.158 109.71C186.504 112.81 186.158 116.137 184.458 118.81C184.057 119.454 183.696 120.122 183.378 120.81C183.056 121.49 183.053 121.729 182.759 122.269" fill="#3F3F49"/>
<path id="Path 2804" d="M204.376 125.662C203.651 122.477 203.629 119.172 204.31 115.977C204.991 112.783 206.359 109.775 208.32 107.162C208.603 106.793 208.979 106.398 209.441 106.441C210.149 106.507 210.333 107.451 210.301 108.161C210.009 114.435 207.956 120.501 204.376 125.662Z" fill="#3F3F49"/>
<path id="Path 2805" d="M206.329 127C210.116 127.892 214.052 127.953 217.865 127.177C221.678 126.402 225.277 124.809 228.415 122.508C224.719 120.651 220.494 120.132 216.459 121.041C212.465 121.954 208.815 123.741 206.329 127Z" fill="#3F3F49"/>
<path id="Path 2806" d="M207.975 122.933C210.166 119.558 213.124 116.748 216.608 114.734C220.091 112.72 224.002 111.557 228.02 111.342C227.106 114.569 224.455 117.076 221.464 118.591C218.402 119.968 215.164 120.915 211.842 121.405C210.561 121.654 208.805 121.927 207.975 122.933Z" fill="#3F3F49"/>
<path id="Path 2807" d="M204.789 103.216C206.046 99.4018 206.905 95.4679 207.353 91.477C207.793 87.4576 206.976 83.4006 205.014 79.865C201.136 87.37 200.743 96.139 204.672 103.619" fill="#3F3F49"/>
<path id="Path 2808" d="M217.848 96.616C222.384 88.372 231.638 81.787 241.002 80.864C237.389 89.858 227.538 96.809 217.848 96.616Z" fill="#3F3F49"/>
<path id="Path 2809" d="M214.994 98.2319C221.758 99.2619 227.522 103.583 233.844 106.202C235.169 106.84 236.638 107.122 238.105 107.018C238.787 107.009 239.45 106.791 240.005 106.394C240.559 105.997 240.978 105.439 241.206 104.796C241.433 104.153 241.458 103.455 241.277 102.798C241.096 102.14 240.718 101.554 240.193 101.118C239.297 100.291 238.245 99.6527 237.098 99.2399C230.213 96.3739 222.829 96.3019 215.576 98.0399" fill="#3F3F49"/>
<path id="Path 2810" d="M211.079 102.976C212.61 103.415 213.134 104.207 214.346 105.24C218.482 108.755 223.374 111.268 228.64 112.583C229.186 112.719 229.903 112.773 230.173 112.283C230.41 111.852 230.11 111.331 229.804 110.947C227.506 108.253 224.525 106.229 221.173 105.088C217.873 103.859 215.016 102.379 211.079 102.697" fill="#3F3F49"/>
<path id="Path 2811" d="M206.662 74.321C209.436 76.8779 212.714 78.8265 216.285 80.0417C219.856 81.2568 223.642 81.7117 227.4 81.377C227.745 81.3827 228.081 81.2622 228.344 81.038C228.866 80.47 228.244 79.594 227.632 79.12C221.532 74.366 214.149 72.395 206.661 74.32" fill="#3F3F49"/>
<path id="Path 2812" d="M211.9 72.4001C215.571 69.6982 219.83 67.9029 224.327 67.1608C228.825 66.4187 233.434 66.7508 237.779 68.1301C234.393 71.2689 230.049 73.1761 225.447 73.5441C220.899 73.9584 216.314 73.5712 211.9 72.4001Z" fill="#3F3F49"/>
<path id="Path 2813" d="M209.818 59.2359C209.218 53.1499 209.608 48.3459 209.185 42.2309C209.152 41.7429 209.047 41.1549 208.585 40.9789C207.948 40.7339 207.418 41.5159 207.209 42.1649C206.324 44.9996 206.097 47.9991 206.548 50.9344C206.999 53.8698 208.114 56.6634 209.809 59.1019" fill="#3F3F49"/>
<path id="Path 2814" d="M209.38 59.9089C213.355 57.341 216.782 54.01 219.461 50.1089C221.453 47.3839 223.131 44.1199 222.679 40.7759C221.277 40.8131 219.901 41.1555 218.645 41.7791C217.389 42.4027 216.284 43.2926 215.407 44.3869C213.669 46.59 212.406 49.1299 211.7 51.8459C210.892 54.5239 210.327 57.2749 209.38 59.9069" fill="#3F3F49"/>
<path id="Path 2815" d="M219.285 57.1571C228.362 53.7968 236.765 48.8427 244.1 42.5281C241.137 41.3341 237.743 42.0481 234.781 43.2441C228.055 45.7924 222.497 50.7192 219.161 57.0911" fill="#3F3F49"/>
<path id="Path 2816" d="M212.165 63.238C216.733 63.8906 221.368 63.9132 225.942 63.305C230.408 62.559 234.629 60.788 238.803 59.032C239.167 58.928 239.479 58.691 239.676 58.368C239.743 58.1746 239.748 57.9655 239.692 57.7688C239.636 57.5722 239.521 57.3974 239.363 57.268C239.041 57.0138 238.665 56.8379 238.263 56.754C233.65 55.6398 228.81 55.9288 224.363 57.584C220.11 59.0384 216.022 60.9333 212.163 63.238" fill="#3F3F49"/>
<path id="Path 2817" d="M186.013 74.5291C184.538 71.378 183.755 67.9476 183.717 64.4687C183.679 60.9897 184.386 57.5429 185.791 54.3601C187.691 57.2601 187.923 60.9431 187.575 64.3881C187.227 67.8331 186.175 71.3801 186.111 74.8421" fill="#3F3F49"/>
<path id="Path 2818" d="M173.53 68.2329C169.619 68.1816 165.74 68.9467 162.142 70.4791C158.543 72.0116 155.303 74.2777 152.63 77.1329C156.572 77.6047 160.565 76.8645 164.076 75.0109C167.56 73.1602 170.846 70.9602 173.885 68.4449" fill="#3F3F49"/>
<path id="Path 2819" d="M165.137 65.4259C161.32 65.1169 157.648 64.6439 153.978 65.7689C152.126 66.2895 150.408 67.2031 148.942 68.4475C147.475 69.6919 146.293 71.2378 145.478 72.9799C149.078 73.2678 152.689 72.584 155.935 70.9999C159.162 69.4185 162.241 67.5514 165.135 65.4209" fill="#3F3F49"/>
<path id="Path 2820" d="M177.564 65.5541C174.13 63.3041 170.604 61.0151 166.607 60.0821C162.61 59.1491 157.975 59.8391 155.189 62.8521C158.424 64.7521 162.35 64.9761 166.104 64.9731C169.858 64.9701 174.456 64.9261 177.992 66.1781" fill="#3F3F49"/>
<path id="Path 2821" d="M177.584 65.7361C171.714 59.9721 169.484 49.6181 171.851 41.7361C176.485 48.8301 178.512 57.3135 177.584 65.7361Z" fill="#3F3F49"/>
<path id="Path 2822" d="M193.724 49.4C194.831 46.826 195.61 44.125 196.603 41.506C197.507 38.847 198.897 36.3791 200.703 34.228C202.539 32.0674 205.149 30.7142 207.973 30.46C207.07 34.4309 205.349 38.17 202.92 41.4383C200.491 44.7065 197.406 47.4321 193.864 49.441" fill="#3F3F49"/>
<path id="Path 2823" d="M190.8 52.8081C188.968 50.2861 186.851 46.8641 184.367 44.9821C181.883 43.1001 178.648 41.9601 175.616 42.6821C177.186 45.4338 179.376 47.7816 182.011 49.5394C184.647 51.2971 187.656 52.4163 190.8 52.8081Z" fill="#3F3F49"/>
<path id="Path 2824" d="M191.388 49.615C190.071 46.6083 189.098 43.4623 188.488 40.2369C187.886 36.983 188.405 33.6211 189.96 30.7C193.182 36.791 194.22 43.3289 191.552 49.6819" fill="#3F3F49"/>
<path id="Path 2825" d="M193.754 30.6999C195.579 24.6619 201.108 20.2169 207.077 18.1759C207.816 17.8736 208.617 17.7535 209.412 17.8259C209.809 17.8695 210.183 18.0291 210.49 18.2847C210.796 18.5403 211.02 18.8806 211.134 19.2629C211.352 20.2899 210.503 21.2109 209.705 21.8929C205.039 25.8774 199.612 28.8736 193.754 30.6999Z" fill="#3F3F49"/>
<path id="Path 2826" d="M193.82 25.764C194.052 21.871 194.295 17.922 195.561 14.233C196.827 10.544 199.268 7.08397 202.818 5.46997C203.418 9.40197 201.687 13.314 199.595 16.697C197.503 20.08 194.981 23.274 193.725 27.048" fill="#3F3F49"/>
<path id="Path 2827" d="M193.724 28.4441C192.216 24.0441 192.06 18.4541 189.424 14.6211C187.582 11.9411 184.632 10.1161 183.045 7.27808C182.088 10.0004 182.221 12.9875 183.416 15.6141C184.615 18.2106 186.265 20.5733 188.291 22.5921C190.241 24.6751 191.911 26.2411 193.724 28.4441Z" fill="#3F3F49"/>
<path id="Path 2828" d="M193.754 158.03C193.637 158.03 193.535 128.676 193.527 92.4729C193.519 56.2699 193.607 26.9109 193.727 26.9109C193.847 26.9109 193.946 56.2589 193.954 92.4729C193.962 128.687 193.874 158.03 193.754 158.03Z" fill="#3F3F49"/>
<path id="Path 2829" d="M219.406 70.0999C219.053 70.2719 218.685 70.4105 218.306 70.5139L215.269 71.5389C212.708 72.4119 209.19 73.6749 205.369 75.2389C201.588 76.8599 198.023 78.1779 195.992 79.9389C195.182 80.6149 194.537 81.4678 194.108 82.4319C193.817 83.1209 193.765 83.5419 193.726 83.5319C193.712 83.4293 193.716 83.325 193.739 83.2239C193.783 82.9327 193.855 82.6464 193.954 82.3689C194.338 81.3451 194.97 80.4323 195.793 79.7119C197.019 78.6755 198.39 77.8239 199.862 77.1839C201.489 76.4239 203.293 75.6319 205.208 74.8449C209.038 73.2759 212.584 72.0529 215.174 71.2519C216.468 70.8519 217.524 70.5519 218.257 70.3519C218.632 70.231 219.017 70.1453 219.408 70.0959" fill="#3F3F49"/>
<path id="Path 2830" d="M227.814 49.446C227.725 49.5685 227.621 49.6794 227.505 49.776C227.255 50.011 226.943 50.303 226.563 50.661L223.046 53.855L211.346 64.277C206.778 68.344 202.829 72.229 200.093 75.155C198.723 76.616 197.644 77.827 196.908 78.671L196.057 79.643C195.965 79.7629 195.858 79.871 195.74 79.965C195.807 79.8296 195.892 79.7032 195.991 79.589C196.169 79.353 196.427 79.001 196.781 78.566C197.481 77.686 198.527 76.443 199.872 74.952C203.405 71.0932 207.139 67.4241 211.06 63.96C215.644 59.903 219.816 56.26 222.848 53.631L226.454 50.537L227.448 49.712C227.559 49.6086 227.681 49.5192 227.814 49.446Z" fill="#3F3F49"/>
<path id="Path 2831" d="M206.411 68.4119C206.291 68.3589 207.246 66.1549 208.197 63.3679C209.148 60.5809 209.608 58.2299 209.73 58.2489C209.631 60.0476 209.249 61.8195 208.6 63.4999C208.192 64.7014 207.718 65.8793 207.179 67.0279C206.991 67.5222 206.733 67.9869 206.413 68.4079" fill="#3F3F49"/>
<path id="Path 2832" d="M193.781 86.1791C193.521 85.9312 193.286 85.6575 193.081 85.3621L191.281 83.0491C189.766 81.0911 187.672 78.3881 185.325 75.4291C182.978 72.4701 180.818 69.8171 179.255 67.8971L177.4 65.6161C177.159 65.3483 176.946 65.0565 176.764 64.7451C177.043 64.9732 177.298 65.2292 177.525 65.5091C177.996 66.0181 178.661 66.7681 179.473 67.7091C181.096 69.5811 183.293 72.2091 185.645 75.1701C187.997 78.1311 190.055 80.8701 191.509 82.8701C192.237 83.8701 192.816 84.6911 193.209 85.2651C193.43 85.5498 193.622 85.8564 193.78 86.1801" fill="#3F3F49"/>
<path id="Path 2833" d="M188.156 78.958C187.022 77.7025 186.213 76.1879 185.8 74.547C185.358 73.1081 185.177 71.6017 185.265 70.099L185.453 70.114C185.369 70.454 185.307 70.634 185.274 70.628C185.241 70.622 185.239 70.433 185.267 70.084L185.454 70.099C185.547 71.5643 185.799 73.0152 186.206 74.426C186.742 75.9831 187.394 77.4979 188.156 78.958Z" fill="#3F3F49"/>
<path id="Path 2834" d="M180.9 69.824C180.394 69.4377 179.841 69.1165 179.255 68.868C177.775 68.4281 176.218 68.3044 174.687 68.505C173.136 68.6249 171.597 68.8731 170.087 69.247C169.467 69.4421 168.835 69.5942 168.194 69.702C168.755 69.3652 169.364 69.1145 170 68.958C171.511 68.4923 173.071 68.1984 174.648 68.082C176.237 67.8699 177.853 68.0442 179.36 68.59C179.999 68.8112 180.541 69.2474 180.893 69.824" fill="#3F3F49"/>
<path id="Path 2835" d="M179.173 67.61C179.141 67.676 178.215 67.226 176.652 66.692C172.57 65.2947 168.199 64.9615 163.952 65.724C162.327 66.015 161.343 66.324 161.321 66.249C161.528 66.1204 161.754 66.0243 161.99 65.964C162.611 65.7461 163.246 65.5677 163.89 65.43C168.181 64.4896 172.654 64.8303 176.753 66.41C177.37 66.6441 177.971 66.917 178.553 67.227C178.777 67.3228 178.985 67.452 179.17 67.61" fill="#3F3F49"/>
<path id="Path 2836" d="M193.724 58.249C192.976 56.1621 192.362 54.0294 191.886 51.864C191.272 49.7333 190.796 47.5656 190.459 45.374C191.207 47.4616 191.822 49.5946 192.3 51.76C192.914 53.8904 193.39 56.0578 193.727 58.249" fill="#3F3F49"/>
<path id="Path 2837" d="M193.841 58.249C193.252 56.9285 192.572 55.651 191.804 54.426C190.941 53.2705 189.932 52.2307 188.804 51.332C189.232 51.4373 189.628 51.643 189.961 51.932C190.813 52.5539 191.553 53.3161 192.15 54.186C193.062 55.3687 193.645 56.7714 193.84 58.252" fill="#3F3F49"/>
<path id="Path 2838" d="M193.754 142.381C193.708 142.389 193.622 141.675 193.291 140.429C192.805 138.675 192.148 136.972 191.329 135.347C188.502 130.034 185.004 125.106 180.922 120.684C178.598 118.029 176.344 115.525 174.43 113.128C172.714 111.017 171.162 108.777 169.789 106.428C168.868 104.842 168.083 103.18 167.445 101.461C167.23 100.849 167.072 100.37 166.985 100.039C166.926 99.8751 166.885 99.705 166.865 99.5319C166.903 99.5199 167.116 100.204 167.6 101.401C168.292 103.086 169.111 104.716 170.048 106.278C171.45 108.588 173.016 110.793 174.735 112.878C176.656 115.252 178.914 117.741 181.241 120.401C185.351 124.846 188.836 129.83 191.6 135.216C192.403 136.868 193.023 138.603 193.451 140.389C193.563 140.875 193.65 141.366 193.711 141.861C193.744 142.032 193.758 142.207 193.754 142.381Z" fill="#3F3F49"/>
<path id="Path 2839" d="M216.934 116.2C216.544 116.453 216.138 116.681 215.719 116.882C214.621 117.501 213.568 118.197 212.568 118.965C211.093 120.114 209.71 121.376 208.43 122.739C206.977 124.274 205.481 126.056 203.954 127.965C200.901 131.796 198.045 135.186 196.335 137.892C195.467 139.234 194.835 140.365 194.423 141.159C194.228 141.581 194.004 141.99 193.754 142.382C193.773 142.262 193.81 142.146 193.866 142.038C193.957 141.819 194.079 141.491 194.274 141.086C194.807 139.932 195.411 138.811 196.082 137.731C198.401 134.245 200.919 130.896 203.623 127.7C205.153 125.787 206.668 124 208.147 122.469C209.453 121.104 210.872 119.852 212.388 118.725C213.413 117.969 214.503 117.304 215.643 116.736C216.043 116.536 216.374 116.41 216.591 116.316C216.699 116.26 216.814 116.221 216.934 116.2Z" fill="#3F3F49"/>
<path id="Path 2840" d="M217.388 124.693C216.542 124.88 215.684 125.005 214.82 125.066C212.758 125.279 210.719 125.681 208.73 126.266C206.764 126.905 204.921 127.873 203.278 129.128C202.021 130.099 201.428 130.903 201.37 130.856C201.459 130.637 201.588 130.437 201.75 130.265C202.149 129.765 202.598 129.307 203.088 128.896C204.714 127.54 206.585 126.511 208.6 125.863C210.615 125.261 212.691 124.892 214.79 124.763C215.653 124.659 216.523 124.634 217.39 124.689" fill="#3F3F49"/>
<path id="Path 2841" d="M202.119 129.922C201.985 129.846 203.142 128.078 204.04 125.701C204.882 123.301 205.079 121.201 205.23 121.223C205.295 121.681 205.281 122.147 205.188 122.6C205.061 123.707 204.81 124.796 204.439 125.846C204.049 126.888 203.55 127.886 202.95 128.823C202.736 129.234 202.455 129.605 202.119 129.923" fill="#3F3F49"/>
<path id="Path 2842" d="M224.441 93.4C224.313 93.4892 224.175 93.5624 224.03 93.618L222.823 94.167C222.295 94.394 221.653 94.681 220.93 95.062C220.207 95.443 219.358 95.822 218.477 96.351L217.077 97.151C216.591 97.43 216.111 97.762 215.599 98.082C214.567 98.708 213.532 99.482 212.428 100.267C207.699 103.789 203.574 108.055 200.213 112.9C199.463 114.031 198.727 115.092 198.137 116.145C197.837 116.667 197.519 117.159 197.257 117.654C196.995 118.149 196.748 118.625 196.508 119.081C196.008 119.981 195.653 120.839 195.308 121.581C194.963 122.323 194.687 122.967 194.478 123.503C194.273 124.003 194.105 124.403 193.971 124.728C193.922 124.875 193.855 125.015 193.771 125.146C193.794 124.992 193.835 124.842 193.895 124.699C194.009 124.368 194.152 123.952 194.328 123.444C194.514 122.897 194.758 122.234 195.095 121.486C195.432 120.738 195.764 119.863 196.248 118.95L196.977 117.502C197.233 117.002 197.543 116.502 197.841 115.971C198.423 114.903 199.153 113.828 199.899 112.683C203.248 107.772 207.407 103.467 212.199 99.951C213.318 99.166 214.367 98.401 215.415 97.783C215.934 97.467 216.422 97.14 216.915 96.866L218.338 96.089C219.238 95.574 220.094 95.205 220.838 94.849C221.582 94.493 222.228 94.22 222.768 94.016L224 93.535C224.141 93.4709 224.29 93.4242 224.442 93.396" fill="#3F3F49"/>
<path id="Path 2843" d="M206.1 105.688C206.271 105.095 206.624 104.57 207.109 104.188C208.238 103.207 209.677 102.654 211.173 102.628C212.64 102.622 214.093 102.906 215.45 103.464C216.025 103.645 216.571 103.909 217.068 104.25C216.482 104.134 215.908 103.967 215.352 103.75C214.011 103.292 212.604 103.057 211.187 103.055C209.781 103.086 208.421 103.563 207.304 104.418C206.873 104.813 206.472 105.239 206.104 105.693" fill="#3F3F49"/>
<path id="Path 2844" d="M203.354 108.517C203.899 107.32 204.286 106.058 204.508 104.762C204.591 103.45 204.504 102.132 204.249 100.842C204.495 101.162 204.658 101.538 204.726 101.936C205.223 103.827 204.989 105.836 204.07 107.562C203.711 108.211 203.395 108.546 203.354 108.517Z" fill="#3F3F49"/>
<path id="Path 2845" d="M173.48 146.587C174.113 157.805 177.493 169.214 182.693 180.749H205.3C210.258 169.329 213.4 157.937 213.965 146.587H173.48Z" fill="#3F3F49"/>
<path id="Path 2846" d="M210.3 164.74C210.3 164.857 202.855 164.952 193.674 164.952C184.493 164.952 177.046 164.852 177.046 164.74C177.046 164.628 184.489 164.528 193.674 164.528C202.859 164.528 210.3 164.628 210.3 164.74Z" fill="#B7B7B7"/>
<path id="Path 2847" d="M209.8 168.8C209.8 168.917 202.821 169.012 194.213 169.012C185.605 169.012 178.625 168.912 178.625 168.8C178.625 168.688 185.603 168.588 194.213 168.588C202.823 168.588 209.8 168.688 209.8 168.8Z" fill="#B7B7B7"/>
<path id="Path 2848" d="M183.057 153.953C183.268 155.68 183.339 157.422 183.269 159.161C183.339 160.9 183.268 162.642 183.057 164.369C182.846 162.642 182.775 160.9 182.845 159.161C182.775 157.422 182.846 155.68 183.057 153.953Z" fill="#B7B7B7"/>
<path id="Path 2849" d="M195.172 153.953C195.383 155.742 195.454 157.546 195.384 159.346C195.454 161.147 195.383 162.95 195.172 164.74C194.961 162.95 194.89 161.147 194.96 159.346C194.89 157.546 194.961 155.742 195.172 153.953Z" fill="#B7B7B7"/>
<path id="Path 2850" d="M206.545 153.862C206.756 155.687 206.827 157.526 206.757 159.362C206.827 161.198 206.756 163.037 206.545 164.862C206.334 163.037 206.263 161.198 206.333 159.362C206.263 157.526 206.334 155.687 206.545 153.862Z" fill="#B7B7B7"/>
<path id="Path 2851" d="M213.251 153.953C213.251 154.07 204.519 154.165 193.751 154.165C182.983 154.165 174.251 154.07 174.251 153.953C174.251 153.836 182.981 153.741 193.751 153.741C204.521 153.741 213.251 153.841 213.251 153.953Z" fill="#B7B7B7"/>
<path id="Rectangle 242" d="M186.341 82.239H33.916V181.282H186.341V82.239Z" fill="#4A4A54"/>
<path id="Rectangle 243" d="M186.341 82.239H146.059V181.282H186.341V82.239Z" fill="#3F3F49"/>
<path id="Path 2852" d="M146.059 82.239L169.099 109.353H207.168L186.341 82.239H146.059Z" fill="#4A4A54"/>
<path id="Path 2853" d="M33.917 82.239L2.612 109.353H121.052L146.06 82.239H33.917Z" fill="#4A4A54"/>
<path id="Path 2854" d="M146.059 82.239C146.059 82.239 145.917 82.42 145.622 82.753L144.307 84.217L139.274 89.746C134.905 94.51 128.674 101.302 121.18 109.472L121.128 109.529H121.051L79.728 109.593L24.418 109.577L7.65701 109.524L3.10001 109.489L1.91501 109.469C1.64801 109.463 1.51501 109.448 1.51501 109.448C1.51501 109.448 1.65201 109.434 1.91501 109.427L3.10001 109.4L7.65701 109.358L24.418 109.279L79.728 109.179H121.051L120.922 109.235L139.122 89.609L144.227 84.146L145.58 82.717C145.888 82.396 146.057 82.24 146.057 82.24" fill="#263238"/>
<path id="Path 2855" d="M146.059 181.282C145.944 181.282 145.852 159.109 145.852 131.763C145.852 104.417 145.944 82.239 146.059 82.239C146.174 82.239 146.266 104.408 146.266 131.763C146.266 159.118 146.173 181.282 146.059 181.282Z" fill="#263238"/>
<g id="Group 425" opacity="0.3">
<g id="Group 424">
<g id="Clip path group_3">
<mask id="mask2_2673_1643" style="mask-type:luminance" maskUnits="userSpaceOnUse" x="77" y="166" width="18" height="16">
<g id="clip-path-3">
<path id="Rectangle 245" d="M94.338 166.66H77.964V181.283H94.338V166.66Z" fill="white"/>
</g>
</mask>
<g mask="url(#mask2_2673_1643)">
<g id="Group 423">
<path id="Rectangle 244" d="M94.338 166.66H77.964V181.282H94.338V166.66Z" fill="white"/>
</g>
</g>
</g>
</g>
</g>
<path id="Rectangle 246" d="M134.076 131.057H43.344V155.689H134.076V131.057Z" fill="#5B5B66"/>
<g id="Group 428" opacity="0.3">
<g id="Group 427">
<g id="Clip path group_4">
<mask id="mask3_2673_1643" style="mask-type:luminance" maskUnits="userSpaceOnUse" x="33" y="82" width="113" height="36">
<g id="clip-path-4">
<path id="Rectangle 247" d="M145.579 82.76H33.917V117.02H145.579V82.76Z" fill="white"/>
</g>
</mask>
<g mask="url(#mask3_2673_1643)">
<g id="Group 426">
<path id="Path 2856" d="M33.917 109.449V117.02L122.804 116.57L145.58 82.76L121.052 109.354L33.917 109.449Z" fill="black"/>
</g>
</g>
</g>
</g>
</g>
</g>
</g>
</g>
</g>
</g>
</g>
</g>
</g>
</g>
<defs>
<clipPath id="clip0_2673_1643">
<rect width="244.095" height="181.282" fill="white"/>
</clipPath>
</defs>
</svg>
