<svg xmlns="http://www.w3.org/2000/svg" xmlns:xlink="http://www.w3.org/1999/xlink" width="654.845" height="456.807" viewBox="0 0 654.845 456.807">
  <defs>
    <clipPath id="clip-path">
      <rect id="Rectangle_321" data-name="Rectangle 321" width="654.845" height="456.807" fill="none"/>
    </clipPath>
    <clipPath id="clip-path-3">
      <rect id="Rectangle_318" data-name="Rectangle 318" width="107.771" height="41.857" fill="none"/>
    </clipPath>
  </defs>
  <g id="Group_833" data-name="Group 833" opacity="0.6">
    <g id="Group_832" data-name="Group 832" clip-path="url(#clip-path)">
      <g id="Group_831" data-name="Group 831">
        <g id="Group_830" data-name="Group 830" clip-path="url(#clip-path)">
          <path id="Path_4549" data-name="Path 4549" d="M94.555,142.288q1.688-.4,3.265-.764s.416-.963,1.28-2.724l.15-.305" transform="translate(8.879 13.005)" fill="none" stroke="#ebf2f9" stroke-miterlimit="10" stroke-width="0.613"/>
          <path id="Path_4550" data-name="Path 4550" d="M104.7,139.613C126.579,102,196.245,5.733,338.64.446c102.444-3.807,108.209,70.885,148.508,103.92h.011c10.133,8.307,22.448,13.979,39.034,15.106" transform="translate(9.832 0.029)" fill="none" stroke="#ebf2f9" stroke-miterlimit="10" stroke-width="0.613" stroke-dasharray="6.163 12.327"/>
          <path id="Path_4551" data-name="Path 4551" d="M496.183,109.467q.643,0,1.3-.016c.5,0,1.028-.022,1.542-.044.175,0,.339,0,.514-.011a.02.02,0,0,0,.033,0c.733-.022,1.466-.066,2.221-.109a.015.015,0,0,0,.022,0c.492-.022,1-.066,1.488-.1q.907-.069,1.834-.15" transform="translate(46.591 10.239)" fill="none" stroke="#ebf2f9" stroke-miterlimit="10" stroke-width="0.613"/>
          <path id="Path_4552" data-name="Path 4552" d="M565.168,108.169a94.322,94.322,0,0,1,31.317,4.493c62.1,20.445,79.92,107.683,25.805,200.227-14.177,24.241-33.331,45.145-56.139,62.724a269.9,269.9,0,0,1-27.282,18.5c-.941.569-1.892,1.127-2.844,1.674a330.6,330.6,0,0,1-48.886,23.081c-1.794.689-3.61,1.356-5.426,2.013-1.389.5-2.779,1-4.179,1.477-.12.043-.252.088-.383.131q-8.893,3.085-18.038,5.765c-1.991.591-3.982,1.16-5.995,1.706q-5.464,1.524-11.016,2.888-2.937.737-5.9,1.422a450.973,450.973,0,0,1-44.773,8.051C227.043,463.541,38.564,400.062,3.384,256.554c-10.48-42.728,7.209-68.861,31.931-85.346,12.3-8.2,26.352-14.024,39.534-18.3.569-.2,1.149-.383,1.717-.558.022-.011.044-.011.066-.022,7.173-2.271,14.05-4.1,20.207-5.614" transform="translate(0.029 10.156)" fill="none" stroke="#ebf2f9" stroke-miterlimit="10" stroke-width="0.613" stroke-dasharray="6.175 12.349"/>
          <g id="Group_829" data-name="Group 829" transform="translate(351.37 410.618)" opacity="0.3">
            <g id="Group_828" data-name="Group 828">
              <g id="Group_827" data-name="Group 827" clip-path="url(#clip-path-3)">
                <path id="Path_4553" data-name="Path 4553" d="M428.98,403.159c-1.991.591-3.982,1.16-5.995,1.707q-5.464,1.526-11.016,2.888-2.937.738-5.9,1.422a450.926,450.926,0,0,1-44.773,8.051c-16.266-5.4-31.493-15.358-40.091-32.325a72.962,72.962,0,0,1,19.712-6.64l.033.055a4.88,4.88,0,0,0,4.387,2.658,4.938,4.938,0,0,0,4.923-4.015c8.248-2.166,17.043-2,25.925-.219,18.64,3.741,37.652,14.669,52.792,26.418" transform="translate(-321.209 -375.371)" fill="#63627f"/>
              </g>
            </g>
          </g>
          <path id="Path_4554" data-name="Path 4554" d="M345.879,388.658c-3-.689-5.612-1.291-6.224-1.488a1.637,1.637,0,0,0-2.057,2.45c.459.6.459.6,7.548,2.232,11.65,2.691,36.711,8.467,59.421,16.233q2.954-.689,5.9-1.422c-24.088-8.675-52.037-15.118-64.584-18.006" transform="translate(31.668 36.338)" fill="#8483a4"/>
          <path id="Path_4555" data-name="Path 4555" d="M448.908,400.614c-1.389.5-2.779,1-4.179,1.477.088.044.164.1.252.142-.219,0-.427,0-.634-.011a.185.185,0,0,0-.055.022q-2.429.837-4.879,1.652-6.481,2.15-13.1,4.091c-1.991.591-3.982,1.16-5.995,1.707-15.6-5.645-33.112-14.418-46.8-28.124C359.853,367.907,350,349.3,349.669,323.987c0,0,11.945-.634,28.266,3.741l.164,5.655a4.868,4.868,0,0,0,8.729,2.811l3.369-4.43a109.571,109.571,0,0,1,51.38,41.568,134.411,134.411,0,0,1,12.2,22.622l.558,2.647c-1.794.689-3.61,1.356-5.426,2.013" transform="translate(32.834 30.419)" fill="#63627f"/>
          <path id="Path_4556" data-name="Path 4556" d="M438.943,394.607c-39.162-22.994-74.56-57.419-76.4-59.738a1.643,1.643,0,0,0-3.063,1.094c.47,2.308,39.315,39.14,79.176,62.276q2.576,1.493,5.152,2.91c1.4-.481,2.789-.974,4.179-1.477q-4.545-2.412-9.047-5.065" transform="translate(33.752 31.362)" fill="#8483a4"/>
          <path id="Path_4557" data-name="Path 4557" d="M509.219,170.384a10.25,10.25,0,1,0,10.25,10.25,10.264,10.264,0,0,0-10.25-10.25m0,17.218a6.968,6.968,0,1,1,6.968-6.968,6.979,6.979,0,0,1-6.968,6.968" transform="translate(46.853 15.999)" fill="#63627f"/>
          <path id="Path_4558" data-name="Path 4558" d="M551.728,224.279a1.641,1.641,0,0,1-1.641-1.641v-13.4a1.641,1.641,0,1,1,3.282,0v13.4a1.641,1.641,0,0,1-1.641,1.641" transform="translate(51.653 19.493)" fill="#63627f"/>
          <path id="Path_4559" data-name="Path 4559" d="M559,217H545.6a1.641,1.641,0,0,1,0-3.282H559A1.641,1.641,0,1,1,559,217" transform="translate(51.078 20.068)" fill="#63627f"/>
          <path id="Path_4560" data-name="Path 4560" d="M106.029,252.364a10.25,10.25,0,1,0-11.136,15.315,10.071,10.071,0,0,0,2.418.284,10.247,10.247,0,0,0,8.718-15.6m-1.969,6.979a6.969,6.969,0,1,1-.831-5.262,6.934,6.934,0,0,1,.831,5.262" transform="translate(8.173 23.237)" fill="#63627f"/>
          <path id="Path_4561" data-name="Path 4561" d="M44.947,257.174a1.639,1.639,0,0,1-1.4-.783l-7-11.427a1.641,1.641,0,1,1,2.8-1.715l7,11.427a1.641,1.641,0,0,1-1.4,2.5" transform="translate(3.409 22.767)" fill="#63627f"/>
          <path id="Path_4562" data-name="Path 4562" d="M35.922,254.772a1.641,1.641,0,0,1-.859-3.04l11.428-7a1.641,1.641,0,0,1,1.714,2.8l-11.428,7a1.63,1.63,0,0,1-.855.242" transform="translate(3.219 22.957)" fill="#63627f"/>
          <path id="Path_4563" data-name="Path 4563" d="M113.863,175.859s28.289-7.308,32.257-5.6,10.287,28.169,8.369,28.82-11.034-8.454-11.034-8.454-2.248,4.5-5.786,3-7.377-7.759-7.377-7.759-1,3.068-4.636,1.775-8.445-8.3-8.445-8.3Z" transform="translate(10.692 15.963)" fill="#63627f"/>
          <path id="Path_4564" data-name="Path 4564" d="M52.963,143.006S38.127,117.835,34.111,116.24,6.918,128.884,7.815,130.7s13.78,1.825,13.78,1.825S20,137.3,23.561,138.741s10.7-.27,10.7-.27S32.8,141.345,36.286,143s11.843.1,11.843.1Z" transform="translate(0.731 10.903)" fill="#63627f"/>
          <path id="Path_4565" data-name="Path 4565" d="M137.044,159.952l-23.918,47.923a2.882,2.882,0,0,1-3.867,1.292l-75.739-37.8a2.879,2.879,0,0,1-1.286-3.864l23.918-47.923a2.828,2.828,0,0,1,.633-.835,2.866,2.866,0,0,1,3.228-.461l75.739,37.8a2.875,2.875,0,0,1,1.577,2.858,2.822,2.822,0,0,1-.286,1.007" transform="translate(2.998 11.078)" fill="#393949"/>
          <path id="Path_4566" data-name="Path 4566" d="M35.807,164.5l44.775-4.157a6.018,6.018,0,0,1,5.658,2.8L110.4,201.737,88.2,160.92a6.021,6.021,0,0,0-6.422-3.205Z" transform="translate(3.362 14.801)" fill="#63627f"/>
          <path id="Path_4567" data-name="Path 4567" d="M135.068,159.222l-54.8,9.008L54.523,119.021a2.921,2.921,0,0,1,3.368-.742l75.739,37.8a2.932,2.932,0,0,1,1.437,3.139" transform="translate(5.12 11.082)" fill="#393949"/>
          <path id="Path_4568" data-name="Path 4568" d="M55.984,121.727l22.4,42.61a5.286,5.286,0,0,0,5.636,2.842l47.165-7.493L83.2,170.515a5.333,5.333,0,0,1-6.422-3.205Z" transform="translate(5.257 11.43)" fill="#63627f"/>
          <path id="Path_4569" data-name="Path 4569" d="M535.776,96.754s15.809-24.571,19.884-26.007,26.677,13.7,25.71,15.479-13.839,1.283-13.839,1.283,1.406,4.833-2.21,6.135-10.683-.688-10.683-.688,1.351,2.928-2.2,4.45-11.836-.363-11.836-.363Z" transform="translate(50.309 6.634)" fill="#63627f"/>
          <path id="Path_4570" data-name="Path 4570" d="M468.273,113.647s-27.982-8.411-32.013-6.855-11.382,27.745-9.491,28.47,11.356-8.015,11.356-8.015,2.07,4.588,5.664,3.229,7.675-7.464,7.675-7.464.875,3.1,4.563,1.955S464.79,117,464.79,117Z" transform="translate(40.045 10.01)" fill="#63627f"/>
          <path id="Path_4571" data-name="Path 4571" d="M540.729,71.122,555.7,122.549a2.88,2.88,0,0,1-1.961,3.572l-81.276,23.663a2.88,2.88,0,0,1-3.567-1.962L453.925,96.4a2.83,2.83,0,0,1-.1-1.042,2.868,2.868,0,0,1,2.058-2.529l81.275-23.663a2.876,2.876,0,0,1,3.1,1.028,2.809,2.809,0,0,1,.475.933" transform="translate(42.613 6.483)" fill="#393949"/>
          <path id="Path_4572" data-name="Path 4572" d="M470.7,142.413l30.054-33.45a6.018,6.018,0,0,1,6.054-1.786l43.941,11.931-44.015-14.893a6.018,6.018,0,0,0-6.891,2.007Z" transform="translate(44.198 9.75)" fill="#63627f"/>
          <path id="Path_4573" data-name="Path 4573" d="M540.333,70.49l-34.121,43.818L453.9,95.654a2.919,2.919,0,0,1,1.97-2.831L537.147,69.16a2.934,2.934,0,0,1,3.187,1.33" transform="translate(42.621 6.485)" fill="#393949"/>
          <path id="Path_4574" data-name="Path 4574" d="M456.87,96.419,502.241,112.5a5.285,5.285,0,0,0,6.067-1.739L537.851,73.24l-27.88,40.527a5.331,5.331,0,0,1-6.892,2.006Z" transform="translate(42.9 6.877)" fill="#63627f"/>
          <path id="Path_4575" data-name="Path 4575" d="M188.855,353.887s20.6-6.376,23.586-5.253,8.568,20.409,7.177,20.955-8.431-5.847-8.431-5.847-1.5,3.4-4.16,2.418-5.71-5.462-5.71-5.462-.627,2.3-3.355,1.47-6.516-5.826-6.516-5.826Z" transform="translate(17.733 32.724)" fill="#63627f"/>
          <path id="Path_4576" data-name="Path 4576" d="M142.783,331.779S130.966,313.74,127.95,312.7s-19.606,10.272-18.882,11.579,10.222.865,10.222.865-1.009,3.574,1.667,4.513,7.882-.572,7.882-.572-.98,2.169,1.65,3.271,8.734-.339,8.734-.339Z" transform="translate(10.239 29.356)" fill="#63627f"/>
          <path id="Path_4577" data-name="Path 4577" d="M205.256,341.34,189.3,377.506a2.125,2.125,0,0,1-2.8,1.087l-57.161-25.224a2.124,2.124,0,0,1-1.083-2.8L144.207,314.4a2.14,2.14,0,0,1,2.8-1.088l57.161,25.224a2.12,2.12,0,0,1,1.262,2.052,2.063,2.063,0,0,1-.175.753" transform="translate(12.025 29.403)" fill="#393949"/>
          <path id="Path_4578" data-name="Path 4578" d="M130.908,348.293l32.866-4.629a4.441,4.441,0,0,1,4.268,1.866l19.163,27.607-17.8-29.316a4.445,4.445,0,0,0-4.847-2.139Z" transform="translate(12.292 32.073)" fill="#63627f"/>
          <path id="Path_4579" data-name="Path 4579" d="M203.922,340.8l-40.087,8.555-20.7-35.38a2.154,2.154,0,0,1,2.457-.664l57.16,25.224a2.164,2.164,0,0,1,1.169,2.264" transform="translate(13.44 29.405)" fill="#393949"/>
          <path id="Path_4580" data-name="Path 4580" d="M144.31,315.909l18,30.631a3.9,3.9,0,0,0,4.255,1.9l34.51-7.173-35,9.66a3.935,3.935,0,0,1-4.847-2.139Z" transform="translate(13.551 29.664)" fill="#63627f"/>
          <path id="Path_4581" data-name="Path 4581" d="M168.573,137.076,295.372,43a14.559,14.559,0,0,1,17.435.061l124.876,94.013-133.54,79.7Z" transform="translate(15.829 3.769)" fill="#2b2c39"/>
          <path id="Path_4582" data-name="Path 4582" d="M433.415,309.736H173.564a8.842,8.842,0,0,1-8.842-8.842V136.475a8.842,8.842,0,0,1,8.842-8.842L304.5,208.565l128.911-80.932a8.842,8.842,0,0,1,8.842,8.842V300.894a8.842,8.842,0,0,1-8.842,8.842" transform="translate(15.467 11.985)" fill="#393949"/>
          <path id="Path_4583" data-name="Path 4583" d="M431.458,290.227,315.986,219.681l-3.807-2.319a18.467,18.467,0,0,0-19.373.066l-3.785,2.352L175.529,290.227l107.5-75.063,9.451-6.6a18.444,18.444,0,0,1,22.031,0l8.325,5.809Z" transform="translate(16.482 19.242)" fill="#63627f"/>
          <path id="Path_4584" data-name="Path 4584" d="M447.566,258.016c9.355-3.217,4.365-19.334,17.673-29.2,14.05-10.418,18.915,3.521,18.915,3.521s11.841-8.363,24.127,2.516c7.59,6.72,16.861,23.2,4.825,45.938-10.438,19.717,15.394,27.909-2.253,39.368-15.1,9.8-57.3-7.335-57.3-7.335s-48.737-40.108-5.989-54.808" transform="translate(40.377 21.123)" fill="#2e2f3d"/>
          <rect id="Rectangle_319" data-name="Rectangle 319" width="40.966" height="20.611" transform="translate(493.351 338.936) rotate(-78.385)" fill="#fbaf7b"/>
          <path id="Path_4585" data-name="Path 4585" d="M479.2,277.283l-2.943,14.31c-6.614,4.375-14.192,9.375-22.647,7.8l5.044-24.539c.608-.493,1.213-.969,1.848-1.419Z" transform="translate(42.593 25.676)" fill="#fb8862"/>
          <path id="Path_4586" data-name="Path 4586" d="M469.084,235.68s-24.772,20.457-22.531,48.6a5.541,5.541,0,0,0,2.989,4.5c6.179,3.161,21.591,9.987,28.473,3.426,8.716-8.31,26.31-30.189,19.375-40.095s-28.306-16.431-28.306-16.431" transform="translate(41.918 22.13)" fill="#fbaf7b"/>
          <path id="Path_4587" data-name="Path 4587" d="M480.326,270.386s15.132-2.622,17.916,7.249-19.471,12.9-19.895,3.977,1.979-11.227,1.979-11.227" transform="translate(44.912 25.359)" fill="#fbaf7b"/>
          <path id="Path_4588" data-name="Path 4588" d="M455.684,250.108s5.675-9.671,8.536-5.135,3.966,11.482,18.368,9.579c10.938-1.445,3.135,22.7,3.135,22.7s6.778-4.408,12.127-.331c0,0,8.948-25.517.43-31.59s-29.974-15.281-34.152-11.185-8.444,15.96-8.444,15.96" transform="translate(42.788 21.891)" fill="#2e2f3d"/>
          <path id="Path_4589" data-name="Path 4589" d="M460.191,257.761c-.854,1.306-2.047,2.037-2.665,1.633s-.424-1.79.43-3.1,2.047-2.037,2.664-1.633.426,1.79-.429,3.1" transform="translate(42.927 23.903)" fill="#373b54"/>
          <path id="Path_4590" data-name="Path 4590" d="M472.846,266.208c-.854,1.306-2.047,2.037-2.665,1.633s-.424-1.79.43-3.1,2.047-2.037,2.664-1.633.426,1.79-.429,3.1" transform="translate(44.116 24.696)" fill="#373b54"/>
          <path id="Path_4591" data-name="Path 4591" d="M455.273,270.094c.4.14,13.409,5.214,13.409,5.214s-13.669,14.138-13.009-5.074Z" transform="translate(42.75 25.362)" fill="#fff"/>
          <path id="Path_4592" data-name="Path 4592" d="M525.642,357.594a269.864,269.864,0,0,1-27.282,18.5c-.941.569-1.892,1.127-2.844,1.674a330.373,330.373,0,0,1-48.886,23.081c-1.794.689-3.61,1.356-5.426,2.013-1.389.5-2.779,1-4.179,1.477.088.044.164.1.252.142-.219,0-.427,0-.634-.011a.185.185,0,0,0-.055.022c-1.619.558-3.249,1.1-4.879,1.652l.164-4.715.284-3.632,1.717-22.217,1.324-17,.831-10.666,1.017-13.214,1.4-22.162c.788-5.207,6.323-8.6,10.775-10.512a39.076,39.076,0,0,1,5.787-1.98h.011c.077.339,3.577,16.1,20.5,1.739l.175.044,12.558,2.844A15.061,15.061,0,0,1,497,310.392c.492.667,1.871,2.669,3.807,5.6,5.852,8.839,16.879,26.21,24.831,41.6" transform="translate(40.537 28.174)" fill="#8483a4"/>
          <path id="Path_4593" data-name="Path 4593" d="M462.427,305.583s-42.441-12.446-47.617-18.754-36.9-45.727-36.9-45.727l-25.118,17.191,38.226,63.6c19.224,20.525,63.735,36.512,65.879,35.913s5.529-52.224,5.529-52.224" transform="translate(33.127 22.639)" fill="#8483a4"/>
          <path id="Path_4594" data-name="Path 4594" d="M355.182,259.62,328.273,241.71a2.062,2.062,0,0,1,.28-3.595c5.859-2.683,16.151-5.046,18.752-4.765,3.5.376,17.618,3.73,17.618,3.73l-1.292-6.326a3.083,3.083,0,0,1,2.24-3.6,5.319,5.319,0,0,1,5.782,2.21l8.646,13.064Z" transform="translate(30.738 21.313)" fill="#fbaf7b"/>
          <path id="Path_4595" data-name="Path 4595" d="M481,279.854s4.518,1.6,4.645-1.259c.072-1.62-2.389-2.106-2.389-2.106s8.138-3.556,9.961.547-5.105,8.919-12.217,2.818" transform="translate(45.166 25.828)" fill="#fb8862"/>
          <path id="Path_4596" data-name="Path 4596" d="M478.984,328.161a1.642,1.642,0,0,1-1.641-1.616c-.2-13.7,5.627-17.781,5.875-17.949a1.64,1.64,0,0,1,1.85,2.71c-.12.091-4.616,3.566-4.443,15.19a1.641,1.641,0,0,1-1.616,1.665Z" transform="translate(44.822 28.951)" fill="#63627f"/>
          <path id="Path_4597" data-name="Path 4597" d="M494.059,373.336c-.941.569-1.892,1.127-2.844,1.674-6.454-15.326-13.7-32.609-13.7-43.975a1.641,1.641,0,0,1,3.282,0c0,10.6,6.968,27.358,13.258,42.3" transform="translate(44.839 30.93)" fill="#63627f"/>
          <path id="Path_4598" data-name="Path 4598" d="M336.611,297.591a40.619,40.619,0,1,1-40.619-40.619,40.619,40.619,0,0,1,40.619,40.619" transform="translate(23.979 24.13)" fill="#63627f"/>
        </g>
      </g>
      <path id="Path_4599" data-name="Path 4599" d="M17.232.576c9.12,0,15.552-7.056,15.552-17.088,0-9.984-6.432-17.04-15.552-17.04S1.68-26.5,1.68-16.512C1.68-6.48,8.112.576,17.232.576Zm0-8.448c-3.5,0-5.952-3.6-5.952-8.64S13.728-25.1,17.232-25.1s5.952,3.552,5.952,8.592S20.736-7.872,17.232-7.872Z" transform="translate(302.922 339.403)" fill="#9b9ab4"/>
    </g>
  </g>
</svg>
