<svg xmlns="http://www.w3.org/2000/svg" xmlns:xlink="http://www.w3.org/1999/xlink" width="244.095" height="181.282" viewBox="0 0 244.095 181.282">
  <defs>
    <clipPath id="clip-path">
      <rect id="Rectangle_249" data-name="Rectangle 249" width="244.095" height="181.282" fill="none"/>
    </clipPath>
    <clipPath id="clip-path-3">
      <rect id="Rectangle_245" data-name="Rectangle 245" width="16.374" height="14.623" transform="translate(77.964 166.66)" fill="none"/>
    </clipPath>
    <clipPath id="clip-path-4">
      <rect id="Rectangle_247" data-name="Rectangle 247" width="111.662" height="34.26" transform="translate(33.917 82.76)" fill="none"/>
    </clipPath>
  </defs>
  <g id="no_media" opacity="0.603">
    <g id="Group_431" data-name="Group 431" clip-path="url(#clip-path)">
      <g id="Group_430" data-name="Group 430">
        <g id="Group_429" data-name="Group 429" clip-path="url(#clip-path)">
          <path id="Path_2770" data-name="Path 2770" d="M35.318,69.633,18.83,80.473a2.469,2.469,0,0,1-3.42-.707l-15-22.821a2.47,2.47,0,0,1,.707-3.42L11.57,46.65l13.579,3.022L36.025,66.214a2.469,2.469,0,0,1-.707,3.419" fill="#3f3f49"/>
          <path id="Path_2771" data-name="Path 2771" d="M11.57,46.651l4.223,6.423a2.3,2.3,0,0,0,3.18.658l6.176-4.06Z" fill="#3f3f49"/>
          <path id="Path_2772" data-name="Path 2772" d="M16.247,53.582a2.553,2.553,0,0,0,3.053.957,2.415,2.415,0,0,0,.233-.087c.9-.386,6.831-2.932,6.75-3.054s-1.134-1.726-1.134-1.726l-6.176,4.06a2.353,2.353,0,0,1-2.726-.15" fill="#3f3f49"/>
          <path id="Path_2773" data-name="Path 2773" d="M14.238,53.721a29.374,29.374,0,0,1-3.717,2.657A29.221,29.221,0,0,1,6.61,58.736a29.372,29.372,0,0,1,3.715-2.657,29.092,29.092,0,0,1,3.913-2.358" fill="#b7b7b7"/>
          <path id="Path_2774" data-name="Path 2774" d="M21.552,54.113c.053.083-2.712,2-6.179,4.276S9.052,62.449,9,62.367s2.711-2,6.18-4.277,6.32-4.06,6.375-3.977" fill="#b7b7b7"/>
          <path id="Path_2775" data-name="Path 2775" d="M24.676,56.4c.054.083-2.966,2.164-6.744,4.648s-6.887,4.432-6.941,4.349,2.965-2.163,6.744-4.648,6.887-4.432,6.941-4.349" fill="#b7b7b7"/>
          <path id="Path_2776" data-name="Path 2776" d="M26.557,59.263c.054.083-2.965,2.164-6.744,4.648s-6.887,4.432-6.941,4.349,2.965-2.163,6.744-4.648,6.887-4.432,6.941-4.349" fill="#b7b7b7"/>
          <path id="Path_2777" data-name="Path 2777" d="M28.438,62.124c.054.083-2.965,2.164-6.744,4.648s-6.887,4.432-6.941,4.349,2.965-2.163,6.744-4.648,6.887-4.431,6.941-4.349" fill="#b7b7b7"/>
          <path id="Path_2778" data-name="Path 2778" d="M30.319,64.985c.054.083-2.966,2.164-6.744,4.648s-6.887,4.432-6.941,4.349,2.965-2.162,6.744-4.647,6.887-4.432,6.941-4.35" fill="#b7b7b7"/>
          <path id="Path_2779" data-name="Path 2779" d="M74.416,72.509,50.733,59.5A3.381,3.381,0,0,1,49.4,54.908L67.4,22.128A3.381,3.381,0,0,1,72,20.792l15.02,8.251L92.06,47.414,79.007,71.174a3.381,3.381,0,0,1-4.591,1.335" fill="#3f3f49"/>
          <path id="Path_2780" data-name="Path 2780" d="M87.016,29.043l-5.068,9.226a3.145,3.145,0,0,0,1.242,4.27l8.87,4.874Z" fill="#3f3f49"/>
          <path id="Path_2781" data-name="Path 2781" d="M81.624,39.145a3.5,3.5,0,0,0,.8,4.308,3.04,3.04,0,0,0,.256.226c1.044.844,7.924,6.389,8.02,6.214l1.362-2.48L83.188,42.54s-2.173-1.292-1.564-3.4" fill="#3f3f49"/>
          <path id="Path_2782" data-name="Path 2782" d="M80.169,36.8a39.824,39.824,0,0,1-5.6-2.794,40.047,40.047,0,0,1-5.361-3.224,40.131,40.131,0,0,1,5.6,2.794,40.321,40.321,0,0,1,5.36,3.224" fill="#b7b7b7"/>
          <path id="Path_2783" data-name="Path 2783" d="M84.38,45.9c-.065.119-4.155-2-9.134-4.738s-8.964-5.05-8.9-5.168,4.154,2,9.135,4.738,8.963,5.049,8.9,5.168" fill="#b7b7b7"/>
          <path id="Path_2784" data-name="Path 2784" d="M83.611,51.153c-.065.119-4.519-2.2-9.946-5.184s-9.776-5.5-9.711-5.614,4.518,2.2,9.947,5.184,9.775,5.5,9.71,5.614" fill="#b7b7b7"/>
          <path id="Path_2785" data-name="Path 2785" d="M81.354,55.262c-.066.119-4.52-2.2-9.947-5.184s-9.775-5.5-9.711-5.614,4.519,2.2,9.947,5.185,9.775,5.5,9.711,5.613" fill="#b7b7b7"/>
          <path id="Path_2786" data-name="Path 2786" d="M79.1,59.372c-.065.119-4.519-2.2-9.946-5.184s-9.776-5.5-9.711-5.614,4.518,2.2,9.947,5.184,9.775,5.5,9.71,5.614" fill="#b7b7b7"/>
          <path id="Path_2787" data-name="Path 2787" d="M76.839,63.481c-.066.119-4.52-2.2-9.947-5.184s-9.775-5.5-9.711-5.614,4.519,2.2,9.947,5.184,9.775,5.495,9.711,5.614" fill="#b7b7b7"/>
          <path id="Path_2788" data-name="Path 2788" d="M153.753,42.816,125.089,53.839a3.843,3.843,0,0,1-4.966-2.207L104.866,11.957a3.843,3.843,0,0,1,2.207-4.966L125.252,0,144.9,9.093,155.96,37.85a3.842,3.842,0,0,1-2.207,4.966" fill="#3f3f49"/>
          <path id="Path_2789" data-name="Path 2789" d="M125.252,0l4.294,11.166a3.573,3.573,0,0,0,4.618,2.053L144.9,9.092Z" fill="#3f3f49"/>
          <path id="Path_2790" data-name="Path 2790" d="M130.069,12.09a3.974,3.974,0,0,0,4.326,2.467,3.8,3.8,0,0,0,.383-.056c1.5-.289,11.358-2.2,11.277-2.408l-1.154-3-10.737,4.128s-2.715.94-4.1-1.131" fill="#3f3f49"/>
          <path id="Path_2791" data-name="Path 2791" d="M126.967,11.635a45.754,45.754,0,0,1-6.53,2.81,45.715,45.715,0,0,1-6.731,2.29,45.406,45.406,0,0,1,6.531-2.81,45.5,45.5,0,0,1,6.73-2.29" fill="#b7b7b7"/>
          <path id="Path_2792" data-name="Path 2792" d="M137.959,14.654c.055.145-4.786,2.14-10.812,4.457s-10.958,4.08-11.014,3.937,4.786-2.138,10.814-4.456,10.957-4.08,11.012-3.938" fill="#b7b7b7"/>
          <path id="Path_2793" data-name="Path 2793" d="M141.952,19.17c.055.144-5.227,2.308-11.795,4.834s-11.941,4.459-12,4.315,5.225-2.307,11.8-4.834,11.94-4.458,11.995-4.315" fill="#b7b7b7"/>
          <path id="Path_2794" data-name="Path 2794" d="M143.865,24.144c.055.144-5.226,2.308-11.795,4.834s-11.941,4.459-12,4.315,5.225-2.307,11.8-4.834,11.94-4.458,12-4.315" fill="#b7b7b7"/>
          <path id="Path_2795" data-name="Path 2795" d="M145.778,29.118c.055.144-5.226,2.308-11.795,4.834s-11.941,4.459-12,4.315,5.225-2.307,11.8-4.834,11.94-4.458,11.995-4.315" fill="#b7b7b7"/>
          <path id="Path_2796" data-name="Path 2796" d="M147.69,34.092c.055.143-5.227,2.308-11.795,4.834s-11.941,4.459-12,4.315,5.225-2.307,11.8-4.834,11.94-4.458,11.995-4.315" fill="#b7b7b7"/>
          <path id="Path_2797" data-name="Path 2797" d="M167.332,100.4a28.665,28.665,0,0,0-12.267-4.222c-2.005-.206-4.2-.148-5.8,1.067a1.19,1.19,0,0,0-.6,1.059,1.291,1.291,0,0,0,.567.725,17.537,17.537,0,0,0,18.1,1.371" fill="#3f3f49"/>
          <path id="Path_2798" data-name="Path 2798" d="M167.018,100.057a59.83,59.83,0,0,1-7.923-6.971,20.041,20.041,0,0,1-4.968-9.187,3.7,3.7,0,0,1,.393-3.074c6.316,4.933,11.277,11.312,12.5,19.232" fill="#3f3f49"/>
          <path id="Path_2799" data-name="Path 2799" d="M167.267,100.357a28.633,28.633,0,0,1,.147-10.4,14.067,14.067,0,0,1,5.541-8.584c1.091,2.551.622,5.49-.147,8.156a39.634,39.634,0,0,1-5.494,11.568" fill="#3f3f49"/>
          <path id="Path_2800" data-name="Path 2800" d="M173.458,111.451a18.131,18.131,0,0,0-9.838,4.979,18.612,18.612,0,0,0-5.627,9.66c3.686-.228,6.814-2.827,9.082-5.742s3.84-6.114,6.332-8.84" fill="#3f3f49"/>
          <path id="Path_2801" data-name="Path 2801" d="M174.8,113.225a24.265,24.265,0,0,1,2.8-22.952c2.141,7.617,1.355,16.22-2.8,22.952" fill="#3f3f49"/>
          <path id="Path_2802" data-name="Path 2802" d="M182.984,122.966a17.545,17.545,0,0,0-16.776,9.657c-.209.416-.392.943-.114,1.315a1.245,1.245,0,0,0,1.112.328c3.306-.214,6.237-2.2,8.655-4.469s4.524-4.882,7.2-6.841" fill="#3f3f49"/>
          <path id="Path_2803" data-name="Path 2803" d="M182.722,122.435a31.25,31.25,0,0,1-.312-17.454c.615-2.246,1.647-4.612,3.725-5.665a.731.731,0,0,1,.57-.1.753.753,0,0,1,.36.417,10.516,10.516,0,0,1,.878,5.007,31.361,31.361,0,0,1-.785,5.07c-.654,3.1-1,6.427-2.7,9.1a18.4,18.4,0,0,0-1.08,2c-.322.68-.325.919-.619,1.459" fill="#3f3f49"/>
          <path id="Path_2804" data-name="Path 2804" d="M204.376,125.662a22.505,22.505,0,0,1,3.944-18.5c.283-.369.659-.764,1.121-.721.708.066.892,1.01.86,1.72a33.435,33.435,0,0,1-5.925,17.5" fill="#3f3f49"/>
          <path id="Path_2805" data-name="Path 2805" d="M206.329,127a26.915,26.915,0,0,0,22.086-4.492,17.878,17.878,0,0,0-11.956-1.467c-3.994.913-7.644,2.7-10.13,5.959" fill="#3f3f49"/>
          <path id="Path_2806" data-name="Path 2806" d="M207.975,122.933a25.526,25.526,0,0,1,20.045-11.591c-.914,3.227-3.565,5.734-6.556,7.249a36.4,36.4,0,0,1-9.622,2.814c-1.281.249-3.037.522-3.867,1.528" fill="#3f3f49"/>
          <path id="Path_2807" data-name="Path 2807" d="M204.789,103.216a58.277,58.277,0,0,0,2.564-11.739,19.549,19.549,0,0,0-2.339-11.612c-3.878,7.505-4.271,16.274-.342,23.754" fill="#3f3f49"/>
          <path id="Path_2808" data-name="Path 2808" d="M217.848,96.616c4.536-8.244,13.79-14.829,23.154-15.752-3.613,8.994-13.464,15.945-23.154,15.752" fill="#3f3f49"/>
          <path id="Path_2809" data-name="Path 2809" d="M214.994,98.232c6.764,1.03,12.528,5.351,18.85,7.97a8.447,8.447,0,0,0,4.261.816,3.335,3.335,0,0,0,2.088-5.9,9.118,9.118,0,0,0-3.095-1.878c-6.885-2.866-14.269-2.938-21.522-1.2" fill="#3f3f49"/>
          <path id="Path_2810" data-name="Path 2810" d="M211.079,102.976c1.531.439,2.055,1.231,3.267,2.264a35.268,35.268,0,0,0,14.294,7.343c.546.136,1.263.19,1.533-.3.237-.431-.063-.952-.369-1.336a19.679,19.679,0,0,0-8.631-5.859c-3.3-1.229-6.157-2.709-10.094-2.391" fill="#3f3f49"/>
          <path id="Path_2811" data-name="Path 2811" d="M206.662,74.321A27.055,27.055,0,0,0,227.4,81.377a1.418,1.418,0,0,0,.944-.339c.522-.568-.1-1.444-.712-1.918-6.1-4.754-13.483-6.725-20.971-4.8" fill="#3f3f49"/>
          <path id="Path_2812" data-name="Path 2812" d="M211.9,72.4a28.905,28.905,0,0,1,25.879-4.27,20.548,20.548,0,0,1-12.332,5.414A39.021,39.021,0,0,1,211.9,72.4" fill="#3f3f49"/>
          <path id="Path_2813" data-name="Path 2813" d="M209.818,59.236c-.6-6.086-.21-10.89-.633-17.005-.033-.488-.138-1.076-.6-1.252-.637-.245-1.167.537-1.376,1.186a19.492,19.492,0,0,0,2.6,16.937" fill="#3f3f49"/>
          <path id="Path_2814" data-name="Path 2814" d="M209.38,59.909a35.783,35.783,0,0,0,10.081-9.8c1.992-2.725,3.67-5.989,3.218-9.333a9.647,9.647,0,0,0-7.272,3.611,20.284,20.284,0,0,0-3.707,7.459c-.808,2.678-1.373,5.429-2.32,8.061" fill="#3f3f49"/>
          <path id="Path_2815" data-name="Path 2815" d="M219.285,57.157A81.294,81.294,0,0,0,244.1,42.528c-2.963-1.194-6.357-.48-9.319.716a29.383,29.383,0,0,0-15.62,13.847" fill="#3f3f49"/>
          <path id="Path_2816" data-name="Path 2816" d="M212.165,63.238a50.418,50.418,0,0,0,13.777.067c4.466-.746,8.687-2.517,12.861-4.273a1.509,1.509,0,0,0,.873-.664,1,1,0,0,0-.313-1.1,2.649,2.649,0,0,0-1.1-.514,23.817,23.817,0,0,0-13.9.83,64.485,64.485,0,0,0-12.2,5.654" fill="#3f3f49"/>
          <path id="Path_2817" data-name="Path 2817" d="M186.013,74.529a24.366,24.366,0,0,1-.222-20.169c1.9,2.9,2.132,6.583,1.784,10.028s-1.4,6.992-1.464,10.454" fill="#3f3f49"/>
          <path id="Path_2818" data-name="Path 2818" d="M173.53,68.233a28.127,28.127,0,0,0-20.9,8.9,19.543,19.543,0,0,0,11.446-2.122,58.216,58.216,0,0,0,9.809-6.566" fill="#3f3f49"/>
          <path id="Path_2819" data-name="Path 2819" d="M165.137,65.426c-3.817-.309-7.489-.782-11.159.343a13.385,13.385,0,0,0-8.5,7.211A20.175,20.175,0,0,0,155.935,71a60.212,60.212,0,0,0,9.2-5.579" fill="#3f3f49"/>
          <path id="Path_2820" data-name="Path 2820" d="M177.564,65.554c-3.434-2.25-6.96-4.539-10.957-5.472s-8.632-.243-11.418,2.77c3.235,1.9,7.161,2.124,10.915,2.121s8.352-.047,11.888,1.205" fill="#3f3f49"/>
          <path id="Path_2821" data-name="Path 2821" d="M177.584,65.736c-5.87-5.764-8.1-16.118-5.733-24a36.563,36.563,0,0,1,5.733,24" fill="#3f3f49"/>
          <path id="Path_2822" data-name="Path 2822" d="M193.724,49.4c1.107-2.574,1.886-5.275,2.879-7.894a22.672,22.672,0,0,1,4.1-7.278,10.812,10.812,0,0,1,7.27-3.768,29.282,29.282,0,0,1-14.109,18.981" fill="#3f3f49"/>
          <path id="Path_2823" data-name="Path 2823" d="M190.8,52.808c-1.832-2.522-3.949-5.944-6.433-7.826s-5.719-3.022-8.751-2.3A20.384,20.384,0,0,0,190.8,52.808" fill="#3f3f49"/>
          <path id="Path_2824" data-name="Path 2824" d="M191.388,49.615a43.542,43.542,0,0,1-2.9-9.378A14.634,14.634,0,0,1,189.96,30.7c3.222,6.091,4.26,12.629,1.592,18.982" fill="#3f3f49"/>
          <path id="Path_2825" data-name="Path 2825" d="M193.754,30.7c1.825-6.038,7.354-10.483,13.323-12.524a4.976,4.976,0,0,1,2.335-.35,2.028,2.028,0,0,1,1.722,1.437c.218,1.027-.631,1.948-1.429,2.63A45.351,45.351,0,0,1,193.754,30.7" fill="#3f3f49"/>
          <path id="Path_2826" data-name="Path 2826" d="M193.82,25.764c.232-3.893.475-7.842,1.741-11.531s3.707-7.149,7.257-8.763c.6,3.932-1.131,7.844-3.223,11.227s-4.614,6.577-5.87,10.351" fill="#3f3f49"/>
          <path id="Path_2827" data-name="Path 2827" d="M193.724,28.444c-1.508-4.4-1.664-9.99-4.3-13.823-1.842-2.68-4.792-4.505-6.379-7.343a11.175,11.175,0,0,0,.371,8.336,24.132,24.132,0,0,0,4.875,6.978c1.95,2.083,3.619,3.649,5.432,5.852" fill="#3f3f49"/>
          <path id="Path_2828" data-name="Path 2828" d="M193.754,158.03c-.117,0-.219-29.354-.227-65.557s.08-65.562.2-65.562.219,29.348.227,65.562-.08,65.557-.2,65.557" fill="#3f3f49"/>
          <path id="Path_2829" data-name="Path 2829" d="M219.406,70.1a6.3,6.3,0,0,1-1.1.414l-3.037,1.025c-2.561.873-6.079,2.136-9.9,3.7-3.781,1.621-7.346,2.939-9.377,4.7a6.9,6.9,0,0,0-1.884,2.493c-.291.689-.343,1.11-.382,1.1a.854.854,0,0,1,.013-.308,4.6,4.6,0,0,1,.215-.855,6.626,6.626,0,0,1,1.839-2.657,16.474,16.474,0,0,1,4.069-2.528c1.627-.76,3.431-1.552,5.346-2.339,3.83-1.569,7.376-2.792,9.966-3.593,1.294-.4,2.35-.7,3.083-.9a6.341,6.341,0,0,1,1.151-.256" fill="#3f3f49"/>
          <path id="Path_2830" data-name="Path 2830" d="M227.814,49.446a1.813,1.813,0,0,1-.309.33c-.25.235-.562.527-.942.885l-3.517,3.194-11.7,10.422c-4.568,4.067-8.517,7.952-11.253,10.878-1.37,1.461-2.449,2.672-3.185,3.516l-.851.972a1.854,1.854,0,0,1-.317.322,1.784,1.784,0,0,1,.251-.376c.178-.236.436-.588.79-1.023.7-.88,1.746-2.123,3.091-3.614A148.243,148.243,0,0,1,211.06,63.96c4.584-4.057,8.756-7.7,11.788-10.329l3.606-3.094.994-.825a1.827,1.827,0,0,1,.366-.266" fill="#3f3f49"/>
          <path id="Path_2831" data-name="Path 2831" d="M206.411,68.412c-.12-.053.835-2.257,1.786-5.044s1.411-5.138,1.533-5.119A17.2,17.2,0,0,1,208.6,63.5a34.087,34.087,0,0,1-1.421,3.528,5.521,5.521,0,0,1-.766,1.38" fill="#3f3f49"/>
          <path id="Path_2832" data-name="Path 2832" d="M193.781,86.179a5.3,5.3,0,0,1-.7-.817l-1.8-2.313c-1.515-1.958-3.609-4.661-5.956-7.62s-4.507-5.612-6.07-7.532L177.4,65.616a5.266,5.266,0,0,1-.636-.871,5.285,5.285,0,0,1,.761.764c.471.509,1.136,1.259,1.948,2.2,1.623,1.872,3.82,4.5,6.172,7.461s4.41,5.7,5.864,7.7c.728,1,1.307,1.821,1.7,2.395a5.263,5.263,0,0,1,.571.915" fill="#3f3f49"/>
          <path id="Path_2833" data-name="Path 2833" d="M188.156,78.958a10.341,10.341,0,0,1-2.356-4.411,12.618,12.618,0,0,1-.535-4.448l.188.015c-.084.34-.146.52-.179.514s-.035-.195-.007-.544l.187.015a20.225,20.225,0,0,0,.752,4.327,33.091,33.091,0,0,0,1.95,4.532" fill="#3f3f49"/>
          <path id="Path_2834" data-name="Path 2834" d="M180.9,69.824a7.6,7.6,0,0,0-1.645-.956,11.015,11.015,0,0,0-4.568-.363,28.181,28.181,0,0,0-4.6.742,14.085,14.085,0,0,1-1.893.455A6.558,6.558,0,0,1,170,68.958a21.046,21.046,0,0,1,4.648-.876,9.965,9.965,0,0,1,4.712.508,2.915,2.915,0,0,1,1.533,1.234" fill="#3f3f49"/>
          <path id="Path_2835" data-name="Path 2835" d="M179.173,67.61c-.032.066-.958-.384-2.521-.918a25.371,25.371,0,0,0-12.7-.968c-1.625.291-2.609.6-2.631.525a2.39,2.39,0,0,1,.669-.285,15.6,15.6,0,0,1,1.9-.534,22.422,22.422,0,0,1,12.863.98,15.638,15.638,0,0,1,1.8.817,2.415,2.415,0,0,1,.617.383" fill="#3f3f49"/>
          <path id="Path_2836" data-name="Path 2836" d="M193.724,58.249a51.951,51.951,0,0,1-1.838-6.385,52.015,52.015,0,0,1-1.427-6.49A52.423,52.423,0,0,1,192.3,51.76a51.981,51.981,0,0,1,1.427,6.489" fill="#3f3f49"/>
          <path id="Path_2837" data-name="Path 2837" d="M193.841,58.249a30.843,30.843,0,0,0-2.037-3.823,16.844,16.844,0,0,0-3-3.094,2.773,2.773,0,0,1,1.157.6,9.311,9.311,0,0,1,2.189,2.254,8.473,8.473,0,0,1,1.69,4.066" fill="#3f3f49"/>
          <path id="Path_2838" data-name="Path 2838" d="M193.754,142.381c-.046.008-.132-.706-.463-1.952a27.761,27.761,0,0,0-1.962-5.082,70.317,70.317,0,0,0-10.407-14.663c-2.324-2.655-4.578-5.159-6.492-7.556a53.094,53.094,0,0,1-4.641-6.7,32.18,32.18,0,0,1-2.344-4.967c-.215-.612-.373-1.091-.46-1.422a2.254,2.254,0,0,1-.12-.507c.038-.012.251.672.735,1.869a36.294,36.294,0,0,0,2.448,4.877,56.181,56.181,0,0,0,4.687,6.6c1.921,2.374,4.179,4.863,6.506,7.523A66.644,66.644,0,0,1,191.6,135.216a25.348,25.348,0,0,1,1.851,5.173,14.279,14.279,0,0,1,.26,1.472,2.472,2.472,0,0,1,.043.52" fill="#3f3f49"/>
          <path id="Path_2839" data-name="Path 2839" d="M216.934,116.2a10.7,10.7,0,0,1-1.215.682,26.608,26.608,0,0,0-3.151,2.083,36.208,36.208,0,0,0-4.138,3.774c-1.453,1.535-2.949,3.317-4.476,5.226-3.053,3.831-5.909,7.221-7.619,9.927-.868,1.342-1.5,2.473-1.912,3.267a10.363,10.363,0,0,1-.669,1.223,1.127,1.127,0,0,1,.112-.344c.091-.219.213-.547.408-.952a31.021,31.021,0,0,1,1.808-3.355,109.109,109.109,0,0,1,7.541-10.031c1.53-1.913,3.045-3.7,4.524-5.231a33.623,33.623,0,0,1,4.241-3.744,22.023,22.023,0,0,1,3.255-1.989c.4-.2.731-.326.948-.42a1.185,1.185,0,0,1,.343-.116" fill="#3f3f49"/>
          <path id="Path_2840" data-name="Path 2840" d="M217.388,124.693a17.678,17.678,0,0,1-2.568.373,33.909,33.909,0,0,0-6.09,1.2,18.308,18.308,0,0,0-5.452,2.862c-1.257.971-1.85,1.775-1.908,1.728a1.924,1.924,0,0,1,.38-.591,9.6,9.6,0,0,1,1.338-1.369,16.484,16.484,0,0,1,5.512-3.033,27.54,27.54,0,0,1,6.19-1.1,14.152,14.152,0,0,1,2.6-.074" fill="#3f3f49"/>
          <path id="Path_2841" data-name="Path 2841" d="M202.119,129.922c-.134-.076,1.023-1.844,1.921-4.221.842-2.4,1.039-4.5,1.19-4.478a4.051,4.051,0,0,1-.042,1.377,14.789,14.789,0,0,1-.749,3.246,15.752,15.752,0,0,1-1.489,2.977,4.145,4.145,0,0,1-.831,1.1" fill="#3f3f49"/>
          <path id="Path_2842" data-name="Path 2842" d="M224.441,93.4a1.9,1.9,0,0,1-.411.218l-1.207.549c-.528.227-1.17.514-1.893.895s-1.572.76-2.453,1.289l-1.4.8c-.486.279-.966.611-1.478.931-1.032.626-2.067,1.4-3.171,2.185A54.447,54.447,0,0,0,200.213,112.9c-.75,1.131-1.486,2.192-2.076,3.245-.3.522-.618,1.014-.88,1.509s-.509.971-.749,1.427c-.5.9-.855,1.758-1.2,2.5s-.621,1.386-.83,1.922c-.205.5-.373.9-.507,1.225a1.888,1.888,0,0,1-.2.418,1.882,1.882,0,0,1,.124-.447c.114-.331.257-.747.433-1.255.186-.547.43-1.21.767-1.958s.669-1.623,1.153-2.536l.729-1.448c.256-.5.566-1,.864-1.531.582-1.068,1.312-2.143,2.058-3.288a52.426,52.426,0,0,1,12.3-12.732c1.119-.785,2.168-1.55,3.216-2.168.519-.316,1.007-.643,1.5-.917l1.423-.777c.9-.515,1.756-.884,2.5-1.24s1.39-.629,1.93-.833L224,93.535a1.913,1.913,0,0,1,.442-.139" fill="#3f3f49"/>
          <path id="Path_2843" data-name="Path 2843" d="M206.1,105.688a2.954,2.954,0,0,1,1.009-1.5,6.365,6.365,0,0,1,4.064-1.56,11.111,11.111,0,0,1,4.277.836,6.093,6.093,0,0,1,1.618.786,10.105,10.105,0,0,1-1.716-.5,12.929,12.929,0,0,0-4.165-.695,6.624,6.624,0,0,0-3.883,1.363,11.985,11.985,0,0,0-1.2,1.275" fill="#3f3f49"/>
          <path id="Path_2844" data-name="Path 2844" d="M203.354,108.517a15.288,15.288,0,0,0,1.154-3.755,15.266,15.266,0,0,0-.259-3.92,2.479,2.479,0,0,1,.477,1.094,7.769,7.769,0,0,1-.656,5.626c-.359.649-.675.984-.716.955" fill="#3f3f49"/>
          <path id="Path_2845" data-name="Path 2845" d="M173.48,146.587c.633,11.218,4.013,22.627,9.213,34.162H205.3c4.958-11.42,8.1-22.812,8.665-34.162Z" fill="#3f3f49"/>
          <path id="Path_2846" data-name="Path 2846" d="M210.3,164.74c0,.117-7.445.212-16.626.212s-16.628-.1-16.628-.212,7.443-.212,16.628-.212,16.626.1,16.626.212" fill="#b7b7b7"/>
          <path id="Path_2847" data-name="Path 2847" d="M209.8,168.8c0,.117-6.979.212-15.587.212s-15.588-.1-15.588-.212,6.978-.212,15.588-.212,15.587.1,15.587.212" fill="#b7b7b7"/>
          <path id="Path_2848" data-name="Path 2848" d="M183.057,153.953a32.187,32.187,0,0,1,.212,5.208,32.177,32.177,0,0,1-.212,5.208,32.174,32.174,0,0,1-.212-5.208,32.184,32.184,0,0,1,.212-5.208" fill="#b7b7b7"/>
          <path id="Path_2849" data-name="Path 2849" d="M195.172,153.953a34.5,34.5,0,0,1,.212,5.393,34.5,34.5,0,0,1-.212,5.394,34.5,34.5,0,0,1-.212-5.394,34.5,34.5,0,0,1,.212-5.393" fill="#b7b7b7"/>
          <path id="Path_2850" data-name="Path 2850" d="M206.545,153.862a35.883,35.883,0,0,1,.212,5.5,35.873,35.873,0,0,1-.212,5.5,35.873,35.873,0,0,1-.212-5.5,35.883,35.883,0,0,1,.212-5.5" fill="#b7b7b7"/>
          <path id="Path_2851" data-name="Path 2851" d="M213.251,153.953c0,.117-8.732.212-19.5.212s-19.5-.095-19.5-.212,8.73-.212,19.5-.212,19.5.1,19.5.212" fill="#b7b7b7"/>
          <rect id="Rectangle_242" data-name="Rectangle 242" width="152.425" height="99.043" transform="translate(33.916 82.239)" fill="#4a4a54"/>
          <rect id="Rectangle_243" data-name="Rectangle 243" width="40.282" height="99.043" transform="translate(146.059 82.239)" fill="#3f3f49"/>
          <path id="Path_2852" data-name="Path 2852" d="M146.059,82.239l23.04,27.114h38.069L186.341,82.239Z" fill="#4a4a54"/>
          <path id="Path_2853" data-name="Path 2853" d="M33.917,82.239,2.612,109.353h118.44L146.06,82.239Z" fill="#4a4a54"/>
          <path id="Path_2854" data-name="Path 2854" d="M146.059,82.239s-.142.181-.437.514l-1.315,1.464-5.033,5.529c-4.369,4.764-10.6,11.556-18.094,19.726l-.052.057h-.077l-41.323.064-55.31-.016-16.761-.053L3.1,109.489l-1.185-.02c-.267-.006-.4-.021-.4-.021s.137-.014.4-.021L3.1,109.4l4.557-.042,16.761-.079,55.31-.1h41.323l-.129.056,18.2-19.626,5.105-5.463,1.353-1.429c.308-.321.477-.477.477-.477" fill="#263238"/>
          <path id="Path_2855" data-name="Path 2855" d="M146.059,181.282c-.115,0-.207-22.173-.207-49.519s.092-49.524.207-49.524.207,22.169.207,49.524-.093,49.519-.207,49.519" fill="#263238"/>
          <g id="Group_425" data-name="Group 425" opacity="0.3">
            <g id="Group_424" data-name="Group 424">
              <g id="Group_423" data-name="Group 423" clip-path="url(#clip-path-3)">
                <rect id="Rectangle_244" data-name="Rectangle 244" width="16.374" height="14.622" transform="translate(77.964 166.66)" fill="#fff"/>
              </g>
            </g>
          </g>
          <rect id="Rectangle_246" data-name="Rectangle 246" width="90.732" height="24.632" transform="translate(43.344 131.057)" fill="#5b5b66"/>
          <g id="Group_428" data-name="Group 428" opacity="0.3">
            <g id="Group_427" data-name="Group 427">
              <g id="Group_426" data-name="Group 426" clip-path="url(#clip-path-4)">
                <path id="Path_2856" data-name="Path 2856" d="M33.917,109.449v7.571l88.887-.45L145.58,82.76l-24.528,26.594Z"/>
              </g>
            </g>
          </g>
        </g>
      </g>
    </g>
  </g>
</svg>
