<svg xmlns="http://www.w3.org/2000/svg" xmlns:xlink="http://www.w3.org/1999/xlink" width="600.065" height="419.019" viewBox="0 0 600.065 419.019">
  <defs>
    <clipPath id="clip-path">
      <rect id="Rectangle_324" data-name="Rectangle 324" width="98.52" height="38.264" transform="translate(321.209 375.371)" fill="none"/>
    </clipPath>
  </defs>
  <g id="Group_863" data-name="Group 863" transform="translate(0.716 0.689)" opacity="0.7">
    <g id="Group_864" data-name="Group 864">
      <g id="Group_861" data-name="Group 861">
        <g id="Group_865" data-name="Group 865">
          <path id="Path_4600" data-name="Path 4600" d="M94.555,141.962q1.543-.363,2.985-.7s.38-.88,1.17-2.49l.137-.279" fill="none" stroke="#63627f" stroke-miterlimit="10" stroke-width="0.613"/>
          <path id="Path_4601" data-name="Path 4601" d="M104.7,127.655C124.7,93.27,188.387,5.267,318.559.434c93.65-3.48,98.92,64.8,135.76,95h.01c9.263,7.594,20.521,12.779,35.683,13.809" fill="none" stroke="#aeb0cb" stroke-miterlimit="10" stroke-width="2" stroke-dasharray="12.07 10.15"/>
          <path id="Path_4602" data-name="Path 4602" d="M496.183,109.43q.588,0,1.186-.015c.46,0,.94-.02,1.41-.04.16,0,.31,0,.47-.01a.019.019,0,0,0,.03,0c.67-.02,1.34-.06,2.03-.1a.014.014,0,0,0,.02,0c.45-.02.91-.06,1.36-.09q.83-.063,1.677-.137" fill="none" stroke="#63627f" stroke-miterlimit="10" stroke-width="0.613"/>
          <path id="Path_4603" data-name="Path 4603" d="M516.681,108.168a86.225,86.225,0,0,1,28.629,4.107c56.77,18.69,73.06,98.44,23.59,183.04-12.96,22.16-30.47,41.27-51.32,57.34a246.721,246.721,0,0,1-24.94,16.91c-.86.52-1.73,1.03-2.6,1.53a302.219,302.219,0,0,1-44.69,21.1c-1.64.63-3.3,1.24-4.96,1.84-1.27.46-2.54.91-3.82,1.35-.11.039-.23.08-.35.12q-8.13,2.82-16.49,5.27c-1.82.54-3.64,1.06-5.48,1.56q-4.995,1.394-10.07,2.64-2.685.674-5.39,1.3a412.243,412.243,0,0,1-40.93,7.36c-150.28,19.4-322.58-38.63-354.74-169.82-9.58-39.06,6.59-62.95,29.19-78.02,11.24-7.5,24.09-12.82,36.14-16.73.52-.18,1.05-.35,1.57-.51.02-.01.04-.01.06-.02,6.557-2.076,12.844-3.744,18.472-5.132" fill="none" stroke="#aeb0cb" stroke-miterlimit="10" stroke-width="2" stroke-dasharray="12.07 10.15"/>
          <g id="Group_859" data-name="Group 859" opacity="0.3">
            <g id="Group_858" data-name="Group 858">
              <g id="Group_857" data-name="Group 857" clip-path="url(#clip-path)">
                <path id="Path_4604" data-name="Path 4604" d="M419.729,400.774c-1.82.54-3.64,1.06-5.48,1.56q-4.995,1.395-10.07,2.64-2.685.675-5.39,1.3a412.234,412.234,0,0,1-40.93,7.36c-14.87-4.94-28.79-14.04-36.65-29.55a66.7,66.7,0,0,1,18.02-6.07l.03.05a4.461,4.461,0,0,0,4.01,2.43,4.515,4.515,0,0,0,4.5-3.67c7.54-1.98,15.58-1.83,23.7-.2,17.04,3.42,34.42,13.41,48.26,24.15" fill="#d7d7e1"/>
              </g>
            </g>
          </g>
          <path id="Path_4605" data-name="Path 4605" d="M345.139,388.514c-2.74-.63-5.13-1.18-5.69-1.36a1.5,1.5,0,0,0-1.88,2.24c.42.55.42.55,6.9,2.04,10.65,2.46,33.56,7.74,54.32,14.84q2.7-.63,5.39-1.3c-22.02-7.93-47.57-13.82-59.04-16.46" fill="#e0e0ea"/>
          <path id="Path_4606" data-name="Path 4606" d="M440.389,394.034c-1.27.46-2.54.91-3.82,1.35.08.04.15.09.23.13-.2,0-.39,0-.58-.01a.169.169,0,0,0-.05.02c-1.48.51-2.97,1.01-4.46,1.51q-5.925,1.965-11.98,3.74c-1.82.54-3.64,1.06-5.48,1.56-14.26-5.16-30.27-13.18-42.78-25.71-12.49-12.49-21.5-29.5-21.8-52.64,0,0,10.92-.58,25.84,3.42l.15,5.17a4.451,4.451,0,0,0,7.98,2.57l3.08-4.05a100.166,100.166,0,0,1,46.97,38,122.876,122.876,0,0,1,11.15,20.68l.51,2.42c-1.64.63-3.3,1.24-4.96,1.84" fill="#d7d7e1"/>
          <path id="Path_4607" data-name="Path 4607" d="M432.119,389.4c-35.8-21.02-68.16-52.49-69.84-54.61a1.5,1.5,0,0,0-2.8,1c.43,2.11,35.94,35.78,72.38,56.93q2.355,1.365,4.71,2.66c1.28-.44,2.55-.89,3.82-1.35q-4.155-2.205-8.27-4.63" fill="#e0e0ea"/>
          <path id="Path_4608" data-name="Path 4608" d="M508.339,170.384a9.37,9.37,0,1,0,9.37,9.37,9.383,9.383,0,0,0-9.37-9.37m0,15.74a6.37,6.37,0,1,1,6.37-6.37,6.38,6.38,0,0,1-6.37,6.37" fill="#d7d7e1"/>
          <path id="Path_4609" data-name="Path 4609" d="M551.587,222.847a1.5,1.5,0,0,1-1.5-1.5V209.1a1.5,1.5,0,0,1,3,0v12.252a1.5,1.5,0,0,1-1.5,1.5" fill="#d7d7e1"/>
          <path id="Path_4610" data-name="Path 4610" d="M557.713,216.721H545.462a1.5,1.5,0,0,1,0-3h12.251a1.5,1.5,0,0,1,0,3" fill="#d7d7e1"/>
          <path id="Path_4611" data-name="Path 4611" d="M104.4,251.944a9.37,9.37,0,1,0-10.18,14,9.207,9.207,0,0,0,2.21.26,9.368,9.368,0,0,0,7.97-14.26m-1.8,6.38a6.37,6.37,0,1,1-.76-4.81,6.339,6.339,0,0,1,.76,4.81" fill="#d7d7e1"/>
          <path id="Path_4612" data-name="Path 4612" d="M44.205,255.911a1.5,1.5,0,0,1-1.28-.716l-6.4-10.446a1.5,1.5,0,1,1,2.557-1.568l6.4,10.446a1.5,1.5,0,0,1-1.277,2.284" fill="#d7d7e1"/>
          <path id="Path_4613" data-name="Path 4613" d="M35.781,253.889A1.5,1.5,0,0,1,35,251.11l10.447-6.4a1.5,1.5,0,0,1,1.567,2.559l-10.447,6.4a1.49,1.49,0,0,1-.782.221" fill="#d7d7e1"/>
          <path id="Path_4614" data-name="Path 4614" d="M113.863,175.356s25.861-6.681,29.488-5.116,9.4,25.751,7.651,26.346-10.087-7.728-10.087-7.728-2.055,4.116-5.289,2.747-6.744-7.093-6.744-7.093-.91,2.805-4.238,1.623-7.72-7.591-7.72-7.591Z" fill="#d7d7e1"/>
          <path id="Path_4615" data-name="Path 4615" d="M49.085,140.7s-13.562-23.011-17.233-24.469S6.993,127.788,7.813,129.448s12.6,1.668,12.6,1.668-1.458,4.364,1.8,5.683,9.784-.247,9.784-.247-1.34,2.627,1.849,4.144,10.826.092,10.826.092Z" fill="#d7d7e1"/>
          <path id="Path_4616" data-name="Path 4616" d="M128.021,156.349l-21.865,43.809a2.635,2.635,0,0,1-3.535,1.181L33.383,166.782a2.632,2.632,0,0,1-1.176-3.532l21.865-43.809a2.569,2.569,0,0,1,.579-.763,2.62,2.62,0,0,1,2.951-.421l69.238,34.558a2.628,2.628,0,0,1,1.442,2.613,2.58,2.58,0,0,1-.261.921" fill="#d4d4d9"/>
          <path id="Path_4617" data-name="Path 4617" d="M35.807,163.913l40.932-3.8a5.5,5.5,0,0,1,5.172,2.559L104,197.95,83.7,160.637a5.5,5.5,0,0,0-5.871-2.93Z" fill="#e5e5e5"/>
          <path id="Path_4618" data-name="Path 4618" d="M128.154,155.685l-50.1,8.235L54.523,118.935a2.67,2.67,0,0,1,3.079-.678l69.238,34.558a2.681,2.681,0,0,1,1.314,2.87" fill="#d4d4d9"/>
          <path id="Path_4619" data-name="Path 4619" d="M55.984,121.727l20.473,38.952a4.832,4.832,0,0,0,5.152,2.6l43.116-6.85-43.865,9.9a4.875,4.875,0,0,1-5.871-2.93Z" fill="#e5e5e5"/>
          <path id="Path_4620" data-name="Path 4620" d="M535.776,94.513s14.452-22.462,18.177-23.775,24.387,12.523,23.5,14.15S564.8,86.061,564.8,86.061s1.285,4.418-2.02,5.608-9.766-.629-9.766-.629,1.235,2.677-2.011,4.068-10.82-.332-10.82-.332Z" fill="#d7d7e1"/>
          <path id="Path_4621" data-name="Path 4621" d="M464.684,113.042s-25.58-7.689-29.265-6.267-10.4,25.363-8.676,26.026,10.382-7.327,10.382-7.327,1.891,4.194,5.177,2.952,7.016-6.823,7.016-6.823.8,2.838,4.171,1.787,8.011-7.282,8.011-7.282Z" fill="#d7d7e1"/>
          <path id="Path_4622" data-name="Path 4622" d="M533.268,70.944l13.687,47.012a2.633,2.633,0,0,1-1.793,3.265l-74.3,21.632a2.633,2.633,0,0,1-3.261-1.794L453.915,94.048a2.587,2.587,0,0,1-.093-.953,2.621,2.621,0,0,1,1.881-2.312L530,69.151a2.63,2.63,0,0,1,2.833.94,2.567,2.567,0,0,1,.434.853" fill="#d4d4d9"/>
          <path id="Path_4623" data-name="Path 4623" d="M470.7,139.1l27.474-30.579a5.5,5.5,0,0,1,5.534-1.633L543.872,117.8l-40.237-13.615a5.5,5.5,0,0,0-6.3,1.835Z" fill="#e5e5e5"/>
          <path id="Path_4624" data-name="Path 4624" d="M532.914,70.367l-31.192,40.057L453.9,93.371a2.668,2.668,0,0,1,1.8-2.588L530,69.151a2.682,2.682,0,0,1,2.913,1.216" fill="#d4d4d9"/>
          <path id="Path_4625" data-name="Path 4625" d="M456.87,94.429l41.476,14.7a4.832,4.832,0,0,0,5.546-1.59L530.9,73.24l-25.487,37.048a4.873,4.873,0,0,1-6.3,1.834Z" fill="#e5e5e5"/>
          <path id="Path_4626" data-name="Path 4626" d="M188.855,353.425s18.833-5.829,21.561-4.8,7.833,18.657,6.561,19.156-7.707-5.345-7.707-5.345-1.37,3.107-3.8,2.21-5.22-4.993-5.22-4.993-.572,2.1-3.067,1.344-5.957-5.326-5.957-5.326Z" fill="#d7d7e1"/>
          <path id="Path_4627" data-name="Path 4627" d="M139.887,330.136s-10.8-16.491-13.56-17.438-17.923,9.39-17.261,10.585,9.345.791,9.345.791-.922,3.267,1.524,4.126,7.205-.523,7.205-.523-.9,1.983,1.508,2.99,7.984-.31,7.984-.31Z" fill="#d7d7e1"/>
          <path id="Path_4628" data-name="Path 4628" d="M198.63,338.918,184.04,371.98a1.943,1.943,0,0,1-2.564.994l-52.254-23.059a1.942,1.942,0,0,1-.99-2.562l14.59-33.063a1.892,1.892,0,0,1,.4-.582,1.931,1.931,0,0,1,2.16-.413l52.254,23.059a1.938,1.938,0,0,1,1.154,1.876,1.886,1.886,0,0,1-.16.688" fill="#d4d4d9"/>
          <path id="Path_4629" data-name="Path 4629" d="M130.908,347.716l30.045-4.232a4.06,4.06,0,0,1,3.9,1.706l17.518,25.237-16.27-26.8a4.063,4.063,0,0,0-4.431-1.955Z" fill="#e5e5e5"/>
          <path id="Path_4630" data-name="Path 4630" d="M198.7,338.423l-36.646,7.821L143.136,313.9a1.97,1.97,0,0,1,2.246-.607l52.253,23.059a1.978,1.978,0,0,1,1.069,2.07" fill="#d4d4d9"/>
          <path id="Path_4631" data-name="Path 4631" d="M144.31,315.909l16.454,28a3.568,3.568,0,0,0,3.889,1.736L196.2,339.09l-31.994,8.831a3.6,3.6,0,0,1-4.431-1.955Z" fill="#e5e5e5"/>
          <path id="Path_4632" data-name="Path 4632" d="M168.573,128.755l115.915-86a13.31,13.31,0,0,1,15.938.056l114.157,85.943L292.506,201.617Z" fill="#d2d2d6"/>
          <path id="Path_4633" data-name="Path 4633" d="M410.351,294.1H172.8a8.083,8.083,0,0,1-8.083-8.083v-150.3a8.083,8.083,0,0,1,8.083-8.083l119.7,73.985,117.845-73.985a8.083,8.083,0,0,1,8.083,8.083v150.3a8.083,8.083,0,0,1-8.083,8.083" fill="#dedee2"/>
          <path id="Path_4634" data-name="Path 4634" d="M409.489,282.9l-105.56-64.49-3.48-2.12a16.882,16.882,0,0,0-17.71.06l-3.46,2.15-103.75,64.4,98.27-68.62,8.64-6.03a16.861,16.861,0,0,1,20.14,0l7.61,5.31Z" fill="#d6d6d6"/>
          <path id="Path_4635" data-name="Path 4635" d="M446.058,255.177c8.552-2.941,3.99-17.674,16.156-26.7,12.844-9.524,17.291,3.219,17.291,3.219s10.826-7.645,22.056,2.3c6.938,6.143,15.414,21.209,4.411,41.995-9.542,18.025,14.073,25.513-2.06,35.989-13.8,8.961-52.379-6.7-52.379-6.7s-44.553-36.665-5.475-50.1" fill="#b9bac3"/>
          <rect id="Rectangle_325" data-name="Rectangle 325" width="37.449" height="18.842" transform="translate(451.002 309.842) rotate(-78.385)" fill="#feebe0"/>
          <path id="Path_4636" data-name="Path 4636" d="M477,276.953l-2.69,13.082c-6.046,4-12.974,8.57-20.7,7.135l4.611-22.433c.556-.451,1.109-.886,1.689-1.3Z" fill="#d6c1bc"/>
          <path id="Path_4637" data-name="Path 4637" d="M467.138,235.68s-22.646,18.7-20.6,44.431a5.062,5.062,0,0,0,2.731,4.111c5.649,2.89,19.738,9.13,26.029,3.132,7.968-7.6,24.052-27.6,17.712-36.653s-25.876-15.021-25.876-15.021" fill="#feebe0"/>
          <path id="Path_4638" data-name="Path 4638" d="M480.152,270.359s13.833-2.4,16.378,6.627-17.8,11.793-18.187,3.636,1.809-10.263,1.809-10.263" fill="#feebe0"/>
          <path id="Path_4639" data-name="Path 4639" d="M455.684,248.651s5.188-8.841,7.8-4.694,3.626,10.5,16.792,8.757c10-1.321,2.865,20.753,2.865,20.753s6.2-4.03,11.086-.3c0,0,8.18-23.327.393-28.878s-27.4-13.969-31.22-10.225-7.719,14.59-7.719,14.59" fill="#b9bac3"/>
          <path id="Path_4640" data-name="Path 4640" d="M459.931,257.486c-.781,1.194-1.871,1.862-2.436,1.493s-.388-1.636.393-2.83,1.871-1.862,2.435-1.493.389,1.636-.392,2.83" fill="#c8cbd7"/>
          <path id="Path_4641" data-name="Path 4641" d="M472.586,265.933c-.781,1.194-1.871,1.862-2.436,1.493s-.388-1.636.393-2.83,1.871-1.862,2.435-1.493.389,1.636-.392,2.83" fill="#c8cbd7"/>
          <path id="Path_4642" data-name="Path 4642" d="M455.273,270.094c.366.128,12.258,4.766,12.258,4.766s-12.5,12.924-11.892-4.638Z" fill="#fff"/>
          <path id="Path_4643" data-name="Path 4643" d="M517.579,352.654a246.707,246.707,0,0,1-24.94,16.91c-.86.52-1.73,1.03-2.6,1.53a302.016,302.016,0,0,1-44.69,21.1c-1.64.63-3.3,1.24-4.96,1.84-1.27.46-2.54.91-3.82,1.35.08.04.15.09.23.13-.2,0-.39,0-.58-.01a.169.169,0,0,0-.05.02c-1.48.51-2.97,1.01-4.46,1.51l.15-4.31.26-3.32,1.57-20.31,1.21-15.54.76-9.75.93-12.08,1.28-20.26c.72-4.76,5.78-7.86,9.85-9.61a35.722,35.722,0,0,1,5.29-1.81h.01c.07.31,3.27,14.72,18.74,1.59l.16.04,11.48,2.6a13.768,13.768,0,0,1,8,5.23c.45.61,1.71,2.44,3.48,5.12,5.35,8.08,15.43,23.96,22.7,38.03" fill="#e0e0ea"/>
          <path id="Path_4644" data-name="Path 4644" d="M453.016,300.048s-38.8-11.378-43.53-17.144-33.731-41.8-33.731-41.8l-22.962,15.715,34.945,58.142c17.574,18.763,58.264,33.378,60.224,32.83s5.054-47.741,5.054-47.741" fill="#e0e0ea"/>
          <path id="Path_4645" data-name="Path 4645" d="M352.793,256.818l-24.6-16.372a1.885,1.885,0,0,1,.256-3.286c5.356-2.453,14.765-4.613,17.142-4.356,3.2.344,16.106,3.41,16.106,3.41l-1.181-5.783a2.818,2.818,0,0,1,2.048-3.291,4.862,4.862,0,0,1,5.286,2.02l7.9,11.943Z" fill="#feebe0"/>
          <path id="Path_4646" data-name="Path 4646" d="M481,279.442s4.13,1.465,4.246-1.151c.066-1.481-2.184-1.925-2.184-1.925s7.439-3.251,9.106.5-4.667,8.153-11.168,2.576" fill="#d6c1bc"/>
          <path id="Path_4647" data-name="Path 4647" d="M478.843,326.458a1.5,1.5,0,0,1-1.5-1.477c-.186-12.524,5.143-16.255,5.371-16.408a1.5,1.5,0,0,1,1.691,2.477c-.11.083-4.22,3.26-4.062,13.886a1.5,1.5,0,0,1-1.478,1.522Z" fill="#d7d7e1"/>
          <path id="Path_4648" data-name="Path 4648" d="M492.639,369.564c-.86.52-1.73,1.03-2.6,1.53-5.9-14.01-12.52-29.81-12.52-40.2a1.5,1.5,0,0,1,3,0c0,9.69,6.37,25.01,12.12,38.67" fill="#d7d7e1"/>
          <path id="Path_4649" data-name="Path 4649" d="M329.638,294.1a37.132,37.132,0,1,1-37.132-37.132A37.133,37.133,0,0,1,329.638,294.1" fill="#d7d7e1"/>
        </g>
      </g>
      <text id="_0" data-name="0" transform="translate(276.993 309.818)" fill="#fff" font-size="42.088" font-family="Metropolis-Black, Metropolis" font-weight="800"><tspan x="0" y="0">0</tspan></text>
    </g>
  </g>
</svg>
