<svg xmlns="http://www.w3.org/2000/svg" width="77.916" height="75.832" viewBox="0 0 77.916 75.832">
  <g id="no_outgoing" transform="translate(-1147.084 -745.168)">
    <path id="icons8-close_window" d="M11.628,4A7.651,7.651,0,0,0,4,11.628V60.446a7.651,7.651,0,0,0,7.628,7.628H60.446a7.651,7.651,0,0,0,7.628-7.628V11.628A7.651,7.651,0,0,0,60.446,4Zm0,3.051H60.446a4.554,4.554,0,0,1,4.577,4.577V60.446a4.554,4.554,0,0,1-4.577,4.577H11.628a4.554,4.554,0,0,1-4.577-4.577V11.628A4.554,4.554,0,0,1,11.628,7.051Z" transform="translate(1143.084 741.168)" fill="#82828d"/>
    <g id="icons8-unavailable" transform="translate(1191 787)" fill="#82828d">
      <path d="M 17 32 C 8.728969573974609 32 2 25.27103042602539 2 17 C 2 8.728969573974609 8.728969573974609 2 17 2 C 25.27103042602539 2 32 8.728969573974609 32 17 C 32 25.27103042602539 25.27103042602539 32 17 32 Z M 13.88434791564941 24.78235244750977 C 14.87291526794434 25.18967628479004 15.92418193817139 25.39999961853027 17 25.39999961853027 C 21.63178062438965 25.39999961853027 25.39999961853027 21.63178062438965 25.39999961853027 17 C 25.39999961853027 15.92418193817139 25.18967628479004 14.87291526794434 24.78235244750977 13.88434791564941 L 13.88434791564941 24.78235244750977 Z M 17 8.600000381469727 C 12.36822032928467 8.600000381469727 8.600000381469727 12.36822032928467 8.600000381469727 17 C 8.600000381469727 18.07582473754883 8.810325622558594 19.1270866394043 9.2176513671875 20.11564826965332 L 20.11564826965332 9.2176513671875 C 19.1270866394043 8.810325622558594 18.07582473754883 8.600000381469727 17 8.600000381469727 Z" stroke="none"/>
      <path d="M 17 4 C 9.835689544677734 4 4 9.835699081420898 4 17 C 4 24.16429901123047 9.835689544677734 30 17 30 C 24.16431045532227 30 30 24.16429901123047 30 17 C 30 9.835699081420898 24.16431045532227 4 17 4 M 8.808980941772461 23.35272979736328 C 7.443899154663086 21.5932502746582 6.600000381469727 19.40793037414551 6.600000381469727 17 C 6.600000381469727 11.24084091186523 11.24082946777344 6.600000381469727 17 6.600000381469727 C 19.40793037414551 6.600000381469727 21.5932502746582 7.443899154663086 23.35272979736328 8.808980941772461 L 8.808980941772461 23.35272979736328 M 17 27.39999961853027 C 14.59206962585449 27.39999961853027 12.4067497253418 26.55609893798828 10.64726066589355 25.19102096557617 L 25.19102096557617 10.64726066589355 C 26.55609893798828 12.4067497253418 27.39999961853027 14.59206962585449 27.39999961853027 17 C 27.39999961853027 22.75915908813477 22.75915908813477 27.39999961853027 17 27.39999961853027 M 17 0 C 26.37382888793945 0 34 7.626169204711914 34 17 C 34 26.37382888793945 26.37382888793945 34 17 34 C 7.626169204711914 34 0 26.37382888793945 0 17 C 0 7.626169204711914 7.626169204711914 0 17 0 Z M 10.71469497680664 15.7901554107666 L 15.7901554107666 10.71469497680664 C 13.2296199798584 11.20661163330078 11.20661163330078 13.2296199798584 10.71469497680664 15.7901554107666 Z M 18.20983123779297 23.28530883789062 C 20.77036666870117 22.79339027404785 22.79339027404785 20.77036666870117 23.28530883789062 18.20983123779297 L 18.20983123779297 23.28530883789062 Z" stroke="none" fill="#303041"/>
    </g>
    <path id="send_icon" d="M13.753,0a2.3,2.3,0,0,0-1.786.9l-.009.013L.673,12.2a2.3,2.3,0,1,0,3.25,3.25L11.49,7.877l-.036,26.829a2.3,2.3,0,1,0,4.6,0l.036-26.829,7.567,7.567a2.3,2.3,0,1,0,3.25-3.25L15.606.9A2.3,2.3,0,0,0,13.753,0Z" transform="translate(1182.455 754.372) rotate(45)" fill="#82828d"/>
  </g>
</svg>
