<svg xmlns="http://www.w3.org/2000/svg" xmlns:xlink="http://www.w3.org/1999/xlink" width="191.747" height="191.081" viewBox="0 0 191.747 191.081">
  <defs>
    <clipPath id="clip-path">
      <rect id="Rectangle_299" data-name="Rectangle 299" width="191.747" height="191.081" fill="none"/>
    </clipPath>
  </defs>
  <g id="No_transaction" data-name="No transaction" transform="translate(0 -0.001)">
    <g id="Group_563" data-name="Group 563" transform="translate(0 0.001)" clip-path="url(#clip-path)">
      <path id="Path_4516" data-name="Path 4516" d="M45.446,99.753c-6.71.046-16.3-5.179-22.423-13.356C10.21,69.3,14.478,49.746,21.7,43.161c5.834-5.315,13.383-5.585,23.439-1.553,0,11.224.3,58.145.3,58.145" transform="translate(16.178 42.437)" fill="#343446"/>
      <path id="Path_4517" data-name="Path 4517" d="M45.446,99.753c-6.71.046-16.3-5.179-22.423-13.356C10.21,69.3,14.478,49.746,21.7,43.161c5.834-5.315,13.383-5.585,23.439-1.553C45.143,52.832,45.446,99.753,45.446,99.753Z" transform="translate(16.178 42.437)" fill="none" stroke="#65656e" stroke-linecap="round" stroke-width="1"/>
      <path id="Path_4518" data-name="Path 4518" d="M32.854,75.7c27.679,5.968,40.055-4.8,46.021-26.873C84.9,26.538,76.284,7.52,73.367,13.065s-5.1,17.288-29.6,12.006C14.871,18.84,20.885,8.311,20.512,2.056S4.488,9,1.243,30.949C-2.1,53.566,5.388,69.782,32.854,75.7" transform="translate(0.546 0.547)" fill="#343446"/>
      <path id="Path_4519" data-name="Path 4519" d="M32.854,75.7c27.679,5.968,40.055-4.8,46.021-26.873C84.9,26.538,76.284,7.52,73.367,13.065s-5.1,17.288-29.6,12.006C14.871,18.84,20.885,8.311,20.512,2.056S4.488,9,1.243,30.949C-2.1,53.566,5.388,69.782,32.854,75.7Z" transform="translate(0.546 0.547)" fill="none" stroke="#65656e" stroke-width="1"/>
      <path id="Path_4520" data-name="Path 4520" d="M36.629,18.678c-7.372-1.743-11.676-3.143-14.45-3.948-4.7-1.364-12.473-4.593-16.072,12.1C4.115,36.073,8.185,42.5,13.364,46.018c3.4,2.31,9.347,4.338,15.145,5.675l1.686.364c5.836,1.17,12.088,1.772,16.139,1.069,6.166-1.071,12.523-5.252,14.515-14.49,3.6-16.7-4.813-16.957-9.657-17.65-2.86-.41-7.359-.908-14.794-2.358Z" transform="translate(6.109 14.799)" fill="#2d2d40" stroke="#65656e" stroke-width="1"/>
      <path id="Path_4521" data-name="Path 4521" d="M15.834,28.617a5.134,5.134,0,0,1,4.8-1.814,5,5,0,0,1,3.561,3.616" transform="translate(17.298 29.17)" fill="none" stroke="#65656e" stroke-width="1"/>
      <path id="Path_4522" data-name="Path 4522" d="M11.182,27.164,18.1,28.656a1.246,1.246,0,0,0,1.479-.956l1.724-8-2.657,1.057a1.248,1.248,0,0,1-.726.061l-5.265-1.134a1.106,1.106,0,0,0-1.314.847l-1.111,5.156A1.245,1.245,0,0,0,11.182,27.164Z" transform="translate(11.142 21.473)" fill="none" stroke="#65656e" stroke-width="1"/>
      <path id="Path_4523" data-name="Path 4523" d="M30.459,32.349l-6.915-1.492a1.243,1.243,0,0,1-.954-1.477l1.726-8L26.3,23.435a1.251,1.251,0,0,0,.636.354L32.2,24.925a1.1,1.1,0,0,1,.847,1.314l-1.111,5.156A1.245,1.245,0,0,1,30.459,32.349Z" transform="translate(24.647 23.354)" fill="none" stroke="#65656e" stroke-width="1"/>
      <path id="Path_4524" data-name="Path 4524" d="M29.258,165.009V46.209A22.344,22.344,0,0,1,51.6,23.866h84.794a22.344,22.344,0,0,1,22.343,22.343v118.8" transform="translate(31.962 26.072)" fill="#38384b"/>
      <path id="Path_4525" data-name="Path 4525" d="M29.258,165.009V46.209A22.344,22.344,0,0,1,51.6,23.866h84.794a22.344,22.344,0,0,1,22.343,22.343v118.8" transform="translate(31.962 26.072)" fill="none" stroke="#65656e" stroke-width="1"/>
      <rect id="Rectangle_295" data-name="Rectangle 295" width="102.086" height="26.806" rx="3.258" transform="translate(75.678 83.703)" fill="none" stroke="#65656e" stroke-width="1.03"/>
      <rect id="Rectangle_296" data-name="Rectangle 296" width="102.086" height="26.806" rx="3.258" transform="translate(75.678 119.525)" fill="none" stroke="#65656e" stroke-width="1.03"/>
      <rect id="Rectangle_297" data-name="Rectangle 297" width="102.086" height="26.806" rx="3.258" transform="translate(75.678 155.347)" fill="none" stroke="#65656e" stroke-width="1.03"/>
      <line id="Line_101" data-name="Line 101" x2="50.771" transform="translate(103.171 97.107)" fill="none" stroke="#65656e" stroke-linecap="round" stroke-width="1.03"/>
      <line id="Line_102" data-name="Line 102" x2="50.771" transform="translate(103.171 168.75)" fill="none" stroke="#65656e" stroke-linecap="round" stroke-width="1.03"/>
      <line id="Line_103" data-name="Line 103" x2="24.8" transform="translate(116.021 67.986)" fill="none" stroke="#65656e" stroke-linecap="round" stroke-width="1"/>
      <line id="Line_104" data-name="Line 104" x2="50.771" transform="translate(103.171 134.198)" fill="none" stroke="#65656e" stroke-linecap="round" stroke-width="1.03"/>
      <path id="Path_4526" data-name="Path 4526" d="M49.176,50.1a.726.726,0,0,0,1.452,0V45.017a.8.8,0,0,0-.013-.142.553.553,0,0,0-.019-.063l-.023-.073a.441.441,0,0,0-.038-.069.362.362,0,0,0-.029-.056.734.734,0,0,0-.2-.2.473.473,0,0,0-.054-.029.462.462,0,0,0-.071-.038.426.426,0,0,0-.073-.023c-.021-.006-.042-.015-.063-.019a.8.8,0,0,0-.142-.013H44.818a.726.726,0,0,0,0,1.452h3.331l-6.3,6.7a.726.726,0,0,0,1.027,1.027l6.3-6.7Z" transform="translate(45.481 48.385)" fill="#65656e"/>
      <path id="Path_4527" data-name="Path 4527" d="M49.176,84.214a.726.726,0,1,0,1.452,0V79.129a.8.8,0,0,0-.013-.142.554.554,0,0,0-.019-.063l-.023-.073a.441.441,0,0,0-.038-.069.361.361,0,0,0-.029-.056.734.734,0,0,0-.2-.2.471.471,0,0,0-.054-.029.462.462,0,0,0-.071-.038.427.427,0,0,0-.073-.023c-.021-.006-.042-.015-.063-.019A.8.8,0,0,0,49.9,78.4H44.818a.726.726,0,0,0,0,1.452h3.331l-6.3,6.7a.726.726,0,0,0,1.027,1.027l6.3-6.7Z" transform="translate(45.481 85.65)" fill="#65656e"/>
      <path id="Path_4528" data-name="Path 4528" d="M43.086,65.475a.726.726,0,0,0-1.452,0V70.56a.8.8,0,0,0,.013.142.551.551,0,0,0,.019.063l.023.073a.441.441,0,0,0,.038.069.36.36,0,0,0,.029.057.734.734,0,0,0,.2.2.472.472,0,0,0,.054.029.46.46,0,0,0,.071.038.427.427,0,0,0,.073.023c.021.006.042.015.063.019a.8.8,0,0,0,.142.013h5.085a.726.726,0,1,0,0-1.452H44.114l6.3-6.7A.726.726,0,0,0,49.389,62.1l-6.3,6.7Z" transform="translate(45.482 67.61)" fill="#65656e"/>
      <path id="Path_4529" data-name="Path 4529" d="M19.561,19.6c2.785,13.6,4.174,22.238.329,23.427C16.751,44,8.369,35.871,3.533,24.426-1.386,12.777-1.432,2.723,5.067.473c7.978-2.764,12,6.959,14.494,19.131" transform="translate(26.1 92.123) rotate(3)" fill="#343446"/>
      <path id="Path_4530" data-name="Path 4530" d="M19.561,19.6c2.785,13.6,4.174,22.238.329,23.427C16.751,44,8.369,35.871,3.533,24.426-1.386,12.777-1.432,2.723,5.067.473,13.045-2.291,17.065,7.433,19.561,19.6Z" transform="translate(26.1 92.123) rotate(3)" fill="none" stroke="#65656e" stroke-width="1"/>
      <path id="Path_4531" data-name="Path 4531" d="M31.162,78.161l-4.4-1.274A4.636,4.636,0,0,1,23.6,71.145l1.274-4.4a4.638,4.638,0,0,1,5.744-3.164l4.4,1.274A4.633,4.633,0,0,1,38.178,70.6L36.906,75a4.639,4.639,0,0,1-5.744,3.164" transform="translate(25.581 69.26)" fill="#343446"/>
      <rect id="Rectangle_298" data-name="Rectangle 298" width="13.85" height="13.851" rx="3" transform="matrix(0.278, -0.961, 0.961, 0.278, 47.892, 144.855)" fill="none" stroke="#65656e" stroke-width="1"/>
      <path id="Path_4532" data-name="Path 4532" d="M28.775,61.273c2.536-.73,4.865-.977,5.434.686.617,1.8-1.387,3.122-3.946,3.76s-4.785.536-5.206-1.117c-.4-1.588,1.117-2.58,3.718-3.329" transform="translate(27.303 66.322)" fill="#343446"/>
      <path id="Path_4533" data-name="Path 4533" d="M28.775,61.273c2.536-.73,4.865-.977,5.434.686.617,1.8-1.387,3.122-3.946,3.76s-4.785.536-5.206-1.117C24.655,63.013,26.174,62.022,28.775,61.273Z" transform="translate(27.303 66.322)" fill="none" stroke="#65656e" stroke-width="1"/>
    </g>
  </g>
</svg>
