<svg xmlns="http://www.w3.org/2000/svg" width="191.653" height="191.581" viewBox="0 0 191.653 191.581">
  <g id="no_transaction_1" transform="translate(-0.318 -0.273)">
    <g id="Group_574" data-name="Group 574" transform="translate(0.774 0.775)">
      <path id="Path_4516" data-name="Path 4516" d="M45.615,100.088c-6.747.046-16.386-5.207-22.546-13.429-12.885-17.191-8.592-36.853-1.328-43.474C27.607,37.84,35.2,37.569,45.31,41.623c0,11.286.305,58.464.305,58.464" transform="translate(15.297 41.831)" fill="#ebebeb"/>
      <path id="Path_4517" data-name="Path 4517" d="M45.615,100.088c-6.747.046-16.386-5.207-22.546-13.429-12.885-17.191-8.592-36.853-1.328-43.474C27.607,37.84,35.2,37.569,45.31,41.623,45.31,52.909,45.615,100.088,45.615,100.088Z" transform="translate(15.297 41.831)" fill="none" stroke="#a3a3b2" stroke-linecap="round" stroke-miterlimit="10" stroke-width="1"/>
      <path id="Path_4518" data-name="Path 4518" d="M33.031,76.117c27.831,6,40.276-4.826,46.274-27.021,6.057-22.415-2.6-41.538-5.538-35.963s-5.129,17.383-29.76,12.072C14.95,18.941,21,8.354,20.622,2.065S4.51,9.046,1.247,31.116c-3.362,22.742,4.168,39.047,31.784,45" transform="translate(-0.5 -0.5)" fill="#ebebeb"/>
      <path id="Path_4519" data-name="Path 4519" d="M33.031,76.117c27.831,6,40.276-4.826,46.274-27.021,6.057-22.415-2.6-41.538-5.538-35.963s-5.129,17.383-29.76,12.072C14.95,18.941,21,8.354,20.622,2.065S4.51,9.046,1.247,31.116C-2.115,53.858,5.415,70.163,33.031,76.117Z" transform="translate(-0.5 -0.5)" fill="none" stroke="#a3a3b2" stroke-miterlimit="10" stroke-width="1"/>
      <path id="Path_4520" data-name="Path 4520" d="M36.8,18.706c-7.412-1.753-11.74-3.16-14.53-3.97C17.545,13.365,9.729,10.118,6.11,26.908,4.107,36.2,8.2,42.66,13.406,46.2c3.419,2.323,9.4,4.361,15.228,5.706l1.7.366c5.868,1.176,12.154,1.782,16.228,1.075,6.2-1.077,12.592-5.281,14.6-14.57,3.619-16.787-4.839-17.05-9.71-17.747-2.876-.412-7.4-.913-14.875-2.371Z" transform="translate(5.121 13.902)" fill="#f4f4f4" stroke="#a3a3b2" stroke-miterlimit="10" stroke-width="1"/>
      <path id="Path_4521" data-name="Path 4521" d="M15.834,28.628A5.162,5.162,0,0,1,20.656,26.8a5.023,5.023,0,0,1,3.581,3.636" transform="translate(16.428 28.424)" fill="none" stroke="#a3a3b2" stroke-miterlimit="10" stroke-width="1"/>
      <path id="Path_4522" data-name="Path 4522" d="M11.187,27.205l6.954,1.5a1.253,1.253,0,0,0,1.487-.962L21.362,19.7,18.69,20.761a1.255,1.255,0,0,1-.73.061l-5.294-1.14a1.112,1.112,0,0,0-1.321.852l-1.117,5.184A1.252,1.252,0,0,0,11.187,27.205Z" transform="translate(10.208 20.646)" fill="none" stroke="#a3a3b2" stroke-miterlimit="10" stroke-width="1"/>
      <path id="Path_4523" data-name="Path 4523" d="M30.5,32.409l-6.954-1.5a1.25,1.25,0,0,1-.959-1.485l1.736-8.045,2,2.068a1.258,1.258,0,0,0,.64.356l5.294,1.142a1.11,1.11,0,0,1,.852,1.321L31.99,31.45A1.252,1.252,0,0,1,30.5,32.409Z" transform="translate(23.855 22.547)" fill="none" stroke="#a3a3b2" stroke-miterlimit="10" stroke-width="1"/>
      <path id="Path_4524" data-name="Path 4524" d="M29.258,165.785V46.332A22.467,22.467,0,0,1,51.724,23.866h85.26A22.467,22.467,0,0,1,159.45,46.332V165.785" transform="translate(31.248 25.294)" fill="#ebebeb"/>
      <path id="Path_4525" data-name="Path 4525" d="M29.258,165.785V46.332A22.467,22.467,0,0,1,51.724,23.866h85.26A22.467,22.467,0,0,1,159.45,46.332V165.785" transform="translate(31.248 25.294)" fill="none" stroke="#a3a3b2" stroke-miterlimit="10" stroke-width="1"/>
      <rect id="Rectangle_295" data-name="Rectangle 295" width="102.647" height="26.954" rx="3.258" transform="translate(75.043 83.111)" fill="none" stroke="#a3a3b2" stroke-miterlimit="10" stroke-width="1.03"/>
      <rect id="Rectangle_296" data-name="Rectangle 296" width="102.647" height="26.954" rx="3.258" transform="translate(75.043 119.13)" fill="none" stroke="#a3a3b2" stroke-miterlimit="10" stroke-width="1.03"/>
      <rect id="Rectangle_297" data-name="Rectangle 297" width="102.647" height="26.954" rx="3.258" transform="translate(75.043 155.149)" fill="none" stroke="#a3a3b2" stroke-miterlimit="10" stroke-width="1.03"/>
      <line id="Line_101" data-name="Line 101" x2="51.05" transform="translate(102.687 96.588)" fill="none" stroke="#a3a3b2" stroke-linecap="round" stroke-miterlimit="10" stroke-width="1.03"/>
      <line id="Line_102" data-name="Line 102" x2="51.05" transform="translate(102.687 168.625)" fill="none" stroke="#a3a3b2" stroke-linecap="round" stroke-miterlimit="10" stroke-width="1.03"/>
      <line id="Line_103" data-name="Line 103" x2="24.936" transform="translate(115.608 67.307)" fill="none" stroke="#a3a3b2" stroke-linecap="round" stroke-miterlimit="10" stroke-width="1"/>
      <line id="Line_104" data-name="Line 104" x2="51.05" transform="translate(102.687 133.883)" fill="none" stroke="#a3a3b2" stroke-linecap="round" stroke-miterlimit="10" stroke-width="1.03"/>
      <path id="Path_4526" data-name="Path 4526" d="M49.218,50.134a.73.73,0,1,0,1.46,0V45.021a.8.8,0,0,0-.013-.143.554.554,0,0,0-.019-.063l-.023-.074a.443.443,0,0,0-.038-.069.364.364,0,0,0-.029-.057.738.738,0,0,0-.2-.2.474.474,0,0,0-.055-.029.464.464,0,0,0-.072-.038.428.428,0,0,0-.074-.023c-.021-.006-.042-.015-.063-.019a.8.8,0,0,0-.143-.013H44.835a.73.73,0,0,0,0,1.46h3.349l-6.337,6.741a.73.73,0,0,0,1.033,1.033l6.337-6.741Z" transform="translate(44.909 47.842)" fill="#a3a3b2"/>
      <path id="Path_4527" data-name="Path 4527" d="M49.218,84.246a.73.73,0,1,0,1.46,0V79.133a.8.8,0,0,0-.013-.143.555.555,0,0,0-.019-.063l-.023-.074a.444.444,0,0,0-.038-.069.363.363,0,0,0-.029-.057.738.738,0,0,0-.2-.2A.474.474,0,0,0,50.3,78.5a.464.464,0,0,0-.072-.038.43.43,0,0,0-.074-.023c-.021-.006-.042-.015-.063-.019a.8.8,0,0,0-.143-.013H44.835a.73.73,0,0,0,0,1.46h3.349L41.848,86.6a.73.73,0,0,0,1.033,1.033L49.218,80.9Z" transform="translate(44.909 85.5)" fill="#a3a3b2"/>
      <path id="Path_4528" data-name="Path 4528" d="M43.094,65.5a.73.73,0,0,0-1.46,0v5.113a.8.8,0,0,0,.013.143.554.554,0,0,0,.019.063l.023.074a.444.444,0,0,0,.038.069.363.363,0,0,0,.029.057.738.738,0,0,0,.2.2.474.474,0,0,0,.055.029.464.464,0,0,0,.072.038.429.429,0,0,0,.074.023c.021.006.042.015.063.019a.805.805,0,0,0,.143.013h5.113a.73.73,0,1,0,0-1.46H44.127l6.337-6.741A.73.73,0,0,0,49.431,62.1l-6.337,6.741Z" transform="translate(44.91 67.269)" fill="#a3a3b2"/>
      <path id="Path_4529" data-name="Path 4529" d="M19.669,19.712c2.8,13.674,4.2,22.361.33,23.556-3.156.974-11.584-7.2-16.447-18.708C-1.394,12.847-1.44,2.738,5.095.476c8.022-2.779,12.064,7,14.574,19.236" transform="translate(25.192 91.577) rotate(3)" fill="#ebebeb"/>
      <path id="Path_4530" data-name="Path 4530" d="M19.669,19.712c2.8,13.674,4.2,22.361.33,23.556-3.156.974-11.584-7.2-16.447-18.708C-1.394,12.847-1.44,2.738,5.095.476,13.117-2.3,17.159,7.474,19.669,19.712Z" transform="translate(25.192 91.577) rotate(3)" fill="none" stroke="#a3a3b2" stroke-miterlimit="10" stroke-width="1"/>
      <path id="Path_4531" data-name="Path 4531" d="M31.2,78.242l-4.422-1.281A4.662,4.662,0,0,1,23.6,71.188l1.281-4.422a4.663,4.663,0,0,1,5.775-3.181l4.42,1.281a4.659,4.659,0,0,1,3.181,5.773L36.98,75.061A4.665,4.665,0,0,1,31.2,78.242" transform="translate(24.799 68.936)" fill="#ebebeb"/>
      <rect id="Rectangle_298" data-name="Rectangle 298" width="13.927" height="13.927" rx="3" transform="matrix(0.278, -0.961, 0.961, 0.278, 47.104, 144.599)" fill="none" stroke="#a3a3b2" stroke-miterlimit="10" stroke-width="1"/>
      <path id="Path_4532" data-name="Path 4532" d="M28.8,61.276c2.55-.734,4.892-.983,5.464.69.621,1.814-1.395,3.139-3.968,3.781s-4.812.539-5.235-1.124c-.4-1.6,1.123-2.594,3.739-3.347" transform="translate(26.539 65.968)" fill="#ebebeb"/>
      <path id="Path_4533" data-name="Path 4533" d="M28.8,61.276c2.55-.734,4.892-.983,5.464.69.621,1.814-1.395,3.139-3.968,3.781s-4.812.539-5.235-1.124C24.653,63.026,26.18,62.029,28.8,61.276Z" transform="translate(26.539 65.968)" fill="none" stroke="#a3a3b2" stroke-miterlimit="10" stroke-width="1"/>
    </g>
  </g>
</svg>
