<svg xmlns="http://www.w3.org/2000/svg" width="17.938" height="19.931" viewBox="0 0 17.938 19.931">
  <path id="icons8-paste" d="M11.969,1A2.98,2.98,0,0,0,9.162,2.993H4.993A1.993,1.993,0,0,0,3,4.986V18.938a1.993,1.993,0,0,0,1.993,1.993H18.944a1.993,1.993,0,0,0,1.993-1.993V4.986a1.993,1.993,0,0,0-1.993-1.993H14.775A2.98,2.98,0,0,0,11.969,1Zm0,1.993a1,1,0,0,1,.387,1.915l-.387.078-.387-.078a1,1,0,0,1,.387-1.915ZM4.993,4.986H6.986v1a1,1,0,0,0,1,1h7.972a1,1,0,0,0,1-1v-1h1.993V18.938H4.993Z" transform="translate(-3 -1)" fill="#1bb71f"/>
</svg>
