<svg xmlns="http://www.w3.org/2000/svg" width="18.192" height="21.53" viewBox="0 0 18.192 21.53">
  <path id="privacy" d="M14.116,2a.717.717,0,0,0-.5.184,13.576,13.576,0,0,1-7.9,3.165A.717.717,0,0,0,5,6.067v5.866c0,3.2,1.478,8.453,8.817,11.542a.717.717,0,0,0,.557,0c7.335-3.089,8.817-8.346,8.817-11.542V6.067a.717.717,0,0,0-.717-.717,13.577,13.577,0,0,1-7.91-3.165A.717.717,0,0,0,14.116,2Zm-.024,6.7a2.391,2.391,0,0,1,1.435,4.3v2.4a1.435,1.435,0,1,1-2.871,0v-2.4a2.391,2.391,0,0,1,1.435-4.3Z" transform="translate(-5 -2)" fill="#d1d1d3"/>
</svg>
