<svg xmlns="http://www.w3.org/2000/svg" width="29.313" height="29.313" viewBox="0 0 29.313 29.313">
  <path id="icons8-qr_code" d="M4.141,1A3.152,3.152,0,0,0,1,4.141V8.328a3.152,3.152,0,0,0,3.141,3.141H5.187v2.094H7.281V11.469H8.328a3.152,3.152,0,0,0,3.141-3.141V4.141A3.152,3.152,0,0,0,8.328,1ZM7.281,13.563v2.094H9.375V13.563Zm0,2.094H5.187V17.75H7.281Zm-2.094,0V13.563H3.094v2.094ZM22.984,1a3.152,3.152,0,0,0-3.141,3.141V8.328a3.152,3.152,0,0,0,3.141,3.141h1.047v2.094h2.094V11.469h1.047a3.152,3.152,0,0,0,3.141-3.141V4.141A3.152,3.152,0,0,0,27.172,1Zm3.141,12.563v2.094h2.094V13.563Zm0,2.094H24.031V17.75h2.094Zm0,2.094v2.094h2.094V17.75Zm0,2.094H24.031v2.094h2.094Zm-2.094,0V17.75H21.938v2.094ZM4.141,3.094H8.328A1.033,1.033,0,0,1,9.375,4.141V8.328A1.033,1.033,0,0,1,8.328,9.375H4.141A1.033,1.033,0,0,1,3.094,8.328V4.141A1.033,1.033,0,0,1,4.141,3.094Zm11.516,0V5.187H13.563V7.281h2.094V9.375H17.75V3.094Zm7.328,0h4.188a1.033,1.033,0,0,1,1.047,1.047V8.328a1.033,1.033,0,0,1-1.047,1.047H22.984a1.033,1.033,0,0,1-1.047-1.047V4.141A1.033,1.033,0,0,1,22.984,3.094ZM5.187,5.187V7.281H7.281V5.187Zm18.844,0V7.281h2.094V5.187ZM11.469,11.469v2.094H17.75v2.094h2.094V11.469Zm2.094,4.187V17.75H11.469v2.094h8.375V17.75H15.656V15.656ZM4.141,19.844A3.152,3.152,0,0,0,1,22.984v4.188a3.152,3.152,0,0,0,3.141,3.141H8.328a3.152,3.152,0,0,0,3.141-3.141V22.984a3.152,3.152,0,0,0-3.141-3.141Zm0,2.094H8.328a1.033,1.033,0,0,1,1.047,1.047v4.188a1.033,1.033,0,0,1-1.047,1.047H4.141a1.033,1.033,0,0,1-1.047-1.047V22.984A1.033,1.033,0,0,1,4.141,21.938Zm9.422,0v6.281h2.094V21.938ZM5.187,24.031v2.094H7.281V24.031Zm14.656,0v2.094h2.094V24.031Zm2.094,2.094v2.094h2.094V26.125Zm2.094,0h2.094V24.031H24.031Zm2.094,0v2.094h2.094V26.125Z" transform="translate(-1 -1)" fill="#fff"/>
</svg>
