<svg width="148" height="120" viewBox="0 0 148 120" fill="none" xmlns="http://www.w3.org/2000/svg">
<path d="M134.799 70.6019C136.593 67.197 137.62 63.326 137.62 59.2101C137.62 48.749 131.048 39.8441 121.818 36.3349C121.818 36.3238 121.82 36.3128 121.82 36.3001C121.82 17.9753 106.965 3.12012 88.6397 3.12012C73.181 3.12012 60.2297 13.7077 56.5452 28.0162C54.2131 27.2499 51.7278 26.8201 49.1397 26.8201C36.9864 26.8201 26.9834 35.9731 25.6135 47.7583C17.3912 49.4979 11.2197 56.7912 11.2197 65.5301C11.2197 75.5647 19.3551 83.7001 29.3897 83.7001C29.6694 83.7001 29.9459 83.6812 30.2208 83.6654C30.2145 83.9419 30.1797 84.2121 30.1797 84.4902C30.1797 102.379 44.681 116.88 62.5697 116.88C72.7402 116.88 81.8062 112.184 87.7454 104.85C91.1867 108.366 95.9709 110.56 101.28 110.56C108.627 110.56 114.985 106.373 118.132 100.262C119.794 100.791 121.562 101.08 123.4 101.08C132.998 101.08 140.78 93.2987 140.78 83.7001C140.78 78.4688 138.457 73.7888 134.799 70.6019Z" fill="#202329"/>
<path d="M19.4904 61.5797H3.69039C3.25431 61.5797 2.90039 61.2258 2.90039 60.7897C2.90039 60.3536 3.25431 59.9997 3.69039 59.9997H19.4904C19.9265 59.9997 20.2804 60.3536 20.2804 60.7897C20.2804 61.2258 19.928 61.5797 19.4904 61.5797ZM24.2304 61.5797H22.6504C22.2143 61.5797 21.8604 61.2258 21.8604 60.7897C21.8604 60.3536 22.2143 59.9997 22.6504 59.9997H24.2304C24.6664 59.9997 25.0204 60.3536 25.0204 60.7897C25.0204 61.2258 24.668 61.5797 24.2304 61.5797ZM32.1161 64.7397H17.9104C17.4743 64.7397 17.1204 64.3858 17.1204 63.9497C17.1204 63.5136 17.4743 63.1597 17.9104 63.1597H32.1161C32.5522 63.1597 32.9061 63.5136 32.9061 63.9497C32.9061 64.3858 32.5522 64.7397 32.1161 64.7397ZM14.7504 64.7397H13.1704C12.7343 64.7397 12.3804 64.3858 12.3804 63.9497C12.3804 63.5136 12.7343 63.1597 13.1704 63.1597H14.7504C15.1865 63.1597 15.5404 63.5136 15.5404 63.9497C15.5404 64.3858 15.188 64.7397 14.7504 64.7397ZM10.0104 64.7397H6.85039C6.41431 64.7397 6.06039 64.3858 6.06039 63.9497C6.06039 63.5136 6.41431 63.1597 6.85039 63.1597H10.0104C10.4465 63.1597 10.8004 63.5136 10.8004 63.9497C10.8004 64.3858 10.448 64.7397 10.0104 64.7397ZM19.4904 67.8997H16.3304C15.8943 67.8997 15.5404 67.5458 15.5404 67.1097C15.5404 66.6736 15.8943 66.3197 16.3304 66.3197H19.4904C19.9265 66.3197 20.2804 66.6736 20.2804 67.1097C20.2804 67.5458 19.9265 67.8997 19.4904 67.8997ZM24.2304 53.6797C23.9507 53.6797 22.93 53.6797 22.6504 53.6797C22.2143 53.6797 21.8604 54.0336 21.8604 54.4697C21.8604 54.9058 22.2143 55.2597 22.6504 55.2597C22.93 55.2597 23.9507 55.2597 24.2304 55.2597C24.6664 55.2597 25.0204 54.9058 25.0204 54.4697C25.0204 54.0336 24.6664 53.6797 24.2304 53.6797ZM24.2304 56.8397C23.9507 56.8397 16.61 56.8397 16.3304 56.8397C15.8943 56.8397 15.5404 57.1936 15.5404 57.6297C15.5404 58.0658 15.8943 58.4197 16.3304 58.4197C16.61 58.4197 23.9507 58.4197 24.2304 58.4197C24.6664 58.4197 25.0204 58.0658 25.0204 57.6297C25.0204 57.1936 24.6664 56.8397 24.2304 56.8397ZM32.1304 59.9997C31.8507 59.9997 27.67 59.9997 27.3904 59.9997C26.9543 59.9997 26.6004 60.3536 26.6004 60.7897C26.6004 61.2258 26.9543 61.5797 27.3904 61.5797C27.67 61.5797 31.8507 61.5797 32.1304 61.5797C32.5664 61.5797 32.9204 61.2258 32.9204 60.7897C32.9204 60.3536 32.5664 59.9997 32.1304 59.9997ZM109.55 18.9197H93.7503C93.3142 18.9197 92.9603 18.5658 92.9603 18.1297C92.9603 17.6936 93.3142 17.3397 93.7503 17.3397H109.55C109.986 17.3397 110.34 17.6936 110.34 18.1297C110.34 18.5658 109.986 18.9197 109.55 18.9197ZM115.87 18.9197H112.71C112.274 18.9197 111.92 18.5658 111.92 18.1297C111.92 17.6936 112.274 17.3397 112.71 17.3397H115.87C116.306 17.3397 116.66 17.6936 116.66 18.1297C116.66 18.5658 116.306 18.9197 115.87 18.9197ZM123.77 22.0797H107.97C107.534 22.0797 107.18 21.7258 107.18 21.2897C107.18 20.8536 107.534 20.4997 107.97 20.4997H123.77C124.206 20.4997 124.56 20.8536 124.56 21.2897C124.56 21.7258 124.208 22.0797 123.77 22.0797ZM104.81 22.0797H103.23C102.794 22.0797 102.44 21.7258 102.44 21.2897C102.44 20.8536 102.794 20.4997 103.23 20.4997H104.81C105.246 20.4997 105.6 20.8536 105.6 21.2897C105.6 21.7258 105.246 22.0797 104.81 22.0797ZM100.023 22.0797H96.9103C96.4742 22.0797 96.1203 21.7258 96.1203 21.2897C96.1203 20.8536 96.4742 20.4997 96.9103 20.4997H100.023C100.459 20.4997 100.813 20.8536 100.813 21.2897C100.813 21.7258 100.459 22.0797 100.023 22.0797ZM114.29 15.7597H106.39C105.954 15.7597 105.6 15.4058 105.6 14.9697C105.6 14.5336 105.954 14.1797 106.39 14.1797H114.29C114.726 14.1797 115.08 14.5336 115.08 14.9697C115.08 15.4058 114.728 15.7597 114.29 15.7597ZM109.55 25.2397H106.39C105.954 25.2397 105.6 24.8858 105.6 24.4497C105.6 24.0136 105.954 23.6597 106.39 23.6597H109.55C109.986 23.6597 110.34 24.0136 110.34 24.4497C110.34 24.8858 109.986 25.2397 109.55 25.2397Z" fill="#F0F0F0"/>
<path d="M95.7627 46.025V41.0207C95.7627 40.51 96.1712 40.1143 96.6691 40.1143H97.7797C98.2776 40.1143 98.6861 40.51 98.6861 41.0207V46.025C98.6861 46.5228 98.2776 46.9314 97.7797 46.9314H96.6691C96.1712 46.9314 95.7627 46.5228 95.7627 46.025Z" fill="#F0F0F0"/>
<path d="M97.7793 47.3906H96.6686C95.9282 47.3906 95.3154 46.7778 95.3154 46.0246V41.0203C95.3154 40.2671 95.9282 39.6543 96.6686 39.6543H97.7793C98.5325 39.6543 99.1453 40.2671 99.1453 41.0203V46.0246C99.1453 46.7778 98.5325 47.3906 97.7793 47.3906ZM96.6686 40.5607C96.4261 40.5607 96.2218 40.7649 96.2218 41.0203V46.0246C96.2218 46.2799 96.4261 46.4842 96.6686 46.4842H97.7793C98.0346 46.4842 98.2389 46.2799 98.2389 46.0246V41.0203C98.2389 40.7649 98.0346 40.5607 97.7793 40.5607H96.6686Z" fill="#11111A"/>
<path d="M63.3656 98.7493C59.6379 98.7493 56.5996 95.7748 56.5996 92.1109V35.2379C56.5996 31.5868 59.6379 28.6123 63.3656 28.6123H89.7404C93.4681 28.6123 96.5064 31.5868 96.5064 35.2379V92.1109C96.5064 93.8854 95.8043 95.545 94.5149 96.7961C93.2383 98.0599 91.5404 98.7493 89.7404 98.7493H63.3656Z" fill="#108D32"/>
<path d="M89.7408 29.2128C93.1366 29.2128 95.9068 31.9192 95.9068 35.2384V92.1114C95.9068 95.4305 93.1366 98.1369 89.7408 98.1369H63.366C59.9703 98.1369 57.2 95.4305 57.2 92.1114V35.2384C57.2 31.9192 59.9703 29.2128 63.366 29.2128H89.7408ZM89.7408 28H63.366C59.3064 28 56 31.2554 56 35.2384V92.1114C56 96.1071 59.3064 99.3497 63.366 99.3497H89.7408C91.7068 99.3497 93.5451 98.5965 94.9366 97.2306C96.3409 95.8646 97.1068 94.0518 97.1068 92.1114V35.2384C97.1068 31.2554 93.8004 28 89.7408 28Z" fill="#11111A"/>
<path d="M61.2627 77.9932H91.0832V83.7639C91.0832 85.4208 89.74 86.7639 88.0832 86.7639H64.2627C62.6058 86.7639 61.2627 85.4208 61.2627 83.7639V77.9932Z" fill="#F0F0F0"/>
<path d="M61.7676 86.1104L67.5056 77.9204L68.3246 78.4942L62.5866 86.6842L61.7676 86.1104Z" fill="#202329"/>
<path d="M67.7539 86.1084L73.492 77.9185L74.3109 78.4923L68.5729 86.6822L67.7539 86.1084Z" fill="#202329"/>
<path d="M73.6152 86.1084L79.3533 77.9185L80.1723 78.4923L74.4342 86.6822L73.6152 86.1084Z" fill="#202329"/>
<path d="M79.6055 86.1074L85.3435 77.9175L86.1625 78.4913L80.4245 86.6812L79.6055 86.1074Z" fill="#202329"/>
<path d="M88.4551 86.1074L95.1005 76.6223L95.5547 76.9406L88.9093 86.4256L88.4551 86.1074Z" fill="#202329"/>
<path d="M94.3164 86.1074L100.962 76.6223L101.416 76.9406L94.7706 86.4256L94.3164 86.1074Z" fill="#202329"/>
<path d="M100.305 86.1074L106.95 76.6224L107.404 76.9406L100.759 86.4256L100.305 86.1074Z" fill="#202329"/>
<path d="M61.4389 68.4184C61.107 68.4184 60.8389 68.1503 60.8389 67.8184V39.3755C60.8389 37.767 62.141 36.4648 63.7368 36.4648H89.3583C90.9669 36.4648 92.269 37.7798 92.269 39.3883C92.269 39.7202 92.0009 39.9883 91.669 39.9883C91.3371 39.9883 91.069 39.7202 91.069 39.3883C91.069 38.4436 90.2903 37.6776 89.3583 37.6776H63.7368C62.8048 37.6776 62.0389 38.4436 62.0389 39.3755V67.8184C62.0389 68.1503 61.7708 68.4184 61.4389 68.4184Z" fill="#11111A"/>
<path d="M89.3711 87.2615H63.7495C62.141 87.2615 60.8389 85.9465 60.8389 84.338V77.7252C60.8389 77.3933 61.107 77.1252 61.4389 77.1252C61.7708 77.1252 62.0389 77.3933 62.0389 77.7252V84.338C62.0389 85.2827 62.8176 86.0487 63.7495 86.0487H89.3711C90.303 86.0487 91.069 85.2955 91.069 84.3636V50.5845C91.069 50.2398 91.3371 49.9717 91.669 49.9717C92.0009 49.9717 92.269 50.2398 92.269 50.5845V84.3636C92.269 85.9593 90.9669 87.2615 89.3711 87.2615Z" fill="#11111A"/>
<path d="M78.98 92.698C78.98 94.0385 77.8948 95.1108 76.5672 95.1108C75.2267 95.1108 74.1416 94.0385 74.1416 92.698C74.1416 91.3576 75.2267 90.2725 76.5672 90.2725C77.8948 90.2725 78.98 91.3576 78.98 92.698Z" fill="#F0F0F0"/>
<path d="M76.5666 90.8856C77.5623 90.8856 78.3794 91.7027 78.3794 92.6984C78.3794 93.6942 77.5623 94.5112 76.5666 94.5112C75.5581 94.5112 74.7538 93.6942 74.7538 92.6984C74.7538 91.7027 75.5581 90.8856 76.5666 90.8856ZM76.5666 89.6729C74.8942 89.6729 73.541 91.0261 73.541 92.6984C73.541 94.3708 74.8942 95.724 76.5666 95.724C78.2262 95.724 79.5794 94.3708 79.5794 92.6984C79.5794 91.0261 78.2262 89.6729 76.5666 89.6729Z" fill="#202329"/>
<path d="M91.6684 47.354C91.3364 47.354 91.0684 47.0859 91.0684 46.754V43.1156C91.0684 42.7837 91.3364 42.5156 91.6684 42.5156C92.0003 42.5156 92.2684 42.7837 92.2684 43.1156V46.754C92.2684 47.0859 92.0003 47.354 91.6684 47.354Z" fill="#11111A"/>
<path d="M61.4389 75.1576C61.107 75.1576 60.8389 74.8895 60.8389 74.5576V70.932C60.8389 70.6001 61.107 70.332 61.4389 70.332C61.7708 70.332 62.0389 70.6001 62.0389 70.932V74.5576C62.0389 74.8895 61.7708 75.1576 61.4389 75.1576Z" fill="#11111A"/>
<path d="M70.4375 63.6875V61.9514L76.0965 63.0714C76.0395 64.1553 75.7552 64.9311 75.369 65.4385C74.9446 65.996 74.3753 66.2618 73.7412 66.2618C73.0875 66.2618 72.2382 65.9623 71.5502 65.4542C70.8557 64.9413 70.4375 64.3035 70.4375 63.6875Z" fill="#F0F0F0" stroke="#11111A"/>
<path d="M78.7273 63.0714L84.3863 61.9514V63.6875C84.3863 64.3035 83.9681 64.9413 83.2736 65.4542C82.5856 65.9623 81.7364 66.2618 81.0826 66.2618C80.4485 66.2618 79.8792 65.996 79.4549 65.4385C79.0687 64.9311 78.7844 64.1553 78.7273 63.0714Z" fill="#F0F0F0" stroke="#11111A"/>
<path d="M84.2399 59.0003C83.9812 57.261 82.17 52 80.632 52C79.5252 52 77.9584 53.4805 77.2396 53.4805C76.5209 53.4805 74.911 52 73.8473 52C72.2949 52 70.6993 57.261 70.4406 59.0003C66.9045 59.5034 66.2002 60.4952 66.2002 60.4952C66.2002 60.4952 69.65 63.0394 77.2396 63.0394C84.8293 63.0394 88.2791 60.4952 88.2791 60.4952C88.2791 60.4952 87.7904 59.5034 84.2399 59.0003Z" fill="#F0F0F0" stroke="#11111A" stroke-miterlimit="10" stroke-linejoin="round"/>
<path d="M97.7103 98.4182C97.4475 98.5758 97.1371 98.5815 96.8693 98.4324C94.8533 97.3103 86.3342 91.7641 86.0095 78.0197C85.9984 77.5501 86.3295 77.1369 86.7858 77.0257C93.1826 75.4656 95.1753 73 97.294 73C99.4128 73 101.405 75.4656 107.802 77.0257C108.259 77.1369 108.59 77.5493 108.578 78.0188C108.243 91.3301 99.7094 97.2189 97.7103 98.4182Z" fill="#F0F0F0" stroke="#11111A" stroke-width="1.97333" stroke-miterlimit="10" stroke-linecap="round"/>
<path d="M98.8347 82.7087C98.8347 83.5273 98.1679 84.1941 97.3493 84.1941C96.5308 84.1941 95.8639 83.5273 95.8639 82.7087C95.8639 81.8879 96.5302 81.2233 97.3493 81.2233C98.1685 81.2233 98.8347 81.8879 98.8347 82.7087Z" fill="#11111A" stroke="#11111A" stroke-width="1.33333"/>
<path d="M97.8906 84.7194L98.6702 88.2268H96.0284L96.808 84.7194H97.8906Z" fill="#11111A" stroke="#11111A" stroke-width="1.33333"/>
</svg>
