<svg xmlns="http://www.w3.org/2000/svg" width="19.648" height="21.832" viewBox="0 0 19.648 21.832">
  <path id="recovery_seed" d="M20.465,3.184H15.9a3.255,3.255,0,0,0-6.147,0H5.184A2.182,2.182,0,0,0,3,5.366V20.648a2.182,2.182,0,0,0,2.184,2.184H20.465a2.182,2.182,0,0,0,2.184-2.184V5.366a2.182,2.182,0,0,0-2.184-2.182Zm-7.641,0a1.091,1.091,0,1,1-1.091,1.091A1.091,1.091,0,0,1,12.824,3.184Zm4.366,7.641H13.915v7.641H11.733V10.824H8.458V8.641h8.733Z" transform="translate(-3 -1)" fill="#cfcfd1"/>
</svg>
