<svg id="message_request" xmlns="http://www.w3.org/2000/svg" width="22.204" height="21.541" viewBox="0 0 22.204 21.541">
  <g id="Group_444" data-name="Group 444" transform="translate(0 0)">
    <path id="Path_4495" data-name="Path 4495" d="M19.263,31.658H33.875a1.824,1.824,0,0,0,1.817-1.827L35.7,13.392l-3.653,3.653H19.263a1.832,1.832,0,0,0-1.827,1.827v10.96a1.832,1.832,0,0,0,1.827,1.827m8.22-2.74H25.656V27.091h1.827Zm0-2.63H25.656c0-.891,1.827-2.691,1.827-3.653a.9.9,0,0,0-.913-.913.949.949,0,0,0-.913.913H23.829a2.756,2.756,0,0,1,2.74-2.74,2.713,2.713,0,0,1,2.74,2.74c0,1.3-1.827,2.753-1.827,3.653" transform="translate(-13.498 -10.117)" fill="#ebebeb"/>
    <path id="Path_4497" data-name="Path 4497" d="M16.644,4.993V5.1H4.169A1.832,1.832,0,0,0,2.342,6.931v9.713H1.664A1.661,1.661,0,0,1,.008,14.98L0,0,3.329,3.329H14.98a1.669,1.669,0,0,1,1.664,1.664" fill="#ebebeb"/>
  </g>
</svg>
