<svg xmlns="http://www.w3.org/2000/svg" width="39.815" height="26.705" viewBox="0 0 39.815 26.705">
  <g id="secret_group" data-name="secret group" transform="translate(-16.842 -16.548)">
    <path id="Subtraction_1" data-name="Subtraction 1" d="M7.706,0A7.705,7.705,0,1,1,0,7.706,7.706,7.706,0,0,1,7.706,0Z" transform="translate(40.245 26.842)" fill="none" stroke="#f2f2f2" stroke-width="2"/>
    <g id="Group_416" data-name="Group 416" transform="translate(16.842 16.548)">
      <path id="icons8-user_group" d="M6.487,9.183A8.821,8.821,0,0,0,0,17.659H1.963A6.847,6.847,0,0,1,14.844,14.4l.859,1.587.859-1.587a6.865,6.865,0,0,1,6.011-3.611l2.654.59c.3-.62.424-.743,1.678-1.4l-1.847-.756A7.783,7.783,0,0,0,20.2,9.171a8.853,8.853,0,0,0-4.5,2.99,8.857,8.857,0,0,0-4.355-2.948A11.873,11.873,0,0,0,6.487,9.183Z" transform="translate(0 0.988)" fill="#f2f2f2"/>
      <g id="Ellipse_41" data-name="Ellipse 41" transform="translate(2.216 0)" fill="none" stroke="#f2f2f2" stroke-width="2">
        <ellipse cx="5.522" cy="5.197" rx="5.522" ry="5.197" stroke="none"/>
        <ellipse cx="5.522" cy="5.197" rx="4.522" ry="4.197" fill="none"/>
      </g>
      <g id="Ellipse_42" data-name="Ellipse 42" transform="translate(16.509 0)" fill="none" stroke="#f2f2f2" stroke-width="2">
        <ellipse cx="5.522" cy="5.197" rx="5.522" ry="5.197" stroke="none"/>
        <ellipse cx="5.522" cy="5.197" rx="4.522" ry="4.197" fill="none"/>
      </g>
    </g>
    <path id="icons8-lock" d="M6.827,1A2.116,2.116,0,0,0,4.707,3.121v.353A.709.709,0,0,0,4,4.181V7.715a.709.709,0,0,0,.707.707H8.948a.709.709,0,0,0,.707-.707V4.181a.709.709,0,0,0-.707-.707V3.121A2.116,2.116,0,0,0,6.827,1Zm0,.707A1.384,1.384,0,0,1,8.241,3.121v.353H5.414V3.121A1.384,1.384,0,0,1,6.827,1.707Z" transform="translate(41.124 29.836)" fill="#f2f2f2"/>
  </g>
</svg>
