<svg xmlns="http://www.w3.org/2000/svg" width="31.054" height="19.409" viewBox="0 0 31.054 19.409">
  <path id="social_group" data-name="social group" d="M15.527,3a5.8,5.8,0,0,0-3.548,10.4,9.573,9.573,0,0,0-2.282,1.3c0-.023.008-.038.008-.061a3.882,3.882,0,1,0-6.672,2.684A5.813,5.813,0,0,0,0,22.409H1.941a3.87,3.87,0,0,1,3.882-3.882,3.735,3.735,0,0,1,.781.083,9.612,9.612,0,0,0-.781,3.8H7.763a7.763,7.763,0,0,1,15.527,0h1.941a9.6,9.6,0,0,0-.781-3.791,3.831,3.831,0,0,1,4.663,3.791h1.941a5.813,5.813,0,0,0-3.033-5.08,3.877,3.877,0,1,0-6.672-2.684c0,.023.008.038.008.061a9.574,9.574,0,0,0-2.282-1.3A5.8,5.8,0,0,0,15.527,3Zm0,1.941a3.882,3.882,0,1,1-3.882,3.882A3.87,3.87,0,0,1,15.527,4.941ZM5.823,12.7a1.941,1.941,0,1,1-1.941,1.941A1.925,1.925,0,0,1,5.823,12.7Zm19.409,0a1.941,1.941,0,1,1-1.941,1.941A1.925,1.925,0,0,1,25.231,12.7Z" transform="translate(0 -3)" fill="#f2f2f2"/>
</svg>
