<svg xmlns="http://www.w3.org/2000/svg" width="72.339" height="58.562" viewBox="0 0 72.339 58.562">
  <g id="icons8-refresh" transform="translate(-3.001 -7)">
    <path id="Path_4921" data-name="Path 4921" d="M14,17.334H29.5a1.723,1.723,0,0,0,1.722-1.722V8.722A1.723,1.723,0,0,0,29.5,7H14Z" transform="translate(7.946 0)" fill="#0056dd"/>
    <path id="Path_4922" data-name="Path 4922" d="M29.163,50.06H21.946V7L13.63,15.316a6.889,6.889,0,0,0-2.019,4.873V50.06H4.395a1.391,1.391,0,0,0-.983,2.375L14.953,63.977a2.582,2.582,0,0,0,3.653,0L30.148,52.435A1.392,1.392,0,0,0,29.163,50.06Z" transform="translate(0 0)" fill="#2075ff"/>
    <path id="Path_4923" data-name="Path 4923" d="M41.224,35h-15.5A1.723,1.723,0,0,0,24,36.722v6.89a1.723,1.723,0,0,0,1.722,1.722h15.5Z" transform="translate(15.17 20.227)" fill="#0051e1"/>
    <path id="Path_4924" data-name="Path 4924" d="M30.4,22.154h7.217v43.06L45.928,56.9a6.892,6.892,0,0,0,2.019-4.871V22.154h7.217a1.391,1.391,0,0,0,.983-2.375L44.607,8.237a2.582,2.582,0,0,0-3.653,0L29.412,19.779A1.391,1.391,0,0,0,30.4,22.154Z" transform="translate(18.782 0.347)" fill="#2075ff"/>
  </g>
</svg>
