<svg xmlns="http://www.w3.org/2000/svg" xmlns:xlink="http://www.w3.org/1999/xlink" width="708.586" height="316.6" viewBox="0 0 708.586 316.6">
  <defs>
    <clipPath id="clip-path">
      <rect id="Rectangle_431" data-name="Rectangle 431" width="707.999" height="316.359" fill="none"/>
    </clipPath>
    <clipPath id="clip-path-2">
      <rect id="Rectangle_430" data-name="Rectangle 430" width="127.677" height="242.259" fill="#e6e7ec"/>
    </clipPath>
    <clipPath id="clip-path-3">
      <rect id="Rectangle_437" data-name="Rectangle 437" width="33.66" height="33.66" fill="#e6e7ec"/>
    </clipPath>
    <clipPath id="clip-path-4">
      <rect id="Rectangle_440" data-name="Rectangle 440" width="19.028" height="24.975" fill="#c8cad5"/>
    </clipPath>
    <clipPath id="clip-path-5">
      <rect id="Rectangle_441" data-name="Rectangle 441" width="20.572" height="25.329" fill="#c8cad5"/>
    </clipPath>
  </defs>
  <g id="Empty_screen_image" transform="translate(0.253 0.001)" opacity="0.601">
    <g id="Group_1220" data-name="Group 1220">
      <g id="Group_1128" data-name="Group 1128" transform="translate(0 -0.001)">
        <g id="Group_1225" data-name="Group 1225">
          <g id="Group_1117" data-name="Group 1117" transform="translate(0 23.793)">
            <g id="Group_1116" data-name="Group 1116">
              <g id="Group_1233" data-name="Group 1233">
                <path id="Path_4715" data-name="Path 4715" d="M686.022,387.373s59.2-110.958-10.484-163.911c-38.883-29.547-84.39-7.423-123.816-86.731-22.945-46.153-103.239-60.161-143.391,2.849s-56.283,103.057-109.958,81.374c-31.959-12.911-45.729-53.6-95.462-45.091-57.479,9.833-49.783,69.446-92.139,59.066C29.094,214.91-31.421,329.274,25.039,388.16Z" transform="translate(-2.243 -96.354)" fill="none" stroke="#7d7e89" stroke-width="2" stroke-dasharray="7 8"/>
              </g>
            </g>
          </g>
          <g id="Group_1123" data-name="Group 1123" transform="translate(315.916 199.776)">
            <g id="Group_1122" data-name="Group 1122">
              <g id="Group_1227" data-name="Group 1227">
                <path id="Path_4716" data-name="Path 4716" d="M1462.653,994.263c-4.194-.87-9.316-4.9-9.114-6.212.162-1.029,5.461.683,9.114,1.81V972.9c-.882-.23-1.454-.326-1.454-.326s-11.526,8.57-13.773,8.05,8.424-9.251,8.424-9.251c-4.015-1.932-16.5-.721-16.5-.721s-4.156,13.407-6.207,12.35,4.285-11.685,4.285-11.685c-4.472-.268-9.956,3.052-9.956,3.052-7.511,5.931.493,15.267.493,15.267a22.823,22.823,0,0,1-6.285,8.818,19.821,19.821,0,0,0-7.243,13.958l1.231.111s1.947-8.335,5.489-12.279l.584-.6c.579-.533.984-.935,1.254-1.234,1.762-1.691,4.2-3.85,5.372-4.058a2.335,2.335,0,0,1-.051-.592c.015.19.033.384.051.592.4,4.718,9.556,8.839,15.189,9.685s3.891-1.466,1.949-4.9-8.082-4.968-9.483-6.548,1.5-1.585,4.89-.035,3.858,5.681,9.3,8.29c4.176,2,9.968-2.849,12.438-5.218Z" transform="translate(-1372.763 -924.754)" fill="#c8cad5"/>
                <g id="Group_1120" data-name="Group 1120" transform="translate(0 21.372)">
                  <g id="Group_1119" data-name="Group 1119">
                    <g id="Group_1226" data-name="Group 1226">
                      <path id="Path_4717" data-name="Path 4717" d="M1249.882,878.475c2.973,4.2,7.243,9.832,8.937,10.044,2.715.339-5.6-13.751-5.6-13.751,5.264-.508,18.673,5.941,18.673,5.941s-.849,16.635,1.866,16.3,0-14.77,0-14.77c5.094,1.53,9.847,7.471,9.847,7.471,5.941,9.675-6.791,16.8-6.791,16.8l-2.081,4.457c-.091.2-.19.407-.291.624a.029.029,0,0,1-.005.01c-2.376,5.092-14.259,5.941-20.878,4.584-2.05-.422-3.188-.89-3.676-1.428a1.146,1.146,0,0,1,0-1.532,20.589,20.589,0,0,1,3.506-3.3c3.565-3.029,11.033-2.23,13.24-3.418s-1.019-2.376-5.433-2.038c-3.868.3-6.04,3.724-11.313,5.021Z" transform="translate(-1249.589 -874.74)" fill="#c8cad5"/>
                    </g>
                  </g>
                </g>
                <path id="Path_4718" data-name="Path 4718" d="M1280.207,957.4a27.077,27.077,0,0,1-3.395-12.391c-7.7-8.578-27.224-18.746-27.224-18.746,24.143,15.067,24.847,23.838,24.847,23.838,1.221.713,3.052,4.11,4.323,6.716.181.443.468,1.057.894,1.891.173.377.311.685.406.9,2.333,5.839,1.1,15.921,1.1,15.921l1.414.38a23.511,23.511,0,0,0-2.363-18.509" transform="translate(-1249.589 -891.864)" fill="#9899a3"/>
                <path id="Path_4719" data-name="Path 4719" d="M1447.189,837.411a7.844,7.844,0,0,1-3.706.579c-9.4-.895-12.3-6.715-18.122-7.16s-10.07,1.117-7.162,2.685,12.755.513,17.454,4.508,8.5,6.454-.225,8.244-24.389.672-27.522-6.04l-3.132-6.712s-16.782-9.4-8.95-22.152c0,0,6.265-7.832,12.977-9.847,0,0-3.58,19.019,0,19.467s2.462-21.479,2.462-21.479,17.677-8.5,24.612-7.832c0,0-10.962,18.572-7.382,18.124s15.884-19.242,15.884-19.242,1.1-.2,2.811-.351v25.5c-3.335.321-5.9.822-5.719,1.7.2.986,2.569,2.235,5.719,3.148Z" transform="translate(-1357.298 -790.203)" fill="#c8cad5"/>
                <path id="Path_4720" data-name="Path 4720" d="M1463.544,834.073s-46.988,15.215-52.358,32.22a35.7,35.7,0,0,1-4.475,16.334s-7.246,11-3.115,24.4l1.864-.5s-1.63-13.29,1.446-20.987c.126-.283.308-.69.535-1.186.561-1.1.939-1.908,1.178-2.492,1.675-3.436,4.089-7.914,5.7-8.853,0,0-10.517-14.767,49.225-38.933" transform="translate(-1363.71 -822.982)" fill="#9899a3"/>
                <path id="Path_4721" data-name="Path 4721" d="M1305.12,1107.506a32.872,32.872,0,0,0,65.744,0Z" transform="translate(-1291.081 -1027.287)" fill="#c8cad5"/>
                <path id="Path_4722" data-name="Path 4722" d="M1365.921,1229.537H1307.38a4.056,4.056,0,0,0-4.056,4.056h66.652a4.056,4.056,0,0,0-4.056-4.056" transform="translate(-1289.739 -1118.467)" fill="#c8cad5"/>
                <path id="Path_4723" data-name="Path 4723" d="M1367.913,1108.514h-66.564a.5.5,0,1,1,0-1.009h66.564a.5.5,0,0,1,0,1.009" transform="translate(-1287.886 -1027.286)" fill="#9899a3"/>
              </g>
            </g>
          </g>
          <g id="Group_1126" data-name="Group 1126" transform="translate(405.804 44.66)">
            <g id="Group_1125" data-name="Group 1125">
              <g id="Group_1222" data-name="Group 1222">
                <path id="Path_4724" data-name="Path 4724" d="M1612.432,446.893h127.847a7.31,7.31,0,0,0,7.288-7.288V183.94a7.31,7.31,0,0,0-7.288-7.288H1612.432a7.31,7.31,0,0,0-7.288,7.288V439.6a7.31,7.31,0,0,0,7.288,7.288" transform="translate(-1605.143 -176.651)" fill="#e6e7ec"/>
                <path id="Path_4725" data-name="Path 4725" d="M1800,219.994h37.023a1.44,1.44,0,1,0,0-2.881H1800a1.44,1.44,0,0,0,0,2.881" transform="translate(-1749.662 -206.883)" fill="#c9cbd3"/>
                <path id="Path_4726" data-name="Path 4726" d="M1972.453,219.994h0a1.44,1.44,0,1,0-1.44-1.44,1.444,1.444,0,0,0,1.44,1.44" transform="translate(-1878.514 -206.883)" fill="#c9cbd3"/>
                <path id="Path_4727" data-name="Path 4727" d="M1861.675,1159.059a9.29,9.29,0,1,0-9.291,9.291,9.29,9.29,0,0,0,9.291-9.291" transform="translate(-1782.936 -903.75)" fill="#c9cbd3"/>
              </g>
            </g>
          </g>
        </g>
      </g>
      <rect id="Rectangle_429" data-name="Rectangle 429" width="118.412" height="218.582" transform="translate(417.961 66.089)" fill="#c7c8cd"/>
      <g id="Group_1133" data-name="Group 1133" transform="translate(0 -0.001)">
        <g id="Group_1132" data-name="Group 1132" clip-path="url(#clip-path)">
          <g id="Group_1131" data-name="Group 1131" transform="translate(188.532 72.643)">
            <g id="Group_1130" data-name="Group 1130">
              <g id="Group_1129" data-name="Group 1129" clip-path="url(#clip-path-2)">
                <path id="Path_4728" data-name="Path 4728" d="M752.263,287.332H866.873a6.552,6.552,0,0,1,6.533,6.533V523.058a6.552,6.552,0,0,1-6.533,6.534H752.263a6.553,6.553,0,0,1-6.533-6.534V293.865a6.552,6.552,0,0,1,6.533-6.533" transform="translate(-745.73 -287.332)" fill="#e6e7ec"/>
              </g>
            </g>
          </g>
        </g>
      </g>
      <rect id="Rectangle_432" data-name="Rectangle 432" width="118.274" height="196.306" transform="translate(193.098 92.011)" fill="#c7c8cd"/>
      <g id="Group_1165" data-name="Group 1165" transform="translate(0 -0.001)">
        <g id="Group_1224" data-name="Group 1224">
          <path id="Path_4729" data-name="Path 4729" d="M937.153,323.6h33.19a1.291,1.291,0,1,1,0,2.583h-33.19a1.291,1.291,0,0,1,0-2.583" transform="translate(-699.262 -241.79)" fill="#c9cbd3"/>
          <path id="Path_4730" data-name="Path 4730" d="M913.838,323.6a1.291,1.291,0,1,1-1.291,1.291,1.295,1.295,0,0,1,1.291-1.291" transform="translate(-681.841 -241.79)" fill="#c9cbd3"/>
          <path id="Path_4731" data-name="Path 4731" d="M978.162,1173.261a6.613,6.613,0,1,1-6.613,6.613,6.613,6.613,0,0,1,6.613-6.613" transform="translate(-725.926 -876.642)" fill="#c9cbd3"/>
          <g id="Group_1136" data-name="Group 1136" transform="translate(51.279 188.927)">
            <g id="Group_1135" data-name="Group 1135">
              <g id="Group_1221" data-name="Group 1221">
                <path id="Path_4732" data-name="Path 4732" d="M218.785,1167.295s-10.673.387-12.253,0c-.067-.3-2.039-12.743-2.039-12.743l-1.641-11.511a1.751,1.751,0,0,1,2.888-1.57,5.719,5.719,0,0,1,1.509,2.468c1.343,4.054,5.3,10.586,11.178,12.29,6.18,1.793.359,11.066.359,11.066" transform="translate(-202.833 -1041.477)" fill="#9899a3"/>
                <path id="Path_4733" data-name="Path 4733" d="M454.333,1008.288l-1.049.373a7,7,0,0,0-8.366-2.769s-2.244.939-.913,2.167,1,.592,2.84,2.359,4.346,2.653,6.075,2.056l1.916-.675Z" transform="translate(-382.717 -940.178)" fill="#ffe8dc"/>
                <path id="Path_4734" data-name="Path 4734" d="M384.921,1081.263s-39.164-29.925-50.3-30.252-47.281,49.137-47.281,49.137h13.533s23.846-12.691,32.234-24.751a2.055,2.055,0,0,1,3.432.094c4.336,6.93,15.674,23.925,23,24.656,7.87.786,25.382-18.885,25.382-18.885" transform="translate(-265.972 -974.224)" fill="#aeafba"/>
                <path id="Path_4735" data-name="Path 4735" d="M658.5,827.235s.247,1.961.565,4.381c.424,3.145.989,7.049,1.36,8.268l11.784,2.986.866-8.568a34.76,34.76,0,0,1-2.933-14.292Z" transform="translate(-543.303 -801.624)" fill="#ffe8dc"/>
                <path id="Path_4736" data-name="Path 4736" d="M535.759,915.316l-16.744,20.511L513.159,943s-10.487,1.964-15.992,2.442c-3.973.344-16.656-1.275-16.656-1.275l.364-3.813s7.871-3.347,11.61-4.132c3.814-.8,13.451-2.974,13.451-2.974,3.644-1.325,17.489-19.223,17.489-19.223Z" transform="translate(-410.31 -871.871)" fill="#c4c4ce"/>
                <path id="Path_4737" data-name="Path 4737" d="M638.339,955.128,604.1,952.334s-.095-.686-.253-1.839a9.966,9.966,0,0,1-.087-1.118c-.078-3.42,1.267-8.032,1.845-12.565a18.566,18.566,0,0,0-.484-8.509c-1.054-2.952-1.539-8.555-1.753-13.883-.27-6.671-.115-12.905-.118-12.95a31.984,31.984,0,0,1,2.36-13.453c3.34-8.846,9.569-13.855,12.5-16.825,0,0,3.574.882,12.864-1.9.276-.083,1.073,1.086,1.427,1.767,0,0,4.02,5.087,5.672,17.493,1.479,11.1.275,66.579.275,66.579" transform="translate(-501.965 -838.442)" fill="#d6d7e1"/>
                <path id="Path_4738" data-name="Path 4738" d="M630.316,956.225c-.067,1.557-13.846,45.417-12.158,48.653,8.171,15.652-12.426,8.6-13.544,4.564.383-2.992,1.963-15.995,1.048-18.554-1.054-2.951-1.54-8.555-1.753-13.883a19.076,19.076,0,0,1,2.242-5.89c5.12-.8,24.678-26.966,24.165-14.891" transform="translate(-502.511 -901.028)" fill="#c4c4ce"/>
                <path id="Path_4739" data-name="Path 4739" d="M436.773,989.692l4.247-2.917a.442.442,0,0,1,.114-.057l0,0,.8-.327,3.908,12.34-3.418,2.767-.614.267h0l-.009,0h0a.636.636,0,0,1-.779-.428L436.6,990.5a.667.667,0,0,1,.172-.805" transform="translate(-377.454 -925.94)" fill="#c7c8cd"/>
                <path id="Path_4740" data-name="Path 4740" d="M448.9,998.009l-4.053,3.393a.6.6,0,0,1-.9-.355l-4.424-10.841a.667.667,0,0,1,.171-.805l4.247-2.917a.609.609,0,0,1,.866.382l4.229,10.365a.682.682,0,0,1-.135.778" transform="translate(-379.638 -925.951)" fill="#e6e7ec"/>
                <path id="Path_4741" data-name="Path 4741" d="M450.545,999.382l-3.991,3.342-4.012-9.832,4.183-2.872Z" transform="translate(-381.939 -928.653)" fill="#d6d7e1"/>
                <path id="Path_4742" data-name="Path 4742" d="M467.919,1034.554a.391.391,0,0,1,.176-.471c.153-.062.322.047.377.244a.391.391,0,0,1-.176.471c-.153.062-.322-.047-.377-.245" transform="translate(-400.888 -961.564)" fill="#373480"/>
                <path id="Path_4745" data-name="Path 4745" d="M453.34,1031.545l-2.154-.071a5.236,5.236,0,0,0-7.06-2.34s-1.971,1.028-.884,2.177.833.537,2.33,2.192,3.613,2.411,5.125,1.745l1.678-.753Z" transform="translate(-382.218 -957.454)" fill="#ffe8dc"/>
                <path id="Path_4746" data-name="Path 4746" d="M530.491,877.133s-8.407,3.55-12.773,11.137c-2.909,5.056-7.92,13.656-10.939,18.831a11.419,11.419,0,0,1-7.41,5.4l-10.2,2.245-14.33,3.582a3,3,0,0,0-.256,1.6,1.779,1.779,0,0,0,1.04,1.693S489,924.84,493.761,925.2c11.734.882,17.3-.656,19.02-1.29a3.649,3.649,0,0,0,1.047-.605c1.8-1.46,8.692-7.237,12.321-12.755,3.532-5.369,13.269-19.321,13.269-19.321Z" transform="translate(-405.868 -844.306)" fill="#d6d7e1"/>
                <path id="Path_4747" data-name="Path 4747" d="M375.706,1150.294s3.377,22.485-6.978,22.485H254.763a8.449,8.449,0,0,1-3.368-6.174c-.234-4.294,1.123-5.815,1.123-5.815s40.8-1.42,49.08-4.2c41.517-13.912,74.108-6.3,74.108-6.3" transform="translate(-239.098 -1046.855)" fill="#c8cad5"/>
                <path id="Path_4748" data-name="Path 4748" d="M658.5,827.235s.247,1.961.565,4.381c10.887-3.175,11.077-11.607,11.077-11.607Z" transform="translate(-543.303 -801.624)" fill="#f7dccf"/>
                <path id="Path_4749" data-name="Path 4749" d="M639.269,785.247s13.233.392,13.351-7.853,1.9-13.747-6.54-14.346-10.131,2.524-10.839,5.266.589,16.618,4.029,16.933" transform="translate(-525.782 -759.008)" fill="#ffe8dc"/>
                <path id="Path_4750" data-name="Path 4750" d="M643.058,768.9s-1.4-.234-1.173-2.16.223-4.443-1.343-3.974-1.643,1.723-2.287.991-.655-3.816-5.314-4.031-6.553,1.407-8.719.455-2.281-4.232-2.281-4.232a3.727,3.727,0,0,0,1.547,1.543s-3.615-4.944.57-8.334,8.452-1.171,10.874-1.024c5.336.323,8.783.643,10.526,4.15s1.024,13.242-2.4,16.617" transform="translate(-515.983 -747.288)" fill="#8b8c96"/>
              </g>
            </g>
          </g>
          <g id="Group_1139" data-name="Group 1139" transform="translate(478.056 0.001)">
            <g id="Group_1138" data-name="Group 1138">
              <g id="Group_1232" data-name="Group 1232">
                <path id="Path_4751" data-name="Path 4751" d="M1977.03,42.861l35.507,10.418L1990.85,33.4l-1.984,5.08-9.048.321Z" transform="translate(-1955.263 -24.955)" fill="#c9cbd3"/>
                <path id="Path_4752" data-name="Path 4752" d="M1948.2,36.117,1920.285,16.2l-29.355-5.766Z" transform="translate(-1890.93 -7.793)" fill="#e6e7ec"/>
                <path id="Path_4753" data-name="Path 4753" d="M2031.7,8.442l21.686,19.88L2038.465,0Z" transform="translate(-1996.108 0.002)" fill="#e6e7ec"/>
              </g>
            </g>
          </g>
          <g id="Group_1142" data-name="Group 1142" transform="translate(572.668 70.485)">
            <g id="Group_1141" data-name="Group 1141">
              <g id="Group_1231" data-name="Group 1231">
                <path id="Path_4754" data-name="Path 4754" d="M2362.881,280.149c2.344-1.435,6.089.28,6.089.28-1.295-1.82-6.02-1.225-6.02-1.225,9.411-2,11.375,4.014,11.537,4.577,6.826-6.16,17.754,6.971,17.754,6.971l-15.682,20.787s-1.43-3.307-3.32-2.275c-2.947,1.61-8.645-4.9-6.824-13.473a22.725,22.725,0,0,1,.7-2.549,5.068,5.068,0,0,1-1.956.484c-1.715,0-4.3-4.374-4.654-5.844s.035-6.3,2.379-7.734" transform="translate(-2336.314 -278.797)" fill="#8b8c96"/>
                <path id="Path_4755" data-name="Path 4755" d="M2511.21,508.633c9.932-3.659,19.5-20.656,19.5-20.656l-3.133-2.193c-2.609,3.817-14.347,11.144-14.347,11.144-.268-3.216-.657-6.134-1.137-8.777-3.258-17.963-10.712-23.284-12.713-24.414a4.462,4.462,0,0,0-.505-.255s.007.132.022.383c.029.54.093,1.63.2,3.123.777,11.121,3.818,44.705,12.117,41.645" transform="translate(-2439.787 -416.791)" fill="#ffe8dc"/>
                <path id="Path_4756" data-name="Path 4756" d="M2357.472,480.014c4.907-11,7.254-14.116,7.337-17.578.065-2.738-1.285-5.692-3.907-12.936a26.984,26.984,0,0,1-1.306-5.237c-2.074-13.965,6-29.061,11.021-30.09,1.4-.369,3.764-5.413,3.735-13.541l.628.124,10.569,2.093s-.24,3.326-.248,6.46c-.007,2.611.15,5.086.742,5.4.761.069,1.21.114,1.21.114s8.812,12.239,9.553,23.621-7.057,16.327.059,39.072c7.265,23.231-42.1,8.582-39.392,2.5" transform="translate(-2334.054 -369.83)" fill="#ffe8dc"/>
                <path id="Path_4757" data-name="Path 4757" d="M2437.607,403.214s-.241,3.326-.248,6.46c-5.914-.167-9.04-5.562-10.321-8.552Z" transform="translate(-2386.113 -370.196)" fill="#f7dccf"/>
                <path id="Path_4758" data-name="Path 4758" d="M2411.094,332.39s-3.1-4.9-3.843-9.085c-.531-2.989.991-14.071,12.127-12.475a15.124,15.124,0,0,1,6.274,2.372c2.418,1.633,5.907,5.158,2.006,14.828l-1.013,3.266Z" transform="translate(-2371.261 -302.616)" fill="#848590"/>
                <path id="Path_4759" data-name="Path 4759" d="M2434.807,351.353s-13.993.231-14-8.485-1.822-14.557,7.111-15.072,10.673,2.808,11.384,5.717-.853,17.556-4.493,17.841" transform="translate(-2381.337 -315.368)" fill="#ffe8dc"/>
                <path id="Path_4760" data-name="Path 4760" d="M2397.466,828.83a138.24,138.24,0,0,0,8.82,24.74l4.615-.32a130.442,130.442,0,0,1-2.133-25.31c.091-10.168,1.349-22.186,5.367-33.661,13.807-39.432,11.575-68.13,11.575-68.13l-25.964,3.037-1.21.142c-.107,11.924-.415,28.114-.685,40.774-.238,11.385-.447,19.914-.447,19.914-4.992,10.751-3.178,25.926.063,38.814" transform="translate(-2361.657 -613.052)" fill="#c8cad5"/>
                <path id="Path_4761" data-name="Path 4761" d="M2346.786,810.434c1.493,15.932,8.066,26.235,8.066,26.235l2.2,1.6s2.086-11.225,3.563-24.58c1.407-12.693,3.335-26.125,5.516-30.225,8.659-16.259,11.265-77.64,11.265-77.64l-26.325-1.306c-2.647,4.451-3.8,11.751-4.076,20.051-.693,20.948,4.232,48.264,4.968,52.215a.016.016,0,0,0,0,.009,1.376,1.376,0,0,1-.174.883c-5.237,10.369-5.994,22.23-5.01,32.755" transform="translate(-2325.873 -596.891)" fill="#c8cad5"/>
                <path id="Path_4762" data-name="Path 4762" d="M2411.281,331.559c-5.88,1.512-8.43-.063-8.43-.063a16.65,16.65,0,0,0,5.446-9.837s2.583-8.152,12.581-2.016c.917-.786,2.55-1.355,4.709,1.262,3.244,3.932.357,10.882.357,10.882-1.332.155-1.645-4.414-2.343-6.633a10.965,10.965,0,0,0-3.051-4.067c-.281,1.033-3.1,10.8-10.124,14.047a32.655,32.655,0,0,0,5.615-6.856,9.983,9.983,0,0,1-4.759,3.281" transform="translate(-2368.04 -307.607)" fill="#8b8c96"/>
                <path id="Path_4763" data-name="Path 4763" d="M2268.068,534.1c1.066-.673,2.1-2.738,2.465-3.533,3.254-8.1,7-23.809,8.243-26.7.453-1.053,1.318-6.023,2.453-12.426,2.037-11.489,4.934-27.595,7.836-33.976a4.91,4.91,0,0,1,2.654-1.962c3.951-1.652,10.705-2.342,10.705-2.342l-3.527,15.276-1.034,4.479s-3.14,11.066-5.573,20.109c-1.176,4.367-2.184,8.265-2.595,10.212-1.26,5.982-15.117,28.974-15.117,28.974h0s-.42.28-.91,1.68-4.409,8.819-6.089,8.819-2.029-2.52-2.38-4.129,1.54-3.64,2.87-4.479" transform="translate(-2265.157 -409.075)" fill="#ffe8dc"/>
                <path id="Path_4764" data-name="Path 4764" d="M2612.235,518.832c0-.432-.363-6.682.75-8s3.384-3.18,4.1-3.123,3.509,3.771,2.669,6.616-4.385,6.7-4.385,6.7Z" transform="translate(-2524.446 -449.839)" fill="#ffe8dc"/>
                <path id="Path_4765" data-name="Path 4765" d="M2591.366,482.6l6.477,1.941a.406.406,0,0,0,.506-.272l3.7-12.351a.406.406,0,0,0-.272-.506l-6.477-1.941a.406.406,0,0,0-.506.273l-3.7,12.351a.406.406,0,0,0,.272.506" transform="translate(-2508.68 -421.254)" fill="#d6d7e1"/>
                <path id="Path_4766" data-name="Path 4766" d="M2597.361,484.557l5.875,1.761a.721.721,0,0,0,.9-.483l3.521-11.749a.72.72,0,0,0-.483-.9l-5.875-1.761a.721.721,0,0,0-.9.483l-3.521,11.749a.721.721,0,0,0,.483.9" transform="translate(-2512.991 -422.705)" fill="#c4c4ce"/>
                <path id="Path_4767" data-name="Path 4767" d="M2347.878,1123.453c1.493,15.932,8.066,26.235,8.066,26.235l2.245,2.044s2.046-11.666,3.522-25.021c-1.556.113-8.414.363-13.833-3.258" transform="translate(-2326.966 -909.911)" fill="#ffe8dc"/>
                <path id="Path_4768" data-name="Path 4768" d="M2335.837,494.663a16.848,16.848,0,0,1-12.325-1.806c2.37-11.571,5.741-27.791,9.118-34.219a2.662,2.662,0,0,1,.832-.875l-.034-.041c3.165-2.3,9.633-3.008,9.633-3.008s1.993,8.844,3.253,10,19.528,3.044,19.948.945c.4-2.005-4.75-9.805-5.134-10.493a7.771,7.771,0,0,1,.83.064c2.083.274,3.551.483,4.612.664a7.709,7.709,0,0,1,3.462,1.381c2.459,1.862,8.239,7.581,10.5,21.363,0,0-2.858,3.918-6.884,5.074-.105.03-.213.056-.32.083.7,11.68,5,31.116,3.451,42.36-1.489,10.811-24.231,8.046-28.739,7.043q-4.635-1.028-7.187-9.762c-.565,4.063-1.832,8.827-4.674,9.123-4.65.481-6.574-.322-7.134-2.085a6.237,6.237,0,0,1-.163-2.1c.3-6.071,4.922-20.378,6.958-33.7" transform="translate(-2308.759 -410.239)" fill="#d6d7e1"/>
                <path id="Path_4769" data-name="Path 4769" d="M2406.8,1129.668a138.235,138.235,0,0,0,8.82,24.74l4.615-.32a130.452,130.452,0,0,1-2.133-25.31c-1.565.789-4.8,1.59-11.3.89" transform="translate(-2370.99 -913.89)" fill="#ffe8dc"/>
                <path id="Path_4770" data-name="Path 4770" d="M2424.1,1213.9h2.946c.987-.155,1.715-.441,2.727-.573a2.731,2.731,0,0,1,2.385.573.31.31,0,0,1,.027.03H2444.7c.315-.449.012-1.491-.284-2.257a1.78,1.78,0,0,0-1.172-1.071,13.492,13.492,0,0,1-6.339-2.9c-1.348-1.218-6.509-4.479-6.509-4.479l-.027-.006c-.113,0-.653.168-3,2.15-1.214,1.022-3.282-1.445-3.282-1.445a2.941,2.941,0,0,0-.678.92,3.107,3.107,0,0,0-.269,1.921,12.454,12.454,0,0,1-.9,4.64c-.291.859-.537,1.468-.537,1.468s-.141.708,2.393,1.025" transform="translate(-2382.125 -969.513)" fill="#9899a3"/>
                <path id="Path_4771" data-name="Path 4771" d="M2361.914,1213.9h2.946c.987-.155,1.715-.441,2.727-.573a2.732,2.732,0,0,1,2.385.573.36.36,0,0,1,.027.03h12.514c.315-.449.013-1.491-.284-2.257a1.779,1.779,0,0,0-1.171-1.071,13.492,13.492,0,0,1-6.339-2.9c-1.348-1.218-6.509-4.479-6.509-4.479l-.027-.006c-.113,0-.653.168-3,2.15-1.213,1.022-3.281-1.445-3.281-1.445a2.942,2.942,0,0,0-.678.92,3.11,3.11,0,0,0-.269,1.921,12.454,12.454,0,0,1-.9,4.64c-.292.859-.537,1.468-.537,1.468s-.141.708,2.394,1.025" transform="translate(-2335.664 -969.513)" fill="#9899a3"/>
                <path id="Path_4772" data-name="Path 4772" d="M2344.74,609.4c3.123-1.044,7.132-3.818,11.946-10.039,12.744-16.471,1.082-35.828-.481-36.188S2351.7,575.7,2351.7,575.7c-2.037,13.326-6.656,27.633-6.958,33.7" transform="translate(-2324.621 -491.274)" fill="#c4c4ce"/>
                <path id="Path_4773" data-name="Path 4773" d="M2621.108,506.863s-2.044-1.855-3.714-.1.632,4.887,2.316,5.634a12.92,12.92,0,0,1,2.243,1.169Z" transform="translate(-2527.911 -448.566)" fill="#ffe8dc"/>
                <path id="Path_4774" data-name="Path 4774" d="M2465.843,398.729s.242,1.027,2.8.869c0,0,2.146-.133,2.08-1.262a6.9,6.9,0,0,0-4.877.393" transform="translate(-2415.107 -367.917)" fill="#fff"/>
              </g>
            </g>
          </g>
          <g id="Group_1145" data-name="Group 1145" transform="translate(213.555 143.918)">
            <g id="Group_1144" data-name="Group 1144">
              <g id="Group_1229" data-name="Group 1229">
                <path id="Path_4775" data-name="Path 4775" d="M917.5,676.86H849.274a4.568,4.568,0,0,1-4.568-4.568V630.078a4.568,4.568,0,0,1,4.568-4.568H917.5a4.568,4.568,0,0,1,4.568,4.568v42.213a4.568,4.568,0,0,1-4.568,4.568" transform="translate(-844.706 -611.289)" fill="#bbbbc3"/>
                <path id="Path_4776" data-name="Path 4776" d="M912.035,569.36a12.807,12.807,0,1,0,14.3,11.12,12.807,12.807,0,0,0-14.3-11.12" transform="translate(-886.629 -569.26)" fill="#bbbbc3"/>
                <path id="Path_4777" data-name="Path 4777" d="M907.651,569.908a12.807,12.807,0,1,0,14.3,11.12,12.806,12.806,0,0,0-14.3-11.12" transform="translate(-883.354 -569.669)" fill="#e6e7ec"/>
                <path id="Path_4778" data-name="Path 4778" d="M914.126,598.155a11.668,11.668,0,1,1,10.13-13.025,11.683,11.683,0,0,1-10.13,13.025m-2.807-22.465a10.972,10.972,0,1,0,12.247,9.526,10.985,10.985,0,0,0-12.247-9.526" transform="translate(-886.775 -573.481)" fill="#bbbbc3"/>
                <path id="Path_4779" data-name="Path 4779" d="M977.925,603.02a12.807,12.807,0,1,0,14.3,11.12,12.807,12.807,0,0,0-14.3-11.12" transform="translate(-935.861 -594.41)" fill="#bbbbc3"/>
                <path id="Path_4780" data-name="Path 4780" d="M973.54,603.568a12.807,12.807,0,1,0,14.3,11.12,12.806,12.806,0,0,0-14.3-11.12" transform="translate(-932.586 -594.82)" fill="#e6e7ec"/>
                <path id="Path_4781" data-name="Path 4781" d="M980.016,631.815a11.668,11.668,0,1,1,10.13-13.025,11.683,11.683,0,0,1-10.13,13.025m-2.807-22.465a10.972,10.972,0,1,0,12.247,9.526,10.985,10.985,0,0,0-12.247-9.526" transform="translate(-936.007 -598.631)" fill="#bbbbc3"/>
                <path id="Path_4782" data-name="Path 4782" d="M912.443,692.742H849.274a4.568,4.568,0,0,1-4.568-4.568V645.96a4.568,4.568,0,0,1,4.568-4.568h63.169a4.568,4.568,0,0,1,4.568,4.568v42.213a4.568,4.568,0,0,1-4.568,4.568" transform="translate(-844.706 -623.156)" fill="#e6e7ec"/>
                <path id="Path_4783" data-name="Path 4783" d="M1052.158,729.229h-22.437a7.016,7.016,0,0,1,0-14.031h22.437Z" transform="translate(-977.704 -678.303)" fill="#bbbbc3"/>
                <path id="Path_4784" data-name="Path 4784" d="M1039.7,726.7a5.5,5.5,0,1,1-5.5-5.5,5.5,5.5,0,0,1,5.5,5.5" transform="translate(-982.187 -682.786)" fill="#f8f8f8"/>
              </g>
            </g>
          </g>
          <g id="Group_1148" data-name="Group 1148" transform="translate(459.692 204.318)">
            <g id="Group_1147" data-name="Group 1147">
              <g id="Group_1146" data-name="Group 1146" clip-path="url(#clip-path-3)">
                <path id="Path_4785" data-name="Path 4785" d="M1835.121,808.169a16.83,16.83,0,1,0,16.83,16.83,16.83,16.83,0,0,0-16.83-16.83m9.805,12.441-11.046,11.046a1.6,1.6,0,0,1-1.134.469h-.8a1.605,1.605,0,0,1-1.134-.469l-5.5-5.5a1.6,1.6,0,1,1,2.267-2.267l3.269,3.269a1.6,1.6,0,0,0,2.254.013l9.047-8.844a1.6,1.6,0,0,1,1.121-.457h.52a1.6,1.6,0,0,1,1.133,2.736" transform="translate(-1818.291 -808.169)" fill="#e6e7ec"/>
              </g>
            </g>
          </g>
          <g id="Group_1151" data-name="Group 1151" transform="translate(119.341 63.482)">
            <g id="Group_1150" data-name="Group 1150">
              <g id="Group_1223" data-name="Group 1223">
                <path id="Path_4786" data-name="Path 4786" d="M504.437,364.66q-.722.092-1.43.178a.985.985,0,0,1-.244-1.955h.007q1.275-.155,2.594-.33h.006a.985.985,0,0,1,.255,1.954l-1.189.155m3.787-.518a.985.985,0,0,1-.266-1.952q1.278-.185,2.591-.388a.985.985,0,0,1,.3,1.947q-1.322.2-2.61.391l-.016,0m-7.82.992-.021,0c-.893.1-1.778.182-2.63.259a.985.985,0,0,1-.177-1.962c.841-.076,1.715-.162,2.6-.256a.985.985,0,0,1,.23,1.957m13.017-1.794a.985.985,0,0,1-.283-1.949q1.278-.209,2.585-.433a.985.985,0,0,1,.333,1.942q-1.314.225-2.6.436l-.035,0M495.173,365.6l-.057.006c-.907.063-1.8.115-2.646.155a.985.985,0,1,1-.091-1.968c.833-.038,1.707-.089,2.6-.152a.985.985,0,0,1,.195,1.959m23.432-3.149a.985.985,0,0,1-.3-1.947q1.278-.229,2.58-.47a.985.985,0,1,1,.359,1.936q-1.309.243-2.593.473l-.049.008m-28.68,3.386a1.037,1.037,0,0,1-.11.008c-.923.015-1.82.013-2.665-.005a.985.985,0,0,1,.043-1.969c.82.018,1.691.02,2.589,0a.985.985,0,0,1,.143,1.962m33.85-4.345a.985.985,0,0,1-.31-1.944q1.277-.245,2.575-.5a.985.985,0,1,1,.382,1.932q-1.3.257-2.586.5l-.062.009m5.158-1.018a.985.985,0,0,1-.319-1.942q1.276-.259,2.57-.527a.985.985,0,1,1,.4,1.928q-1.3.27-2.58.53l-.072.011m5.148-1.069a.985.985,0,0,1-.329-1.94q1.276-.27,2.567-.55a.985.985,0,0,1,.417,1.925q-1.295.28-2.574.552c-.027.005-.054.01-.08.013m-49.406,6.305a1,1,0,0,1-.2.005c-.953-.07-1.856-.169-2.684-.293a.985.985,0,0,1,.292-1.948c.78.117,1.634.21,2.537.277a.985.985,0,0,1,.054,1.959m54.544-7.418a.985.985,0,0,1-.336-1.939q1.275-.282,2.562-.571a.985.985,0,0,1,.432,1.922q-1.291.29-2.569.573c-.03.006-.059.011-.088.015m5.129-1.152A.985.985,0,0,1,544,355.2q1.273-.29,2.559-.589a.985.985,0,0,1,.445,1.919q-1.288.3-2.565.59c-.032.007-.064.013-.1.017m5.122-1.187a.985.985,0,0,1-.349-1.936q1.273-.3,2.555-.6a.985.985,0,1,1,.457,1.916q-1.285.306-2.561.606a.893.893,0,0,1-.1.018M479.492,364.9a1,1,0,0,1-.385-.027,13.1,13.1,0,0,1-2.648-1.016.985.985,0,0,1,.923-1.741,11.074,11.074,0,0,0,2.246.856.985.985,0,0,1-.136,1.927m75.092-10.161a.985.985,0,0,1-.355-1.935q1.272-.307,2.552-.619a.985.985,0,0,1,.467,1.914q-1.283.313-2.557.621a1,1,0,0,1-.107.02m5.107-1.246a.985.985,0,0,1-.36-1.934q1.271-.314,2.549-.633a.985.985,0,0,1,.476,1.912q-1.279.319-2.553.633a.976.976,0,0,1-.112.021m5.1-1.272a.985.985,0,0,1-.364-1.933q1.27-.32,2.546-.644a.985.985,0,1,1,.485,1.909q-1.277.325-2.55.646a.985.985,0,0,1-.117.022m5.095-1.3a.985.985,0,0,1-.369-1.931l2.543-.655a.985.985,0,1,1,.493,1.907q-1.275.33-2.547.656a.936.936,0,0,1-.121.024m5.082-1.315a.985.985,0,0,1-.373-1.93l2.536-.665a.985.985,0,0,1,.5,1.905l-2.54.666a.963.963,0,0,1-.125.024m-99.925,12.7a.986.986,0,0,1-.923-.4c-.058-.08-.114-.162-.166-.244a13.456,13.456,0,0,1-1.182-2.287.985.985,0,0,1,1.832-.724,11.484,11.484,0,0,0,1.01,1.95c.032.05.066.1.1.148a.985.985,0,0,1-.671,1.556m105-14.039a.985.985,0,0,1-.376-1.929l2.54-.676a.985.985,0,0,1,.509,1.9q-1.272.34-2.544.677a1.092,1.092,0,0,1-.128.026m5.086-1.359a.985.985,0,0,1-.38-1.929l2.545-.687a.985.985,0,0,1,.515,1.9l-2.548.687a.979.979,0,0,1-.132.027m5.082-1.376a.985.985,0,0,1-.383-1.927l2.534-.693a.985.985,0,1,1,.521,1.9l-2.536.693a1,1,0,0,1-.135.027m5.07-1.391a.985.985,0,0,1-.386-1.927l2.532-.7a.985.985,0,1,1,.527,1.9l-2.534.7a.958.958,0,0,1-.138.028m5.065-1.406a.985.985,0,0,1-.389-1.926l2.53-.708a.985.985,0,1,1,.532,1.9l-2.532.709a.994.994,0,0,1-.141.028m5.061-1.421a.985.985,0,0,1-.392-1.925l2.528-.715a.985.985,0,0,1,.538,1.9l-2.53.716a1.032,1.032,0,0,1-.144.029m5.057-1.435a.985.985,0,0,1-.394-1.925l2.526-.722a.985.985,0,0,1,.543,1.894l-2.529.723a1.086,1.086,0,0,1-.146.03M473.191,357.452l-.036,0a.985.985,0,0,1-1.07-.891,9.131,9.131,0,0,1,.2-2.891.985.985,0,0,1,1.92.442,7.19,7.19,0,0,0-.156,2.27.984.984,0,0,1-.855,1.066m142.329-19.018a.985.985,0,0,1-.4-1.923l2.524-.729a.985.985,0,1,1,.547,1.892l-2.526.729a.948.948,0,0,1-.149.03m5.05-1.461a.985.985,0,0,1-.4-1.923l2.523-.735a.985.985,0,1,1,.552,1.891l-2.525.735a.969.969,0,0,1-.151.031m5.047-1.473a.985.985,0,0,1-.4-1.922l2.521-.741a.985.985,0,0,1,.557,1.89l-2.523.742a1.013,1.013,0,0,1-.153.032m5.043-1.485a.985.985,0,0,1-.4-1.922l2.52-.747a.985.985,0,0,1,.561,1.888l-2.521.747a1.006,1.006,0,0,1-.155.033m5.04-1.5a.985.985,0,0,1-.405-1.921l2.518-.752a.985.985,0,0,1,.564,1.887l-2.52.753a.957.957,0,0,1-.158.033M474.3,352.453a.985.985,0,0,1-.989-1.45,14.206,14.206,0,0,1,1.6-2.308.985.985,0,0,1,1.508,1.267,12.3,12.3,0,0,0-1.375,1.986.984.984,0,0,1-.74.5m166.435-21.442a.985.985,0,0,1-.408-1.921l2.516-.757a.985.985,0,1,1,.569,1.886l-2.518.758a1.03,1.03,0,0,1-.159.034m5.034-1.519a.985.985,0,0,1-.409-1.92l2.515-.763a.985.985,0,0,1,.573,1.885l-2.517.763a.966.966,0,0,1-.162.035m5.031-1.529a.985.985,0,0,1-.411-1.92l2.513-.768a.985.985,0,0,1,.577,1.884l-2.516.769a1.037,1.037,0,0,1-.163.035m5.028-1.54a.985.985,0,0,1-.413-1.919l2.512-.773a.985.985,0,1,1,.58,1.882l-2.514.774a1.063,1.063,0,0,1-.165.036m-178.212,22a.985.985,0,0,1-.785-1.709c.638-.575,1.349-1.152,2.115-1.716a.985.985,0,1,1,1.168,1.586c-.714.526-1.375,1.061-1.965,1.593a.977.977,0,0,1-.534.245m183.237-23.555a.985.985,0,0,1-.415-1.919l2.511-.778a.985.985,0,1,1,.585,1.881l-2.513.779a1.06,1.06,0,0,1-.168.036m5.023-1.56a.985.985,0,0,1-.417-1.918l2.51-.783a.985.985,0,1,1,.588,1.88l-2.512.784a1.029,1.029,0,0,1-.169.037m5.02-1.571a.985.985,0,0,1-.419-1.917l2.509-.789a.985.985,0,0,1,.592,1.879l-2.511.79a1.031,1.031,0,0,1-.171.037M481.834,345.3a.985.985,0,0,1-.65-1.811c.725-.456,1.5-.914,2.315-1.362a.985.985,0,1,1,.953,1.724c-.779.43-1.526.87-2.219,1.306a.982.982,0,0,1-.4.143m194.085-25.136a.985.985,0,0,1-.421-1.917l2.508-.795a.985.985,0,1,1,.6,1.878l-2.51.8a.986.986,0,0,1-.173.038m5.017-1.593a.985.985,0,0,1-.423-1.916l2.507-.8a.985.985,0,0,1,.6,1.876l-2.51.8a.939.939,0,0,1-.175.039m-194.5,24.177a.985.985,0,0,1-.562-1.86c.769-.38,1.58-.763,2.413-1.138a.985.985,0,0,1,.808,1.8c-.811.365-1.6.737-2.348,1.107a.983.983,0,0,1-.312.095m199.521-25.784a.985.985,0,0,1-.426-1.915q1.373-.442,2.509-.809a.985.985,0,1,1,.606,1.874q-1.136.368-2.512.81a.966.966,0,0,1-.177.039m5.024-1.624a.985.985,0,0,1-.429-1.914c1.55-.5,2.376-.775,2.377-.776a.985.985,0,1,1,.616,1.871s-.828.273-2.383.778a.988.988,0,0,1-.18.041M491.23,340.581a.985.985,0,0,1-.5-1.888c.794-.328,1.626-.658,2.47-.981a.985.985,0,1,1,.7,1.84c-.828.317-1.643.641-2.422.962a.992.992,0,0,1-.252.067m4.915-1.883a.985.985,0,0,1-.455-1.905c.813-.29,1.657-.581,2.509-.865a.985.985,0,1,1,.624,1.868c-.839.28-1.671.566-2.471.852a1,1,0,0,1-.207.05m4.995-1.668a.985.985,0,0,1-.419-1.918c.824-.258,1.676-.518,2.534-.771a.985.985,0,0,1,.558,1.889c-.848.251-1.69.507-2.5.763a.973.973,0,0,1-.171.037m5.05-1.495a.985.985,0,0,1-.389-1.926c.84-.235,1.7-.468,2.555-.694a.985.985,0,0,1,.5,1.9c-.846.224-1.7.455-2.529.687a.968.968,0,0,1-.141.029m5.093-1.347a.985.985,0,0,1-.363-1.933c.846-.211,1.711-.422,2.572-.626a.985.985,0,0,1,.454,1.917c-.853.2-1.71.411-2.548.62a.975.975,0,0,1-.115.022m5.129-1.215a.985.985,0,0,1-.339-1.938c.863-.193,1.734-.383,2.589-.563a.985.985,0,0,1,.406,1.928c-.847.179-1.71.366-2.565.558-.03.007-.061.012-.091.016m5.164-1.088a.985.985,0,0,1-.314-1.943c1.645-.323,2.593-.486,2.632-.492a.985.985,0,1,1,.331,1.941c-.009,0-.966.166-2.584.483-.022,0-.044.008-.066.011" transform="translate(-472.047 -297.051)" fill="#c8cad5"/>
                <path id="Path_4787" data-name="Path 4787" d="M1387.389,299.863l34.325-25.714-33.508,6.318,3.336,5.369-5.985,8.619Z" transform="translate(-1154.608 -268.322)" fill="#c9cbd3"/>
                <path id="Path_4788" data-name="Path 4788" d="M1340.579,274.149l-37.874,12.074-25.735,23.236Z" transform="translate(-1073.473 -268.322)" fill="#e6e7ec"/>
                <path id="Path_4789" data-name="Path 4789" d="M1386.772,263.244l33.508-6.318-36.642-5.827Z" transform="translate(-1153.174 -251.099)" fill="#e6e7ec"/>
              </g>
            </g>
          </g>
          <g id="Group_1154" data-name="Group 1154" transform="translate(206.596 244.874)">
            <g id="Group_1153" data-name="Group 1153">
              <g id="Group_1230" data-name="Group 1230">
                <path id="Path_4790" data-name="Path 4790" d="M1124.512,1000.31a2.7,2.7,0,0,0-1.317-.275h-2.1v2.748h2.1a2.588,2.588,0,0,0,1.317-.289,1.167,1.167,0,0,0,.492-1.1,1.132,1.132,0,0,0-.492-1.085" transform="translate(-1044.263 -992.084)" fill="#e6e7ec"/>
                <path id="Path_4791" data-name="Path 4791" d="M935.48,1005.816h3.182l-1.591-4.123Z" transform="translate(-905.572 -993.323)" fill="#e6e7ec"/>
                <path id="Path_4792" data-name="Path 4792" d="M898.9,1000.31a2.7,2.7,0,0,0-1.316-.275h-2.1v2.748h2.1a2.587,2.587,0,0,0,1.316-.289,1.167,1.167,0,0,0,.492-1.1,1.132,1.132,0,0,0-.492-1.085" transform="translate(-875.687 -992.084)" fill="#e6e7ec"/>
                <path id="Path_4793" data-name="Path 4793" d="M904.625,968.585H821.013a3.834,3.834,0,0,0-3.834,3.834v14.743A3.834,3.834,0,0,0,821.013,991h83.612a3.834,3.834,0,0,0,3.834-3.834V972.419a3.834,3.834,0,0,0-3.834-3.834m-71.049,7.56a.4.4,0,0,1-.391.391h-2.6v7.927a.4.4,0,0,1-.391.391H829.02a.4.4,0,0,1-.391-.391v-7.927h-2.6a.4.4,0,0,1-.391-.391v-1.027a.4.4,0,0,1,.391-.391h7.161a.4.4,0,0,1,.391.391Zm9.294,8.614a.307.307,0,0,1-.224.094h-1.23a.582.582,0,0,1-.427-.137,1.008,1.008,0,0,1-.2-.253l-1.9-3.371h-1.924v3.371a.4.4,0,0,1-.391.391h-1.172a.4.4,0,0,1-.391-.391v-9.345a.4.4,0,0,1,.391-.391h3.732a4,4,0,0,1,2.748.839,2.96,2.96,0,0,1,.94,2.329,3.231,3.231,0,0,1-.485,1.8,2.866,2.866,0,0,1-1.425,1.107l2,3.573a.358.358,0,0,1,.044.159.308.308,0,0,1-.094.224m10.6-.022a.376.376,0,0,1-.275.116h-1.042a.543.543,0,0,1-.405-.123.725.725,0,0,1-.159-.239l-.622-1.606h-4.571l-.622,1.606a.73.73,0,0,1-.159.239.544.544,0,0,1-.405.123h-1.042a.395.395,0,0,1-.391-.391.318.318,0,0,1,.014-.1l3.544-9.143a1.045,1.045,0,0,1,.2-.369.455.455,0,0,1,.347-.123h1.591a.456.456,0,0,1,.347.123,1.047,1.047,0,0,1,.2.369l3.544,9.143a.332.332,0,0,1,.014.1.375.375,0,0,1-.116.275m9.4-.275a.4.4,0,0,1-.391.391h-1.013a.508.508,0,0,1-.376-.13,2.621,2.621,0,0,1-.188-.2l-4.05-6.018v5.96a.4.4,0,0,1-.391.391h-1.172a.395.395,0,0,1-.39-.391v-9.345a.395.395,0,0,1,.39-.391H856.3a.509.509,0,0,1,.376.13,2.764,2.764,0,0,1,.188.2l4.05,6.018v-5.96a.4.4,0,0,1,.391-.391h1.172a.4.4,0,0,1,.391.391Zm9.692-1.28a2.78,2.78,0,0,1-.825.955,4.168,4.168,0,0,1-1.316.629,6.158,6.158,0,0,1-1.75.231,6.012,6.012,0,0,1-1.548-.2,4.535,4.535,0,0,1-1.309-.564,3.118,3.118,0,0,1-.918-.889,2.34,2.34,0,0,1-.391-1.157.32.32,0,0,1,.109-.282.413.413,0,0,1,.282-.109h1.013a.677.677,0,0,1,.376.087.652.652,0,0,1,.217.26,2.746,2.746,0,0,0,.246.376,1.333,1.333,0,0,0,.391.333,2.365,2.365,0,0,0,.615.239,3.788,3.788,0,0,0,.919.094,5.234,5.234,0,0,0,.839-.065,2.456,2.456,0,0,0,.709-.217,1.516,1.516,0,0,0,.492-.376.836.836,0,0,0,.188-.557.706.706,0,0,0-.2-.521,1.63,1.63,0,0,0-.615-.347,8.588,8.588,0,0,0-1.02-.275q-.607-.13-1.4-.333a7.531,7.531,0,0,1-1.266-.412,2.983,2.983,0,0,1-.9-.586,2.188,2.188,0,0,1-.528-.817,3.237,3.237,0,0,1-.174-1.121,2.535,2.535,0,0,1,.29-1.2,2.857,2.857,0,0,1,.8-.94,3.908,3.908,0,0,1,1.208-.615,4.934,4.934,0,0,1,1.512-.224,5.128,5.128,0,0,1,1.707.26,4.224,4.224,0,0,1,1.229.651,2.812,2.812,0,0,1,.745.861,2.217,2.217,0,0,1,.282.889.32.32,0,0,1-.108.282.413.413,0,0,1-.282.108h-1.013a.6.6,0,0,1-.369-.094.952.952,0,0,1-.224-.253,1.883,1.883,0,0,0-.658-.629,2.566,2.566,0,0,0-1.309-.268,3.129,3.129,0,0,0-.716.08,2.06,2.06,0,0,0-.593.231,1.223,1.223,0,0,0-.4.369.866.866,0,0,0-.145.492.97.97,0,0,0,.137.542,1.078,1.078,0,0,0,.463.361,4.706,4.706,0,0,0,.861.282q.535.13,1.331.3a9.388,9.388,0,0,1,1.5.441,3.5,3.5,0,0,1,1.027.608,2.269,2.269,0,0,1,.593.817,2.7,2.7,0,0,1,.2,1.056,2.583,2.583,0,0,1-.289,1.208m8.9-7.037a.4.4,0,0,1-.391.391h-4.615v2.806h4.325a.395.395,0,0,1,.391.39v1.027a.395.395,0,0,1-.391.391h-4.325v3.313a.4.4,0,0,1-.39.391h-1.172a.4.4,0,0,1-.391-.391v-9.345a.4.4,0,0,1,.391-.391h6.177a.4.4,0,0,1,.391.391Zm8.81,8.318a.4.4,0,0,1-.391.391h-6.351a.4.4,0,0,1-.391-.391v-9.345a.4.4,0,0,1,.391-.391h6.235a.4.4,0,0,1,.391.391v1.027a.4.4,0,0,1-.391.391h-4.673v2.3h4.354a.4.4,0,0,1,.391.391v1.027a.395.395,0,0,1-.391.391h-4.354v2.4h4.788a.4.4,0,0,1,.391.391Zm9.641.3a.306.306,0,0,1-.224.094h-1.229a.583.583,0,0,1-.427-.137,1.016,1.016,0,0,1-.2-.253l-1.9-3.371h-1.924v3.371a.4.4,0,0,1-.391.391h-1.172a.4.4,0,0,1-.391-.391v-9.345a.4.4,0,0,1,.391-.391h3.732a4,4,0,0,1,2.749.839,2.96,2.96,0,0,1,.94,2.329,3.233,3.233,0,0,1-.485,1.8,2.865,2.865,0,0,1-1.425,1.107l2,3.573a.361.361,0,0,1,.044.159.306.306,0,0,1-.094.224" transform="translate(-817.179 -968.585)" fill="#e6e7ec"/>
              </g>
            </g>
          </g>
          <g id="Group_1157" data-name="Group 1157" transform="translate(56.672 213.504)">
            <g id="Group_1156" data-name="Group 1156">
              <g id="Group_1155" data-name="Group 1155" clip-path="url(#clip-path-4)">
                <path id="Path_4794" data-name="Path 4794" d="M233.677,844.5a7.12,7.12,0,0,0-7.136,7.1v1.22a2.386,2.386,0,0,0-2.378,2.378V867.1a2.386,2.386,0,0,0,2.378,2.378h14.271a2.386,2.386,0,0,0,2.378-2.378V855.207a2.386,2.386,0,0,0-2.378-2.378v-1.19a7.12,7.12,0,0,0-7.1-7.135h-.031m0,2.378a4.658,4.658,0,0,1,4.757,4.557q0,.1,0,.2v1.19H228.92v-1.19a4.658,4.658,0,0,1,4.557-4.757q.1,0,.2,0m0,11.893a2.378,2.378,0,1,1-2.378,2.379,2.378,2.378,0,0,1,2.378-2.379" transform="translate(-224.163 -844.504)" fill="#c8cad5"/>
              </g>
            </g>
          </g>
          <g id="Group_1160" data-name="Group 1160" transform="translate(352.374 166.885)">
            <g id="Group_1159" data-name="Group 1159">
              <g id="Group_1158" data-name="Group 1158" clip-path="url(#clip-path-5)">
                <path id="Path_4795" data-name="Path 4795" d="M1404.067,660.105a1.524,1.524,0,0,0-.511.089l-9.283,3.469a.719.719,0,0,0-.479.67v3.612a20.049,20.049,0,0,0,9.928,17.392.675.675,0,0,0,.359.1.622.622,0,0,0,.359-.1,20.049,20.049,0,0,0,9.928-17.392v-3.612a.7.7,0,0,0-.479-.67l-9.33-3.469a1.376,1.376,0,0,0-.493-.089m.006,1.555a1.525,1.525,0,0,1,.511.09l8.349,3.086v3.11a18.628,18.628,0,0,1-8.852,15.933,18.628,18.628,0,0,1-8.852-15.933v-3.11l8.349-3.086a1.377,1.377,0,0,1,.493-.09m.787,2.538a.7.7,0,0,0-.778.71v14.881a.71.71,0,0,0,1.2.5,16.412,16.412,0,0,0,5.5-12.344v-1.1a.7.7,0,0,0-.479-.67l-5.263-1.938a.762.762,0,0,0-.178-.04" transform="translate(-1393.796 -660.105)" fill="#c8cad5"/>
              </g>
            </g>
          </g>
          <g id="Group_1163" data-name="Group 1163" transform="translate(445.623 110.671)">
            <g id="Group_1162" data-name="Group 1162">
              <g id="Group_1228" data-name="Group 1228">
                <path id="Path_4796" data-name="Path 4796" d="M1803.517,456.9a26.471,26.471,0,1,0,29.547,22.982,26.5,26.5,0,0,0-29.547-22.982m15.194,20.487V488.21a2.7,2.7,0,0,1-2.7,2.695h-3.7v3.683a2.7,2.7,0,0,1-2.691,2.695h-11.388a2.7,2.7,0,0,1-2.7-2.695V483.776l.014-.606-.028-8.459,0,0,4.123,6.047h2.3v3.584H1800.6a1.431,1.431,0,0,0-1.437,1.422v6.5a1.437,1.437,0,0,0,1.437,1.432h6.633a1.437,1.437,0,0,0,1.437-1.432V490.9h-4.019a2.7,2.7,0,0,1-2.69-2.695V477.063a2.7,2.7,0,0,1,2.69-2.695h9.97l4.124-6.048-.043,8.459Z" transform="translate(-1775.854 -451.903)" fill="#e6e7ec"/>
                <path id="Path_4797" data-name="Path 4797" d="M1881.884,566.075h-1.649v1.537a1.424,1.424,0,0,0,1.386,1.435h-.1a.758.758,0,0,0,.147.01h1.654V567.5a1.431,1.431,0,0,0-1.437-1.422" transform="translate(-1850.505 -533.633)" fill="#e6e7ec"/>
                <path id="Path_4798" data-name="Path 4798" d="M1888.3,540.786h-6.633a1.437,1.437,0,0,0-1.433,1.437v1.372h4.032a2.706,2.706,0,0,1,2.7,2.69v3.877h1.333l0,0a1.418,1.418,0,0,0,.645-.159,1.437,1.437,0,0,0,.785-1.271v-6.511a1.438,1.438,0,0,0-1.433-1.437" transform="translate(-1850.507 -514.737)" fill="#e6e7ec"/>
                <path id="Path_4799" data-name="Path 4799" d="M1824.2,464.818a30.9,30.9,0,1,0-26.826,34.488,30.9,30.9,0,0,0,26.826-34.488m-27.12,32.123a28.148,28.148,0,1,1,24.438-31.423,28.183,28.183,0,0,1-24.438,31.423" transform="translate(-1762.644 -437.75)" fill="#e6e7ec"/>
              </g>
            </g>
          </g>
        </g>
      </g>
    </g>
  </g>
</svg>
