<svg width="88" height="88" viewBox="0 0 88 88" fill="none" xmlns="http://www.w3.org/2000/svg">
<g id="wallet_syncing">
<path id="Vector" d="M44.1113 9C25.37 9 10.025 23.7469 9.00755 42.2475C8.92505 43.5125 9.52317 44.7225 10.5819 45.4237C11.6407 46.1181 12.995 46.1937 14.1225 45.6162C15.25 45.0387 15.9857 43.8975 16.0338 42.6325C16.8519 27.7894 29.0482 16.04 44.1113 16.04C52.1825 16.04 59.4219 19.4294 64.5438 24.84H59.9513C58.6794 24.8194 57.5038 25.4862 56.8644 26.5863C56.2182 27.6794 56.2182 29.0406 56.8644 30.1337C57.5038 31.2337 58.6794 31.9006 59.9513 31.88H70.9719C71.3707 31.9487 71.7763 31.9487 72.1819 31.88H77.5513V14.28C77.565 13.3313 77.1938 12.4169 76.52 11.7431C75.8463 11.0694 74.9319 10.6981 73.9763 10.7119C72.0375 10.7394 70.4838 12.3344 70.5113 14.28V20.9281C64.0557 13.6131 54.6094 9 44.1113 9ZM75.8463 42.3919C73.9007 42.3094 72.2644 43.8219 72.1888 45.7675C71.3707 60.6106 59.1744 72.36 44.1113 72.36C36.04 72.36 28.8075 68.9706 23.6788 63.56H28.2713C29.5432 63.5806 30.7188 62.9137 31.3582 61.8137C32.0044 60.7206 32.0044 59.3594 31.3582 58.2662C30.7188 57.1662 29.5432 56.4994 28.2713 56.52H17.2163C16.845 56.465 16.4738 56.465 16.1025 56.52H10.6713V74.12C10.6507 75.3919 11.3175 76.5675 12.4175 77.2069C13.5107 77.8531 14.8719 77.8531 15.965 77.2069C17.065 76.5675 17.7319 75.3919 17.7113 74.12V67.4719C24.1669 74.7869 33.6132 79.4 44.1113 79.4C62.8525 79.4 78.1975 64.6531 79.215 46.1525C79.2838 45.2037 78.9607 44.2687 78.3282 43.5606C77.6888 42.8525 76.795 42.4331 75.8463 42.3919Z" fill="#65656E"/>
</g>
</svg>
