<svg width="50" height="50" viewBox="0 0 50 50" fill="none" xmlns="http://www.w3.org/2000/svg">
<g clip-path="url(#clip0_1_49629)">
<path d="M42.4829 31.5759C42.5633 32.8834 42.36 34.1928 41.8863 35.4175C41.4127 36.6422 40.6795 37.7544 39.7351 38.6806C38.7908 39.6068 37.6568 40.3259 36.4081 40.7905C35.1595 41.255 33.8245 41.4545 32.4914 41.3756V45.5502C32.4896 45.9031 32.3906 46.249 32.2049 46.5514C32.0192 46.8537 31.7537 47.1013 31.4365 47.2679C31.1192 47.4345 30.762 47.514 30.4025 47.498C30.043 47.482 29.6946 47.371 29.3941 47.1769L20.5017 41.3756H12.5086C11.1755 41.4545 9.84054 41.255 8.59186 40.7905C7.34318 40.3259 6.20922 39.6068 5.26488 38.6806C4.32055 37.7544 3.58733 36.6422 3.11367 35.4175C2.64001 34.1928 2.43669 32.8834 2.51715 31.5759V19.8164C2.43669 18.5089 2.64001 17.1996 3.11367 15.9749C3.58733 14.7502 4.32055 13.638 5.26488 12.7118C6.20922 11.7856 7.34318 11.0665 8.59186 10.6019C9.84054 10.1373 11.1755 9.93791 12.5086 10.0168H32.4914" stroke="#EBEBEB" stroke-width="3" stroke-linecap="round" stroke-linejoin="round"/>
<path d="M26.083 6.07231L26.1078 14.1088V14.1103V14.6798V14.6805L26.0954 24.9324V24.9337C26.0954 26.9253 27.7269 28.5 29.703 28.5H40.742C42.7274 28.5 44.362 26.9284 44.362 24.9337V22.4429H46.9381C48.24 22.4429 49.3517 21.7686 49.9964 20.7882L49.9965 20.7883L50.0038 20.7767C50.348 20.2374 50.5582 19.5901 50.5582 18.8888V8.03959V8.03249L50.5581 8.0254L50.5458 7.15941L50.583 0.00519918L50.5997 -3.21513L48.7619 -0.570705L45.0619 4.75298H35.9365C33.9573 4.75298 32.3165 6.30629 32.3165 8.30716V10.81H31.6035L27.9036 5.4977L26.0731 2.8695L26.083 6.07231ZM32.0126 16.2034H32.3165V18.8644C32.3165 20.8636 33.9538 22.4142 35.9156 22.4307V22.4308H35.9241H38.8107V22.7079V22.812C38.7683 22.9674 38.6216 23.0944 38.4323 23.0944H32.0126C31.7696 23.0944 31.6095 22.9089 31.6095 22.72V16.5646C31.6159 16.3715 31.7862 16.2 31.9969 16.2033L32.0047 16.2034H32.0126ZM45.0689 10.4965V16.0514L45.0441 16.0635V16.6873C45.0441 16.8048 44.9748 16.9201 44.8565 16.9765L44.8399 16.9844L44.8236 16.9929C44.7984 17.0061 44.7327 17.0284 44.6355 17.037L44.3744 17.0346V14.3521H44.3745L44.3743 14.3419C44.357 12.625 43.1143 11.2058 41.4857 10.8687C41.2293 10.812 40.9789 10.7979 40.7668 10.7979H37.8554V10.4965C37.8554 10.3084 38.0147 10.1221 38.2585 10.1221H44.6782C44.7702 10.1221 44.843 10.1516 44.8987 10.1976L44.932 10.225L44.9675 10.2495C45.0055 10.2757 45.0689 10.354 45.0689 10.4965ZM38.8231 17.0374H38.2051C37.9848 17.0242 37.8305 16.8418 37.8305 16.663V16.2034H38.4324C38.6689 16.2034 38.8231 16.3826 38.8231 16.5657L38.8231 17.0374Z" fill="#108D32" stroke="#2E333D" stroke-width="2"/>
</g>
<defs>
<clipPath id="clip0_1_49629">
<rect width="50" height="50" fill="white"/>
</clipPath>
</defs>
</svg>
