<svg xmlns="http://www.w3.org/2000/svg" width="79.99" height="79.512" viewBox="0 0 79.99 79.512">
  <g id="wallet_in_chat" data-name="wallet in chat" transform="translate(-1810.23 -797.256)">
    <path id="Path_4922" data-name="Path 4922" d="M115.395,198.258h49.834a9.628,9.628,0,0,0,9.715-9.516v-24.49a9.628,9.628,0,0,0-9.715-9.516H119.617l-13.937-13.7v47.7a9.628,9.628,0,0,0,9.715,9.516Zm49.834-39.728a5.879,5.879,0,0,1,6.015,5.72v24.49a5.88,5.88,0,0,1-6.015,5.72H115.395a5.879,5.879,0,0,1-6.015-5.72V149.93l8.751,8.6Z" transform="translate(1705.05 657.408)" fill="#2075ff" stroke="#2075ff" stroke-width="1"/>
    <g id="Beldex_send_green" transform="translate(9630.362 16146.911)" fill="#00c800">
      <path d="M -7763.57177734375 -15271.642578125 C -7766.52880859375 -15271.642578125 -7769.400390625 -15272.22265625 -7772.10693359375 -15273.3662109375 C -7774.71923828125 -15274.4716796875 -7777.064453125 -15276.052734375 -7779.07763671875 -15278.06640625 C -7781.08984375 -15280.076171875 -7782.67138671875 -15282.421875 -7783.77734375 -15285.037109375 C -7784.9208984375 -15287.740234375 -7785.50048828125 -15290.611328125 -7785.50048828125 -15293.5703125 C -7785.50048828125 -15296.5322265625 -7784.9208984375 -15299.404296875 -7783.77734375 -15302.1064453125 C -7782.67138671875 -15304.720703125 -7781.09033203125 -15307.06640625 -7779.0771484375 -15309.0771484375 C -7777.06201171875 -15311.091796875 -7774.716796875 -15312.673828125 -7772.107421875 -15313.7783203125 C -7769.3984375 -15314.9208984375 -7766.52685546875 -15315.5 -7763.57177734375 -15315.5 C -7760.6171875 -15315.5 -7757.74560546875 -15314.9208984375 -7755.03662109375 -15313.7783203125 C -7752.4267578125 -15312.673828125 -7750.08203125 -15311.0927734375 -7748.06591796875 -15309.076171875 C -7746.05419921875 -15307.0673828125 -7744.47265625 -15304.72265625 -7743.3662109375 -15302.10546875 C -7742.22216796875 -15299.400390625 -7741.64208984375 -15296.5283203125 -7741.64208984375 -15293.5703125 C -7741.64208984375 -15290.615234375 -7742.22216796875 -15287.7451171875 -7743.36572265625 -15285.037109375 C -7744.47119140625 -15282.423828125 -7746.052734375 -15280.078125 -7748.06591796875 -15278.06640625 C -7750.07958984375 -15276.052734375 -7752.42431640625 -15274.4716796875 -7755.03515625 -15273.3662109375 C -7757.7431640625 -15272.22265625 -7760.615234375 -15271.642578125 -7763.57177734375 -15271.642578125 Z M -7771.94775390625 -15292.7294921875 L -7771.94775390625 -15283.5390625 C -7771.94775390625 -15283.1005859375 -7771.5888671875 -15282.744140625 -7771.14794921875 -15282.744140625 L -7761.44970703125 -15282.744140625 C -7761.01318359375 -15282.744140625 -7760.65771484375 -15283.1005859375 -7760.65771484375 -15283.5390625 L -7760.65771484375 -15286.67578125 L -7760.65771484375 -15288.17578125 L -7759.15771484375 -15288.17578125 L -7758.59814453125 -15288.17578125 L -7756.00927734375 -15288.17578125 C -7755.5693359375 -15288.17578125 -7755.21142578125 -15288.5322265625 -7755.21142578125 -15288.970703125 L -7755.21142578125 -15298.17578125 L -7755.21826171875 -15298.681640625 L -7755.21826171875 -15298.6953125 L -7755.21826171875 -15298.7080078125 L -7755.20703125 -15301.005859375 L -7755.95458984375 -15299.9091796875 L -7756.40087890625 -15299.25390625 L -7757.19384765625 -15299.25390625 L -7765.68603515625 -15299.25390625 C -7766.1220703125 -15299.25390625 -7766.47705078125 -15298.8974609375 -7766.47705078125 -15298.458984375 L -7766.47705078125 -15288.970703125 C -7766.47705078125 -15288.5322265625 -7766.1220703125 -15288.17578125 -7765.68603515625 -15288.17578125 L -7764.19873046875 -15288.17578125 L -7762.26220703125 -15288.17578125 L -7760.76220703125 -15288.17578125 L -7760.76220703125 -15286.67578125 L -7760.76220703125 -15285.515625 C -7760.76220703125 -15284.015625 -7761.984375 -15282.794921875 -7763.48681640625 -15282.794921875 L -7769.13525390625 -15282.794921875 C -7770.6376953125 -15282.794921875 -7771.85986328125 -15284.015625 -7771.85986328125 -15285.515625 L -7771.85986328125 -15288.603515625 L -7771.85986328125 -15291.052734375 C -7771.85986328125 -15292.427734375 -7770.82421875 -15293.56640625 -7769.48779296875 -15293.7392578125 L -7769.48779296875 -15293.814453125 L -7769.94775390625 -15293.814453125 L -7770.74072265625 -15293.814453125 L -7771.18701171875 -15294.4697265625 L -7771.943359375 -15295.5791015625 L -7771.93603515625 -15293.2666015625 L -7771.93603515625 -15293.2470703125 L -7771.9365234375 -15293.2275390625 L -7771.94775390625 -15292.7294921875 Z M -7758.02294921875 -15288.22265625 L -7759.15771484375 -15288.22265625 L -7760.65771484375 -15288.22265625 L -7760.65771484375 -15289.72265625 L -7760.65771484375 -15293.017578125 C -7760.6630859375 -15293.45703125 -7761.02099609375 -15293.814453125 -7761.45751953125 -15293.814453125 L -7764.89208984375 -15293.814453125 L -7766.39208984375 -15293.814453125 L -7766.39208984375 -15295.314453125 L -7766.39208984375 -15296.412109375 L -7766.39208984375 -15296.482421875 C -7766.39208984375 -15297.984375 -7765.17138671875 -15299.20703125 -7763.67138671875 -15299.20703125 L -7758.02294921875 -15299.20703125 C -7756.52294921875 -15299.20703125 -7755.30224609375 -15297.984375 -7755.30224609375 -15296.482421875 L -7755.30224609375 -15290.9375 C -7755.30224609375 -15289.927734375 -7755.88330078125 -15288.9833984375 -7756.7841796875 -15288.5244140625 C -7757.162109375 -15288.3271484375 -7757.58984375 -15288.22265625 -7758.02294921875 -15288.22265625 Z M -7762.26220703125 -15288.22265625 L -7762.26318359375 -15288.22265625 L -7763.67138671875 -15288.22265625 C -7763.74755859375 -15288.22265625 -7763.90576171875 -15288.22265625 -7764.09033203125 -15288.259765625 L -7764.09033203125 -15288.2607421875 C -7765.4052734375 -15288.4599609375 -7766.39208984375 -15289.5849609375 -7766.39208984375 -15290.955078125 L -7766.39208984375 -15292.26171875 L -7766.39208984375 -15293.76171875 L -7764.89208984375 -15293.76171875 L -7763.48681640625 -15293.76171875 C -7761.984375 -15293.76171875 -7760.76220703125 -15292.546875 -7760.76220703125 -15291.052734375 L -7760.76220703125 -15289.724609375 L -7760.76220703125 -15288.224609375 L -7762.26220703125 -15288.22265625 Z" stroke="none"/>
      <path d="M -7763.57177734375 -15273.142578125 C -7760.81494140625 -15273.142578125 -7758.13916015625 -15273.68359375 -7755.61962890625 -15274.748046875 C -7753.18701171875 -15275.77734375 -7751.00341796875 -15277.25 -7749.12646484375 -15279.126953125 C -7747.25048828125 -15281.001953125 -7745.77685546875 -15283.1875 -7744.74755859375 -15285.62109375 C -7743.68310546875 -15288.140625 -7743.14208984375 -15290.81640625 -7743.14208984375 -15293.5703125 C -7743.14208984375 -15296.328125 -7743.68310546875 -15299.00390625 -7744.74755859375 -15301.521484375 C -7745.77685546875 -15303.955078125 -7747.24853515625 -15306.140625 -7749.12646484375 -15308.015625 C -7751.00341796875 -15309.892578125 -7753.18701171875 -15311.3671875 -7755.61962890625 -15312.396484375 C -7758.13916015625 -15313.458984375 -7760.81494140625 -15314 -7763.57177734375 -15314 C -7766.32958984375 -15314 -7769.00439453125 -15313.458984375 -7771.52294921875 -15312.396484375 C -7773.95556640625 -15311.3671875 -7776.14013671875 -15309.892578125 -7778.01708984375 -15308.015625 C -7779.89404296875 -15306.140625 -7781.36669921875 -15303.955078125 -7782.39599609375 -15301.521484375 C -7783.46142578125 -15299.00390625 -7784.00048828125 -15296.328125 -7784.00048828125 -15293.5703125 C -7784.00048828125 -15290.81640625 -7783.46142578125 -15288.140625 -7782.39599609375 -15285.62109375 C -7781.36572265625 -15283.185546875 -7779.89208984375 -15281 -7778.01708984375 -15279.126953125 C -7776.14013671875 -15277.25 -7773.95556640625 -15275.77734375 -7771.52294921875 -15274.748046875 C -7769.00439453125 -15273.68359375 -7766.32958984375 -15273.142578125 -7763.57177734375 -15273.142578125 M -7773.45947265625 -15300.46484375 L -7769.94775390625 -15295.314453125 L -7767.98779296875 -15295.314453125 L -7767.98779296875 -15292.26171875 L -7769.13525390625 -15292.26171875 C -7769.81103515625 -15292.26171875 -7770.35986328125 -15291.720703125 -7770.35986328125 -15291.052734375 L -7770.35986328125 -15285.515625 C -7770.35986328125 -15284.841796875 -7769.81103515625 -15284.294921875 -7769.13525390625 -15284.294921875 L -7763.48681640625 -15284.294921875 C -7762.81103515625 -15284.294921875 -7762.26220703125 -15284.841796875 -7762.26220703125 -15285.515625 L -7762.26220703125 -15286.67578125 L -7765.68603515625 -15286.67578125 C -7766.94873046875 -15286.67578125 -7767.97705078125 -15287.705078125 -7767.97705078125 -15288.970703125 L -7767.97705078125 -15298.458984375 C -7767.97705078125 -15299.724609375 -7766.94873046875 -15300.75390625 -7765.68603515625 -15300.75390625 L -7757.19384765625 -15300.75390625 L -7753.68310546875 -15305.904296875 L -7753.71826171875 -15298.701171875 L -7753.71142578125 -15298.185546875 L -7753.71142578125 -15288.970703125 C -7753.71142578125 -15287.705078125 -7754.74267578125 -15286.67578125 -7756.00927734375 -15286.67578125 L -7759.15771484375 -15286.67578125 L -7759.15771484375 -15283.5390625 C -7759.15771484375 -15282.2734375 -7760.18603515625 -15281.244140625 -7761.44970703125 -15281.244140625 L -7771.14794921875 -15281.244140625 C -7772.41552734375 -15281.244140625 -7773.44775390625 -15282.2734375 -7773.44775390625 -15283.5390625 L -7773.44775390625 -15292.74609375 L -7773.43603515625 -15293.26171875 L -7773.45947265625 -15300.46484375 M -7758.02294921875 -15289.72265625 C -7757.83154296875 -15289.72265625 -7757.64111328125 -15289.767578125 -7757.47216796875 -15289.857421875 C -7757.06591796875 -15290.060546875 -7756.80224609375 -15290.484375 -7756.80224609375 -15290.9375 L -7756.80224609375 -15296.482421875 C -7756.80224609375 -15297.15625 -7757.35107421875 -15297.70703125 -7758.02294921875 -15297.70703125 L -7763.67138671875 -15297.70703125 C -7764.34423828125 -15297.70703125 -7764.89208984375 -15297.15625 -7764.89208984375 -15296.482421875 L -7764.89208984375 -15295.314453125 L -7761.45751953125 -15295.314453125 C -7760.19873046875 -15295.314453125 -7759.16650390625 -15294.287109375 -7759.15771484375 -15293.0234375 L -7759.15771484375 -15289.72265625 L -7758.02294921875 -15289.72265625 M -7762.26220703125 -15289.72265625 L -7762.26220703125 -15291.052734375 C -7762.26220703125 -15291.720703125 -7762.81103515625 -15292.26171875 -7763.48681640625 -15292.26171875 L -7764.89208984375 -15292.26171875 L -7764.89208984375 -15290.955078125 C -7764.89208984375 -15290.287109375 -7764.37353515625 -15289.75 -7763.71142578125 -15289.73046875 L -7763.79638671875 -15289.73046875 C -7763.75732421875 -15289.72265625 -7763.71142578125 -15289.72265625 -7763.67138671875 -15289.72265625 L -7762.26220703125 -15289.72265625 M -7763.57177734375 -15270.142578125 C -7766.73046875 -15270.142578125 -7769.798828125 -15270.7626953125 -7772.69091796875 -15271.984375 C -7775.482421875 -15273.166015625 -7777.98779296875 -15274.85546875 -7780.13818359375 -15277.005859375 C -7782.28759765625 -15279.15234375 -7783.97705078125 -15281.658203125 -7785.1591796875 -15284.4521484375 C -7786.380859375 -15287.341796875 -7787.00048828125 -15290.41015625 -7787.00048828125 -15293.5703125 C -7787.00048828125 -15296.734375 -7786.380859375 -15299.802734375 -7785.15869140625 -15302.6904296875 C -7783.9775390625 -15305.484375 -7782.28759765625 -15307.990234375 -7780.13720703125 -15310.1376953125 C -7777.9853515625 -15312.2900390625 -7775.47998046875 -15313.9794921875 -7772.69189453125 -15315.1591796875 C -7769.7958984375 -15316.380859375 -7766.728515625 -15317 -7763.57177734375 -15317 C -7760.41552734375 -15317 -7757.34814453125 -15316.380859375 -7754.4541015625 -15315.1611328125 C -7751.66357421875 -15313.98046875 -7749.15869140625 -15312.2900390625 -7747.00537109375 -15310.13671875 C -7744.85693359375 -15307.9921875 -7743.1669921875 -15305.486328125 -7741.984375 -15302.6904296875 C -7740.76171875 -15299.798828125 -7740.14208984375 -15296.73046875 -7740.14208984375 -15293.5703125 C -7740.14208984375 -15290.4140625 -7740.76171875 -15287.3466796875 -7741.98388671875 -15284.453125 C -7743.16552734375 -15281.66015625 -7744.85498046875 -15279.1552734375 -7747.005859375 -15277.0048828125 C -7749.15625 -15274.8544921875 -7751.6611328125 -15273.1650390625 -7754.45068359375 -15271.9853515625 C -7757.34521484375 -15270.7626953125 -7760.41357421875 -15270.142578125 -7763.57177734375 -15270.142578125 Z" stroke="none" fill="#2d2d3b"/>
    </g>
  </g>
</svg>
